<svg xmlns="http://www.w3.org/2000/svg" viewBox="0 0 21.7 21.7"><g id="b262e7c0-af93-4942-90d1-54dac8a318a4" data-name="Capa 2"><g id="fb47dc1d-86a3-4e72-86e3-9d76c78db24b" data-name="Capa 1"><path d="M15.82,0H5.87A5.87,5.87,0,0,0,0,5.87v10A5.88,5.88,0,0,0,5.87,21.7h10a5.89,5.89,0,0,0,5.88-5.88V5.87A5.88,5.88,0,0,0,15.82,0Zm-5,16.78a5.93,5.93,0,1,1,5.93-5.93A5.94,5.94,0,0,1,10.85,16.78ZM16.92,6.32a1.76,1.76,0,1,1,1.76-1.76A1.76,1.76,0,0,1,16.92,6.32Z" fill="#fff"/><path d="M10.85,6.68A4.17,4.17,0,1,0,15,10.85,4.17,4.17,0,0,0,10.85,6.68Z" fill="#fff"/><path d="M16.92,3.78a.79.79,0,1,0,.79.78A.78.78,0,0,0,16.92,3.78Z" fill="#fff"/></g></g></svg>