<svg xmlns="http://www.w3.org/2000/svg" viewBox="0 0 21.7 21.7"><g id="a6a51ba7-32ff-45c9-b503-cbe1741adb0e" data-name="Capa 2"><g id="fdb2b885-a023-497a-ae0f-2c21bea0ce91" data-name="Capa 1"><path d="M16.53,21.7H5.17l-.75-.11A5.43,5.43,0,0,1,0,16.25c0-3.6,0-7.19,0-10.78a5.14,5.14,0,0,1,.7-2.68A5.35,5.35,0,0,1,5.59,0c3.5,0,7,0,10.5,0a6.79,6.79,0,0,1,.78,0,5.44,5.44,0,0,1,4.63,4c.09.33.13.68.2,1V16.7c0,.13-.05.27-.08.41a5.35,5.35,0,0,1-3.95,4.38A10.89,10.89,0,0,1,16.53,21.7Zm1-4.16c0-.07,0-.13,0-.19,0-1.54,0-3.08,0-4.62a11.65,11.65,0,0,0-.2-2A2.26,2.26,0,0,0,16.1,9a4.48,4.48,0,0,0-2.63-.3,2.5,2.5,0,0,0-1.83,1.09s-.05,0-.11.09V8.62H9.13v8.92H11.7v-.23c0-1.36,0-2.72,0-4.07A6.53,6.53,0,0,1,11.84,12,1.36,1.36,0,0,1,13,10.86a2,2,0,0,1,.55,0,1.19,1.19,0,0,1,1.15.87,4.15,4.15,0,0,1,.21,1.2c0,1.46,0,2.91,0,4.36v.26Zm-10.35,0V8.62H4.15v8.92ZM5.66,4.07a1.58,1.58,0,1,0,0,3.16A1.62,1.62,0,0,0,7.25,5.64,1.6,1.6,0,0,0,5.66,4.07Z" fill="#fff"/></g></g></svg>