<svg xmlns="http://www.w3.org/2000/svg" viewBox="0 0 21.7 21.7"><g id="a6ff2efb-dd0e-48ea-8707-ec177a6f881e" data-name="Capa 2"><g id="baa536be-d85c-42f7-9d30-13e0bec864ee" data-name="Capa 1"><path d="M19,0H2.71A2.73,2.73,0,0,0,0,2.71V19a2.72,2.72,0,0,0,2.71,2.7H19A2.71,2.71,0,0,0,21.7,19V2.71A2.72,2.72,0,0,0,19,0ZM18,5.74l-5.57,5.58a2.29,2.29,0,0,1-3.22,0L3.65,5.74ZM2.89,6.57l4.29,4.28L2.89,15.09ZM3.76,16,8,11.61l.55.55a3.3,3.3,0,0,0,4.65,0l.63-.63L17.93,16Zm15.05-.87-4.29-4.24,4.29-4.28Z" fill="#fff"/></g></g></svg>