<svg xmlns="http://www.w3.org/2000/svg" viewBox="0 0 350.23 347.34"><g id="ff6174f1-9aaa-4b62-bf28-9a08b77e704e" data-name="Capa 2"><g id="e8da04cd-ce2d-46dd-b58e-152b16a5ff87" data-name="Capa 1"><path d="M233.69,247.25A19.17,19.17,0,0,0,220,241.84a21.12,21.12,0,0,0-14.88,6L180.88,272.1l-6.55-3.63c-14.41-8-34.14-18.94-55-39.81S87.47,188,79.45,173.52l-3.57-6.36,24.27-24.27c8-8.06,8.3-20.88.6-28.59L55.91,69.46a19.17,19.17,0,0,0-13.69-5.41,21.17,21.17,0,0,0-14.88,6l-11,11.08-1,1.7a69.83,69.83,0,0,0-10,17.61A73.05,73.05,0,0,0,.89,118.29c-5.78,48.05,16.37,92.17,76.49,152.27,71.24,71.23,130.78,76.78,147.34,76.78a49.46,49.46,0,0,0,5-.21,73.45,73.45,0,0,0,17.87-4.5,69.22,69.22,0,0,0,17.52-9.91l2.5-2,10.31-10.11c8-8,8.27-20.82.57-28.53Zm-47.46-82.93a78.13,78.13,0,0,0-35.41-20.27l-6.16-1.63-1.77,6.08a45.72,45.72,0,0,1-2.33,6.31l-3.34,7.11,7.65,2a57.57,57.57,0,0,1,41.46,40.42l1.29,4.61,9.64.55c1,.11,1.94.22,2.87.31l9.06.85-2.1-8.85A78.51,78.51,0,0,0,186.23,164.32Zm31.47-31.49a122.25,122.25,0,0,0-66.92-34.18l-8.93-1.5,1.41,8.92c.41,2.65.77,5.28,1.07,7.94l.57,4.7,4.73.93a101.44,101.44,0,0,1,82.71,89.24l.55,5,7.55,1.09c1.21.1,2.44.08,4.18.1l9.09.31-.72-7.42A121.86,121.86,0,0,0,217.7,132.83Zm34.18-34.18A171.28,171.28,0,0,0,140.4,48.82l-8.19-.51,1.36,8.07c.42,2.63.93,5.31,1.47,8.11l1,4.9,5,.3A149.88,149.88,0,0,1,280.63,208.4l.48,6.41,6.41-.37c1.51-.08,3-.21,5.2-.41l9.16-.72-.5-6.49A171.41,171.41,0,0,0,251.88,98.65ZM349.7,202.22A219.57,219.57,0,0,0,138.85.26L132.54,0l-.48,6.34c-.11,1.77-.19,3.52-.25,5.28l-.39,9.21,6.54.23A198.77,198.77,0,0,1,329,203.92l.54,6.62,6.66-.65c2.25-.24,4.54-.41,6.85-.59l7.18-.55Z"/></g></g></svg>