<svg xmlns="http://www.w3.org/2000/svg" xmlns:xlink="http://www.w3.org/1999/xlink" viewBox="0 0 71.8 113.36"><defs><linearGradient id="eabbdb10-0490-4822-9c65-57f8983cc29b" x1="30.73" y1="94.96" x2="67.17" y2="94.96" gradientUnits="userSpaceOnUse"><stop offset="0.05" stop-color="#bb98f4"/><stop offset="0.36" stop-color="#9d72e3"/><stop offset="1" stop-color="#71b9c4"/></linearGradient><linearGradient id="a2d01fbf-b07f-4036-9624-21200949434e" x1="34" y1="97.88" x2="55.37" y2="97.88" gradientUnits="userSpaceOnUse"><stop offset="0" stop-color="#c6cdf3"/><stop offset="0.38" stop-color="#c5cbf3"/><stop offset="0.61" stop-color="#c4c2f3"/><stop offset="0.79" stop-color="#c1b4f3"/><stop offset="0.95" stop-color="#bda1f4"/><stop offset="1" stop-color="#bb98f4"/></linearGradient><linearGradient id="e96a5d64-2e1b-472e-b7fe-9ece4ee80cfc" x1="44.19" y1="93.19" x2="65.23" y2="93.19" gradientUnits="userSpaceOnUse"><stop offset="0" stop-color="#0033a6"/><stop offset="0.39" stop-color="#54259b"/><stop offset="0.5" stop-color="#512496"/><stop offset="0.63" stop-color="#472387"/><stop offset="0.78" stop-color="#36206e"/><stop offset="0.94" stop-color="#1f1d4b"/><stop offset="1" stop-color="#151b3b"/></linearGradient><linearGradient id="f350764a-3c6f-46a6-a997-c113ec53d75a" x1="0" y1="46.3" x2="71.78" y2="46.3" xlink:href="#eabbdb10-0490-4822-9c65-57f8983cc29b"/><linearGradient id="ae370c01-bcd8-4120-9cf3-b21bf2f6e9a6" x1="0.1" y1="46.15" x2="30.75" y2="46.15" xlink:href="#a2d01fbf-b07f-4036-9624-21200949434e"/><linearGradient id="b1bb98d7-cfb1-4e2f-810d-dd35f2b08c15" x1="0.1" y1="39.41" x2="70.85" y2="39.41" xlink:href="#e96a5d64-2e1b-472e-b7fe-9ece4ee80cfc"/><linearGradient id="b3401cac-2259-4108-9d74-c61fc6bb9384" x1="25.27" y1="70.83" x2="49.66" y2="70.83" xlink:href="#eabbdb10-0490-4822-9c65-57f8983cc29b"/><linearGradient id="ee46dfd3-e646-466b-a26c-b8213071cf9c" x1="0.02" y1="72.81" x2="71.8" y2="72.81" xlink:href="#e96a5d64-2e1b-472e-b7fe-9ece4ee80cfc"/><linearGradient id="afe42056-3468-46c0-939a-3aa3ee8cd62b" x1="0.1" y1="34.94" x2="67.17" y2="34.94" xlink:href="#e96a5d64-2e1b-472e-b7fe-9ece4ee80cfc"/></defs><g style="isolation:isolate"><g id="a9af1de5-5b17-446b-8493-30d27a9383fc" data-name="Capa 2"><g id="b32a021d-4a5d-4272-8747-3b8f2a6f1019" data-name="Capa 1"><path d="M30.73,87.6,43,113.33s5.51.61,14.09-3.68,10.1-9.17,10.1-9.17L52.78,76.57S39.16,84.26,30.73,87.6Z" fill="url(#eabbdb10-0490-4822-9c65-57f8983cc29b)"/><path d="M34,86.19c3,6.14,9.44,19.69,13.1,26.86a34.62,34.62,0,0,0,8.27-2.6L40.75,82.71C38.33,83.93,36.3,85.17,34,86.19Z" fill="url(#a2d01fbf-b07f-4036-9624-21200949434e)"/><path d="M44.19,81.22l15.37,27.05a23.16,23.16,0,0,0,5.67-4.69C60.94,96.42,53.64,84.22,50,78.11,48.25,79.07,46.86,79.84,44.19,81.22Z" fill="url(#e96a5d64-2e1b-472e-b7fe-9ece4ee80cfc)" style="mix-blend-mode:overlay"/><path d="M.1,0,0,89.42a3.81,3.81,0,0,0,.26,1.42c.24.27,3.7,2,10.62,1.72,6.68-.24,16.38-2.62,28.42-8.64,13.9-6.94,22.84-13,27.4-18.26,4.11-4.74,4.83-7.58,4.87-7.7.72-2.45-.6-3.09-.6-3.09Z" fill="url(#f350764a-3c6f-46a6-a997-c113ec53d75a)"/><path d="M14,92.3.1,0,30.75,87.77A65.48,65.48,0,0,1,14,92.3Z" fill="url(#ae370c01-bcd8-4120-9cf3-b21bf2f6e9a6)"/><path d="M49,78.82.1,0,70.85,59.74S67.59,68.62,49,78.82Z" fill="url(#b1bb98d7-cfb1-4e2f-810d-dd35f2b08c15)" style="mix-blend-mode:overlay"/><path d="M48.9,64.58c-2.67-2.37-12.27.73-19.49,5.86s-4.71,9.85,5.32,6.12C45.43,72.59,52,67.32,48.9,64.58Z" fill="url(#b3401cac-2259-4108-9d74-c61fc6bb9384)" style="mix-blend-mode:multiply"/><path d="M.25,90.81s-4.82-10.24,29.87-27.1c36.71-17.85,41.65-8,41.65-8S74,66.87,39.3,83.92C10.93,97.88.25,90.81.25,90.81Z" fill="url(#ee46dfd3-e646-466b-a26c-b8213071cf9c)" style="mix-blend-mode:overlay"/><path d="M67.17,64.76.1,0,62.26,69.89A20.25,20.25,0,0,0,65,67.33Z" fill="url(#afe42056-3468-46c0-939a-3aa3ee8cd62b)" style="mix-blend-mode:overlay"/></g></g></g></svg>