<svg xmlns="http://www.w3.org/2000/svg" viewBox="0 0 24.4 24.4"><g id="a807c07a-d376-43f2-a875-e04c42798f7e" data-name="Capa 2"><g id="b3e0a888-e970-4380-8e93-41982e726298" data-name="Capa 1"><circle cx="12.2" cy="12.2" r="12.2"/><path d="M11,18.06V9.17h2.65v1.18c.19-.22.35-.44.55-.63A2.85,2.85,0,0,1,16,9a4.26,4.26,0,0,1,1.7.17A2.45,2.45,0,0,1,19.39,11c.12.46.16.94.24,1.42l0,.29V18H16.89v-.2c0-1.47,0-2.94,0-4.41a5.67,5.67,0,0,0-.12-1.08,1.13,1.13,0,0,0-.89-.93,2.21,2.21,0,0,0-.63,0,1.33,1.33,0,0,0-1.3,1.09,6.77,6.77,0,0,0-.13,1.19c0,1.47,0,2.94,0,4.41Z" fill="#fff"/><path d="M6.55,18.06V9.17H9.31V18s0,.06,0,.09Z" fill="#fff"/><path d="M9.53,6.35A1.6,1.6,0,1,1,8,4.73,1.61,1.61,0,0,1,9.53,6.35Z" fill="#fff"/></g></g></svg>