<svg xmlns="http://www.w3.org/2000/svg" viewBox="0 0 24.4 24.4"><g id="e40fffa4-479d-4994-aff9-28c5a7b70380" data-name="Capa 2"><g id="a2b4af62-8173-4837-b552-8b5dc2f43427" data-name="Capa 1"><circle cx="12.2" cy="12.2" r="12.2"/><path d="M14.52,19.39H10.23l-.27,0a7.49,7.49,0,0,1-1.7-.17A3.66,3.66,0,0,1,5.7,17.13,4.84,4.84,0,0,1,5.27,15c0-1.55,0-3.09,0-4.64A15.68,15.68,0,0,1,5.38,8.4,3.61,3.61,0,0,1,6.83,6,4.36,4.36,0,0,1,9.2,5.17c.34,0,.68,0,1-.06h4.26l1,.06a4.71,4.71,0,0,1,1.69.37,3.73,3.73,0,0,1,2.22,3c0,.24.05.49.08.74v5.74a.77.77,0,0,0,0,.15c0,.28-.05.57-.09.85a3.83,3.83,0,0,1-1.22,2.28,4.27,4.27,0,0,1-2.62,1Zm-2.15-1.27v0H13.5c.81,0,1.62,0,2.42-.12A2.35,2.35,0,0,0,18,16.11a6.81,6.81,0,0,0,.15-1.35c0-1.33,0-2.65,0-4a20.7,20.7,0,0,0-.11-2.08,2.36,2.36,0,0,0-2-2.14,8.4,8.4,0,0,0-1.51-.14c-1.34,0-2.67,0-4,0a14.4,14.4,0,0,0-1.86.12,2.34,2.34,0,0,0-2,2,7.43,7.43,0,0,0-.14,1.42c0,1.15,0,2.3,0,3.44,0,.81,0,1.61.11,2.41a2.37,2.37,0,0,0,1.19,1.9,3.12,3.12,0,0,0,1.46.39Z" fill="#fff"/><path d="M8.7,12.25a3.67,3.67,0,1,1,3.67,3.67A3.69,3.69,0,0,1,8.7,12.25Zm3.66,2.38A2.38,2.38,0,1,0,10,12.24,2.38,2.38,0,0,0,12.36,14.63Z" fill="#fff"/><path d="M17,8.44a.86.86,0,1,1-.86-.86A.85.85,0,0,1,17,8.44Z" fill="#fff"/></g></g></svg>