<svg xmlns="http://www.w3.org/2000/svg" xmlns:xlink="http://www.w3.org/1999/xlink" viewBox="0 0 101.9 122.32"><defs><linearGradient id="a88c41fa-ce2f-4f14-a7b8-c2be66e817f6" x1="27.84" y1="3.78" x2="134.93" y2="23.86" gradientUnits="userSpaceOnUse"><stop offset="0.05" stop-color="#cbff71"/><stop offset="0.56" stop-color="#63de53"/><stop offset="0.8" stop-color="#138d7a"/></linearGradient><linearGradient id="b9df9687-78b4-495e-891c-f53cf736da6b" x1="75.52" y1="113.42" x2="52.55" y2="6.23" gradientUnits="userSpaceOnUse"><stop offset="0" stop-color="#bfff97"/><stop offset="0.42" stop-color="#b7ff29"/><stop offset="0.47" stop-color="#b0fc2d"/><stop offset="0.54" stop-color="#9cf436"/><stop offset="0.62" stop-color="#7ce847"/><stop offset="0.68" stop-color="#63de53"/><stop offset="1" stop-color="#138d7a"/></linearGradient><linearGradient id="eb44dacd-aaf4-4021-9bda-3b7c63b832c3" x1="84.09" y1="115.22" x2="93.77" y2="12.63" gradientUnits="userSpaceOnUse"><stop offset="0.07" stop-color="#bfff00"/><stop offset="0.36" stop-color="#63de53"/><stop offset="0.37" stop-color="#62dd53"/><stop offset="0.55" stop-color="#40ba64"/><stop offset="0.72" stop-color="#27a170"/><stop offset="0.87" stop-color="#189277"/><stop offset="1" stop-color="#138d7a"/></linearGradient><linearGradient id="b81492f1-a664-46e5-a859-27bcf59c82b9" x1="64.06" y1="6.23" x2="64.06" y2="104.38" gradientUnits="userSpaceOnUse"><stop offset="0.05" stop-color="#e6ffbb"/><stop offset="0.18" stop-color="#e4ffba" stop-opacity="0.99"/><stop offset="0.3" stop-color="#defdb5" stop-opacity="0.94"/><stop offset="0.42" stop-color="#d5fbad" stop-opacity="0.87"/><stop offset="0.53" stop-color="#c7f7a3" stop-opacity="0.77"/><stop offset="0.64" stop-color="#b6f395" stop-opacity="0.63"/><stop offset="0.76" stop-color="#a0ed84" stop-opacity="0.47"/><stop offset="0.87" stop-color="#87e770" stop-opacity="0.28"/><stop offset="0.97" stop-color="#6be059" stop-opacity="0.06"/><stop offset="1" stop-color="#63de53" stop-opacity="0"/></linearGradient><linearGradient id="a3445a59-c092-43b6-8780-e19ab1399e2a" x1="89.31" y1="5.53" x2="89.31" y2="104.35" xlink:href="#b81492f1-a664-46e5-a859-27bcf59c82b9"/><linearGradient id="ff492b43-d436-4fc4-8b70-158c5125a8d1" x1="75.26" y1="113.34" x2="52.5" y2="7.16" xlink:href="#b9df9687-78b4-495e-891c-f53cf736da6b"/><linearGradient id="b18258b3-fe9b-4d12-8a0e-d4ff533a3629" x1="84.29" y1="115.17" x2="93.92" y2="13.11" xlink:href="#eb44dacd-aaf4-4021-9bda-3b7c63b832c3"/><linearGradient id="e4941d8f-1f20-4fe6-8686-d1ff04c6118a" x1="75.71" y1="31.17" x2="76.87" y2="8.26" xlink:href="#b81492f1-a664-46e5-a859-27bcf59c82b9"/><linearGradient id="a9c54a66-6521-4d56-bd4a-5fdfd06f3042" x1="29.04" y1="3.69" x2="133.5" y2="23.28" xlink:href="#a88c41fa-ce2f-4f14-a7b8-c2be66e817f6"/><linearGradient id="a2d6cb29-b4db-48f7-8279-8ea23f7349f8" x1="-23.57" y1="29.98" x2="83.52" y2="50.06" xlink:href="#a88c41fa-ce2f-4f14-a7b8-c2be66e817f6"/><linearGradient id="aa68d26b-765f-4ee5-8745-88eca9c7427d" x1="21.16" y1="112.74" x2="4.17" y2="33.46" xlink:href="#b9df9687-78b4-495e-891c-f53cf736da6b"/><linearGradient id="a6ad2cc0-fe74-4a50-af2d-5d3a0a12180a" x1="34.07" y1="113.64" x2="41.16" y2="38.42" xlink:href="#eb44dacd-aaf4-4021-9bda-3b7c63b832c3"/><linearGradient id="b9140cff-1465-43a9-bcb2-c5ff0ed3a4d9" x1="12.65" y1="34.27" x2="12.65" y2="105.4" xlink:href="#b81492f1-a664-46e5-a859-27bcf59c82b9"/><linearGradient id="bdc82449-6cc8-4c93-96da-b4dd8784b307" x1="37.9" y1="33.57" x2="37.9" y2="105.38" xlink:href="#b81492f1-a664-46e5-a859-27bcf59c82b9"/><linearGradient id="b0d3692c-e0b9-4a10-ba78-37d3524dd731" x1="20.9" y1="112.66" x2="4.13" y2="34.4" xlink:href="#b9df9687-78b4-495e-891c-f53cf736da6b"/><linearGradient id="beb42fa3-560e-4f08-96a5-53097085780b" x1="34.27" y1="113.59" x2="41.31" y2="38.89" xlink:href="#eb44dacd-aaf4-4021-9bda-3b7c63b832c3"/><linearGradient id="a27553e0-8b64-4d88-bbc8-d8b26c6f7d28" x1="24.31" y1="57.37" x2="25.47" y2="34.46" xlink:href="#b81492f1-a664-46e5-a859-27bcf59c82b9"/><linearGradient id="aef90128-7d68-4311-ad78-4e38dec794a6" x1="-22.37" y1="29.89" x2="82.1" y2="49.48" xlink:href="#a88c41fa-ce2f-4f14-a7b8-c2be66e817f6"/><linearGradient id="faf19bb1-418a-4656-b8c4-27ba4adc89c3" x1="29.04" y1="85.82" x2="133.5" y2="105.4" xlink:href="#a88c41fa-ce2f-4f14-a7b8-c2be66e817f6"/><linearGradient id="a9dbf31f-b025-4655-b185-964ca637a7b9" x1="-22.72" y1="86.21" x2="82.52" y2="105.94" xlink:href="#a88c41fa-ce2f-4f14-a7b8-c2be66e817f6"/><linearGradient id="b6e715f6-33f8-4eb6-b82b-a8f19a487860" x1="1.74" y1="63.82" x2="109.09" y2="83.95" xlink:href="#a88c41fa-ce2f-4f14-a7b8-c2be66e817f6"/><linearGradient id="a9fb26ea-25b5-46fc-986d-e36061733996" x1="44.43" y1="126.47" x2="31.78" y2="67.44" xlink:href="#b9df9687-78b4-495e-891c-f53cf736da6b"/><linearGradient id="bbc54daa-4285-4c8f-bd25-31d9552e30e6" x1="60.59" y1="126.67" x2="65.75" y2="71.98" xlink:href="#eb44dacd-aaf4-4021-9bda-3b7c63b832c3"/><linearGradient id="b3902216-0657-41c1-bda9-c807b0162c8e" x1="38.13" y1="68.82" x2="38.13" y2="120.37" xlink:href="#b81492f1-a664-46e5-a859-27bcf59c82b9"/><linearGradient id="b9bbe8b5-41cc-42bf-b1c7-2abc3058230b" x1="63.38" y1="68.82" x2="63.38" y2="120.37" xlink:href="#b81492f1-a664-46e5-a859-27bcf59c82b9"/><linearGradient id="b9cd9cdd-c0ef-49e5-b6ab-2415b7b47374" x1="44.17" y1="126.4" x2="31.74" y2="68.38" xlink:href="#b9df9687-78b4-495e-891c-f53cf736da6b"/><linearGradient id="bc7572c0-a3f3-4a47-92e0-a5f989eb2356" x1="60.79" y1="126.63" x2="65.9" y2="72.45" xlink:href="#eb44dacd-aaf4-4021-9bda-3b7c63b832c3"/><linearGradient id="a85fd9dc-e2b5-4504-869d-cda4bf55c97a" x1="49.77" y1="91.24" x2="50.93" y2="68.34" xlink:href="#b81492f1-a664-46e5-a859-27bcf59c82b9"/><linearGradient id="fdc87b3d-55df-4dfc-9749-6ac9a66ed7dd" x1="2.94" y1="63.73" x2="107.66" y2="83.37" xlink:href="#a88c41fa-ce2f-4f14-a7b8-c2be66e817f6"/><linearGradient id="f47b0f3a-7a2f-4b8b-8539-2202fa1b90a9" x1="2.94" y1="99.9" x2="107.66" y2="119.53" xlink:href="#a88c41fa-ce2f-4f14-a7b8-c2be66e817f6"/><linearGradient id="acab53b0-496c-470b-b0b2-e37d2de1bee1" x1="69.8" y1="112.16" x2="57.75" y2="55.9" xlink:href="#b9df9687-78b4-495e-891c-f53cf736da6b"/><linearGradient id="e6a2d5e7-46e9-49b8-bc58-83e72dee2e5a" x1="35.33" y1="112.29" x2="40.27" y2="59.92" xlink:href="#eb44dacd-aaf4-4021-9bda-3b7c63b832c3"/><linearGradient id="a08f4eae-69d2-4a51-b66d-ebac0414eb2e" x1="77.88" y1="113.15" x2="53.48" y2="-0.74" xlink:href="#b9df9687-78b4-495e-891c-f53cf736da6b"/><linearGradient id="aa8bcc8e-6d5c-4589-a409-e65245d7b4d9" x1="83.07" y1="115.65" x2="93.59" y2="4.08" xlink:href="#eb44dacd-aaf4-4021-9bda-3b7c63b832c3"/><linearGradient id="b647d582-d76b-494c-b785-36221db8dd32" x1="23.52" y1="112.46" x2="5.1" y2="26.49" gradientUnits="userSpaceOnUse"><stop offset="0" stop-color="#bfff97" stop-opacity="0"/><stop offset="0.42" stop-color="#b7ff29" stop-opacity="0"/><stop offset="0.45" stop-color="#b4fe2a" stop-opacity="0.03"/><stop offset="0.48" stop-color="#adfb2e" stop-opacity="0.12"/><stop offset="0.53" stop-color="#a0f634" stop-opacity="0.27"/><stop offset="0.58" stop-color="#8fef3d" stop-opacity="0.47"/><stop offset="0.63" stop-color="#7ae748" stop-opacity="0.73"/><stop offset="0.68" stop-color="#63de53"/><stop offset="1" stop-color="#138d7a"/></linearGradient><linearGradient id="a45b55a4-6f70-4f54-8c2d-cbc60b91a737" x1="33.05" y1="114.07" x2="40.99" y2="29.86" xlink:href="#eb44dacd-aaf4-4021-9bda-3b7c63b832c3"/></defs><g style="isolation:isolate"><g id="af2c7ee9-661b-4c18-910d-9ceb439b8e87" data-name="Capa 2"><g id="aa4a2dbe-5630-4bfa-8a7f-c397ec257c6b" data-name="Capa 1"><polygon points="76.71 25.89 101.9 12.26 76.71 0 51.41 12.92 76.71 25.89" fill="url(#a88c41fa-ce2f-4f14-a7b8-c2be66e817f6)"/><polygon points="51.41 93.97 51.41 12.92 76.71 25.89 76.71 108.1 51.41 93.97" fill="url(#b9df9687-78b4-495e-891c-f53cf736da6b)"/><polygon points="101.9 12.26 76.71 25.89 76.71 108.1 101.9 93.97 101.9 12.26" fill="url(#eb44dacd-aaf4-4021-9bda-3b7c63b832c3)"/><polygon points="51.41 93.97 51.41 12.92 76.71 25.89 76.71 108.1 51.41 93.97" fill="url(#b81492f1-a664-46e5-a859-27bcf59c82b9)"/><polygon points="101.9 12.26 76.71 25.89 76.71 108.1 101.9 93.97 101.9 12.26" fill="url(#a3445a59-c092-43b6-8780-e19ab1399e2a)"/><polygon points="51.41 94.2 51.41 13.78 76.31 26.1 76.31 108.1 51.41 94.2" fill="url(#ff492b43-d436-4fc4-8b70-158c5125a8d1)"/><polygon points="101.9 12.73 77.05 26.17 77.05 108.1 101.9 94.17 101.9 12.73" fill="url(#b18258b3-fe9b-4d12-8a0e-d4ff533a3629)"/><polygon points="76.71 25.89 101.9 12.26 76.71 0 51.41 12.92 76.71 25.89" fill="url(#e4941d8f-1f20-4fe6-8686-d1ff04c6118a)"/><polygon points="76.71 25.25 101.29 11.96 76.71 0 52.02 12.62 76.71 25.25" fill="url(#a9c54a66-6521-4d56-bd4a-5fdfd06f3042)"/><polygon points="25.3 52.09 50.5 38.46 25.3 26.2 0 39.12 25.3 52.09" fill="url(#a2d6cb29-b4db-48f7-8279-8ea23f7349f8)"/><polygon points="0 93.97 0 39.12 25.3 52.09 25.3 108.1 0 93.97" fill="url(#aa68d26b-765f-4ee5-8745-88eca9c7427d)"/><polygon points="50.5 38.46 25.3 52.09 25.3 108.1 50.5 93.97 50.5 38.46" fill="url(#a6ad2cc0-fe74-4a50-af2d-5d3a0a12180a)"/><polygon points="0 93.97 0 39.12 25.3 52.09 25.3 108.1 0 93.97" fill="url(#b9140cff-1465-43a9-bcb2-c5ff0ed3a4d9)"/><polygon points="50.5 38.46 25.3 52.09 25.3 108.1 50.5 93.97 50.5 38.46" fill="url(#bdc82449-6cc8-4c93-96da-b4dd8784b307)"/><polygon points="0 94.2 0 39.98 24.9 52.31 24.9 108.1 0 94.2" fill="url(#b0d3692c-e0b9-4a10-ba78-37d3524dd731)"/><polygon points="50.5 38.93 25.64 52.37 25.64 108.1 50.5 94.17 50.5 38.93" fill="url(#beb42fa3-560e-4f08-96a5-53097085780b)"/><polygon points="25.3 52.09 50.5 38.46 25.3 26.2 0 39.12 25.3 52.09" fill="url(#a27553e0-8b64-4d88-bbc8-d8b26c6f7d28)"/><polygon points="25.3 51.46 49.88 38.16 25.3 26.2 0.62 38.82 25.3 51.46" fill="url(#aef90128-7d68-4311-ad78-4e38dec794a6)"/><polygon points="76.71 107.38 101.29 94.09 76.71 82.13 52.02 94.74 76.71 107.38" fill="url(#faf19bb1-418a-4656-b8c4-27ba4adc89c3)" style="mix-blend-mode:screen"/><polygon points="25.3 106.86 49.88 95.53 25.3 83.57 0.62 94.22 25.3 106.86" fill="url(#a9dbf31f-b025-4655-b185-964ca637a7b9)" style="mix-blend-mode:screen"/><polygon points="50.78 85.96 75.98 72.34 50.78 60.08 25.48 72.34 50.78 85.96" fill="url(#b6e715f6-33f8-4eb6-b82b-a8f19a487860)"/><polygon points="25.48 108.2 25.48 72.34 50.78 85.96 50.78 122.32 25.48 108.2" fill="url(#a9fb26ea-25b5-46fc-986d-e36061733996)"/><polygon points="75.98 72.34 50.78 85.96 50.78 122.32 75.98 108.2 75.98 72.34" fill="url(#bbc54daa-4285-4c8f-bd25-31d9552e30e6)"/><polygon points="25.48 108.2 25.48 72.34 50.78 85.96 50.78 122.32 25.48 108.2" fill="url(#b3902216-0657-41c1-bda9-c807b0162c8e)"/><polygon points="75.98 72.34 50.78 85.96 50.78 122.32 75.98 108.2 75.98 72.34" fill="url(#b9bbe8b5-41cc-42bf-b1c7-2abc3058230b)"/><polygon points="25.48 108.42 25.48 73.2 50.39 86.18 50.39 122.32 25.48 108.42" fill="url(#b9cd9cdd-c0ef-49e5-b6ab-2415b7b47374)"/><polygon points="75.98 72.8 51.13 86.24 51.13 122.32 75.98 108.39 75.98 72.8" fill="url(#bc7572c0-a3f3-4a47-92e0-a5f989eb2356)"/><polygon points="50.78 85.96 75.98 72.34 50.78 60.08 25.48 72.34 50.78 85.96" fill="url(#a85fd9dc-e2b5-4504-869d-cda4bf55c97a)"/><polygon points="50.78 85.33 75.36 72.04 50.78 60.08 26.1 72.04 50.78 85.33" fill="url(#fdc87b3d-55df-4dfc-9749-6ac9a66ed7dd)"/><polygon points="50.78 121.49 75.36 108.2 50.78 96.24 26.1 108.2 50.78 121.49" fill="url(#f47b0f3a-7a2f-4b8b-8539-2202fa1b90a9)" style="mix-blend-mode:screen"/><polygon points="51.41 95.88 51.41 60.64 76.31 72.96 76.31 108.1 51.41 95.88" fill="url(#acab53b0-496c-470b-b0b2-e37d2de1bee1)" style="mix-blend-mode:lighten"/><polygon points="50.5 60.31 25.64 72.36 25.64 108.1 50.5 94.17 50.5 60.31" fill="url(#e6a2d5e7-46e9-49b8-bc58-83e72dee2e5a)" style="mix-blend-mode:lighten"/><g style="mix-blend-mode:soft-light"><polygon points="51.41 94.2 51.41 13.78 76.31 1.21 76.31 108.1 51.41 94.2" fill="url(#a08f4eae-69d2-4a51-b66d-ebac0414eb2e)"/><polygon points="101.9 12.73 77.05 1.27 77.05 108.1 101.9 94.17 101.9 12.73" fill="url(#aa8bcc8e-6d5c-4589-a409-e65245d7b4d9)"/><polygon points="0 94.2 0 39.98 24.9 27.41 24.9 108.1 0 94.2" fill="url(#b647d582-d76b-494c-b785-36221db8dd32)"/><polygon points="50.5 38.93 25.64 27.48 25.64 108.1 50.5 94.17 50.5 38.93" fill="url(#a45b55a4-6f70-4f54-8c2d-cbc60b91a737)"/></g></g></g></g></svg>