<svg xmlns="http://www.w3.org/2000/svg" viewBox="0 0 24.4 24.4"><g id="bda50e7c-3758-4a24-8aab-b21b52b86eec" data-name="Capa 2"><g id="f9d9bd21-f7d2-46c2-991f-d818ac259059" data-name="Capa 1"><circle cx="12.2" cy="12.2" r="12.2"/><path d="M8,12.85V10.58c.1-.28.14-.31.43-.31h1.7a1.61,1.61,0,0,1,0-.22c0-.66,0-1.31,0-2a3.05,3.05,0,0,1,1.12-2.17,3.21,3.21,0,0,1,1.94-.71c.66,0,1.32,0,2,0,.3,0,.39.09.39.39V7.5c0,.32-.08.4-.41.41l-1.41,0a.59.59,0,0,0-.67.62c0,.55,0,1.1,0,1.65,0,0,0,0,0,0h2c.31,0,.41.1.41.41v2.1c0,.29-.09.38-.37.38H13.08v.22c0,1.82,0,3.64,0,5.46,0,.21,0,.4-.26.48H10.35c-.21-.07-.25-.23-.25-.43,0-1.83,0-3.66,0-5.49v-.22H8.42C8.12,13.15,8.08,13.12,8,12.85Z" fill="#fff"/></g></g></svg>