<svg xmlns="http://www.w3.org/2000/svg" xmlns:xlink="http://www.w3.org/1999/xlink" viewBox="0 0 109.57 112.39"><defs><linearGradient id="f033e5ae-6158-4df9-88b7-179308b75e6d" x1="66.72" y1="9.48" x2="56.98" y2="91.07" gradientTransform="translate(-4.95 4.74) rotate(-4.63)" gradientUnits="userSpaceOnUse"><stop offset="0.05" stop-color="#fca496"/><stop offset="0.36" stop-color="#fc858b"/><stop offset="1" stop-color="#f2426e"/></linearGradient><linearGradient id="f31b0098-3451-4be7-a64c-4b54b59d785b" x1="65.11" y1="69.53" x2="109.5" y2="69.53" gradientTransform="translate(-4.95 4.74) rotate(-4.63)" gradientUnits="userSpaceOnUse"><stop offset="0.13" stop-color="#923846"/><stop offset="0.52" stop-color="#f02c5e"/><stop offset="1" stop-color="#ff7a78"/></linearGradient><linearGradient id="b9d7e692-6034-4025-b67f-d901b535f70c" x1="57" y1="71.07" x2="-21.44" y2="66.69" gradientTransform="translate(-4.95 4.74) rotate(-4.63)" gradientUnits="userSpaceOnUse"><stop offset="0" stop-color="#ca2a52"/><stop offset="1" stop-color="#800c1e"/></linearGradient><linearGradient id="f98a78bf-bb53-4a56-8a63-16685ed93073" x1="40.07" y1="69.49" x2="35.61" y2="75.53" gradientTransform="translate(-4.95 4.74) rotate(-4.63)" gradientUnits="userSpaceOnUse"><stop offset="0.05" stop-color="#ffaaa9"/><stop offset="0.36" stop-color="#ff9997"/><stop offset="1" stop-color="#f35079"/></linearGradient><linearGradient id="a99612db-87d8-4a37-af96-ccb500374067" x1="65.11" y1="72.65" x2="112.22" y2="72.65" xlink:href="#f98a78bf-bb53-4a56-8a63-16685ed93073"/><linearGradient id="ec3a6fb4-1762-4bc0-98db-77014d52657e" x1="1.4" y1="27.68" x2="19.74" y2="27.68" gradientTransform="translate(-4.95 4.74) rotate(-4.63)" gradientUnits="userSpaceOnUse"><stop offset="0" stop-color="#e33159"/><stop offset="1" stop-color="#ffa3a2"/></linearGradient><linearGradient id="a07c9631-adcc-4882-b842-585b940747d6" x1="13.98" y1="5.74" x2="71.38" y2="25.03" xlink:href="#ec3a6fb4-1762-4bc0-98db-77014d52657e"/><linearGradient id="bb579309-7d1e-4f73-86c0-daced735a09f" x1="13.02" y1="-0.28" x2="113.67" y2="17.61" xlink:href="#ec3a6fb4-1762-4bc0-98db-77014d52657e"/><linearGradient id="bd3fd974-9ac4-49ef-add7-e8c7e8d90fd3" x1="19.85" y1="20.36" x2="91.56" y2="8.54" xlink:href="#ec3a6fb4-1762-4bc0-98db-77014d52657e"/><linearGradient id="a595d6c0-0da7-4d09-a62b-84b3ebea9e00" x1="50.69" y1="13.63" x2="73.4" y2="13.63" gradientTransform="translate(-4.95 4.74) rotate(-4.63)" gradientUnits="userSpaceOnUse"><stop offset="0" stop-color="#ffe6ec"/><stop offset="1" stop-color="#fdf8f6"/></linearGradient><linearGradient id="f2833d98-6e98-4361-a85a-ff5b07d0f240" x1="40.78" y1="21.44" x2="64.62" y2="21.44" gradientTransform="translate(-4.95 4.74) rotate(-4.63)" gradientUnits="userSpaceOnUse"><stop offset="0" stop-color="#ffc2cf"/><stop offset="0.43" stop-color="#ffc0cd"/><stop offset="0.67" stop-color="#ffbbc4"/><stop offset="0.87" stop-color="#ffb2b6"/><stop offset="1" stop-color="#ffaaa9"/></linearGradient><linearGradient id="b789c6dd-f638-4c9d-b80e-1aee14231968" x1="64.62" y1="19.54" x2="88.46" y2="19.54" xlink:href="#f2833d98-6e98-4361-a85a-ff5b07d0f240"/><linearGradient id="e5396185-ff4d-4c6e-b0ba-2f15a83dcf5b" x1="92.23" y1="19.71" x2="112.22" y2="19.71" gradientTransform="translate(-4.95 4.74) rotate(-4.63)" gradientUnits="userSpaceOnUse"><stop offset="0" stop-color="#f13b69"/><stop offset="0.39" stop-color="#f02c5e"/><stop offset="0.49" stop-color="#eb2a5b"/><stop offset="0.6" stop-color="#dc2652"/><stop offset="0.73" stop-color="#c31f44"/><stop offset="0.87" stop-color="#a01430"/><stop offset="1" stop-color="#79091a"/></linearGradient><linearGradient id="be28b7f8-de66-44f7-b738-b6b90009867f" x1="97.77" y1="-5.78" x2="99.47" y2="43.04" xlink:href="#ec3a6fb4-1762-4bc0-98db-77014d52657e"/><linearGradient id="fc5ca062-d103-4f23-97c6-af5dc1fa0a6a" x1="97.51" y1="17.99" x2="66.4" y2="4.25" gradientTransform="matrix(1, 0, 0, 1, 0, 0)" xlink:href="#f31b0098-3451-4be7-a64c-4b54b59d785b"/><linearGradient id="f834a45b-5d9e-440e-8e4c-086af4722803" x1="133.72" y1="30.84" x2="51.94" y2="3.48" gradientTransform="matrix(1, 0, 0, 1, 0, 0)" xlink:href="#f31b0098-3451-4be7-a64c-4b54b59d785b"/><linearGradient id="b262e48e-2ae4-4178-bca9-ba42056b58f6" x1="77.6" y1="7.61" x2="92.23" y2="7.61" xlink:href="#f98a78bf-bb53-4a56-8a63-16685ed93073"/><linearGradient id="f9496bd3-2ed9-43c5-a6f3-9e9fdcd646a5" x1="97.78" y1="16.04" x2="72.93" y2="3.61" xlink:href="#ec3a6fb4-1762-4bc0-98db-77014d52657e"/><linearGradient id="f4199518-8385-487a-9114-b1108bd8c5f6" x1="6.82" y1="27.23" x2="71.58" y2="35.99" xlink:href="#f31b0098-3451-4be7-a64c-4b54b59d785b"/><linearGradient id="fade6e44-3210-4638-aaff-a1ee7ca612d7" x1="-14.61" y1="44.38" x2="56.83" y2="12.18" xlink:href="#f31b0098-3451-4be7-a64c-4b54b59d785b"/><linearGradient id="b0e1dfb7-58c1-4443-bf25-4e72911383ab" x1="-3.86" y1="36.88" x2="60.02" y2="20.09" xlink:href="#f31b0098-3451-4be7-a64c-4b54b59d785b"/><linearGradient id="aaf234fb-ca11-4048-86c1-849fa3747974" x1="2.52" y1="8.39" x2="77.38" y2="50.18" xlink:href="#f31b0098-3451-4be7-a64c-4b54b59d785b"/><linearGradient id="b44a87d4-3700-4ea8-9a6a-f1278d7b9c66" x1="-3.07" y1="10.62" x2="52.36" y2="31.28" xlink:href="#f31b0098-3451-4be7-a64c-4b54b59d785b"/><linearGradient id="e269b399-798c-4511-9206-87a98b6d03c5" x1="25.28" y1="40.42" x2="40.78" y2="40.42" gradientTransform="translate(-4.95 4.74) rotate(-4.63)" gradientUnits="userSpaceOnUse"><stop offset="0.12" stop-color="#8b2c3b"/><stop offset="1" stop-color="#cb365c"/></linearGradient><linearGradient id="ae799352-5de8-41fe-af05-1212216d6d11" x1="74.48" y1="62.92" x2="78.68" y2="-11.45" xlink:href="#f033e5ae-6158-4df9-88b7-179308b75e6d"/><linearGradient id="b08460fc-d7f2-46c5-9e67-f0a841432c48" x1="59.57" y1="0.68" x2="67.12" y2="109.79" xlink:href="#f033e5ae-6158-4df9-88b7-179308b75e6d"/><linearGradient id="e61e400e-e0b6-4c94-83e8-be3ab6525789" x1="40.78" y1="38.56" x2="61.38" y2="38.56" gradientTransform="translate(-4.95 4.74) rotate(-4.63)" gradientUnits="userSpaceOnUse"><stop offset="0.05" stop-color="#fca496"/><stop offset="0.27" stop-color="#fc858b"/><stop offset="0.43" stop-color="#fb7d88"/><stop offset="0.68" stop-color="#f8687e"/><stop offset="0.98" stop-color="#f2456f"/><stop offset="1" stop-color="#f2426e"/></linearGradient><linearGradient id="a736f85a-ae57-4169-87ad-57285b7b004b" x1="70.63" y1="27.26" x2="73.66" y2="71.58" xlink:href="#e61e400e-e0b6-4c94-83e8-be3ab6525789"/><linearGradient id="eb33b87d-68a2-4962-bd52-91dae6b4070a" x1="130.19" y1="23.8" x2="55.11" y2="63.04" xlink:href="#e5396185-ff4d-4c6e-b0ba-2f15a83dcf5b"/><linearGradient id="a9538be6-a343-4fb3-a45e-c34f487e5687" x1="65.11" y1="72.65" x2="109.5" y2="72.65" xlink:href="#e5396185-ff4d-4c6e-b0ba-2f15a83dcf5b"/><linearGradient id="febf77eb-c8a8-41bf-8dd0-baa29438f4db" x1="96.43" y1="34.67" x2="109.5" y2="34.67" gradientTransform="translate(-4.95 4.74) rotate(-4.63)" gradientUnits="userSpaceOnUse"><stop offset="0" stop-color="#f13b69"/><stop offset="0.53" stop-color="#f02c5e"/><stop offset="0.61" stop-color="#eb2a5b"/><stop offset="0.7" stop-color="#dc2652"/><stop offset="0.8" stop-color="#c31f44"/><stop offset="0.9" stop-color="#a01430"/><stop offset="1" stop-color="#79091a"/></linearGradient><linearGradient id="f2d8cddb-78fb-4b9f-b684-9906a16b09f9" x1="18.41" y1="37.53" x2="34.1" y2="90.43" gradientTransform="translate(-4.95 4.74) rotate(-4.63)" gradientUnits="userSpaceOnUse"><stop offset="0" stop-color="#96033c"/><stop offset="0.68" stop-color="#ca2a52"/><stop offset="1" stop-color="#d56b69"/></linearGradient><linearGradient id="bb4fc801-b309-4757-bd6d-7016ac98dc40" x1="32.21" y1="76.7" x2="61.59" y2="76.7" gradientTransform="translate(-4.95 4.74) rotate(-4.63)" gradientUnits="userSpaceOnUse"><stop offset="0" stop-color="#8b2c3b"/><stop offset="1" stop-color="#cb365c"/></linearGradient><linearGradient id="a670f9d2-1ff3-43fb-930b-aa150da5f578" x1="60.49" y1="54.59" x2="70.73" y2="119.07" gradientTransform="matrix(1, 0, 0, 1, 0, 0)" xlink:href="#f033e5ae-6158-4df9-88b7-179308b75e6d"/></defs><g id="bf6cd7d9-cb94-4b4f-870e-c7d7524ba895" data-name="Capa 2"><g id="b1f31199-c211-4183-b4fc-686b728fecab" data-name="Capa 1"><polygon points="37.98 29.79 69.08 112.39 85.3 23.32 37.98 29.79" fill="url(#f033e5ae-6158-4df9-88b7-179308b75e6d)"/><polygon points="85.3 23.32 106.78 27.85 69.08 112.39 85.3 23.32" fill="url(#f31b0098-3451-4be7-a64c-4b54b59d785b)"/><polygon points="37.98 29.79 69.08 112.39 2.44 47.2 37.98 29.79" fill="url(#b9d7e692-6034-4025-b67f-d901b535f70c)"/><polygon points="2.44 47.2 69.08 112.39 0 48.65 2.44 47.2" fill="url(#f98a78bf-bb53-4a56-8a63-16685ed93073)"/><polygon points="106.78 27.85 109.56 28.67 69.08 112.39 106.78 27.85" fill="url(#a99612db-87d8-4a37-af96-ccb500374067)"/><polygon points="2.44 47.2 0 48.65 15.63 14.31 2.44 47.2" fill="url(#ec3a6fb4-1762-4bc0-98db-77014d52657e)"/><polygon points="15.63 14.31 26.86 22.08 34.71 7.19 15.63 14.31" fill="url(#a07c9631-adcc-4882-b842-585b940747d6)"/><polygon points="34.71 7.19 55.51 0 46.74 15.07 34.71 7.19" fill="url(#bb579309-7d1e-4f73-86c0-daced735a09f)"/><polygon points="37.98 29.79 46.74 15.07 34.71 7.19 26.86 22.08 37.98 29.79" fill="url(#bd3fd974-9ac4-49ef-add7-e8c7e8d90fd3)"/><polygon points="55.51 0 46.74 15.07 61.64 26.55 69.18 10.75 55.51 0" fill="url(#a595d6c0-0da7-4d09-a62b-84b3ebea9e00)"/><polygon points="37.98 29.79 61.64 26.55 46.74 15.07 37.98 29.79" fill="url(#f2833d98-6e98-4361-a85a-ff5b07d0f240)"/><polygon points="85.3 23.32 69.18 10.75 61.64 26.55 85.3 23.32" fill="url(#b789c6dd-f638-4c9d-b80e-1aee14231968)"/><polygon points="109.56 28.67 87.48 3.62 87.94 9.24 106.78 27.85 109.56 28.67" fill="url(#e5396185-ff4d-4c6e-b0ba-2f15a83dcf5b)"/><polygon points="85.3 23.32 87.94 9.24 106.78 27.85 85.3 23.32" fill="url(#be28b7f8-de66-44f7-b738-b6b90009867f)"/><polygon points="55.51 0 69.18 10.75 72.66 1.73 55.51 0" fill="url(#fc5ca062-d103-4f23-97c6-af5dc1fa0a6a)"/><polygon points="85.3 23.32 87.27 12.8 72.66 1.73 69.18 10.75 85.3 23.32" fill="url(#f834a45b-5d9e-440e-8e4c-086af4722803)"/><polygon points="87.48 3.62 87.94 9.24 72.66 1.73 87.48 3.62" fill="url(#b262e48e-2ae4-4178-bca9-ba42056b58f6)"/><polygon points="87.27 12.8 72.66 1.73 87.94 9.24 87.27 12.8" fill="url(#f9496bd3-2ed9-43c5-a6f3-9e9fdcd646a5)"/><polygon points="37.98 29.79 15.12 27.16 23.03 37.12 37.98 29.79" fill="url(#f4199518-8385-487a-9114-b1108bd8c5f6)"/><polygon points="2.44 47.2 10.07 28.18 15.12 27.16 9.61 43.69 2.44 47.2" fill="url(#fade6e44-3210-4638-aaff-a1ee7ca612d7)"/><polygon points="15.12 27.16 9.61 43.69 23.03 37.12 15.12 27.16" fill="url(#b0e1dfb7-58c1-4443-bf25-4e72911383ab)"/><polygon points="15.12 27.16 15.63 14.31 37.98 29.79 15.12 27.16" fill="url(#aaf234fb-ca11-4048-86c1-849fa3747974)"/><polygon points="10.07 28.18 15.12 27.16 15.63 14.31 10.07 28.18" fill="url(#b44a87d4-3700-4ea8-9a6a-f1278d7b9c66)"/><polygon points="23.03 37.12 35.23 54.08 37.98 29.79 23.03 37.12" fill="url(#e269b399-798c-4511-9206-87a98b6d03c5)"/><polygon points="61.64 26.55 76.77 44.78 85.3 23.32 61.64 26.55" fill="url(#ae799352-5de8-41fe-af05-1212216d6d11)"/><path d="M53.22,70.25c-.23-.59,8.42-43.7,8.42-43.7L76.76,70.21l-7.68,42.18Z" fill="url(#b08460fc-d7f2-46c5-9e67-f0a841432c48)"/><polygon points="49.81 28.17 45.66 50.16 37.98 29.79 49.81 28.17" fill="url(#e61e400e-e0b6-4c94-83e8-be3ab6525789)"/><polygon points="78.7 59.53 70.57 37.32 61.64 26.55 76.76 70.21 78.7 59.53" fill="url(#a736f85a-ae57-4169-87ad-57285b7b004b)"/><polygon points="76.76 70.21 96.04 25.59 85.3 23.32 76.76 70.21" fill="url(#eb33b87d-68a2-4962-bd52-91dae6b4070a)"/><polygon points="72.81 91.93 69.08 112.39 106.78 27.85 72.81 91.93" fill="url(#a9538be6-a343-4fb3-a45e-c34f487e5687)"/><polygon points="96.04 25.59 94.42 37.25 106.78 27.85 96.04 25.59" fill="url(#febf77eb-c8a8-41bf-8dd0-baa29438f4db)"/><polygon points="33.24 77.33 23.03 37.12 9.61 43.69 33.24 77.33" fill="url(#f2d8cddb-78fb-4b9f-b684-9906a16b09f9)"/><polygon points="35.23 54.08 59.06 85.78 64.58 100.43 33.24 77.33 35.23 54.08" fill="url(#bb4fc801-b309-4757-bd6d-7016ac98dc40)"/><polygon points="59.06 85.78 69.08 112.39 72.81 91.93 64.76 65.11 59.06 85.78" fill="url(#a670f9d2-1ff3-43fb-930b-aa150da5f578)"/></g></g></svg>