<svg xmlns="http://www.w3.org/2000/svg" viewBox="0 0 227.45 50.81"><g id="af80bd37-659b-4c81-a822-ade807a8b931" data-name="Capa 2"><g id="eb3a7491-11cf-4625-b5ce-4d6ffcca956d" data-name="Capa 1"><path d="M220.67,33.56h-4.22V30.11h4.19c1.56,0,2.94-.86,2.94-2.46,0-3.54-9.77-3.25-9.77-9.71,0-3.37,2.92-5.86,6.93-5.86,2.43,0,6.18,1.14,6.18,4.1A1.93,1.93,0,0,1,225,18.11h-1.52v-.93c0-1-1.38-1.61-2.76-1.61-1.75,0-3,.9-3,2.22,0,3.54,9.78,2.84,9.78,9.66C227.45,30.72,225,33.51,220.67,33.56ZM131,11.84a9.78,9.78,0,0,0-4.24.92l1.08,3a6.32,6.32,0,0,1,2.36-.42c2.72,0,4.8,1.59,4.8,5.14v9.11a4,4,0,0,0,4,4V20.31C139,14.74,136,11.84,131,11.84Zm-12.24,0h-.31c-4.93,0-8,2.9-8,8.47v9.08a.65.65,0,0,1-.72.72h-1.33v3.43h3.78c1.56,0,2.16-.86,2.16-1.86,0-.43,0-.73,0-.73h0l0-.77v-.29c0-.11,0-.21,0-.32V20.46c0-3.55,2.08-5.14,4.8-5.14a7,7,0,0,1,.8,0ZM16.73,28.93a11.73,11.73,0,0,1-7.28,2.23c-4.25,0-6.21-1.47-6.21-3.7S5.29,24,8.41,24H14V21.41H8.53c-2.81,0-4.37-1.17-4.37-3.31S6,14.53,9.87,14.53A12.77,12.77,0,0,1,16,16l.89-2.44A15.08,15.08,0,0,0,9.75,11.9c-5.84,0-8.65,2.75-8.65,6A5,5,0,0,0,4,22.6,5.27,5.27,0,0,0,.18,27.68c0,3.54,3.09,6.11,9.11,6.11,3.52,0,6.64-.92,8.47-2.47Zm12.93-17c-3.12,0-5.53,1-7,3.27v-3H19.69V33.55h3.06V21.41c0-4.62,2.51-6.79,6.3-6.79,3.55,0,5.78,2.11,5.78,6.33v12.6h3V20.86C37.86,15.05,34.74,11.9,29.66,11.9ZM51,33.79c5.66,0,8.29-2.81,8.29-6.08,0-7.86-13-4.59-13-9.82,0-1.87,1.56-3.39,5.2-3.39a11,11,0,0,1,5.87,1.74l1-2.45a12.6,12.6,0,0,0-6.88-1.89c-5.62,0-8.19,2.81-8.19,6.11,0,8,13,4.65,13,9.88,0,1.87-1.59,3.3-5.29,3.3a11,11,0,0,1-7.06-2.47L42.76,31.1C44.47,32.69,47.68,33.79,51,33.79ZM76.7,12.14V24.28c0,4.62-2.53,6.79-6.23,6.79-3.49,0-5.72-2.11-5.72-6.33V12.14H61.69V24.83c0,5.81,3.12,9,8.13,9,3.06,0,5.48-1,7-3.27v3h2.93V12.14ZM90.56,33.79c5.66,0,8.29-2.81,8.29-6.08,0-7.86-13-4.59-13-9.82,0-1.87,1.56-3.39,5.2-3.39A11,11,0,0,1,97,16.24l1-2.45a12.6,12.6,0,0,0-6.88-1.89c-5.63,0-8.19,2.81-8.19,6.11,0,8,13,4.65,13,9.88,0,1.87-1.59,3.3-5.29,3.3a11,11,0,0,1-7.06-2.47L82.37,31.1C84.08,32.69,87.29,33.79,90.56,33.79Zm49.8-.24h2.43a2.19,2.19,0,0,0,2.55-1.78L146.69,28h7.38l1.35,3.82A2.21,2.21,0,0,0,158,33.55h2.4V30.14h-.49a.84.84,0,0,1-1-.68L152.5,11.73h-2.33a2.69,2.69,0,0,0-2.53,1.76l-5.84,16a.83.83,0,0,1-1,.68h-.49Zm7.25-8.92,1.88-5.47c.4-1.19.86-3.25.86-3.25h.06s.46,2.06.86,3.25l1.87,5.47Zm47.14,8.92h2.43a2.19,2.19,0,0,0,2.55-1.78L201.08,28h7.38l1.35,3.82a2.21,2.21,0,0,0,2.58,1.78h2.4V30.14h-.49a.84.84,0,0,1-1-.68l-6.45-17.73h-2.33A2.67,2.67,0,0,0,202,13.49l-5.84,16a.84.84,0,0,1-1,.68h-.49ZM202,24.63l1.88-5.47c.4-1.19.86-3.25.86-3.25h.06s.46,2.06.86,3.25l1.88,5.47ZM130.25,38.48a5.88,5.88,0,0,0,5.52,3.86h0l-14-38.48A5.85,5.85,0,0,0,116.24,0h0Zm58.14-26.75a10.49,10.49,0,0,0-10.71,10.74c0,6.15,4.28,10.94,10.58,11.08v0h4.6V30.14h-4.34c-3.8-.05-6.79-3.55-6.79-7.66,0-4.41,3-7.11,6.75-7.11,1.85,0,4.38.71,4.38,2.26v1.19h1.19a2.35,2.35,0,0,0,2.35-2.35C196.4,12.86,191.1,11.73,188.39,11.73ZM179.1,33.35a.11.11,0,0,1,0,.2h-3.17c-1.63,0-2.34-.25-3-1.63l-2.8-5.5c-.46-.86-.92-1-2.06-1h-2v4.12a4,4,0,0,1-4,4V15.14h-2a3.4,3.4,0,0,1,3.41-3.41h6.36c4,0,6.79,2.46,6.79,6.57,0,3.94-2.7,5.57-3.62,5.75v.06a2.52,2.52,0,0,1,1.07,1.11l2.12,4.21C177.4,31.53,178.29,32.87,179.1,33.35Zm-6.73-14.83c0-2.15-1.19-3.38-3.16-3.38H166V22h3.2C171.18,22,172.37,20.7,172.37,18.52ZM.8,47.2a.93.93,0,0,0-.8-1v-.81a.93.93,0,0,0,.8-1v-.79a1.44,1.44,0,0,1,1.53-1.64h.21v.7H2.41c-.24,0-.81.08-.81,1v1a1.23,1.23,0,0,1-.76,1.2v0A1.17,1.17,0,0,1,1.6,47v1.09c0,.9.57,1,.81,1h.13v.69a1,1,0,0,1-.21,0A1.44,1.44,0,0,1,.8,48.1Zm5.34-1.34h.2v0c0-.84-.31-1.14-1-1.14-.23,0-.78,0-.78.36v.28H3.65v-.47c0-.78,1.19-.9,1.65-.9,1.54,0,2,.81,2,1.87v2a.18.18,0,0,0,.2.21h.39v.78H7c-.42,0-.59-.21-.59-.55a1.89,1.89,0,0,1,0-.28h0a1.64,1.64,0,0,1-1.52.94,1.49,1.49,0,0,1-1.62-1.45C3.26,46,5.34,45.86,6.14,45.86ZM5.08,48.21a1.45,1.45,0,0,0,1.27-1.52v-.16H6.12c-.69,0-1.93,0-1.93.91A.79.79,0,0,0,5.08,48.21ZM10.47,44A1.59,1.59,0,0,1,12,44.7h0v-.15c0-.29.15-.48.52-.48h.89v.78h-.38c-.12,0-.2.06-.2.18v3.6a2.15,2.15,0,0,1-2.41,2.18,3.66,3.66,0,0,1-1.62-.4l.31-.73a3,3,0,0,0,1.3.32c.82,0,1.5-.37,1.5-1.33v-.32a2.6,2.6,0,0,1,0-.3h0a1.51,1.51,0,0,1-1.42.72,2.19,2.19,0,0,1-2.13-2.44A2.12,2.12,0,0,1,10.47,44ZM12,46.34c0-1.24-.61-1.6-1.35-1.6s-1.3.61-1.3,1.58S9.83,48,10.69,48C11.35,48,12,47.59,12,46.34ZM16.36,44a2,2,0,0,1,2.06,2.23c0,.13,0,.38,0,.38H14.91a1.59,1.59,0,0,0,1.64,1.59,2.18,2.18,0,0,0,1.39-.55l.4.65a2.82,2.82,0,0,1-1.84.69A2.43,2.43,0,0,1,14,46.45,2.35,2.35,0,0,1,16.36,44Zm1.11,1.94a1.12,1.12,0,0,0-1.12-1.21A1.37,1.37,0,0,0,15,45.89Zm2.16-.84c0-.14-.08-.2-.21-.2H19v-.78h.88c.4,0,.6.17.6.52v.18a1.83,1.83,0,0,1,0,.27h0A1.94,1.94,0,0,1,22.3,44c1.13,0,1.64.61,1.64,1.83v2.06a.18.18,0,0,0,.2.21h.39v.78h-.9c-.43,0-.61-.18-.61-.6V46c0-.67-.13-1.2-.89-1.2A1.55,1.55,0,0,0,20.62,46a2.12,2.12,0,0,0-.08.64v2.23h-.91Zm8-1.1c.58,0,1.72.24,1.72,1v.49H28.5v-.27c0-.34-.54-.49-.89-.49a1.7,1.7,0,0,0,.05,3.4,2.13,2.13,0,0,0,1.48-.66l.4.65a2.63,2.63,0,0,1-1.94.82,2.5,2.5,0,1,1,0-5Zm3,1.1c0-.14-.08-.2-.21-.2H30v-.78h.9c.42,0,.6.17.6.6v3.17a.19.19,0,0,0,.21.21h.38v.78h-.89c-.42,0-.6-.18-.6-.6Zm0-2.87h.81v1H30.6Zm4.94,3.68h.2v0c0-.84-.31-1.14-1.05-1.14-.23,0-.78,0-.78.36v.28h-.86v-.47c0-.78,1.19-.9,1.65-.9,1.54,0,2,.81,2,1.87v2a.18.18,0,0,0,.2.21h.39v.78h-.86c-.42,0-.59-.21-.59-.55a1.89,1.89,0,0,1,0-.28h0a1.64,1.64,0,0,1-1.52.94,1.49,1.49,0,0,1-1.62-1.45C32.66,46,34.74,45.86,35.54,45.86Zm-1.06,2.35a1.45,1.45,0,0,0,1.27-1.52v-.16h-.23c-.69,0-1.93,0-1.93.91A.79.79,0,0,0,34.48,48.21Zm8-4.26a1.6,1.6,0,0,1,1.47.74h0a2.52,2.52,0,0,1,0-.32v-1.2a.19.19,0,0,0-.21-.21h-.38v-.78h.9c.42,0,.6.18.6.6v5.06a.19.19,0,0,0,.21.21h.38v.78h-.87c-.42,0-.58-.19-.58-.51v-.24h0a1.7,1.7,0,0,1-1.57.86c-1.29,0-2.1-1-2.1-2.49A2.23,2.23,0,0,1,42.47,44ZM44,46.44c0-.85-.45-1.7-1.36-1.7-.74,0-1.36.62-1.36,1.71s.55,1.7,1.34,1.7S44,47.65,44,46.44Zm2.53-1.39a.18.18,0,0,0-.2-.2h-.39v-.78h.9c.42,0,.6.17.6.6v3.17a.19.19,0,0,0,.21.21H48v.78h-.89c-.43,0-.61-.18-.61-.6Zm0-2.87h.82v1h-.82ZM50.68,44a1.59,1.59,0,0,1,1.53.75h0v-.15c0-.29.15-.48.52-.48h.89v.78h-.38c-.12,0-.2.06-.2.18v3.6a2.15,2.15,0,0,1-2.41,2.18,3.66,3.66,0,0,1-1.62-.4l.31-.73a3,3,0,0,0,1.3.32c.82,0,1.5-.37,1.5-1.33v-.32a2.6,2.6,0,0,1,0-.3h0a1.51,1.51,0,0,1-1.42.72,2.19,2.19,0,0,1-2.13-2.44A2.12,2.12,0,0,1,50.68,44Zm1.49,2.39c0-1.24-.61-1.6-1.35-1.6s-1.3.61-1.3,1.58S50,48,50.9,48C51.56,48,52.17,47.59,52.17,46.34Zm2.52-1.29c0-.14-.08-.2-.21-.2H54.1v-.78H55c.42,0,.6.17.6.6v3.17a.19.19,0,0,0,.21.21h.39v.78h-.9c-.42,0-.6-.18-.6-.6Zm0-2.87h.82v1h-.82Zm2.56,2.62h-.62v-.73h.64V42.76h.89v1.31h1.14v.73H58.18V47A1,1,0,0,0,59.4,48v.81a2.15,2.15,0,0,1-.32,0,1.64,1.64,0,0,1-1.81-1.78Zm5.64,1.06h.21v0c0-.84-.31-1.14-1-1.14-.23,0-.78,0-.78.36v.28h-.86v-.47c0-.78,1.18-.9,1.65-.9,1.54,0,2,.81,2,1.87v2a.19.19,0,0,0,.21.21h.39v.78h-.86c-.42,0-.59-.21-.59-.55a1.89,1.89,0,0,1,0-.28h0a1.64,1.64,0,0,1-1.52.94A1.49,1.49,0,0,1,60,47.49C60,46,62.11,45.86,62.91,45.86Zm-1,2.35a1.45,1.45,0,0,0,1.27-1.52v-.16H62.9c-.69,0-1.94,0-1.94.91A.8.8,0,0,0,61.86,48.21Zm3.73-5a.18.18,0,0,0-.2-.21H65v-.78h.9c.43,0,.61.18.61.6v5.06a.18.18,0,0,0,.2.21h.39v.78h-.9c-.43,0-.61-.18-.61-.6ZM71,50a1,1,0,0,0,.84-.68l.22-.52L70.41,45a.27.27,0,0,0-.3-.18H70v-.78h.53c.39,0,.53.1.68.48l1.08,2.68a3.88,3.88,0,0,1,.17.57h0a4.81,4.81,0,0,1,.16-.57l1-2.68a.61.61,0,0,1,.7-.48h.54v.78h-.12a.27.27,0,0,0-.3.18l-1.88,4.66A1.64,1.64,0,0,1,71,50.81a1.6,1.6,0,0,1-1.12-.47l.38-.66A1,1,0,0,0,71,50ZM80.43,44c.58,0,1.72.24,1.72,1v.49h-.83v-.27c0-.34-.54-.49-.89-.49a1.7,1.7,0,0,0,0,3.4A2.16,2.16,0,0,0,82,47.47l.39.65a2.63,2.63,0,0,1-1.94.82,2.5,2.5,0,1,1,0-5Zm2.92,1.1c0-.14-.08-.2-.21-.2h-.39v-.78h.87c.41,0,.61.16.61.55v.3a2.59,2.59,0,0,1,0,.33h0A1.63,1.63,0,0,1,85.74,44L86,44v.9a1.24,1.24,0,0,0-.27,0A1.46,1.46,0,0,0,84.37,46a3.12,3.12,0,0,0-.11.86v1.95h-.91ZM88.73,44a2,2,0,0,1,2,2.23c0,.13,0,.38,0,.38H87.28a1.59,1.59,0,0,0,1.64,1.59,2.18,2.18,0,0,0,1.39-.55l.4.65a2.82,2.82,0,0,1-1.84.69,2.42,2.42,0,0,1-2.53-2.49A2.34,2.34,0,0,1,88.73,44Zm1.11,1.94a1.13,1.13,0,0,0-1.12-1.21,1.36,1.36,0,0,0-1.4,1.21Zm4.57,0h.21v0c0-.84-.31-1.14-1.06-1.14-.22,0-.78,0-.78.36v.28h-.85v-.47c0-.78,1.18-.9,1.64-.9,1.55,0,2,.81,2,1.87v2a.19.19,0,0,0,.21.21h.39v.78h-.86c-.42,0-.59-.21-.59-.55,0-.16,0-.28,0-.28h0a1.64,1.64,0,0,1-1.52.94,1.49,1.49,0,0,1-1.62-1.45C91.54,46,93.61,45.86,94.41,45.86Zm-1,2.35a1.45,1.45,0,0,0,1.27-1.52v-.16h-.24c-.68,0-1.93,0-1.93.91A.8.8,0,0,0,93.36,48.21Zm3.79-3.41h-.62v-.73h.64V42.76h.89v1.31H99.2v.73H98.06V47a1,1,0,0,0,1,1.08,1.12,1.12,0,0,0,.22,0v.81a2.4,2.4,0,0,1-.33,0,1.64,1.64,0,0,1-1.81-1.78Zm3.32.25c0-.14-.08-.2-.21-.2h-.38v-.78h.89c.42,0,.6.17.6.6v3.17a.19.19,0,0,0,.21.21H102v.78h-.9c-.42,0-.6-.18-.6-.6Zm0-2.87h.82v1h-.82ZM102.67,45a.26.26,0,0,0-.29-.18h-.1v-.78h.48c.42,0,.58.1.72.48l1,2.73c.09.27.17.63.17.63h0s.08-.36.17-.63l1-2.73c.14-.38.31-.48.73-.48h.44v.78H107a.28.28,0,0,0-.31.18l-1.45,3.8h-1Zm7.67.83h.21v0c0-.84-.31-1.14-1.06-1.14-.22,0-.78,0-.78.36v.28h-.86v-.47c0-.78,1.19-.9,1.65-.9,1.55,0,2,.81,2,1.87v2a.19.19,0,0,0,.21.21h.38v.78h-.85c-.43,0-.6-.21-.6-.55a1.89,1.89,0,0,1,0-.28h0a1.61,1.61,0,0,1-1.51.94,1.49,1.49,0,0,1-1.62-1.45C107.47,46,109.54,45.86,110.34,45.86Zm-1,2.35a1.45,1.45,0,0,0,1.27-1.52v-.16h-.24c-.69,0-1.93,0-1.93.91A.8.8,0,0,0,109.29,48.21Zm3.46.83c.23,0,.81-.09.81-1V47a1.17,1.17,0,0,1,.76-1.19v0a1.23,1.23,0,0,1-.76-1.2v-1c0-.9-.58-1-.81-1h-.14v-.7h.22a1.44,1.44,0,0,1,1.53,1.64v.79a.93.93,0,0,0,.8,1v.81a.93.93,0,0,0-.8,1v.9a1.45,1.45,0,0,1-1.53,1.65,1.12,1.12,0,0,1-.22,0V49Z"/></g></g></svg>