<svg xmlns="http://www.w3.org/2000/svg" viewBox="0 0 227.32 42.34"><g id="e62e360e-b757-4cf2-b9af-8d67c0a41f56" data-name="Capa 2"><g id="eb15d075-e6e4-4668-9c50-a1b8008346d2" data-name="Capa 1"><path d="M220.49,33.56h-4.22V30.11h4.19c1.56,0,2.94-.86,2.94-2.46,0-3.54-9.77-3.25-9.77-9.71,0-3.37,2.92-5.86,6.93-5.86,2.43,0,6.18,1.14,6.18,4.1a1.94,1.94,0,0,1-1.92,1.93H223.3v-.93c0-1-1.38-1.61-2.76-1.61-1.75,0-3,.9-3,2.22,0,3.54,9.78,2.84,9.78,9.66C227.27,30.72,224.82,33.51,220.49,33.56ZM130.82,11.84a9.88,9.88,0,0,0-4.24.92l1.08,3a6.32,6.32,0,0,1,2.36-.42c2.72,0,4.8,1.59,4.8,5.14v9.11a4,4,0,0,0,4,4V20.31C138.82,14.74,135.82,11.84,130.82,11.84Zm-12.24,0h-.31c-4.93,0-8,2.9-8,8.47v9.08a.64.64,0,0,1-.55.72h0a.38.38,0,0,1-.15,0h-1.33v3.43H112c1.56,0,2.16-.86,2.16-1.86V31h0V20.46c0-3.55,2.08-5.14,4.8-5.14a5.34,5.34,0,0,1,.8,0Zm-102,17.09A11.72,11.72,0,0,1,9.3,31.16c-4.25,0-6.21-1.47-6.21-3.7S5.11,24,8.23,24h5.59V21.41H8.35C5.54,21.41,4,20.24,4,18.1s1.84-3.57,5.71-3.57A12.84,12.84,0,0,1,15.82,16l.89-2.44A15.14,15.14,0,0,0,9.57,11.9c-5.84,0-8.65,2.75-8.65,6a5,5,0,0,0,2.9,4.7A5.26,5.26,0,0,0,0,27.68c0,3.54,3.09,6.11,9.11,6.11,3.52,0,6.64-.92,8.47-2.47Zm12.93-17c-3.12,0-5.53,1-7,3.27v-3h-3V33.55h3.06V21.41c0-4.62,2.51-6.79,6.3-6.79,3.55,0,5.78,2.11,5.78,6.33v12.6h3V20.86c0-5.81-3.09-9-8.17-9ZM50.82,33.79c5.66,0,8.29-2.81,8.29-6.08,0-7.86-13-4.59-13-9.82,0-1.87,1.56-3.39,5.2-3.39a11,11,0,0,1,5.87,1.74l1-2.45A12.55,12.55,0,0,0,51.3,11.9c-5.62,0-8.19,2.81-8.19,6.11,0,8,13,4.65,13,9.88,0,1.87-1.59,3.3-5.29,3.3a11,11,0,0,1-7.06-2.47L42.58,31.1C44.29,32.69,47.5,33.79,50.82,33.79Zm25.7-21.65V24.28c0,4.62-2.53,6.79-6.23,6.79-3.49,0-5.72-2.11-5.72-6.33V12.14H61.51V24.83c0,5.81,3.12,9,8.13,9,3.06,0,5.48-1,7-3.27v3h2.93V12.14ZM90.38,33.79c5.66,0,8.29-2.81,8.29-6.08,0-7.86-13-4.59-13-9.82,0-1.87,1.56-3.39,5.2-3.39a11,11,0,0,1,6,1.74l1-2.45A12.55,12.55,0,0,0,91,11.9c-5.63,0-8.19,2.81-8.19,6.11,0,8,13,4.65,13,9.88,0,1.87-1.59,3.3-5.29,3.3a11,11,0,0,1-7.06-2.47L82.19,31.1C83.9,32.69,87.11,33.79,90.38,33.79Zm49.8-.24h2.43a2.19,2.19,0,0,0,2.55-1.76h0L146.51,28h7.38l1.35,3.82a2.2,2.2,0,0,0,2.58,1.73h2.4V30.14h-.49a.83.83,0,0,1-1-.62v0h0l-6.41-17.76H150a2.69,2.69,0,0,0-2.53,1.76l-5.84,16a.83.83,0,0,1-.94.7h-.6Zm7.25-8.92,1.88-5.47c.4-1.19.86-3.25.86-3.25h.06s.46,2.06.86,3.25L153,24.63Zm47.14,8.92H197a2.19,2.19,0,0,0,2.55-1.76h0L200.9,28h7.38l1.35,3.82a2.21,2.21,0,0,0,2.57,1.78h2.41V30.14h-.49a.83.83,0,0,1-1-.62v0h0l-6.45-17.73h-2.33a2.66,2.66,0,0,0-2.52,1.73l-5.84,16a.85.85,0,0,1-1,.69h-.54Zm7.25-8.92,1.88-5.47c.4-1.19.86-3.25.86-3.25h.06s.46,2.06.86,3.25l1.88,5.47ZM130.07,38.48a5.88,5.88,0,0,0,5.52,3.86h0l-14-38.48A5.85,5.85,0,0,0,116.06,0h0Zm58.14-26.75A10.49,10.49,0,0,0,177.5,22h0v.48c0,6.15,4.28,10.94,10.58,11.08h4.6V30.14h-4.34c-3.8-.05-6.79-3.55-6.79-7.66,0-4.41,3-7.11,6.75-7.11,1.85,0,4.38.71,4.38,2.26v1.19h1.19a2.35,2.35,0,0,0,2.35-2.35h0C196.22,12.86,190.92,11.73,188.21,11.73Zm-9.29,21.62a.11.11,0,0,1,.05.15h-3.22c-1.63,0-2.34-.25-3-1.63l-2.8-5.5c-.46-.86-.92-1-2.06-1h-2v4.12a4,4,0,0,1-4,4V15.14h-2a3.4,3.4,0,0,1,3.39-3.41h6.38c4,0,6.79,2.46,6.79,6.57,0,3.94-2.7,5.57-3.62,5.75v.06a2.55,2.55,0,0,1,1.07,1.11L176,29.43C177.22,31.53,178.11,32.87,178.92,33.35Zm-6.73-14.83c0-2.15-1.19-3.38-3.16-3.38h-3.21V22H169c2,0,3.17-1.3,3.17-3.48Z" fill="#fff"/></g></g></svg>