<svg xmlns="http://www.w3.org/2000/svg" xmlns:xlink="http://www.w3.org/1999/xlink" viewBox="0 0 403.36 420.22"><defs><linearGradient id="e1267ee4-372d-4b32-94bd-61995cbec540" x1="4266.54" y1="13430.49" x2="4304.38" y2="13430.49" gradientTransform="translate(1339.67 -13893.24) rotate(23.04)" gradientUnits="userSpaceOnUse"><stop offset="0" stop-color="#ffc400"/><stop offset="0.59" stop-color="#ffee42"/><stop offset="1" stop-color="#c7ff00"/></linearGradient><linearGradient id="eea61440-6e0e-427d-8798-b6d1e0af9bf2" x1="4411.12" y1="13429.13" x2="4448.22" y2="13429.13" gradientTransform="matrix(0.93, -0.37, 0.37, 0.93, -9002.25, -10757.99)" xlink:href="#e1267ee4-372d-4b32-94bd-61995cbec540"/><linearGradient id="a5e075c1-052c-4e47-8c31-f3b2f8d23fc0" x1="4467.71" y1="13470.69" x2="4517.26" y2="13470.69" gradientTransform="translate(-12500.03 -6323.37) rotate(-45)" xlink:href="#e1267ee4-372d-4b32-94bd-61995cbec540"/><linearGradient id="ab4a1214-ff8f-47e8-ad18-9237e18f809d" x1="4349.36" y1="13414.42" x2="4369.06" y2="13414.42" gradientTransform="translate(4427.04 13494.05) rotate(180)" xlink:href="#e1267ee4-372d-4b32-94bd-61995cbec540"/><linearGradient id="f4a6368d-9fba-4d6d-bd74-253bac7685f7" x1="7456.4" y1="16620.34" x2="7494.23" y2="16620.34" gradientTransform="matrix(0.92, -0.39, -0.39, -0.92, 1.94, 18363.35)" xlink:href="#e1267ee4-372d-4b32-94bd-61995cbec540"/><linearGradient id="f400026f-0099-4e66-b336-c30c88a78183" x1="7600.98" y1="16618.99" x2="7638.08" y2="16618.99" gradientTransform="matrix(0.93, 0.37, 0.37, -0.93, -13006.29, 12603.93)" xlink:href="#e1267ee4-372d-4b32-94bd-61995cbec540"/><linearGradient id="bd58a4a9-62da-41ae-a57a-04150b4b6de4" x1="7539.21" y1="16604.27" x2="7558.91" y2="16604.27" gradientTransform="matrix(-1, 0, 0, 1, 7884.62, -16524.62)" xlink:href="#e1267ee4-372d-4b32-94bd-61995cbec540"/><linearGradient id="bd730f7e-4c20-485e-b143-88c1cebccc92" x1="9113.62" y1="219.28" x2="9113.62" y2="115.07" gradientTransform="translate(9316.49 535.28) rotate(180)" gradientUnits="userSpaceOnUse"><stop offset="0" stop-color="#ffd216"/><stop offset="0.54" stop-color="#ffee42"/><stop offset="1" stop-color="#e3f621"/></linearGradient><linearGradient id="be66fece-3983-4b9a-8759-f1ffa4a97032" x1="5655.83" y1="440.7" x2="5655.83" y2="339.56" gradientTransform="translate(-5512.56 -131.24)" gradientUnits="userSpaceOnUse"><stop offset="0" stop-color="#fff"/><stop offset="0.49" stop-color="#fdfeff"/><stop offset="0.72" stop-color="#f5f9ff"/><stop offset="0.89" stop-color="#e9f2ff"/><stop offset="1" stop-color="#dcebff"/></linearGradient></defs><g style="isolation:isolate"><g id="b9a611e8-4179-459b-bdf5-3e27c860d4ec" data-name="Capa 2"><g id="a15f340c-a2bf-4491-9ed4-55ee000c76f1" data-name="Capa 1"><rect x="17.19" y="117.97" width="19.7" height="50.36" transform="translate(-115.83 114.69) rotate(-68.04)" fill="url(#e1267ee4-372d-4b32-94bd-61995cbec540)"/><rect x="118.2" y="15.03" width="19.7" height="50.36" transform="translate(-5.52 53.32) rotate(-23.04)" fill="url(#eea61440-6e0e-427d-8798-b6d1e0af9bf2)"/><rect x="192" width="19.7" height="50.36" fill="url(#a5e075c1-052c-4e47-8c31-f3b2f8d23fc0)"/><rect x="57.97" y="53.42" width="19.7" height="52.44" transform="translate(172.09 87.99) rotate(135)" fill="url(#ab4a1214-ff8f-47e8-ad18-9237e18f809d)"/><rect x="366.47" y="117.97" width="19.7" height="50.36" transform="translate(384.29 545.69) rotate(-111.96)" fill="url(#f4a6368d-9fba-4d6d-bd74-253bac7685f7)"/><rect x="265.46" y="15.03" width="19.7" height="50.36" transform="translate(512.92 184.97) rotate(-156.96)" fill="url(#f400026f-0099-4e66-b336-c30c88a78183)"/><rect x="325.69" y="53.42" width="19.7" height="52.44" transform="translate(154.59 -213.94) rotate(45)" fill="url(#bd58a4a9-62da-41ae-a57a-04150b4b6de4)"/><path d="M239.09,420.22H193.86V400.68h45.23a2.78,2.78,0,1,0,0-5.56H166.66a22.32,22.32,0,0,1,0-44.64h72.43a2.78,2.78,0,1,0,0-5.56h-39a9.77,9.77,0,0,1-9.77-9.77V316h19.54v9.38h29.24a22.32,22.32,0,1,1,0,44.64H166.66a2.78,2.78,0,0,0,0,5.56h72.43a22.32,22.32,0,1,1,0,44.64Z" fill="url(#bd730f7e-4c20-485e-b143-88c1cebccc92)"/><circle cx="200.86" cy="202.02" r="115.98" fill="#fff"/><circle cx="200.86" cy="202.02" r="67.06" fill="#3c50ff"/><circle cx="200.86" cy="202.02" r="26.91" fill="#000032"/><circle cx="183.44" cy="184.99" r="11.03" fill="#fff" opacity="0.4"/><path d="M84.88,201.64A116.29,116.29,0,0,0,201.09,318h.55V201.08H84.89C84.89,201.27,84.88,201.45,84.88,201.64Z" fill="url(#be66fece-3983-4b9a-8759-f1ffa4a97032)" style="mix-blend-mode:multiply"/></g></g></g></svg>