<svg xmlns="http://www.w3.org/2000/svg" xmlns:xlink="http://www.w3.org/1999/xlink" viewBox="0 0 349.72 398.76"><defs><linearGradient id="f41881c4-beb8-4211-90b5-b2d8d0013f77" x1="132.39" y1="164.51" x2="349.72" y2="164.51" gradientUnits="userSpaceOnUse"><stop offset="0" stop-color="#ffd216"/><stop offset="0.54" stop-color="#ffee42"/><stop offset="1" stop-color="#e3f621"/></linearGradient><linearGradient id="bbc52cee-d0a4-46cb-8f5c-1f03207aa1d6" x1="0" y1="229.12" x2="256.55" y2="229.12" xlink:href="#f41881c4-beb8-4211-90b5-b2d8d0013f77"/><linearGradient id="af5cd114-80df-409c-9d1f-997edd3a9527" x1="3873.88" y1="95.32" x2="3899.62" y2="95.32" gradientTransform="translate(-3495.94 -1551.41) rotate(23.04)" gradientUnits="userSpaceOnUse"><stop offset="0" stop-color="#ffc400"/><stop offset="0.59" stop-color="#ffee42"/><stop offset="1" stop-color="#c7ff00"/></linearGradient><linearGradient id="f9cf7edf-803e-4f07-8b84-a42c61bf48df" x1="3972.25" y1="94.4" x2="3997.49" y2="94.4" gradientTransform="matrix(0.93, -0.37, 0.37, 0.93, -3598.03, 1419.97)" xlink:href="#af5cd114-80df-409c-9d1f-997edd3a9527"/><linearGradient id="a3f75e5c-946d-43c7-9c63-85a788e2ab71" x1="4010.75" y1="122.68" x2="4044.47" y2="122.68" gradientTransform="translate(-2750.36 2788.21) rotate(-45.02)" xlink:href="#af5cd114-80df-409c-9d1f-997edd3a9527"/><linearGradient id="a784d0e8-cca8-4b73-8387-48761b4b8602" x1="3930.22" y1="84.39" x2="3943.63" y2="84.39" gradientTransform="translate(4022 111.73) rotate(180)" xlink:href="#af5cd114-80df-409c-9d1f-997edd3a9527"/><linearGradient id="aabc6194-d6db-41cd-aca9-30f0b70edaa3" x1="5571.11" y1="189.47" x2="5571.11" y2="131.69" gradientTransform="translate(-5472.65)" gradientUnits="userSpaceOnUse"><stop offset="0" stop-color="#fff"/><stop offset="0.49" stop-color="#fdfeff"/><stop offset="0.72" stop-color="#f5f9ff"/><stop offset="0.89" stop-color="#e9f2ff"/><stop offset="1" stop-color="#dcebff"/></linearGradient></defs><g style="isolation:isolate"><g id="ab05cee5-0f86-4a75-bbd6-5c726a7cad30" data-name="Capa 2"><g id="e38b0a6f-f98f-4c42-ad2e-35129ebfa083" data-name="Capa 1"><path d="M142.16,265.7A9.77,9.77,0,0,1,138,247.09l104.61-49.37L251,215.39l-25.52,12.05,96-21.31-41.05-45.41a9.77,9.77,0,0,1-1-11.85l39.41-61.08-49.43,11-4.23-19.08,72.65-16.13a9.78,9.78,0,0,1,10.33,14.84l-48.25,74.78,47.28,52.3a9.78,9.78,0,0,1-5.13,16.1L144.29,265.46A9.8,9.8,0,0,1,142.16,265.7Z" fill="url(#f41881c4-beb8-4211-90b5-b2d8d0013f77)"/><path d="M19.54,398.76H0V121.86a9.77,9.77,0,0,1,7.65-9.54l237-52.61a9.78,9.78,0,0,1,11.89,9.54v137.3a9.77,9.77,0,0,1-7.66,9.54l-206,45.73-4.24-19.08,198.37-44V81.43L19.54,129.7Z" fill="url(#bbc52cee-d0a4-46cb-8f5c-1f03207aa1d6)"/><rect x="36.77" y="40.32" width="13.4" height="34.27" transform="translate(-28.15 49.62) rotate(-46.65)" fill="url(#af5cd114-80df-409c-9d1f-997edd3a9527)"/><rect x="126.31" y="0.19" width="13.4" height="34.27" transform="translate(-0.44 3.83) rotate(-1.65)" fill="url(#f9cf7edf-803e-4f07-8b84-a42c61bf48df)"/><rect x="176.8" y="8.98" width="13.4" height="34.27" transform="translate(22.2 -65.19) rotate(21.41)" fill="url(#a3f75e5c-946d-43c7-9c63-85a788e2ab71)"/><rect x="78.37" y="9.51" width="13.4" height="35.68" transform="translate(173.98 18.34) rotate(156.39)" fill="url(#a784d0e8-cca8-4b73-8387-48761b4b8602)"/><circle cx="131.37" cy="128.09" r="66.26" fill="#fff"/><circle cx="131.37" cy="128.09" r="38.32" fill="#3c50ff"/><circle cx="131.37" cy="128.09" r="15.38" fill="#000032"/><circle cx="121.42" cy="118.35" r="6.3" fill="#fff" opacity="0.4"/><path d="M65.1,127.87a66.44,66.44,0,0,0,66.4,66.48h.31V127.55H65.11C65.11,127.66,65.1,127.76,65.1,127.87Z" fill="url(#aabc6194-d6db-41cd-aca9-30f0b70edaa3)" style="mix-blend-mode:multiply"/></g></g></g></svg>