<svg xmlns="http://www.w3.org/2000/svg" viewBox="0 0 142.18 39.27"><g id="b28ca6f6-44e0-4632-8247-839b05d425b0" data-name="Capa 2"><g id="bcfb135b-839f-4068-ae12-e3e1ab5e37dc" data-name="Capa 1"><path d="M7.61,25.61a17,17,0,0,1-2.7-9.11,11.59,11.59,0,0,1,23.18,0,17,17,0,0,1-2.7,9.11,32.53,32.53,0,0,0-8.89-6,32.53,32.53,0,0,0-8.89,6m17.78,7.68a26.73,26.73,0,0,0,3.33-3.84A22.2,22.2,0,0,0,33,16.5a16.5,16.5,0,0,0-33,0,22.13,22.13,0,0,0,4.28,13,26.73,26.73,0,0,0,3.33,3.84,32.34,32.34,0,0,0,8.89,6,32.34,32.34,0,0,0,8.89-6M10.72,29.45a27.2,27.2,0,0,1,5.78-4.31,27.2,27.2,0,0,1,5.78,4.31,26.54,26.54,0,0,1-5.78,4.31,26.54,26.54,0,0,1-5.78-4.31m5-22.11a5.32,5.32,0,1,0,6,4.5,5.33,5.33,0,0,0-6-4.5m116,26.72V27.4c.88,1.36,2.82,1.77,4.13,1.77,4,0,6.28-2.88,6.28-6.51a6.22,6.22,0,0,0-6.38-6.5,4.92,4.92,0,0,0-4,2l-.2-1.72h-2.88V34.06Zm3.8-7.87a3.44,3.44,0,0,1-3.52-3.53,3.53,3.53,0,1,1,7,0,3.44,3.44,0,0,1-3.53,3.53M116,34.06V27.4c.88,1.36,2.82,1.77,4.14,1.77,4,0,6.27-2.88,6.27-6.51a6.21,6.21,0,0,0-6.38-6.5,4.92,4.92,0,0,0-4,2l-.2-1.72h-2.88V34.06Zm3.81-7.87a3.45,3.45,0,0,1-3.53-3.53,3.53,3.53,0,0,1,7.06,0,3.45,3.45,0,0,1-3.53,3.53m-16.21-7.31c4.84,0,4.84,7.54,0,7.54a3.56,3.56,0,0,1-3.68-3.78,3.54,3.54,0,0,1,3.68-3.76m3.68-.73a4.57,4.57,0,0,0-4-2c-3.63,0-6.48,2.22-6.48,6.51s2.72,6.63,6.4,6.6a4.72,4.72,0,0,0,4-2.19l.15,1.81h2.9V16.43h-3Zm-21,10.71V22.21A2.83,2.83,0,0,1,89,19.13c1.67,0,2.35,1.39,2.35,3v6.7H94.4v-6.7c0-3.73-1.74-5.9-5.26-5.9A4.49,4.49,0,0,0,85,18.53a3.73,3.73,0,0,0-3.69-2.32A3.59,3.59,0,0,0,78,17.92l-.23-1.51H74.94V28.86H78V22.21c0-1.64,1-3.13,2.64-3.13s2.55,1.49,2.55,3.13v6.65Zm-27.1-6.3h9.3V19.74h-9.3ZM48.6,28.86h3.32V14.22h5.6v-3H43v3h5.6Z" fill="#706f6f" fill-rule="evenodd"/></g></g></svg>