<svg xmlns="http://www.w3.org/2000/svg" viewBox="0 0 264.65 87.28"><g id="ffcf2151-989a-45a9-ba80-132585f86199" data-name="Capa 2"><g id="b2de1fc9-1b1a-4e98-835f-6982407a300e" data-name="Capa 1"><path d="M40.67,87.13A123.16,123.16,0,0,0,57.76,78.3c7.39-4.65,14.22-10,19.66-16.86a29.39,29.39,0,0,0,6-11.56c1.33-5.84-.11-11.26-3-16.35C77,27.51,72,22.89,66.51,18.84,57.16,12,46.76,7.07,36,2.89,33.53,2,31.05,1.07,28.48.12a1.92,1.92,0,0,1,1.25,0C46.21,5,62.31,10.85,77.32,19.35A81.86,81.86,0,0,1,95.59,32.71a27.27,27.27,0,0,1,5.79,8A12,12,0,0,1,101,51.21a31.73,31.73,0,0,1-7.65,9.69c-7.13,6.48-15.4,11.22-24,15.41A206.65,206.65,0,0,1,42.27,87.05,1.92,1.92,0,0,1,40.67,87.13Z" fill="#5e5e5e"/><path d="M39,47.23c1.79,0,3.57,0,5.36,0,.86,0,1.09.25.9,1.09Q44,54,42.76,59.72a1.54,1.54,0,0,1-.89,1.2A24.85,24.85,0,0,1,26,63.39c-6.07-1.16-9.57-6.42-8.7-12.63C18.62,41.34,25.68,36,34.31,35A22.53,22.53,0,0,1,46,36.81c.83.36,1.13.64.53,1.53a48.13,48.13,0,0,0-2.47,4.23c-.43.82-.78,1-1.73.57a11.19,11.19,0,0,0-8.28-1,9.8,9.8,0,0,0-6.57,11.27,4.94,4.94,0,0,0,6.57,3.49c.25-.1.42-.21.48-.46s.16-.56.22-.84c.2-1,.84-2.22.46-2.89s-1.83-.27-2.81-.3c-.76,0-.86-.29-.76-1,.59-4.22.58-4.23,4.84-4.23Z" fill="#5e5e5e"/><path d="M62.57,35.26c2.36,0,4.73,0,7.09,0a9.76,9.76,0,0,1,5,1.38c3.39,2,4.64,5.83,3.26,10-1.6,4.83-6.8,8.6-12.29,8.85a50.44,50.44,0,0,1-5.36,0c-1.07-.06-1.41.36-1.58,1.32-.35,1.89-.85,3.75-1.17,5.65-.15.88-.55,1.07-1.35,1.06-2.41,0-4.83,0-7.24,0-.81,0-1.08-.14-.88-1.06q2.87-13.11,5.64-26.24c.16-.77.47-1,1.24-1,2.56,0,5.12,0,7.68,0Zm1.85,6.8c-.58,0-1.16,0-1.73,0s-.88.1-1,.73c-.32,1.7-.7,3.38-1.09,5.06-.14.62,0,.9.7.88,1.29,0,2.6,0,3.89-.07a3.93,3.93,0,0,0,3.33-2.42c1.06-2.26,0-4-2.52-4.17C65.48,42,65,42.06,64.42,42.06Z" fill="#5e5e5e"/><path d="M170,64.13c-3.23,0-6.46,0-9.7,0-1,0-1.35-.21-1.13-1.3q2.64-13.59,5.18-27.18c.17-.89.51-1.27,1.51-1.26,6.41.05,12.83,0,19.25,0,.93,0,1.26.13,1,1.21-.75,3.6-.7,3.61-4.45,3.61-3.57,0-7.14,0-10.71,0a1.2,1.2,0,0,0-1.42,1.18c-.31,1.8-.58,3.61-1,5.38-.23,1,.15,1,.91,1,3.86,0,7.72,0,11.58,0,1.14,0,1.63.07,1.3,1.48-.74,3.16-.65,3.18-3.89,3.18s-6.38.06-9.56,0c-1.19,0-1.58.41-1.73,1.5a46.49,46.49,0,0,1-1,5.24c-.34,1.25.17,1.35,1.19,1.34,4.39,0,8.78,0,13.17,0,1,0,1.41.11,1.17,1.32-.67,3.36-.61,3.37-4,3.37Z" fill="#969696"/><path d="M198,64.13c-3.18,0-6.37,0-9.55,0-1.09,0-1.46-.23-1.24-1.38q2.65-13.58,5.21-27.17c.16-.81.45-1.21,1.41-1.2,6.46.05,12.93,0,19.39,0,.86,0,1.16.1,1,1.12-.72,3.69-.67,3.7-4.35,3.7-3.52,0-7,0-10.56,0-1.18,0-1.6.38-1.74,1.51a39.57,39.57,0,0,1-.92,5c-.26,1,.06,1.14.94,1.13,3.91,0,7.82,0,11.72,0,1.11,0,1.37.19,1.13,1.35-.66,3.3-.59,3.31-3.94,3.31s-6.57,0-9.85,0c-.72,0-1.18.13-1.31.94q-.53,3.06-1.16,6.09c-.23,1.12.48,1,1.18,1,4.44,0,8.88,0,13.32,0,1.15,0,1.33.27,1.12,1.36-.65,3.33-.6,3.33-4,3.33Z" fill="#969696"/><path d="M117.16,64.49c-5.31,0-8.67-.76-11.65-2.92-.87-.63-1-1.13-.24-1.93s1.12-1.93,1.93-2.25,1.58.85,2.46,1.23a13.85,13.85,0,0,0,9.87.56A5,5,0,0,0,122,57.67a2.54,2.54,0,0,0-.56-4.16c-1.73-1.13-3.75-1.48-5.68-2.06a25.22,25.22,0,0,1-4.47-1.65c-3.61-1.89-4.76-5.09-3.2-8.88a9.07,9.07,0,0,1,4.4-4.8c6-3,11.94-2.92,17.7.76.69.45,1,.8.24,1.51s-1.28,2-2.19,2.45c-1.07.56-1.84-.84-2.85-1.19a12.32,12.32,0,0,0-7.93-.4A5.78,5.78,0,0,0,114.63,41a2.46,2.46,0,0,0,.74,4.09,20.13,20.13,0,0,0,4.23,1.45,24.92,24.92,0,0,1,5.52,2.1c4.7,2.68,5.49,7.87,1.69,11.76A14.05,14.05,0,0,1,117.16,64.49Z" fill="#969696"/><path d="M249.74,64.51c-4.12,0-7.59-.76-10.58-3.12-.62-.48-.82-.82-.24-1.47s1.13-2,2-2.43c1-.51,1.76.82,2.7,1.2a14.2,14.2,0,0,0,9.76.49,5.34,5.34,0,0,0,2.23-1.29c1.59-1.55,1.36-3.43-.57-4.53s-4.18-1.46-6.27-2.17c-.95-.33-1.93-.61-2.86-1-4.91-2.09-6.16-7-2.88-11.25a12.81,12.81,0,0,1,8.83-4.68A16.53,16.53,0,0,1,264,36.86c.78.55.92,1,.16,1.61a2.18,2.18,0,0,0-.26.34c-.63.73-1.13,1.74-1.92,2.11s-1.62-.77-2.48-1.13a12,12,0,0,0-8.32-.51,5.62,5.62,0,0,0-2.57,1.55c-1.43,1.55-1.16,3.3.72,4.28a22.41,22.41,0,0,0,4.23,1.43,21.86,21.86,0,0,1,5.88,2.35c4.16,2.66,4.86,7.45,1.54,11.13C257.86,63.47,253.75,64.42,249.74,64.51Z" fill="#969696"/><path d="M147.42,34.43c3.86,0,7.71,0,11.57,0,.88,0,1.26.06,1,1.18-.7,3.62-.64,3.64-4.38,3.64-1.59,0-3.19.07-4.77,0-1-.06-1.44.32-1.62,1.3-1.34,7.18-2.72,14.34-4.08,21.51-.4,2.11-.38,2.11-2.59,2.11h-.73c-3.28,0-3.27,0-2.66-3.16,1.31-6.74,2.59-13.48,3.93-20.21.24-1.24-.1-1.6-1.35-1.55-2.32.09-4.63,0-6.95,0-.83,0-1.15-.08-1-1.09.61-3.72.56-3.73,4.32-3.73Z" fill="#969696"/><path d="M15.37,35.24c-1.29,6-2.55,11.88-3.8,17.75-.67,3.11-1.36,6.2-2,9.32a1.27,1.27,0,0,1-1.52,1.22c-2.32-.08-4.64-.05-6.95,0-.86,0-1.3,0-1-1.15C2,53.68,3.84,45,5.72,36.28c.1-.47,0-1.07.88-1.06C9.48,35.26,12.37,35.24,15.37,35.24Z" fill="#5e5e5e"/><path d="M225.28,64.13c-2.94,0-5.88,0-8.82,0-1.06,0-1.35-.32-1.15-1.33,1.31-6.7,2.59-13.39,3.88-20.09.45-2.36.93-4.71,1.31-7.08.15-1,.55-1.32,1.51-1.24s1.83,0,2.75,0c2.15,0,2.13,0,1.74,2-1.4,7.26-2.78,14.53-4.2,21.78-.2,1,.1,1.26,1.07,1.25,3.86,0,7.72,0,11.57,0,1.07,0,1.32.31,1.1,1.35-.7,3.34-.67,3.34-4.1,3.34Z" fill="#969696"/><path d="M187.25,74.61c-.16.67.49,1.8-.92,2a2,2,0,0,1-2.24-1.63,6,6,0,0,1,0-3.84,2,2,0,0,1,2.29-1.56c.42,0,.74.2.74.7s-.32.49-.76.39c-.71-.17-1,.32-1.22.93a5.08,5.08,0,0,0,0,2.84c.12.43.22.86.71,1,.2.06.43,0,.4-.22-.07-.5.29-1.11-.2-1.46-.33-.25-.72-.38-.49-.85s.76-.29,1.17-.3c.57,0,.53.42.54.81Z" fill="#5e5e5e"/><path d="M241.1,73c0,.53,0,1.06,0,1.58,0,2.11,0,2.11-2,2a1,1,0,0,1-.9-.63,5.7,5.7,0,0,1,0-4.2c.06-.17.22-.42.35-.43,1,0,1.72-.37,1.52-1.61,0-.18.36-.26.61-.23s.43.31.43.62C241.09,71.06,241.1,72,241.1,73Zm-1,.79c-.19-.52.07-1.43-.57-1.44s-.37.88-.5,1.37a.33.33,0,0,0,0,.14c.14.53-.33,1.5.51,1.49C240.18,75.31,239.88,74.31,240.07,73.77Z" fill="#5e5e5e"/><path d="M219.67,72.84a14.08,14.08,0,0,1,0-1.72c.07-.52-.38-1.29.38-1.5a2.3,2.3,0,0,1,2.18.4c1.16,1,1,3.34-.39,3.94-.85.36-1.19.76-1,1.65.07.41.11.93-.57.91s-.58-.51-.57-1Zm1.15-2.25a12.8,12.8,0,0,0,0,1.4c.06.37-.27,1,.29,1.06s.75-.63.74-1.17A1.13,1.13,0,0,0,220.82,70.59Z" fill="#5e5e5e"/><path d="M247.71,73.94a1.92,1.92,0,0,1,0,.72c-.27.6.76,1.82-.79,1.81-2.26,0-2.35-.14-2.37-2,0-.86,0-1.73,0-2.59,0-.47.15-.76.65-.73s.52.32.52.7c0,1,0,1.93,0,2.89,0,.33,0,.78.42.77s.43-.45.44-.8c0-.91,0-1.83,0-2.74,0-.41,0-.8.56-.82s.6.34.6.77C247.7,72.6,247.71,73.27,247.71,73.94Z" fill="#5e5e5e"/><path d="M109.25,73.71a2.47,2.47,0,0,1,0-.72c.22-.62-.6-1.72.66-1.81,2.2-.16,2.45.09,2.48,1.9,0,.72,0,1.45,0,2.16,0,.47.31,1.21-.52,1.25s-.54-.72-.57-1.17c-.05-.87,0-1.73,0-2.6,0-.3-.12-.6-.47-.57s-.37.3-.37.55c0,1,0,1.92,0,2.88,0,.44.06.93-.58.93s-.56-.51-.57-.93Z" fill="#5e5e5e"/><path d="M208.59,73.82a2.75,2.75,0,0,1,0-.86c.22-.6-.63-1.73.67-1.77,2.26-.07,2.41.12,2.44,1.9,0,.72,0,1.44,0,2.16,0,.46.3,1.2-.53,1.24s-.52-.74-.55-1.17c-.06-.86,0-1.73,0-2.59,0-.31-.13-.59-.48-.57s-.38.3-.38.54c0,1,0,1.92,0,2.87,0,.43.07.94-.58.94s-.51-.56-.52-1C208.57,75,208.59,74.4,208.59,73.82Z" fill="#5e5e5e"/><path d="M132.59,73.74V73c0-1.87.34-2.2,2.09-1.93a1.1,1.1,0,0,1,1,1.09c0,1.25,0,2.5,0,3.75,0,.31-.07.58-.46.59a.53.53,0,0,1-.62-.61c0-1,0-2,0-3,0-.31,0-.78-.46-.75s-.48.4-.47.78c0,1,0,1.92,0,2.89,0,.33,0,.71-.47.72s-.62-.32-.62-.76C132.6,75.09,132.59,74.42,132.59,73.74Z" fill="#5e5e5e"/><path d="M142,74.37a1.18,1.18,0,0,1,0,.42c-.24.57.6,1.69-.63,1.67-.84,0-2.26.65-2.37-1.1-.06-1-.14-2.1,1.31-2.27.27,0,.62.06.53-.41s-.38-.5-.76-.5-.83.35-.84-.35.53-.74,1-.74A1.57,1.57,0,0,1,142,72.64c0,.57,0,1.15,0,1.73ZM140.5,74c-.46.13-.48.5-.47.89s.1.75.51.65.39-.58.4-.95S140.93,74,140.5,74Z" fill="#5e5e5e"/><path d="M158.54,73.81c0,1.64-.69,2.8-1.68,2.79s-1.64-1.09-1.63-2.81.61-2.67,1.57-2.72S158.53,72.15,158.54,73.81Zm-1.1,0c-.29-.46.24-1.48-.58-1.49-.66,0-.56,1-.56,1.56s-.1,1.57.57,1.55S157.21,74.38,157.44,73.77Z" fill="#5e5e5e"/><path d="M124,73.38c.12,1-.47.9-1,1-.33,0-1-.36-.91.45a.75.75,0,0,0,.9.7c.33,0,.8-.41.86.29s-.42.69-.84.79a1.33,1.33,0,0,1-1-.14,2.46,2.46,0,0,1-1.16-2.31c0-1.07,0-2.14,1-2.84.64-.45,1.18-.17,1.62.37A3.48,3.48,0,0,1,124,73.38Zm-1.6,0c.33,0,.56,0,.51-.45s0-.72-.45-.73-.34.37-.42.63S121.94,73.39,122.35,73.39Z" fill="#5e5e5e"/><path d="M231.25,73.9c0-1.59.69-2.8,1.66-2.83s1.71,1.15,1.71,2.78-.74,2.79-1.73,2.75S231.27,75.44,231.25,73.9ZM233,75.74a3.82,3.82,0,0,0,.32-3.22c0-.15-.24-.35-.37-.35a.52.52,0,0,0-.36.35A3.56,3.56,0,0,0,233,75.74Z" fill="#5e5e5e"/><path d="M202.15,73.48a2,2,0,0,1,0-.37c.14-1.33.91-2.19,1.78-2s1.53,1.76,1.28,2.78c-.17.68-.67.34-1,.44s-.91-.24-.9.35a.8.8,0,0,0,1,.82c.35,0,.81-.37.87.29s-.43.7-.85.79c-1.13.25-2-.74-2.12-2.31C202.14,74.07,202.15,73.88,202.15,73.48Zm1.51-1.5c-.23.56-.73.91-.27,1.37a.67.67,0,0,0,.66,0C204.39,72.87,204.09,72.48,203.66,72Z" fill="#5e5e5e"/><path d="M170.27,73a.78.78,0,0,0-1-.75c-.32,0-.68.21-.7-.36s.24-.59.57-.71a1.64,1.64,0,0,1,2.13,1.34c.09,1.15,0,2.3,0,3.45,0,.41-.19.72-.59.58-.81-.28-2.06.62-2.39-1S168.53,73.27,170.27,73ZM169.82,74c-.45.11-.51.48-.5.87s.1.75.51.69.43-.45.43-.8S170.35,74.08,169.82,74Z" fill="#5e5e5e"/><path d="M195.82,73.8a3.12,3.12,0,0,1,0-.43c.08-1.05.29-2.2,1.53-2.24s1.39,1.16,1.55,2.18-.26,1.07-1,1c-.3,0-.87-.25-.87.35a.76.76,0,0,0,1,.79c.35,0,.8-.36.83.33,0,.5-.37.65-.74.74a1.62,1.62,0,0,1-1.9-.94A3.32,3.32,0,0,1,195.82,73.8Zm2-1c-.07-.26-.07-.7-.51-.61s-.35.53-.41.83c-.12.47.29.35.53.37C197.86,73.42,197.89,73.15,197.84,72.8Z" fill="#5e5e5e"/><path d="M161.9,73.78a2.46,2.46,0,0,1,0-.86c.21-.59-.6-1.64.58-1.75C164.73,71,165,71.2,165,73c0,.87,0,1.73,0,2.6,0,.41.11,1-.58.91s-.47-.5-.48-.86c0-.92,0-1.83,0-2.75,0-.35-.05-.75-.43-.77s-.52.38-.53.72c0,.92,0,1.83,0,2.74,0,.41.12,1-.57.92s-.48-.49-.49-.86C161.89,75,161.9,74.4,161.9,73.78Z" fill="#5e5e5e"/><path d="M145.52,74.05c.27-1.26-.48-2.42,0-3.62.14-.35.18-.61.61-.62s.38.4.56.61c1,1.18-.33,2.27,0,3.4.17.63-.33,1.42.56,1.91.28.15.15.66-.24.79a.92.92,0,0,1-1.28-.57A11.75,11.75,0,0,1,145.52,74.05Z" fill="#5e5e5e"/><path d="M256.94,74c.25-1.2-.47-2.38,0-3.6.13-.36.17-.61.6-.61s.42.34.62.6c.95,1.25-.4,2.41-.05,3.62.16.55-.26,1.23.51,1.65a.46.46,0,0,1-.18.81,1,1,0,0,1-1.39-.61A8.82,8.82,0,0,1,256.94,74Z" fill="#5e5e5e"/><path d="M115.92,74c.28-1.13-.48-2.25,0-3.43.15-.37.1-.75.64-.73s.4.4.57.64c1,1.28-.42,2.49,0,3.74.12.4-.18.93.19,1.23s.75.74.12,1.07a.92.92,0,0,1-1.36-.64A8.93,8.93,0,0,1,115.92,74Z" fill="#5e5e5e"/><path d="M263.34,71.08c.44,0,.9,0,.92.63s-.4.4-.77.43c-.71.06-.56.52-.25.91a6.5,6.5,0,0,1,1.15,1.45,1.45,1.45,0,0,1-.38,1.71,1.52,1.52,0,0,1-1.75.24.6.6,0,0,1-.37-.7c0-.43.33-.38.62-.29s.6.16.77-.15,0-.62-.27-.88a6.62,6.62,0,0,1-1-1.23A1.42,1.42,0,0,1,263.34,71.08Z" fill="#5e5e5e"/><path d="M174.79,72.92c0-.91,0-1.82,0-2.73,0-.48.18-.73.67-.7s.48.36.48.71q0,2.8,0,5.61c0,.36,0,.69-.5.71s-.65-.27-.65-.73C174.8,74.83,174.79,73.87,174.79,72.92Z" fill="#5e5e5e"/><path d="M251.09,73.75c0-1,.06-2.11,1.33-2.6.38-.15.9-.22,1.09.33s-.06.67-.63.78c-.84.18-.71,1-.71,1.66s-.09,1.39.73,1.5c.61.08.79.28.59.78s-.72.49-1.11.33C251.18,76.05,251.1,75,251.09,73.75Z" fill="#5e5e5e"/><path d="M191.91,71.32c1-.47,1.19.47.77.78-1.2.91-.68,2.07-.83,3.14-.07.45.36,1.21-.48,1.25s-.6-.78-.62-1.28c-.05-.95,0-1.91,0-2.87C190.71,71.54,190.72,70.82,191.91,71.32Z" fill="#5e5e5e"/><path d="M226.26,73.74V72.59c0-1.4.41-1.75,1.71-1.43a.59.59,0,0,1,.26,1c-1.35.79-.66,2-.84,3.1-.08.46.29,1.2-.54,1.23s-.53-.72-.57-1.17S226.26,74.26,226.26,73.74Z" fill="#5e5e5e"/><path d="M128.44,71.34c1.1-.49,1.14.52.77.79-1.25.89-.64,2.08-.81,3.14-.08.46.31,1.2-.54,1.23s-.58-.72-.59-1.19c0-1,0-1.91,0-2.87S127.15,70.74,128.44,71.34Z" fill="#5e5e5e"/><path d="M151.84,74v2a.5.5,0,0,1-.51.56c-.4,0-.64-.15-.64-.57V71.79c0-.4.17-.65.58-.64s.58.26.57.65Z" fill="#5e5e5e"/><path d="M105.66,73c0,.92,0,1.83,0,2.74,0,.42-.06.78-.6.77s-.49-.38-.49-.72c0-1.82,0-3.65,0-5.47,0-.42,0-.78.59-.74s.5.46.51.83C105.67,71.26,105.66,72.13,105.66,73Z" fill="#5e5e5e"/></g></g></svg>