<svg xmlns="http://www.w3.org/2000/svg" xmlns:xlink="http://www.w3.org/1999/xlink" viewBox="0 0 184.2 33.42"><defs><linearGradient id="a9a5c1d8-22b2-4810-95fc-28a72f53a6a1" x1="70.66" y1="13.23" x2="70.83" y2="13.23" gradientTransform="translate(-23.02 10.29)" gradientUnits="userSpaceOnUse"><stop offset="0" stop-color="#65388d"/><stop offset="1" stop-color="#2c2f76"/></linearGradient></defs><g id="a1dc9216-6149-4a97-aeb3-87a05565864b" data-name="Capa 2"><g id="be39df23-8e5d-4810-92a4-9ca688920b84" data-name="Capa 1"><path d="M47.64,23.61l.17-.17Z" fill="url(#a9a5c1d8-22b2-4810-95fc-28a72f53a6a1)"/><path d="M30.18,25a13.67,13.67,0,0,0,17.3-1.55c.06-.06.12-.11.17-.17a7.88,7.88,0,0,0,1-1.29A8.52,8.52,0,0,0,50,18.17c0-.27,0-.55,0-.82s0-.38,0-.57a1.37,1.37,0,0,1,0-.19c0-.12,0-.25,0-.37L50,16l-.06-.33c0-.08,0-.16,0-.23s-.05-.21-.08-.32,0-.15-.07-.23l-.09-.29-.09-.24c0-.09-.07-.19-.11-.28a2.29,2.29,0,0,0-.1-.23c0-.09-.08-.18-.13-.27a1.51,1.51,0,0,0-.11-.22l-.15-.27-.12-.21c-.06-.09-.11-.18-.17-.26s-.09-.14-.14-.2l-.19-.26L48.16,12l-.23-.27-.13-.15q-.16-.18-.36-.36l0,0A5,5,0,0,0,47,10.8l-.13-.11a3.55,3.55,0,0,0-.31-.23l-.17-.12-.23-.16A9,9,0,0,1,34.34,21.92l0,0-.65-.34A8.95,8.95,0,0,1,31.47,7.44l.18-.18a14,14,0,0,1,8.51-4c.46,0,.92-.07,1.39-.07s.67,0,1,0l.32,0,.66.08.37.06.61.11.38.09.6.16.35.11c.22.06.43.14.64.22l.29.11A13.36,13.36,0,0,1,48.48,5a13.69,13.69,0,1,0-18.3,20Z" fill="#706f6f"/><path d="M111.38,30.14a2.81,2.81,0,0,1,.9-2.09,2.92,2.92,0,0,1,2.14-.88,3,3,0,0,1,3,3,2.83,2.83,0,0,1-.89,2.12,3.06,3.06,0,0,1-4.18.09A2.85,2.85,0,0,1,111.38,30.14Zm.88,0a2.07,2.07,0,0,0,.65,1.57,2,2,0,0,0,1.48.62,2.09,2.09,0,0,0,1.54-.63,2.14,2.14,0,0,0,.62-1.55,2.09,2.09,0,0,0-.62-1.55,2.15,2.15,0,0,0-3,0A2.07,2.07,0,0,0,112.26,30.16Zm6,2.91V26.88l4.23,4.42v-4h.87v6.14L119.1,29v4.06Zm7-5.79v5H127v.83H124.4V27.28Zm3.1,0v5.79h-.87V27.28Zm1.08,5.79V26.88l4.22,4.42v-4h.88v6.14L130.33,29v4.06Zm9.37-5H136.5v1.39h2.26v.82H136.5v1.93h2.32v.83h-3.19V27.28h3.19Zm6.1,0H142.6v1.39h2.25v.82H142.6v1.93h2.32v.83h-3.19V27.28h3.19Zm.84,5V27.28H147a4.23,4.23,0,0,1,1.38.17,2.54,2.54,0,0,1,1,.57,3,3,0,0,1,0,4.31,2.54,2.54,0,0,1-1,.57,4.33,4.33,0,0,1-1.36.17Zm.87-.83h.4a3.4,3.4,0,0,0,1-.12,2,2,0,0,0,.7-.42,2,2,0,0,0,.65-1.53,2,2,0,0,0-.64-1.54A2.4,2.4,0,0,0,147,28.1h-.4Zm5.27-5v3.48a1.93,1.93,0,0,0,.24,1.09,1.31,1.31,0,0,0,2.06,0,1.89,1.89,0,0,0,.24-1.09V27.28h.87V31A2.14,2.14,0,1,1,151,31V27.28Zm8.77.31v1A2.43,2.43,0,0,0,159.1,28a2,2,0,0,0-1.5.64,2.15,2.15,0,0,0-.62,1.56,2.12,2.12,0,0,0,.62,1.54,2.05,2.05,0,0,0,1.51.62,1.84,1.84,0,0,0,.78-.15,1.94,1.94,0,0,0,.37-.2,3.4,3.4,0,0,0,.41-.31v1.06a3.16,3.16,0,0,1-1.57.42A2.89,2.89,0,0,1,157,32.3a2.83,2.83,0,0,1-.88-2.1,3,3,0,0,1,.73-2,2.92,2.92,0,0,1,2.33-1.07A3,3,0,0,1,160.67,27.59ZM165,31.66h-2.47l-.65,1.41h-.94l2.86-6.16,2.77,6.16h-1Zm-.35-.82-.86-2-.9,2Zm3.61-2.74v5h-.87v-5h-1.34v-.82h3.54v.82Zm2.67-.82v5.79h-.87V27.28Zm.8,2.86a2.84,2.84,0,0,1,.89-2.09,2.94,2.94,0,0,1,2.15-.88,3,3,0,0,1,2.12,5.13,3.06,3.06,0,0,1-4.18.09A2.85,2.85,0,0,1,171.73,30.14Zm.88,0a2.07,2.07,0,0,0,.64,1.57,2,2,0,0,0,1.48.62,2.09,2.09,0,0,0,1.54-.63,2.23,2.23,0,0,0,0-3.1,2,2,0,0,0-1.52-.63,2.07,2.07,0,0,0-1.53.63A2.1,2.1,0,0,0,172.61,30.16Zm6,2.91V26.88l4.22,4.42v-4h.87v6.14L179.44,29v4.06Z" fill="#a8a8a7"/><path d="M41.55,31A13.69,13.69,0,1,0,32,7.58l-.17.18a8.44,8.44,0,0,0-2.37,5.1,7.69,7.69,0,0,0,0,.83,5.43,5.43,0,0,0,0,.57c0,.06,0,.12,0,.18s0,.25,0,.38,0,.14,0,.22,0,.22.05.33l.06.23c0,.1,0,.21.07.31s0,.16.07.23l.09.3.09.23c0,.1.07.19.11.29a2.14,2.14,0,0,0,.1.22,2.39,2.39,0,0,0,.13.28c0,.07.07.15.11.22l.15.27.12.2.18.27a2.14,2.14,0,0,0,.13.19l.2.27a1.09,1.09,0,0,0,.13.17l.24.28.12.14c.12.13.24.25.37.37l0,0c.14.13.27.25.42.37l.13.11.31.24.18.12.23.15A9,9,0,0,1,45.11,9.12l0,0,.65.34A9,9,0,0,1,48,23.6l-.17.17h0a14.06,14.06,0,0,1-7.72,3.89c-.27,0-.53.08-.8.1a12.81,12.81,0,0,1-1.39.07c-.33,0-.66,0-1,0a3.16,3.16,0,0,1-.32,0l-.67-.07-.37-.06-.61-.12-.38-.08L34,27.27l-.36-.11L33,26.94l-.3-.11c-.3-.12-.6-.25-.89-.39h0c-.27-.13-.54-.27-.8-.42A13.67,13.67,0,0,0,41.55,31Z" fill="#a8a8a7"/><path d="M64.56,12.39a4.35,4.35,0,0,0-1.19-.72,3.07,3.07,0,0,0-1.16-.23,1.89,1.89,0,0,0-1.15.33,1,1,0,0,0-.45.88.87.87,0,0,0,.23.61,2,2,0,0,0,.58.42,5.2,5.2,0,0,0,.82.31c.31.08.61.18.9.28a5.49,5.49,0,0,1,2.62,1.59,3.93,3.93,0,0,1,.83,2.59,5.11,5.11,0,0,1-.36,2,4.21,4.21,0,0,1-1.07,1.5,4.73,4.73,0,0,1-1.71,1,7.08,7.08,0,0,1-2.3.35,8.48,8.48,0,0,1-4.93-1.58l1.56-2.94a6.71,6.71,0,0,0,1.62,1.08,4,4,0,0,0,1.59.35,1.92,1.92,0,0,0,1.33-.41,1.23,1.23,0,0,0,.43-.93,1.18,1.18,0,0,0-.11-.55,1.14,1.14,0,0,0-.37-.43,2.85,2.85,0,0,0-.68-.36c-.28-.11-.62-.24-1-.37s-.94-.32-1.39-.5A4.54,4.54,0,0,1,58,15.87a3.49,3.49,0,0,1-.86-1.13A4.09,4.09,0,0,1,56.8,13a4.93,4.93,0,0,1,.34-1.89,4.15,4.15,0,0,1,2.5-2.39,5.6,5.6,0,0,1,2-.34,8.88,8.88,0,0,1,2.17.29A9.49,9.49,0,0,1,66,9.54Zm8,10.44H68.88v-14h5.81A5,5,0,0,1,78.31,10a4.64,4.64,0,0,1,1.25,3.46A4.67,4.67,0,0,1,78.31,17a5,5,0,0,1-3.62,1.22H72.53Zm0-7.6h1.21c1.34,0,2-.58,2-1.75s-.67-1.75-2-1.75H72.53Zm17-3.35H85.15v2.35h4.09v3.09H85.15v2.42h4.33v3.09h-8v-14h8Zm14.3,10.95H99.24l-3.48-5.4v5.4H92.11v-14h5.68a5.51,5.51,0,0,1,2,.35,3.82,3.82,0,0,1,2.3,2.31,4.9,4.9,0,0,1,.29,1.68,4.16,4.16,0,0,1-.77,2.6,4,4,0,0,1-2.28,1.35Zm-8-7.76h.68a2.65,2.65,0,0,0,1.66-.45,1.52,1.52,0,0,0,.58-1.28,1.53,1.53,0,0,0-.58-1.29,2.65,2.65,0,0,0-1.66-.45h-.68ZM109,8.79v14h-3.64v-14Zm8.27,3.09V22.83h-3.65V11.88h-3V8.79h9.65v3.09Zm8.91,4.21L121,8.79h4.35L128,12.63l2.58-3.84h4.36l-5.14,7.3v6.74h-3.65ZM3.65,22.83H0v-14H5.81A5,5,0,0,1,9.43,10a4.6,4.6,0,0,1,1.25,3.46A4.63,4.63,0,0,1,9.43,17a5,5,0,0,1-3.62,1.22H3.65Zm0-7.6H4.86c1.34,0,2-.58,2-1.75s-.67-1.75-2-1.75H3.65Zm20.64,7.6H19.75l-3.48-5.4v5.4H12.62v-14H18.3a5.61,5.61,0,0,1,2.05.35,4,4,0,0,1,1.44.94,3.81,3.81,0,0,1,.85,1.37,4.67,4.67,0,0,1,.29,1.68,4.16,4.16,0,0,1-.77,2.6,4,4,0,0,1-2.28,1.35Zm-8-7.76H17a2.62,2.62,0,0,0,1.65-.45,1.52,1.52,0,0,0,.58-1.28,1.53,1.53,0,0,0-.58-1.29A2.62,2.62,0,0,0,17,11.6h-.69Zm124.3-6.25v11H145V23h-8.09V8.82Zm15.19,11.7H150.5L149.65,23h-3.92l5.39-14.15h4L160.52,23H156.6Zm-1-2.8L153.13,13l-1.65,4.71Zm7-8.9h5.48a4.2,4.2,0,0,1,3,.94,3.48,3.48,0,0,1,1,2.7,3.64,3.64,0,0,1-.38,1.78,3.32,3.32,0,0,1-1.17,1.19,4.4,4.4,0,0,1,1.34.46,2.8,2.8,0,0,1,.9.76,2.9,2.9,0,0,1,.5,1,4.7,4.7,0,0,1,.15,1.2,4.27,4.27,0,0,1-.35,1.77,3.57,3.57,0,0,1-1,1.29,4.12,4.12,0,0,1-1.53.79,7,7,0,0,1-2,.26h-5.92Zm3.68,5.56h.68c1.15,0,1.72-.46,1.72-1.37s-.57-1.37-1.72-1.37h-.68Zm0,5.74h.81a4.09,4.09,0,0,0,2-.36,1.21,1.21,0,0,0,.6-1.14,1.24,1.24,0,0,0-.6-1.15,4.23,4.23,0,0,0-2-.35h-.81Zm16.71-7.68a4.77,4.77,0,0,0-1.2-.72,3.12,3.12,0,0,0-1.17-.23,1.92,1.92,0,0,0-1.16.33,1.06,1.06,0,0,0-.45.89.89.89,0,0,0,.22.62,2,2,0,0,0,.6.42,5.2,5.2,0,0,0,.82.31l.91.28a5.78,5.78,0,0,1,2.64,1.6,4,4,0,0,1,.84,2.62,5.12,5.12,0,0,1-.37,2,4.2,4.2,0,0,1-1.07,1.52A5.09,5.09,0,0,1,181,23a7.21,7.21,0,0,1-2.32.35,8.48,8.48,0,0,1-5-1.6l1.58-3A6.35,6.35,0,0,0,177,19.9a4,4,0,0,0,1.59.35,1.9,1.9,0,0,0,1.35-.41,1.28,1.28,0,0,0,.44-.94,1.31,1.31,0,0,0-.11-.55,1.17,1.17,0,0,0-.38-.43,2.6,2.6,0,0,0-.69-.37l-1-.38c-.47-.15-.94-.31-1.4-.49a4.54,4.54,0,0,1-1.22-.73,3.39,3.39,0,0,1-.86-1.13,4,4,0,0,1-.33-1.74,5,5,0,0,1,.35-1.9,4.24,4.24,0,0,1,1-1.47,4.6,4.6,0,0,1,1.54-1,6,6,0,0,1,2-.33,8.7,8.7,0,0,1,2.2.29,9.74,9.74,0,0,1,2.19.85Z" fill="#878787"/></g></g></svg>