<svg xmlns="http://www.w3.org/2000/svg" viewBox="0 0 118.76 140.52"><g id="afada9f4-a069-4201-95e4-4d47ae768fa5" data-name="Capa 2"><g id="b03a0e59-8ef8-466e-9dd3-05734335516e" data-name="Capa 1"><path d="M11.14,16.62l.23-.36.18-.13.29-.1.23-.22.18-.1.62-.21.19-.19.2,0,.55-.39.19-.08.16.09.15-.24,1.07-.27.1-.19,0-.19.09-.19.42,0,0-.11-.17,0-.16.05.09-.73.41-1.08.18-.06.22-.24.18.12.41,0,.4.1.38.26.26-.05.13.18.16.09.15.2-.06.33.05.16-.13.4.07,1.19-.31.36.15.34.07-.1L18.47,15l.12.09.13.32.15.78-.09.15,0,.16-.06.16-.22-.23,0,.2.16.1.06.17.3,0,.07.14-.08.14.16.16.36.82.15.12v.32l.2.35.24.63.27.32.08.4.17,0,.19.38.09.38.36.45.15.37.19.71.27.29.35.73.17.68.24.15.1.21,0,.25.32.48v.19l.25.12.24.76.1.17.17.15.1.35.41.73v.39l.19.12L25.13,30l.07.58.19.2,0,.82.1.83v.61l.15.24-.11,1-.19.38v.19l-.11.35,0,.26-.25.27-.07.18,0,.35-.19.11-.08.35-.35.64-.49.6-.85.87H22.7l-.08.2-.55.32-.28.27-.5.17-.16.15H20.6l-.76.24-1.12.11-.16-.16-.31.09L18.11,40H17.9l-.36-.1-.92-.39-.21,0-.08-.2L16,38.92l-.23-.06-1.07-1.24,0-.26-.26-.2-.12-.56L14,36.24l0-.16-.22-.23v-.37l-.09-.39,0-.54.32-.06.22-.35.38-.06,1.51-.5.38-.06.56,0,.15.37,0,.35.17.11.08.16-.14.27.13.08.22.27.33.78.29.34.19.12.06.25.75.32.38.08.2,0,.12.13.17,0,.46-.24h.2l.12-.15.38-.18.29-.28.29-.55.18-.17.06-.37.11-.1V34.9l-.08-.16.16-.22,0-.58.06-.19-.14-.15.09-.19-.06-.21.09-.19-.12-.16-.09-.49-.14-.18,0-.16.09-.19-.29-.31.15-.31-.26-.3-.16-.36-.23-.74-.19-.16,0-.21.05-.21-.49-.66-.17-.36-.06-.35-.28-.25-.07-.3.05-.16L19.72,27l-.09-.35-.1-.18-.06-.35L19.28,26l-.23-.67-.15-.13,0-.26-.32-.38-.2-.32-.06-.39-.72-1.33,0-.18-.23-.09-.09-.49-.15-.13-.2-.32-.06-.53-.29-.34-.2-.5-.1-.1v-.34l-.22-.3L16,18.82l.05-.38-.26-.27V18l-.15-.37v-.19l-.29-.27L15,17l-.16.16-.35.16-.18,0-.66.46-.82.43,0,.3-.29.17-.43.41-.16,0,.07.25-.18.14-.26.34-.21,0,0,.33-.05.16-.13.15-.1.37-.25.27.11,0,0,.24.06.22-.11.2-.06.4-.34.15.08.09.2,0,.13.38-.09.19.18.2.06.39-.12.08.15.17-.22.34.14.07.32-.13-.08.18v.36l.16-.15.12.2,0,.21-.09.12.21,0,.2-.16.54.65,0,.18-.32.09-.12.16v.15L12.2,26l.29-.27.17.14.33.1.33,0,.1.25.36.1.76.07.38.08.24.29.41.32-.08.21-.11.14v.14l.08.16,0,.68.08.16-.06.19.08.23-.11.28v.44l-.08.14-.16.12-.54,0-.21.1-.37-.09-.36,0-.37-.1v-.21l-.16-.16-.09.29-.2,0-.48-.19L12,29.46l-.38-.22-.38-.15H11.1l-.31-.32-.53-.28-.12-.12-.07-.18-.19-.06L9.74,28l-.1-.18v-.19l-.17-.07-.38-.43-.19-.06-.18-.34-.16-.09L8.2,26l-.15-.17.23-.15-.34-.29L7.76,25l0-.4,0-.2L7.56,24l0-.21-.21-.32.12-.32.14-.1-.08-.12H7.41l0-.23.13-.22-.17-.22.17-.36.07-.75.08-.35.09-.19,0-.35.29-.34.35,0-.22-.16.05-.19.42-.64.06-.16L9,18.67l.11-.35.47-.44.18-.35,1.08-.91.16-.05ZM7.86,22.46l-.14-.08-.14.07.14.07ZM8,22.41,8,22.24l-.12.11Zm.48.94.08-.21.19-.05.07.18.15,0,.34-.18,0-.19h.25l.16-.11-.17,0-.18,0-.17-.08L9,23H8.74l-.16-.13L8.39,23,8,23.08l.29.23ZM8.26,22l-.06-.45H8.06l0,.39Zm.18,2.39.14-.13.08-.18-.18.14H8.3l-.17.07.15.09Zm-.27-1.79.21.11.23,0,0-.19.13-.19.21.07.21,0L9.17,22v-.15L9.08,22l-.14.1H8.78L8.62,22l-.08-.19-.12.08v.37l-.07.17Zm.32,2.53.19-.05L9,24.78l-.29-.2-.18.17-.08.18Zm.48.91.2-.19L9,25.78l-.22-.3-.22.13.21.12.12.16Zm-.3-2.27.27.18.19.06-.39.23.08.13.18.07.34-.22.17.11-.22.31,0,.37.19.06,0-.21h.18l.17-.4.31-.06.29-.28.06-.15-.14.1-.14,0-.13.12-.35-.19v.21l-.19-.09-.36-.27-.16-.06V23.7l-.38-.39-.14.13.15.2Zm.41-2.48.06-.16L9.06,21l-.18.17.11.17,0,.15-.29.1.1.18,0,.16L9,21.77v-.14l.13-.15.12.16.15.09.23-.22-.15-.17-.12.09Zm1.21,4,.07-.07,0,0-.18,0,.14.22h-.14L10,25.07l-.2-.14-.17.15.19.2H9.45l-.18-.08-.15,0-.18.1.15.23.34-.08.08.12,0,0-.23.22.33.2-.09.16.08.16.14-.1.21.11.23,0-.09-.16-.34-.18-.17-.15-.07-.21.56-.05.15-.07.06.14.13-.19,0-.15.07-.11.16.06.26.3-.09.53-.22-.06-.2.08.33.2.25.24.07.17.16-.08.09-.19.28,0-.38-.22.09-.15.16.09.14,0-.1-.21L11.34,26l-.23,0v-.22l.25-.07-.11-.14-.31-.08.14-.07L11,25.29l-.21-.11V25l-.14-.14.07.14-.21.33-.1,0,.07.07-.07.07ZM9,20.77h.19l.11-.21-.2.08Zm0,3.89h.26l0-.12-.18,0Zm.3-5.26-.11-.34L9,19.25l.07.17Zm-.11,1.67.2.08h.2L9.48,21l-.34,0Zm.38,1.52-.12-.16,0-.16-.18,0,.07.14.14.15Zm-.23,1.1.45.26.2-.19-.47-.28-.17,0Zm.15-.31.2-.12.17,0,.21,0-.1-.14-.17,0v.09l-.17,0-.25.06Zm0,1.31.07.07-.14,0Zm0-4.61L9.57,20,9.4,20Zm.29,2.29.14-.14h.2l.19-.08-.18-.34-.18.06-.09.2H9.6l-.19.12.17.1ZM9.8,27l-.21.14.21.07.36-.41-.1-.25-.12.09-.08.17Zm0-7.57-.12-.12,0,.15Zm-.08,1,0-.15-.05.05ZM9.8,20l.4.24V20l.23-.08.14.11.18-.1.09-.12-.1-.18-.15.24-.17-.14-.12-.2-.17-.07v.16l.09.19-.08.17-.08-.16L10,19.76H9.77l.05.12Zm.08,2.75.09-.08-.17-.08Zm.22-2L10,20.71l-.09.09Zm0-2.66.07-.07L10.1,18l-.07.07ZM10,25l.21.15L10.4,25l-.18-.19Zm.21-2.27.09-.09-.09-.09-.07.07Zm0,3.35.17-.16,0-.16-.12.16Zm0-5.14.15-.13-.07-.08-.11,0Zm.05,6.68.16.06.07-.14-.14,0Zm.05-4.2.15-.05.06-.19-.24,0Zm.09,5,.09-.19-.08-.2-.13.23Zm0-1.68.08-.07-.05-.13-.13.09Zm0-5.44.32-.09-.19-.2-.13.15Zm.12-.34.1-.11-.17,0Zm.22,6.54-.13-.15h-.14l.12.13Zm-.24-8.68.37,0-.13-.18-.2.08Zm.25,9.15.09-.12-.09-.12-.16.12Zm0,.42.38.08.37-.08-.4-.13-.19,0Zm.1-1.22.21.07.09.16.2,0L11.17,27,11,26.87Zm.09-2,.15-.14,0-.19-.16.05-.05.12Zm.23-5.34-.11-.2-.2.12.15.13Zm1.11,7.72v-.38l.16-.05.15.12.23-.08v-.21l-.16,0-.12-.12-.06-.18v-.18l.35,0-.06-.14-.14-.11-.18.13-.19,0,.05.19,0,.2-.22.55L12,27.14,11.77,27l-.1.23.13,0,0,.14-.16.05-.13.11,0,.16h-.25l.08.37.18-.13.06-.23.1.11.18-.06.17,0-.17.29.2.06.17,0,.75-.4.12.19,0-.19-.1-.21-.13-.15-.18,0-.07.18v.19l-.18,0-.3.11L12,27.48l.05-.16.16.13ZM11.27,17l.05-.08h-.05Zm.91,11.42.18.11,0,.19,0-.21.13-.22-.17-.11-.18.06Zm.16-11.69.06,0-.12-.12-.06.05Zm.1.73.06-.16h-.14Zm.33,10.85v.12l.09-.08-.14-.14-.05.12Zm.45-2-.18.34-.14-.07-.14.1.17.08.23-.09.13-.15Zm-.18,3-.11-.11,0,.12Zm.06-1.19.12.05.2-.25.14.17v.2l.43-.17-.21-.28-.19-.06-.42-.52-.11.1.17.18v.21l-.1.19Zm.28.29-.14-.08-.11.07Zm.07-.07.1,0-.15,0Zm0-1.62.3-.15-.1-.1-.16.12Zm0,.58.16-.08-.1-.11Zm.12,2.07.07-.06,0-.06-.07.07Zm.35-12.34-.1-.21L13.6,17l.14.11Zm.42,11.21,0-.05-.06-.08-.06.06Zm.4,0,.23-.05L14.86,28l-.14.07ZM15,15.46l0-.05-.09.09Zm.43-.33.11-.14v-.12l-.11.1Zm.41,1.93-.19-.12-.19-.06.13.14Zm.06-1.87.24-.22.19-.05-.11.14,0,.16,0,.16-.41,0,0,.42-.16-.13-.14,0,.26.27,0,.23-.23.08.15.09.52.16-.16.33V17l.12.17.39-.06.17.11-.1.4.1.21-.06.15.12.24.11-.28.35,0,0,.14,0,.18.75.32.11-.18v-.19L18,18.3l-.11,0-.17-.21-.19,0,.15-.38.16-.12.19.1-.07.13.17.15.21,0-.13-.39L18,17.49l-.38-.11V17.2l-.14-.14,0-.14.26-.08,0,.08.36.38.06-.19-.2-.57-.17.11-.11-.11.15-.24-.15-.2L17.51,16l-.21,0v-.23l.23-.15-.06-.32-.14.18-.22.1,0,.19-.11.1-.2-.42-.44.14-.1.44L16,15.81l.11-.17.39-.1,0-.37.07-.17.14.18,0,.16.1.14.22-.27.17,0,0-.18.2-.05-.07-.68-.2.05L17,14l-.09.16.06.14.14.11-.16.22.16.36-.24,0-.17-.32-.1-.1.11-.14,0-.16-.19,0-.19.08.22.23-.3.08,0,.14-.09.12L16,14.81h-.17l-.18.06,0,.16Zm0,22.4-.12-.16-.16,0,.14.15Zm-.13-1.76.18,0,.11-.14-.35-.15Zm.18.58.16-.12.16,0,0-.18-.23.15Zm.32,1,.2-.12-.1-.14,0-.16.14-.07,0-.21.24.12-.06-.25-.19,0-.22.3-.06.34Zm-.06-19.3.16-.08-.1-.11Zm.2,19.92L16.4,38l-.18,0Zm-.07-21.3h.19l.19.09-.16.16-.17-.08Zm.31,1-.11-.14-.19.05.14.11Zm-.1,1.05.11-.17-.25,0Zm.06.32L16.4,19l-.07.11Zm0,18.52.45.16.2-.19H17l-.09-.39-.11,0,0,.17-.14.14Zm0-21.11.13-.12.18.2-.19,0Zm.1-.47.11-.17.12.12Zm.47.61.31.21-.19.05v.21l.07.21.19.1,0,.17-.09.16-.26-.13v.09l-.15,0-.16-.09.22-.2-.24-.29.18-.13,0-.14ZM17,19.8l.18-.1,0-.41-.13.12,0,.19Zm.28,0L17,20l.15.13.18,0,.07-.14Zm-.18,1.06,0-.1h-.13Zm-.08-4.77.09-.08.08.09,0,.1Zm0,3,.23.09.2-.26.14.11h.21l.14-.14.07.14.09-.22-.21,0-.24-.25-.09.19-.16.11-.19,0-.05-.19-.13.05.1.17Zm0-5.15.14-.14.08-.24-.16,0,0,.14Zm.24,7.2-.18.17.18,0Zm0,17.4h.21l.13-.12h-.21l0-.09.13-.12-.31-.22,0,.39Zm.25-18.93-.08-.16.12-.19-.21,0-.14.06.12.24Zm-.11.61.15-.1.19,0v-.18l-.15.14-.19.05Zm.25,17.72,0-.16-.12-.19-.07.17Zm.7-18.38-.07.14-.16.15.09.22v.21l-.16.15-.16-.06-.18.07-.1.13,0,.16.36-.27.22.17.34-.12-.18-.33.09-.2-.05-.22.06-.13.05.09.17.08.11-.14v-.16h-.37l-.06-.21-.18.1Zm-.71,1.63.35,0,.29.2.07.18.2-.08.14-.21-.24-.14.13-.12.09-.19,0-.23-.18.06-.21.31-.13,0-.06-.15L18,21l-.11,0,0-.11-.21.1Zm.4,17.13.07-.07L18,38.08l-.21.07.17.11ZM17.8,16l.17.11.11-.1,0-.18H18v-.23l.07-.4L18,14.83l-.22.06.13.5-.13.15.29.27-.12,0Zm-.05.86,0-.12v.1Zm.12-2.23.12-.18-.15-.1-.06.12ZM18,19.56l.1-.19L18,19.18l-.21,0,0,.22Zm-.15-1.63.08-.07-.05-.06-.08.07Zm.06,3.66.17.18,0-.18.09-.08-.08-.16-.09.08Zm.31-2.41,0-.18-.14.07Zm.06-3.33v-.26l-.13.05Zm0,1,0-.22-.13.08Zm.38,2.1-.05-.16.07-.17-.2-.11-.22.06.18.15.08.16Zm-.29,3.55,0-.16.09-.15-.1-.08-.06.2Zm.07,15.56.11-.1-.18,0ZM18.82,22l.23.09h.24l.1-.12-.18,0,0-.14.14-.13-.21,0-.17.07-.18-.14-.14.13-.27.15,0,.2.2-.09Zm-.22-6,0,0-.12-.13-.05.05Zm.14,4.4.16.16h.16l0-.16-.23-.5-.14.1.16.32ZM19.09,23l-.22-.1-.16.16.31.14.18,0,.08.23.19.06.19,0-.12-.2L19.6,23l-.11-.2-.2.05.08-.24.4.09.05.16-.16.09,0,.16L20,22.8v-.17l-.15-.2.15.13h.18l-.4-.27-.1.29-.18-.12-.32.16v.16Zm-.33,14.88.09-.08-.12-.09Zm0-15.44.14.08H19l0-.16.18-.1-.14-.14-.14.21ZM19,21.16l.1-.1.14.11.18,0,0-.14.21-.31-.15-.3-.09.15v.14l.1,0-.28.17H19l-.15-.09L18.8,21Zm-.17-2.09.36.07-.06-.46-.14,0-.09.23Zm.33-1.27-.24-.11,0,.18H19ZM19,38.9l.17-.16.42-.16-.19-.2-.46.34ZM19,23.71v-.18l-.14,0Zm.1-3.51L19.3,20l.42-.09.08-.18-.39.1-.18.1-.09.12Zm.16,3.71.1,0,0-.17Zm.08-4.45.11-.21-.19.05Zm.17,2.3.05.16.34.18.1-.29.21.11-.12-.41-.19.12-.2,0Zm.1-.61.09-.12V20.9l.23,0-.19-.06-.18.13Zm0,3.43.13-.12-.14-.11Zm.21.62.07-.07-.06-.07-.08.07Zm.31-1.55.12,0-.1-.11-.15.1.14.15Zm.16-.08.22,0,.24-.11-.17-.22-.25.07.06-.2-.05-.19-.26-.09V23l.17.35Zm-.15,15.18.16-.08-.07-.14-.15,0Zm.28-12.92-.14-.11-.12.05.13.11Zm.14-1.26.43.28-.07-.11.14.07v-.1L21,24.65l-.25-.27-.22.07-.1-.15-.14.14.15.13Zm-.11-2.49.13-.19-.12-.06-.16.09Zm-.14,16.35.23-.12-.18,0ZM20.69,25l-.21-.08-.12.12.17,0Zm-.23-1.11.17-.1-.1-.11Zm.46,2.22h-.45l.2.14.2,0Zm-.33-.5.19-.05.19.06,0-.35-.33.18Zm0-1.44h.18l-.16-.1Zm.24,2.92-.06-.18-.13.19ZM21,25.65l-.21.1.17.07Zm.25-1.53-.12-.06V23.9l-.18.07.12.16Zm-.29-1.43.21-.14H21Zm.09.67.05-.2-.14,0Zm.18,2.86v.24l-.07.14.27-.18-.07-.22V26l-.21-.11-.14.13Zm0,.65.07-.14h.14l-.15-.09-.23.05Zm-.12,1.61.11,0-.16,0Zm.07-1.33.11-.18-.19,0Zm.41-1.52-.11-.19-.18-.11.09-.09-.12-.12-.05.12,0,.14.12.19Zm0,3,.07-.18-.1-.17-.18.1-.19,0,.1.15.14.07Zm-.24-4.83.07-.07-.07-.14-.16.12Zm-.1,3.75.26-.12.12.16,0,.18.12,0,0-.16.26-.22-.18-.12-.16,0-.12-.12-.39.06v.19Zm.24,2,0-.23-.13.05Zm-.05-4.39h.15l.26-.31,0-.19-.08-.13v.2l-.18.1-.18,0Zm.09,1.69.17.07.41,0v-.21l-.1-.21-.34.22Zm.19-1.17v.19l-.14.21v.19l.17-.06.14-.37.14-.17-.17-.07Zm0,2.54.14.11.14,0-.1-.18-.16,0Zm.3.43-.14-.11-.14.1.14.11Zm-.14-3.07.09-.3-.22,0,0,.16ZM22,38.44l.08-.07L22,38.3l-.07.06Zm.2-8.52,0-.19-.11.14Zm.14-4.09.11-.1-.1-.11-.11.1Zm.06,1.65.23.16.07-.21-.05-.56-.1.43Zm.2,9.64.09-.09-.1-.1-.09.08Zm-.06-8.89.2-.08V28l-.16.08Zm.63.67-.06-.21-.45.18.34,0Zm-.21,2.76-.09-.16-.16.09Zm-.15-.23,0-.17-.08.06Zm.06,6.12.11-.1-.18,0Zm0-10.2.07.07-.08-.12ZM22.9,30l.15-.14-.12-.12-.11.1Zm.27,6.37,0-.14-.18,0Zm.22,1.7,0-.12h-.13Zm.08-2.29-.07-.14h-.11Zm0-1.75-.05.12h.1Zm.13,2.26.16-.08V36l-.12,0-.07.07Zm.35-1.83.07-.07-.06-.07-.08.07ZM24.13,30l.09-.09L24,29.83Zm0,1.35.09-.09-.15,0Zm.17,1.4.14-.13-.15,0Z" fill="#878787"/><path d="M27.1,14.11l.47.16.25-.21.16.08.76.08.18.07.13.12.09.21.15-.06.11-.15.3.17h.36l.39-.08.12-.38.44-.63.26-.29.39-.66.05-.2.24-.14.17-.35.35-.32.4.14.09.55.13.12.14.89.11.2,0,.36.12.16.16.77.15.17,0,.17,0,.35.19.32v.4l.22.82,0,.4,0,.19.2.14-.11.35.2.2,0,.19.05.23.2.4,0,.41.06.2.14.24-.16.17-.11.35.19.09,0,.15.13.1.21.05.14.15.22,0h.66l.49-.68v-.2l.22-.16-.09-.26.15-.38.14-1.59.1-.38-.09-.2-.06-.4.21-.18L37,15.78v-.46l.11-.55.42-.21.89.09.08.15L38.71,16l.06.16-.07.22v.2l.08.24-.05.37.06.19-.07.82-.09.39-.09.2.07.22v.39l-.32,1.13v.46l-.19.31-.14.36-.19.32-.17.15-.23.68-.19.11-.25.46-.6.31-.1.18-.17,0-.62.42-.2,0-.58,0-.16.06-.41-.05-.81-.22-.35-.31-.28.31-.22.32-.27.67-.28.51-.31.29-.07.19-.25.34-.17.16-.19.08-.08.16-.25.26-.57.3-.21-.08-.19.31-.24.14-.26-.11-.21.13-.42.12-.77,0-.2.06-.76-.33-.59-.18L26,27.33l-.27-.19-.17,0-.07-.16-.45-.34L25,26.46l0-.21-.29-.15-.08-.33-.29-.31-.07-.16,0-.22-.39-.43-.33-.81-.07-.56L23.26,23l0-.17-.1-.71-.13-.18-.06-.2.09-.39L23,20.93l0-.39.11-.35L23,19.76l0-.39.11-.4.19-.37,0-.21.11-.41v-.2l.11-.15.12-.35.15-.08,0-.34.25-.31.19-.37.24-.32.2-.11.31-.49.22-.07.45-.35.2-.06h.23l-.1-.08,0-.16.39-.08.49-.23Zm-2.91,7.24.26,0-.15-.17Zm.08,2,.09,0-.05-.09-.09,0Zm.05-6,.16-.06,0-.14-.29.05Zm.14,3.27.1-.23-.2.06Zm.4-1.58-.27.07.18.07Zm-.19-1.52.12.1.11-.09,0-.16-.14.05Zm.24,4.67.17-.1.06-.15L25,21.85l-.22,0,.05.19Zm.1,1.55.25-.21-.1-.17-.13.17Zm0-3.88.19-.13.06-.18L25,19.48l0,.18Zm.12,1.19.13-.07h-.18Zm.13,3.48.19-.11-.08-.18-.19-.09,0,.19Zm.35-5.13,0-.15-.15-.06-.18,0,.16.17Zm-.29,3.72.22-.07-.13-.13-.15,0Zm-.06-1.2.2.09.06-.18Zm.37,3.46,0-.31h-.18l-.19.08,0,.15.14.1Zm.45-6.25-.29-.2-.33-.13.09.21.16.17.18.06Zm-.57,4.51.19.12.1-.17-.21-.11Zm.27-2.76-.11-.14-.13,0,.1.14Zm-.23,1.74.19-.17-.17-.05Zm.32.7-.1-.17-.22-.08,0,.15.1.14Zm-.24-6.5.12-.13.1-.23-.22-.13v.49Zm.09,9,.15-.09,0-.14h-.14l-.11.12Zm0-4.15.21-.12-.13-.18-.17,0Zm0-3.07.17-.16,0-.24-.17.1-.05.11Zm0,3.33.18.1.13-.11-.17-.1Zm.11-4L26,17.6l0-.2-.15.17,0,.19Zm.18-2,0-.18-.13.08ZM26,24.87l.12.44.23.36-.19.11.19.37.15.06.24-.08-.32-.19-.05-.2.36,0,.06-.3-.33.08-.1-.37.05-.12.13-.1-.13-.19-.15-.11-.08.11Zm.2-5.41.08-.05V19.3l-.15,0Zm.23,4.3-.11-.13-.14,0,.06.14Zm-.13.62.31-.29-.27,0ZM26.63,16l-.36.12.2.05Zm.25,1.51-.08-.32-.4.2-.09.14.36,0Zm-.44-.55.11.09.17-.1-.14-.1Zm3.21-1.48-.08.3-.2-.08-.17,0-.34.25,0,.21-.06.18-.14.17.28.38-.21.13-.09.19-.37,0-.54.31-.41.1-.08.5-.26.29v.2l-.24.74,0,.39,0,.21-.12.24.1,1.06.14.34,0,.16h-.2l-.22.07.14.15h.2l.17.1.05.37.08.15.18.1v.18l.07.18.32.31,0,.26.39.13.31.28.34.14.53,0,.38-.14.66-.44.55-.54.22-.3,0-.21.22-.9.13-.08-.12-.45V21l.22-.17-.22-.14v-.79l-.49-1.5L30.41,18l0-.16.1-.12h.15l.18-.07,0-.08-.07-.22.07-.38-.11-.09-.17.3h-.2l-.21.1V17l-.34.06-.1.12.15.11h.16l.16.08-.14.19L29.26,17l.14-.31-.15-.06-.14-.18.15-.08-.22-.3.16-.21.13.18.17.39.11.14.09-.2,0-.26-.2-.09-.09-.12.62-.56.08-.16-.23,0L29.52,15l0,.22Zm-3.18.35h.12v-.11h-.11Zm.26,10.73.06,0,0-.06-.07,0Zm0-2.07.17.05.19.29.17-.16L27,24.44l.1-.17.33-.22.21,0-.11-.14-.44.18L26.84,24l0,.23Zm.09.61.28,0L27,24.86Zm.31-8.22,0-.47-.23.11v.16l.1.17Zm-.26-.65.13,0L27.1,16V15.8L27,16Zm.1,9.47.18-.08h.18l-.06-.1-.18-.1-.18,0Zm.38-.88.3.17-.3.09-.16.12.15.06.39,0,.15.2-.09.1-.22-.09-.11.17L27.4,26l.28-.16.15.06-.17.21.19,0L28,26l-.22-.18.43-.45-.11,0-.1-.17.13-.22-.16,0-.13-.13.12-.09V24.5l-.19.17-.19,0Zm0-.15-.09,0,.05.09.09-.05Zm.08-8.23.19.08h.22l-.08-.18-.15-.12-.09-.2-.15,0,.05.2Zm0,10.34.16-.07-.13-.07ZM27.83,16l.06-.15.29-.14-.11-.14-.16-.08,0,.19-.1.18Zm.61,9.89-.13-.16-.18,0,.13.18Zm-.24-9.51.1-.17,0-.19,0-.23-.13,0,.05.37Zm.59-.71.08-.25-.05-.19-.22.26-.12-.1h-.16v.2l.12.07h.35Zm-.4,11,.28-.16.17.14.2,0-.05-.2L29,26l-.16.15-.1.17-.19-.06-.19.05,0,.16Zm.15-1.28.15-.09,0-.15-.09-.06-.12.13Zm.08.58.15-.09v-.11l-.19,0Zm.09-1.43.05.09.12,0,0-.13-.16,0Zm.25.74.23,0-.1-.17ZM29.5,27l-.09-.15H29l.15.14.14.06Zm-.21-11.53.11-.06h-.14Zm.52,9.29.06,0-.05-.08-.06,0Zm.06,2.34.06-.15-.16,0Zm.07-10.57.23-.05.1-.21-.13-.09H30v.18ZM30,26l.08-.05,0-.07-.08.05Zm0-10.29.14.15h.25l-.16-.28Zm.18-.68.09-.14-.12-.1ZM32,14.61l.1-.14.2-.09-.18-.21-.18.33-.11-.1-.18,0,.11.63-.15.4-.32,0,.07-.18,0-.21L31,14.87l.06-.15-.06-.1-.12.15-.29.14-.09.14-.21.17.12.22.13.12.13-.18,0-.21.16-.07.1.08.1.18.08.38.12,0,0,.18-.11.15L31,16.07l-.09-.15.11-.15-.18-.07-.17,0-.14.11-.15.34.09.16-.32.38.1.17.51-.15,0-.21h.37l.16.07,0,.36h.18l.24-.23.17.25h.37l-.2-.24,0-.17-.41,0-.16-.08-.17-.19.36-.32.17.05-.27.27.1.14.14,0,0-.17.17-.1.43-.05.14-.16.23-.05-.26-.11-.17-.19-.2-.05L32,15.38l.12-.29-.2-.09Zm-1.64,2.7.19-.11.07.21-.13,0Zm0-2.5.16-.18-.14-.09ZM31,18.53l.15.12.22,0-.05-.19-.15-.06ZM31,17.44l0,.19.14.09,0-.26.15-.09.08.09h.17l-.08.22,0,.24.13.07.15,0-.2-.2.16-.12.21,0,0,.27.28-.07,0,.44-.15.15.18.15.24,0,0-.19-.06-.2v-.18l.17-.15,0-.17.05-.21-.05-.23-.14.06-.12.12-.13-.07-.08-.18H32L31.68,17l-.17.16-.34,0,0,.19Zm.41,4.83.11-.06-.07-.13-.11.06Zm0-3.66h.2l.15-.08.11-.16,0-.18-.19,0-.34-.15.15.37Zm-.07-3.88.17-.1-.18-.1Zm0,8,.11-.06-.07-.13-.09.05Zm.16-7.19.32-.18-.09.13,0,.16Zm.14,5.53.16-.06-.08-.15Zm.05-.46.35-.14-.11-.14-.23,0,.05.18Zm0,2.69.1.17.13-.22,0-.2-.19.11Zm1.48-3.86-.23.13-.22,0-.17-.05-.11.21.07.13-.2.09-.19,0-.14-.18.23-.1,0-.2-.13-.1h-.18l0,.18-.08.16-.19.11L32,20l.13.13.29.06h.17l.08.13.15-.12.1-.17.24-.05,0-.16.07-.12.12.16.14.09,0-.38ZM32,15.72l.18,0,.19.12V16l-.23-.09Zm.3,6.81v-.17l.07-.18.12-.13-.22-.13-.11.15-.07.22,0,.15Zm1-2.21.1.29.2-.06.07.16-.1.09-.06-.2-.16.15-.28.17-.13-.13-.26-.45-.4.15.05.19-.19.57.15-.05.16.13-.18.08h-.17l0,.19.12.16.17-.16.13-.33.26.11v.18l.22.33.14-.2.16-.07-.11-.19L33,21.33l.32-.24.34,0,0,.11h-.17l-.06.18,0,.21-.12.13v.16l-.06.15-.72.39,0,.39.1.08v-.14l.09.15.2-.06.11-.1.16,0L33,22.67v-.14l.19,0,.33,0,.13.12.29-.34h.2l0,.14.16.08.12-.09-.17-.14-.19-.48.13-.11v-.14l-.29.06.21-.33L34.6,21l0-.21.07-.18-.35,0-.18-.1,0-.11.19,0,0-.21.15-.19,0-.23-.17.1-.18-.06L34,20l-.19.06.06.16,0,.11-.16-.07-.1-.43-.11.06,0,.21Zm-1,2.52,0-.25-.12.19ZM32.18,14l.11-.06-.14-.09Zm.15,5.1.32.21.21.06,0-.21,0-.18.21-.07L33,18.78l-.55,0v.17Zm.1-3.93h.11l-.16-.08Zm0,5.5h.17l.07.22-.24,0ZM32.5,19l.13,0v.15Zm0-2.62.14.24H33l-.41-.31Zm.23.79H33l0-.31-.15-.05-.08.16Zm0,.61H33l.15.17-.13.17v.17l.33,0,.13.24.21-.23-.2-.15-.23-.35-.17,0,.12-.19-.11-.19-.15,0,0,.21Zm.2,5.43,0,.25h.2l.16-.07-.06-.16.16-.12.55.05.18,0v-.18l.07-.13-.23-.15-.2.29-.18,0-.15-.17-.33.27ZM33.06,16l.22-.16-.15-.11-.08.1Zm0,2.64.18.12.14-.11-.22-.19Zm0,.44.19.06.11-.15-.12-.1Zm.29,2.38.22-.07v.17l.3.45-.14-.09h-.18l-.1.17.09.21-.37.16.11-.16.08-.61Zm.13-4.14-.07-.16-.19.06.1.13Zm-.09-.89.09-.05v-.11l-.15,0Zm.24,2.44,0-.14-.15-.06,0,.17Zm.2.88.18-.36L34,19.21l-.17.1-.08.16,0,.14Zm.19,3.7.07.13.23-.11,0-.21-.18.08Zm.09-3.86.28,0-.16-.22-.13.07Zm.19,2.52.33.21.28.3.15-.09-.27-.47.06-.09h.27l0-.21L35,21.63l-.19.31-.11-.05,0-.3-.21,0V22Zm.29-.79.19-.12-.24-.06Zm.48.09.1,0v.16h.17l0-.17-.07-.22-.4,0ZM35.37,23l.12-.1,0-.15Zm1-1.45-.13-.12v-.17L36,21.13l.06.31-.23-.3-.13.08,0,.18.18.16.24.06Zm-.53,1.62.24-.13-.18-.22-.11.16Zm.2-1,.13-.07-.08-.13-.13.07Zm.69-1L36.56,21l-.13,0,.09.15Zm0,1,.08-.16-.15-.05Z" fill="#878787"/><path d="M39.13,9.7h.16V9.51l.5.25H40V10l.09.1.13-.15,0-.17.37.11.26-.08.39.21h.41l1.07.25.06.17.35.06.39.24.5.41.19.36.25.75.21,1.24-.2.24.12.15,0,.37,0,.4,0,.33-.22,0,0,.36.27.33-.1.18-.17.14-.1.16.15.13.15.06.15.63-.1.26h-.52l-.18.09.16.18.3-.2h.21l.08.26.31-.1.15.13.38.06.18.07,0,.2.09.13.15.05-.13-.38.05-.19.08-.13.17-.06.09-.18.31-.34V16.6l.36-.92.19-.12-.06-.21.17-.11V15l.18-.79,0-.42.17-.13.09-.84.3-1.17.19-.06h.47l.35,0,.32.26.09.13,0,.17L49.3,13l0,.43.07.21-.21.22.16.19-.25.42V15l-.19.29,0,.23-.31.65.06.21-.51,1.08-.33.5,0,.35-.3.28-.18.34-.65.65-.24,0-.18.31-.32.24-.37.06-.1.25-.66.21h-.29l-.2.11-.41-.05-.22.05-.71-.35-.39-.1-.69-1-.25-.76-.2-.32.08-.24v-.23l-.16-.18-.13-1.45.15-.25-.18-.57,0-.37.14-.31.21.09-.06-.19-.2-.06-.06-.25,0-.16.13-.15-.24-.21V13.3L41,12.78l-.18-.33-.15-.14L39.51,12H38.9l0,.28-.18.34-.08,1.27-.07.18.11.36-.07.18-.06.77-.11.56-.33.26-.42.08-.38-.13L37.2,16,37,15.67l-.07-.39.1-.43.1-.16L37,14.34l.12-.11.11-.3,0-.19-.1-.41,0-.76.1-.74-.09-.18-.38-.29-.09-.21-.2-.06-.24-.34-.19-.1,0-.19-.24-.34,0-.2V8.82l.35-.76,0-.2,1-.62L38,7.1l.34.07.33.16.15.13h.29l.28.72,0,.79.07.21-.18.34Zm-1.85.41-.24,0,.15.14Zm0-.47.07,0,0-.11-.15-.06ZM37.5,8.5l.08.11.07,0V8.45Zm.1,1.95.16.08,0-.23.13-.15.1.15h.16l.26-.39-.22,0-.08.16L37.62,10l0,.19,0,.14Zm0-.93.11.1.14-.12V9.36l0-.16-.12,0,0,.14Zm.08,1.23.13.14h.37l.15-.41-.28,0,0,.14-.2,0Zm.2,2.22h.18L38,12.81ZM38,8.8l.12-.12-.06-.19-.15-.08,0,.2Zm.08.57.09-.13-.15-.06Zm.09.26.11.12.14-.07,0-.24h-.15Zm.18,1.95.17-.14,0-.16-.21.15Zm0-.54h.13l-.11-.17Zm.5-.21.21.09.11-.17-.05-.4-.22.23-.11-.2-.17-.1.1.23.15.13Zm.84-.22,0-.3h-.14v.19Zm.16,1,.09,0,0-.1-.09,0Zm.57-1,.21.09-.2-.14Zm.22-.46L40.63,10l-.09,0ZM41,12.23l-.21-.17,0,.15Zm.13-1.53,0-.14h-.21l.09.13Zm.27,1.16-.15-.08-.1,0,.14.12Zm.14-.61-.21-.12.06.12Zm0-.75-.08-.15h-.13l.06.11Zm-.08,6.77.14,0-.19-.1Zm0-5.58.17.05.17-.05.11-.14-.19,0-.16.05Zm.12,4.23.11,0-.14-.11Zm.09-1.56.2-.12.09.44h.33l0-.14-.42-.41-.22,0Zm0-1.83.17-.14-.08-.15,0,.15Zm.09,2.83.13-.14,0-.23-.14,0Zm0-2.46.11,0-.14,0Zm0,2.78.09,0,0-.07-.1,0ZM42,12.07l.19-.06-.09-.13-.2,0Zm.12,1.83h-.2L42,14Zm-.17-.39.05.17.12.06.11-.16-.13-.17Zm.09-.26.16-.08,0-.11H42Zm.24-.65v-.18l-.12-.06,0,.17Zm0-1.18.25-.13-.18-.15-.15.1Zm0,.3.16,0,.11-.06-.16-.08Zm.63,2.69-.23-.29-.1-.33-.17.05L42.2,14l.11.12.08.24.19,0Zm-.52-2.26.12,0L42.21,12Zm0,3,.07,0,0-.09-.07,0Zm.46-1.39.2.06.15-.33,0-.19L43,13.21l.17-.11.11.33,0,.26,0,.14-.22.05.14.19.17-.11.18.07-.05.17-.36.09,0,.15,0,.16.12.12,0-.15.26-.26.08-.16v.21l-.19.32,0,.17h-.18l-.13.09.13.16v.22L42.83,15l.15-.1,0-.15-.18-.31-.14.7.08.15-.31.1.21.17.18-.09h.36l.32.11.07-.36.17-.11.05.22-.06.15.07.13.44-.09,0-.19-.2-.07L44,15.06,43.73,15l0-.36-.1-.22.5-.16-.08.15.14,0-.31.18,0,.17.3-.1,0-.17.09-.11,0-.16L44,14.18,44,14l0-.17-.09-.18.17-.21-.3-.19,0,.09-.16.14,0,.18-.11.14-.14-.6L43.27,13l.07-.18.17-.13-.12-.2,0-.17.11.09.12-.11-.46,0v.36l-.08.18-.19.12-.31-.24.16,0-.15-.08h-.34l.17.13.12.2v.18l-.1.16-.25.21.24.16.27-.19,0-.15.1-.11.07.08-.11.14,0,.19ZM42.61,17l.14-.14,0-.17,0-.17-.17-.13-.22,0,.08.31.09.13Zm-.12-5.63.07,0,.16,0v-.13h-.18Zm.06.5.21-.07.06-.15-.15,0-.13.09Zm0,4.31.34-.16-.15-.16-.16.08Zm.1.88.11.17.13.09.33-.05L43.1,17l0-.19-.11-.1-.09,0-.08.16Zm0-4.51.35,0-.32-.42-.05.17Zm.09,5,.1.15h.18l0-.15-.14-.08Zm.07-1.14.59.61.12-.11-.25-.55h.2l0-.25-.24,0-.2,0-.05.17Zm.36,1.75.18-.08,0-.16,0-.2h-.16v.44ZM43.71,16l.14.19.19.1.13-.1L44,16.14l-.07-.21-.16,0-.1-.23-.36-.07v.21l.19.09Zm-.29,2.8.12,0,0-.14-.09,0Zm.28-7-.1-.15h-.18l.13.16Zm-.12,4.64h.18l0-.22h-.24Zm.08,1.28,0,.15.28.48,0,.22.18-.08.08-.16.4.29.19,0-.13-.17-.16-.08-.06-.21-.26.08-.12-.12V18l-.18-.13-.2-.06.1-.11.16,0,0-.27-.22,0,0,.19Zm.07,1.62.15-.1v-.21l-.15.1Zm0-2.49.71-.46-.07-.05-.15.1-.4.07-.11.12Zm.32.29L44,17l-.17.06.17.12Zm-.27-4.08.24,0-.24-.1Zm.24,6.07.17,0,.14-.12,0-.19-.53-.27Zm0-6.26h.15l-.11-.2Zm.21,6.46.25,0-.06-.19-.13.09Zm.13-5.71,0-.2h-.15Zm.05,4.51.09,0,.09-.13,0-.18h-.15l0,.2Zm.06.74.16.1.11-.14Zm0-3.9.17.13,0,.12-.15-.08Zm0,3.25.2.12.19,0,.08-.16v-.2l-.29.14Zm.49,1.19.13.07.17,0-.16-.16Zm.24-1,.09,0,0-.09-.09,0Zm0,.48.47-.17-.12-.12-.17,0-.18.1Zm.16-.8.09-.14-.11-.09Zm.7.79.11,0,0-.14-.12,0Zm.13-.88-.17.05.12.12Zm.94-.38v-.21l-.14.05Zm-.08-.76.08.19.13.08,0-.19.11-.17v-.21l-.17,0-.12.14Z" fill="#878787"/><path d="M73.72.42l.14.12.35.15,1,.18.07.19.13.12.21-.05.2,0,.32.18.1.16.24-.11.37.23L77.1,2l.16-.05h.2l.8.5.2.31.27,0,.27.37.54.4v.18l.19.08.17.35.6.67.18.28.18.5v.12l.2.21L81,6.06l.2.35.38,1.16,0,.25.07.18,0,.17-.09.09.22,0,0,.41-.13.3.1.69-.08.84-.35,1.85-.31.68-.25.82-.34.77-.22.3,0,.31-.17.13-.12.18-.2.12v.22l-.44.64-.06.21-.14.06h-.17l-.06.37-.33.22-.18.32-.44.29-.17.3-.3.18-.09.21-.23,0-.13.18-.39-.21,0,.16.11.12-.06.19-.14.13-.3.13-.12.13-.38.07-.52.24H74.9l-.19-.08.1.19,0,.2-.22-.08-.22.14h-.23l-.67.33-.21,0-.16-.43.26.09-.08-.13h-.17l.09-.09H73l-.16.07-.16-.1.45.67-1.07.12-.11-.25-.22.3h-.38l-.92-.09-.11-.06-.08-.14-.07.12-.46.05-.26-.06,0-.34-.14.08-.07.17-.45-.07-.26-.22L68,20.23l-.75-.32-.45-.32-.36-.13-.32-.22-.22-.31-.08-.19-.36-.25-.21-.29L64.14,18l-.33-.18-.39.12-.2-.21-.22.14h-.4l-.2-.3-.16-.1.11-.39.12-.15v-.2l.13-.36.3-.51.11-.4.25-.32.06-.24.17-.15.1-.16.18-.52.15-.15v-.28l.17-.1.33-1,.23-.21.1-.16,0-.27.13-.16.25-.49.12-.15,0-.38.17-.27.25.16.05-.14-.11-.14L66,9.49l.56-1,.12-.14v-.2l.18-.37,0-.27L67,7.3l.19-.1L67.17,7l.56-.9.13.12.17,0L68,6l-.24,0,0-.2,0-.2L68,5.34l.14-.45.18-.38.08-.36L68.59,4l.22-.3.16,0-.1-.14,0-.15L69.07,3l-.13-.16,0-.19h-.27l-.17.1-.07-.19V2.44l.18-.35.26-.23-.15,0-.14.11-.18,0-.13-.1,0-.2L68,1.72l-.16.11.19,0,.26.24.06.16,0,.19-.1.12-.38.24-.19,0-.14-.07-.12.14,0,.16-.2,0-.54.22h-.23l-.07.17L66,3.73l-.07.19-.33.18-.29.23-.24.29v.23l-.29.3-.21.07.15.17L64.51,6l-.13.16.13.29-.07.14-.14.08.1.37,0,.44-.14.41.23.13-.08.22v.2l.12.34.07.39,0,.24-.3.18-.43.34-.39.06-.15.16-.7.37-.3.28-.65-.15-.29-.6-.15-.12L60.76,8.4l0-1.49.2-.14,0-.16-.11-.11L61,5.38l.13-.33.22-.31.06-.4.2-.34.15-.11v-.2l.37-.42.08-.21h.25l0-.27,1.28-1.2.22,0,.29-.26L65.44.84l.15-.13.22,0,.25-.19L66.47.5l.46-.23.22.08.52-.17L68.46.1,68.65,0l.19.08,1-.1.39.11L70.5,0l.21.08.83,0L72,.25l-.17.12,0,.23.19-.1L72,.26h.22l.18.13.13-.16.24,0,.55.18h.18Zm-12.32,8,.15-.16-.18,0Zm0-2.13.07-.14-.11-.09Zm.26-.09-.16,0,.21.11H62l.16-.08L62,6.23l-.06-.14L62,5.9l-.25-.19,0,.17,0,.15Zm.15.48.08.16.16.1.05-.19.16,0,0-.28-.25,0v.24ZM62,6.13l.22,0L62.28,6l-.22,0Zm.24-1.07-.19.1,0,.24.18,0,.11-.08.18.15.19-.1-.24-.23ZM62,4.81l.15,0,0-.11Zm0,4.11,0,.15.11.1.23-.24h-.37Zm.88-1.84,0-.44-.21,0-.14.11-.25.49h-.22V7.5l.14.07.1.14,0-.43.21.08L62.65,7l.18,0-.13.3v.18h.2L63,7.39l.28-.48.11-.11.19,0V6.6l-.23,0L63.13,7ZM62.1,5.69l.06.09.18,0,.1-.13-.2,0Zm.63-1.2-.22,0,.08.14Zm-.17.3.07.18.15,0,.39-.07-.08-.16-.36,0Zm.26,3.77,0-.15-.08-.16.07-.14.08.14h.18l0-.19L63,7.71l-.17.08-.22.31,0,.2.05.16Zm-.15-4.31h.17l.11,0L62.86,4l-.16-.13-.05.17Zm.49.75,0,.25.08.16v.2l-.22,0-.22.57v.17l.08.16.24-.13L63,6.15,63.1,6l.19,0-.08-.29.19-.09-.11-.15.06-.19.12-.18Zm-.39.37.16,0L63,5.18l-.14,0Zm.34-1.58.13.17.21.09-.08.51-.08.19.4-.12.09.19v-.2l-.17-.17-.18-.68h-.17Zm.3,4.83-.2-.18,0,.18Zm-.07-2.69.24.06,0-.17-.08-.12Zm.63.5-.4-.19-.2.15.22.06.24.23-.08.19H64l0-.2Zm-.58-3,.23,0,.13-.16-.22-.08Zm0,4.93h.15l.05-.19-.17,0Zm.12-.48.08-.19.14-.1-.08-.14-.25.29Zm0-2.86.19,0,0-.22-.15,0Zm.09-1,.19,0,.14-.11-.19-.05ZM63.66,3l.39.08.08-.21-.28-.27-.1.18Zm.62.22h-.2l-.3.13.16.28-.2,0,.41.07-.06-.29.2-.14.11.29,0,.22.18,0,0-.37-.07-.19.14-.1L64.67,3l-.26,0ZM64,16.27l0,.2-.1.16v.1l.27-.16.37-.12-.1-.16-.2,0ZM63.88,6,64,5.9l0-.13-.1.11Zm0-.38.18,0,.08-.19-.22,0Zm0,3.46H64L63.91,9Zm0-.4H64l.07-.09-.14-.07ZM64,15.4l.22.31-.09.13V16l.17,0,.08-.17,0-.18.31.1.13-.23-.33,0-.1-.19-.21-.06Zm0-8.09.2-.15-.17,0ZM64,4.46l.06-.09.18,0-.11-.17-.18,0Zm0,10,0,.13.14.05-.07-.16Zm.07-5.91.07,0,.07-.12h-.1Zm.17,5.77,0,.43.22,0,.13-.18.18.26-.38,0-.05.17.06.11.19-.1.66,0-.07-.24-.15-.17,0-.18-.21-.08-.09.11h-.23l0-.16Zm.24-12.27L64.59,2l-.09-.08Zm0,14.66.22,0,.13-.05.1-.14,0-.2-.15,0-.05.19-.11.08Zm1.11-.86-.17-.2-.18.05-.53,0-.19.07.08.16.17,0,.12-.09L65,16l-.16.1.12.17h.38l.07.21.25.29.18.13.2-.14-.18-.11-.11-.14.13-.18.19-.1L66,16.1l.07-.44.2,0-.1-.34.13,0,.1-.14-.34.05h-.37l0,.15-.12.13,0,.15.28.14ZM64.62,5l.18,0-.13-.27Zm0-1,.15.15V4Zm0,13.18.19.05.41-.06-.12-.39-.07.16-.29.11Zm.1-13.71h.12l0-.14-.12,0Zm.33,9.69-.22,0,0,.18.13,0Zm-.15.68.17.33,0,.24.16-.1.13-.18-.18-.15-.05-.18.11-.19-.11-.11L65,13.6Zm.16,1.73.17,0,.08-.22-.2-.15-.07.16Zm0-.63.09,0V15h-.1Zm0,1,.18.08,0,.2-.21-.06Zm0-13,.16-.1.31-.05-.38-.11Zm0-1.2.13,0,.07-.14-.16-.05Zm.06,11.18.18-.05,0-.22-.1-.17-.11.11.05.16Zm.17-9.07,0-.18-.16-.07v.2Zm-.09,10.66.08.14.13,0,0,.17.17,0,0-.23-.33-.1Zm.16-1,0-.31-.18,0v.17Zm-.07-1.21.12-.13-.16-.08ZM65.41,17v.25l.13.12.15-.13.1-.18-.14,0Zm0-15h.12l-.07,0Zm.1,14,.07.16-.14-.07Zm0-2.5,0-.17-.13,0Zm-.06.42.23.29.19.07.18,0-.21-.41-.22.09Zm0-1.07.12,0-.1-.19Zm.1.16-.08.14.22.09.25,0,0-.18h-.15Zm0,4.81.51-.27.15-.13-.13-.12-.48.35Zm.06-5.35.22,0,0-.27-.16,0Zm.12,2.32h.07l.07-.09-.11-.09Zm.07-1.09.22,0,0-.23-.19-.08Zm0-12.58.11.29.12,0,.05-.32-.11,0Zm.31,13.33,0,.19-.15.16-.06.21.42-.08.18.12.11-.1.08-.19-.47,0,.06-.25.34-.22L66.59,14l-.1.16,0,.15-.18,0ZM66,2.25l.17,0,.12-.13L66,2ZM66.3,13l.14-.25-.16-.08-.13-.14-.18.2.2.18Zm-.17,3.31-.14.23.53-.17Zm0-5.22.34-.05-.28-.16Zm.07.71.13-.18-.18.05Zm0,1.5.46.12.17-.3-.19.05-.34-.06Zm0-2.68.12,0-.11-.14Zm0,1.48.18.13.22,0V12l-.14-.07-.16.05Zm.22,4,0-.15-.14-.09Zm0-6,0,.13h.18l.07-.14Zm.07,1v.09l.07-.14Zm0,5.42v.24l.1.19.08-.18.19-.1-.08-.14-.16-.1Zm.61-5.15-.28.23-.2,0,.05.18.12.17-.07.14v.4l-.19.3.33.27,0,.11v-.23l-.07-.13v-.23l.11-.06-.11-.06.22-.3-.11-.14,0-.15.24.06.21.28v-.15l-.11-.37.07-.19L67.1,11l-.07.17Zm-.57-9.61.17,0,.08-.16h-.18Zm.07.72.21,0,.16-.1.1-.16-.15,0-.15.18Zm.26,8.35-.05-.15-.19-.11.08.16Zm5.91-7.24-.27.76-.31.4-.07.49L72,5.27,71.63,6,71.47,6l-.09.41-.49.93,0,.18-.07.16L70.62,8l.07.16-.14.11-.22.31L70,9.35l-.33.5,0,.18-.21.25-.42,1.09-.29.43-.08.36-.33.5-.12.44-.19.12-.2.49v.2l-.32-.05.2.31-.13.18-.16.43-.13.15-.26-.06L66.8,16l-.1.18.18.13.17.4-.35.12,0,.33.23-.24.34-.1.11.12.07.39.08.13.2,0-.1-.19.06-.16.18.1.1.16.34-.09.18.12.1.19.47,0,.18-.07.11.14.38-.07.24.06h.66l.16.05.11.12.13-.16.34,0v.2l.19-.3.14-.07.11.09.17,0,0-.17.14-.08.39-.09-.17.4.41-.21-.14-.25.38-.14,1-.58.11.11h.15l-.13-.29.19-.08.65-.5.36-.22.16-.4.74-.94.19-.37.11,0,.16-.05-.13-.47.3-.28,0-.23.08-.19.48-.38L77.23,12l.17-.3.08-.41.19-.37-.09-.24.13-.18,0-.24.18-.57-.06-.23.1-.36V8.44L78,8.28,77.79,8V7.53l.08-.36-.14,0-.12-.21V6.68l-.28-.47.07-.59-.27.13L77,5.63l-.1-.34-.26-.06-.41-.61-.13-.13L76,4.42l-.08-.17-.35-.12-.6-.37-.22,0-.1-.19V3.38l-.25-.18-.14.3-.33-.17-.13-.12h-.22l-.19-.28,0,.19-.07.14-.3.18Zm-6,10.61.2.21v-.28Zm0,3.29.23,0,.15-.13.06-.24L67.08,17l-.2.3Zm.09-7.31h.2V10L67,10Zm0,7.77L67,18l.14,0,.16.1,0-.17,0-.11-.17.08ZM67,12.46l.2.2,0-.14.26-.09-.13-.14h-.23Zm0,.78.17.17.08-.14ZM67.1,15l.06.23-.09-.06Zm.07-1,.18,0,0-.13-.08-.08Zm.24-4.65.12-.16L67.24,9l0,.19.06.14Zm-.15-6.64.19-.07.12-.16-.21-.08-.1.16Zm0,7.17.22,0-.14-.2Zm.07,3-.06.09.23,0,.14-.13-.16-.08-.18.05Zm0-4.12.31.08.21.1.21-.22-.46-.12h-.18Zm0,9.48h.08v-.07h-.08Zm.16-16.56.23,0V1.46l-.16.05Zm.32,11.92-.19-.08.06.11Zm-.16-6.69.26.09L68,6.84,68,6.66l-.16.1Zm.16-5.51H68l0-.17-.12,0ZM68,9.93l0-.16-.08-.11v.17Zm-.1,1,.17,0L68,10.8ZM68,8.72l.15-.18.22-.09.22.34h.2l0-.19-.3-.13.13-.23-.37-.33-.33.5,0,.17Zm0,1.61h.28l-.07-.16-.17-.1Zm0-.67h.07l0-.1h-.07Zm.12,8.61.16-.05,0-.19-.29-.25,0,.15.08.16Zm0-16.94.27,0,0-.21-.16-.09Zm0,6.22.16-.08h-.09Zm0,2,.32.05,0-.18h-.17Zm.19-1.78.38-.16-.06-.26-.13-.17-.13-.1,0,.18-.13.31ZM68.54,7l.21.09,0,.2.11.14,0-.43L69,6.64l-.16-.08-.2.3Zm0,12.08.1.07L68.57,19Zm.21-14.35,0-.15h-.1Zm-.12,13.81,0,.18.19.08v-.28Zm.24.87-.16-.08,0,.16ZM70.94,2.55,71,2.39l-.11-.12,0-.16h.2l.15.22.15,0h.23l0-.27.11.09V1.92l-.14-.07,0,.19-.18,0L71.2,2l-.1-.17.1-.18-.13-.1h-.18l-.06-.21-.12-.07-.53,0-.2,0-.18-.12-.13.05-.2,0,.1.19.2,0,0,.1-.1.14-.16,0,0-.15-.18,0L69,1.45,69,1.26,69,1.08l-.21.22.08.16.29.35L69,2.2l.09.24.1-.18.14-.13.19-.07,0,.2-.22.49.13.3,0,.37-.15,0-.12.15.19.06.21-.05.28-.23.17,0,.11-.06.05.36L70,3.78l-.09-.11-.16-.08-.13.16-.18.07-.23,0,.07.71.32,0,.08.14-.18,0,.06.14L69.39,5l0,.21-.19.27,0,.16.36-.22.15-.16-.16-.12L69.74,5H70l0,.17.23,0L70.29,5l-.1-.17,0-.18.1-.16-.19-.08L70,4.29l0-.12.07.16.16.1.14-.25L70.17,4l.19-.05.16.08-.06.54-.08.21.19.06.15-.13.13,0,0,.22h-.22l0,.14.13.12L71,4.84l.3-.15-.17-.08,0-.15L71,4.36l0-.15-.17.15-.16-.12,0-.18.06-.39h.19l.15-.1.22.31-.15.05,0,.17.22,0,.14-.28.2.18.12-.48h.22l.16-.05.09-.12.19-.54-.26-.09,0,.52-.38,0-.09.23-.19,0-.1-.14.27-.29-.2,0-.09-.37H71l-.18-.1-.25.14-.1-.34L70.56,2,70.7,2l.08.11-.13.21.13.09ZM69,5.86l.13,0v-.2L69,5.54l-.17,0,0,.18Zm-.14-1.55.17,0-.07-.14Zm0,3.28.09.19V8l.15.17-.21.09,0,.25.19,0,.47-.28L69.41,8l.08-.21-.26-.11-.06.11,0-.18L69,7.47Zm0-7.08h.07l0-.14ZM68.9,19h.22l.08-.17-.18.05ZM69,2.66l.18,0,.1-.16-.09-.11-.09.13Zm.13,4.1.13-.18V6.35l-.22,0v.25Zm0,.5.1.11.15-.15h.2l-.15-.14-.16.07Zm.06-6,.07-.16-.12,0Zm0,7.87v.1l.13-.06L69.21,9Zm.37-3.45-.08.23L69.26,6l.18.18.14,0,.08.19.21.08,0-.22L70,6.22h.2l0-.28-.39.14h-.15L69.55,6l.07-.09.11.07.17,0,.15-.3.14,0,.15-.13.08-.21-.21,0-.47.31ZM69.33,18h.1v-.07l-.1,0ZM69.71,7l.08-.17-.1-.19-.19,0v.2l.06.13Zm.12-3.22.08.11V4.1l-.09.06,0,.2.15,0,0,.16-.23,0-.11-.12-.14,0,.21-.4Zm-.25,3.75.39.11.13-.21-.46-.09Zm.39,12,.2,0v-.28L70,19.2l0,.11v.05l-.16-.05h-.13v.22h.22l.08-.16Zm-.3-.7.12-.26h-.12Zm.55-16.95-.13,0-.23,0-.16-.1.17-.1h.2Zm.36.95L70.47,3l-.06.24-.13-.1-.2,0-.14-.07-.07-.16h.22l.34-.1Zm-.71,1.83.13.17h-.13Zm.4-2.58-.06.2-.09.13-.18,0,.18-.2Zm-.33,17.32v0h0Zm.22-12.67.16,0,0-.16-.06.09.14-.25-.2,0-.09.11L70,6.51l.26.09ZM70,7.07h.18l.13-.18h-.23Zm0,12,.36.23,0,.2.24-.06-.18-.13L70.38,19l-.28,0L70,18.93Zm.22-18,0-.17L70.08.84l0,.18ZM70.11,2.6l.12.07-.07.09h-.07Zm.17,3,0,.22.35.16,0-.25,0-.18-.17-.07Zm0,14.11.36.15-.07-.26-.11.11Zm.53-18-.15.05-.32-.07,0-.18.17,0,.14.1ZM70.4,3.3l.14.07,0,.18-.19.05,0-.11Zm0,3.11,0,.08.25,0V6.25l-.18,0Zm.72,12.76-.43-.11-.11,0,.08.16.15.13v.07l.17.05.23,0v-.18Zm0-16-.24.29-.23-.28L70.83,3,71,2.94ZM70.74.47v.2l.19.1L71,.56l-.12,0ZM70.92,20l-.15.36.18.1.19,0,0-.18.08-.19Zm.49-18.69L71.05.89l-.1.16,0,.21.86.45L72,1.64l-.3-.15.14-.43L71.74,1l-.15.35Zm-.35,17.76.1,0,.07-.14-.14,0Zm.06-.36.18,0,.15-.13.18-.07.22.08L72,18.2l-.39,0-.39.11-.12.11-.05.14Zm.56-16.25-.33-.11.05.19.18.08Zm.8,15.85v.25l-.15.13-.41-.06-.06.19-.11.08,0-.2-.16-.08-.09.24.24.26.07.36.12-.15,0-.13L72,19l.2-.12.15.15,0,.21h-.2l-.13.08,0,.1.53.18.31-.26L73,19.1,72.5,19l0-.31.23,0v-.17l.08-.17,0-.18-.11.11Zm-.75-15.8.24.19.17-.1.23,0,0-.19L72.23,2,72,1.92l-.21.44Zm0,1.68.21.06.16-.07.08-.14V3.87l-.1-.19L72,3.85,71.88,4Zm.11-1.11L72,3l-.16-.13Zm.19-2,.18,0,.12-.16L72.1.9Zm0,19.4.11-.06-.09-.09Zm.17-.45.11-.06.11.09.1,0-.1-.17-.24-.06Zm.11-18.2,0,.33.2,0V1.78Zm.31.75.15.19-.1.14,0,.17.27,0,0-.27.15-.12-.06-.14-.15.05Zm.06-.37.36.06-.13-.45L73,1.62l0-.4-.2.15-.07.16,0,.4Zm.11,15.73.15.17,0-.22Zm.62.19L73.28,18l-.16.05-.05.17-.18,0,0,.16.14.07.33-.05.09.12-.5.27v.2l.59-.11v-.32l.19-.1-.09-.09-.07-.19V18l.16-.05,0-.2-.21.07-.12.13Zm-.12,1.61L73,19.65l.07.17.17.05ZM73.18,1.87l.19.25.1-.38h-.22Zm0,.65.23-.17-.19-.05Zm.06,17,.14-.1,0-.19-.16-.1-.08.18ZM73.43,2l0,.23.21.1H74L74,2l-.18,0L73.61,2Zm.44-.73,0-.13-.15,0,0,.15ZM76,16.07l.1.29-.14.13-.13.33-.23.06-.08.19-.27.26-.07.14h-.28l0,.37-.11-.12,0-.17-.18-.12v-.2l-.21,0-.14.28-.21,0,.11.14.33-.07,0,.1-.65.28.09.09,0,.15-.12.13v.23l-.16.1,0,.16.26.26.1,0,0-.21-.1-.14.11-.43,0-.2.21-.05.16.3v.23l-.17,0,0,.39.25,0,.14-.08.14-.48.11-.18-.32-.05.08-.22.22.06.38,0,.15.13v-.23l.08-.36.32-.46,0-.15.35-.18h.2l.35.18.15,0-.38-.48-.18-.13.08-.16-.17-.08ZM73.7,19.38l.18,0v-.13Zm.33-18,0,.15.22.06.07-.12-.11-.09Zm0-.32.21.08.05-.32-.18.05Zm0,1.8.21-.07-.14-.09Zm.24-.14.37.06.07-.09-.08-.19-.15-.12-.16.18Zm.19-.89.28.31.32-.27-.44-.45-.1.16Zm.17,17.53.14,0-.13-.1ZM74.9,2.9,75,2.74V2.52l-.07-.17-.13.16,0,.23ZM75.09,17l.15-.17-.17-.08Zm.31,1.25-.19.08-.12.15h.2l.28-.19,0,.25.2,0,.1-.19-.07-.13L75.71,18l.11-.06-.18.05Zm-.17.48,0,.11.15,0-.05-.13Zm0-2.23h.4l.2,0-.08-.29-.11.11-.39.06Zm.1-14.37.2.18,0-.17Zm.38.94-.12-.19,0,.14Zm.13,14,0,.23-.14.25.08.11.36.11v-.3l.29-.08-.07-.24L76,17.08Zm0,1.85.13-.19-.18,0Zm0-16.56,0,.22.47-.1-.3-.2ZM76,2l.19.08.07-.27-.18,0Zm.24,16.4,0-.08-.17,0,.08.14ZM76.11,3.19l.08.16.13-.08-.06-.11Zm.51,14.61h-.23l0,.12-.15.13.27-.09.14-.12.17,0,.26.32.08,0-.28-.45,0-.2-.15,0,0,.12ZM76.36,3.7l.19-.09.08-.19-.17.07Zm0-1.44h.12l-.11-.09Zm.26,14.14.1-.21L76.5,16l-.07.14.1.15Zm-.06-1,0-.24-.12,0-.08.16Zm0-12.69.32,0-.13-.17-.22,0Zm.5,1.36L76.69,4l.15.17ZM76.79,17l.31.25.11,0-.16-.15L77,16.88Zm0-.92,0,.43.17-.1.12-.16.14-.07.22.05,0-.31-.18,0-.14-.07-.1.13-.18,0Zm.11-1.91h.23l.07-.12-.15,0ZM77,3l.18-.15-.15,0Zm.23,12.84.1-.16,0-.21-.14-.05v.23Zm0,1.52,0,.38.14.07,0-.17-.15-.17.17-.1,0-.2-.14.11Zm.19-12.5.16.12.2,0-.12-.19Zm0-.38.22.06.38.29,0-.19-.24-.21V4.21L77.41,4l0,.18Zm0-.67.13.1.16-.05-.13-.12Zm0,11.56h.24l.13-.18-.11-.07-.17.1Zm.09,1.69,0-.19-.12,0ZM77.5,13.8l0,.18.41.08.1-.18L78,13.75l-.26.06Zm.29-8.45.16.07,0,.17,0,.23-.16.08-.16-.13,0,.23.22,0L78,5.9l.14,0,.19,0-.07-.21-.13-.15,0-.39,0-.16L78,4.85v.23l-.07.13ZM78,13.57l-.21-.23-.08.21.1.15Zm-.22-9.9,0-.12.15,0-.2,0Zm.07,13.56.1,0-.14-.07Zm.27-2.11-.19.1.1.16v.15l-.16.38L78,16h.18l0-.35,0-.14.15,0,.19-.1-.11-.11.19-.4-.22-.06ZM78,6.57l.18,0,.09-.13,0-.22-.14-.08L78,6.23l-.07.17ZM78,16.76l0-.14,0-.36-.13,0,0,.38Zm-.09-4.5.29,0,.29-.25.09-.24-.19-.08-.1.14L78,12.1Zm.41.94L78.12,13,78,13.2l0,.18.17-.1.44-.09.12-.15-.21.07Zm-.3.93.21.16,0-.18Zm.11.62.24-.06-.08-.17ZM78.33,4.4l.24-.06,0-.18-.12.1Zm.22,4.67-.06-.13-.14,0,0,.13Zm-.16,4.64,0,.15.14.07.06-.19Zm.54-1-.14-.12-.38-.11.47.5.15-.13.21-.05v-.25l-.1-.19-.1.19ZM78.5,6.43l0,.14h.23l.08-.18-.22,0Zm0-1.34.11.09.2.05.07-.14-.2,0Zm.18,2.81,0-.2-.05,0,0,.19Zm0-2.36L79,5.6l0-.22-.18,0Zm0,3.46.07.21-.08.21.2,0L79,9.06l.07-.19-.18.05Zm.07,3,0,.23.16-.08.08-.16Zm0-5.87.17,0,0-.18Zm0,5.27.21-.19-.19,0ZM79,13.07l.13.29h.23l.1.11.16.3,0-.19-.33-.6-.16.08Zm0-2.88.18-.2-.16.08Zm.49-5-.27-.09-.06.24-.1.16.2,0,.16-.08.15-.15.14-.46-.23,0,.05.18Zm-.42,3,.15,0,.18,0-.19-.08Zm.21-3.53-.19-.18,0,.19Zm-.16,6.22.05.13.2,0,.12-.11-.15,0Zm.31-6.84-.07-.22-.22-.05.13.14Zm-.26,5.32.21.13,0-.27-.16-.12Zm.06-3.55.45-.11.12-.13,0-.15-.14.1-.35.15Zm0,1.91h.15l-.06-.13Zm0,2,0,.22.25,0,0,.17.12.17.16-.41-.22,0-.19-.13.22-.09Zm0,1.61.1-.16-.07,0Zm.09.28,0,.32.15.13.2.05.39-.14L79.84,12l-.21,0,.14-.28-.22-.06Zm.1-3.16.08-.22-.16.08Zm-.07-1.87.11.12.3-.13.07-.19-.38.07Zm.18,2.11.17.05.08.14L79.63,9l-.13.19.18,0,.17-.1.21-.27-.12-.19-.19,0Zm0,3.85.11.25.18,0,0,.13,0-.17-.14-.07.09-.14L80,12.5l.06-.2-.21,0-.17.1Zm.13-4.84.17-.07,0-.21-.21-.11,0,.22ZM79.56,6l.08.16L79.77,6Zm0,8.62.19-.27,0-.17-.06-.13L79.65,14l0,.21-.08.18Zm.16-5.33.09.21.18.15,0-.19L80,9.24ZM80,8.37l0-.2-.25,0,0,.16Zm-.15,3.26.12.21.15.15-.1.21.32.05,0-.38.16,0,.1-.14L80,11.62Zm.29-.89-.26-.14,0,.48.21,0,.14-.13,0,.32h.47l0-.27-.22,0-.13-.12.08-.18-.08-.14-.12.13Zm-.22,2.1.14.09h.17l-.13-.15Zm0-6.56.41,0v-.1l-.25,0ZM80,4.71l.09,0,0-.1-.1,0Zm.14,3.36.09.39.17,0,0-.52-.18,0Zm0,.7.24-.06-.15-.05Zm.19,1.08-.15-.14,0,.15Zm.09-.26.14-.1V9.34l-.16.05-.21-.11.1.17ZM80.36,9l.27,0-.1-.16Zm.39,1.06.12,0-.07,0Zm0-1.5.1,0,0-.13Zm0,3.29.06.13.14.07.07-.14-.14-.07Z" fill="#878787"/><path d="M93,16.73l-.18-.08-.12.08.09.15L93,17l-.3.28v.35l-.56.67-.58.49-.49.29L90.8,19l-.18.27-.4,0-.53.19-.14.12-.15-.07-.07-.09-.36.19-.43-.09-.42.08h-.19l-.26-.12H86.9l-.78-.26-.24,0-.3-.28,0-.12-.15,0-.41.06-.15,0-.08-.18-.42,0-.28.14L84,19l.07.44-.12.19.09.21V20l1.09,1.36.19.06.08.17.21.08.13.19.19-.1h.21l.17.39.18.14.14-.3.76.19h.52l.19-.05.11.17.3-.11.18,0,.22.1.55-.18.15-.15h.19l.33-.12.13-.1.4,0,.39-.14.34-.25.22.05.17-.06.48-.33h.2l.07-.27.34-.14,1-.66.34.21.2,0,.08.17.25.29,0,.53-.15.09-.24.39-1,.64-.36.11-.11.25-.39.17-.68.42-.4.09-.52.36-1.19.32-.19.1h-.41l-.73.23-.27-.12-.44.23-.21-.13-.33.07-1.19-.2h-.23l-.78-.2-.58-.33h-.52l-.18-.28h-.21L83,23.21l-.15-.15-.08-.17-.29,0-.28-.27-.34-.21-.27-.24-.16-.31-.36-.23,0-.21-.3-.28-.1-.37-.2-.09v-.36L80.22,20l-.1-.38V18.39L80,18l.11-.17.11-.77.25-.4.11-.47.23-.38.17-.42.18-.21.09-.32.25-.35.73-.69.11-.17.45-.34.18,0,.07-.27.16-.12.34-.14.33-.23.14-.18.37-.1.63-.34.18,0,.18.08.08.12.16-.34.36-.07.79,0,.19-.05.16-.11.2,0,.54,0,.24.14.21-.1,1.13.34.69.32.14.12.24-.1.9.58.17.16.2.1.1.32.25.06.35.71.19.11.13.14.35.83-.14.18.15.56,0,.21-.14.24v.18ZM81.29,18.67l.16,0,.14-.07.11-.17-.18,0-.08.1ZM81.47,17l.11,0-.07-.14Zm.06,2.79.35-.09V19.6l-.25,0Zm0-.9.14.12.08-.24Zm0-3.13.16,0,.14-.07-.18-.19-.13.1Zm.23.93.15.13.1-.15-.09-.1Zm.53.14.07.14.14.12,0-.35-.07-.14Zm0,2.62h.14v-.17Zm0,1.38.2.09-.08-.23Zm.13-4.73h.2l.07-.22-.26,0Zm0,2.12.09.15.09-.18-.13-.08Zm0,.67.18,0,.09-.26-.22-.05-.06.14Zm.07.39.13.06,0-.11-.09,0Zm.11-4,.18.14.12-.19L83,15.08l-.14.07Zm.19,2.82,0,.15.2-.12Zm0-.77v.27l.17,0L83,17.51l.12-.19-.09-.1Zm0,3.56L83,21l0-.09-.09,0Zm0-4.19,0,.21.19-.05-.08-.12Zm.17,2.21.17.11.23.33h.15L83.53,19l-.29-.24h-.15Zm.1-1.62.22.3v-.23l.11-.22-.18,0Zm0,3.45v.17l.1.13.12-.14-.07-.14Zm.35,1,.11-.11v-.17l-.15-.1-.07.22Zm0-5.37.07.14.18-.08Zm0-1.9h.24l-.06-.16-.16-.13Zm0,6.17.23-.08-.11-.17ZM84,16.79l.15.21-.22.28.06.17.11-.11.19-.35-.14-.18Zm.19,4.63.17-.14-.19-.11-.09.12Zm-.09,1.06h.19l0-.18Zm0-7.46.09.21.06-.19Zm.27-.29.14.34.16.13.08-.18-.18-.08-.07-.14ZM84.55,17l.09-.18-.18-.38,0,.2,0,.19Zm.08,4.58,0-.18,0-.13-.13.16Zm-.11-7,.21.13.16,0-.23-.1Zm.08-.4.23,0,.16-.12L84.75,14Zm5.28,1.46h-.15l0-.16v-.19l-.34,0,.06-.19,0-.16-.21,0-.38-.12-.12-.14-.12.08-.18,0-.11-.18h-.16L88,14.48l-.32-.15-.17,0-.16.09-.13.18.07.15-1,.39L86.2,15l0,.2-.11.19-.17.12h-.22l-.07.27-.18,0-.45.67-.15-.15-.17.06.24.32.05.17-.05.16.82.14,0,.32.31,0,.14.12.5-.26.25.18.21-.18.22.08.31,0,.22.1.22-.06.37-.27.78-.26.16-.12.18-.38.18-.13-.1-.21V15.9l.14-.13.16-.06.14-.12,0-.18L90,15.15l-.08.16v.16Zm-4.95,2.63.16-.11,0-.15L85,18l-.14.13Zm.28-4.76.12.17,0,.23.19-.05.15-.15-.25-.22Zm.39.92-.38-.23,0,.2.19.12Zm.08-1.22-.09-.15L85.45,13l-.13,0-.06.19.29.14.14-.12.33-.07-.16-.05Zm-.41,4.51.11-.11-.06-.11Zm.08,5,.11.06.12-.2-.1-.15-.1.12Zm.23.5.1,0-.07-.14Zm.09-1.06v.17l.1.13L86,22.3,85.94,22l-.1.2Zm.12-8.53.31.34L86,13.67l-.13-.14Zm.08-.86.2.09.18.25.06.17,0-.21-.12-.22-.16-.11Zm0,10.25,0,.19.16-.12Zm.26-10.52.13.09.12-.08Zm0,1.16.19.25.21,0,.17-.14-.2-.34,0-.21-.08.24-.15.12Zm.33.81-.07-.2-.17-.16-.07.21.05.19.1.07Zm-.24,8.72.2,0,.12-.14L86.44,23Zm.21-4.85,0-.18-.16-.13,0,.2Zm.19-5.6-.14.18.19.11.07.2.19.12-.07.15,0,.16.2,0,.31.2v.23l.14,0,.12-.08-.08-.12,0-.18.15,0-.23-.16-.16.06-.08-.12-.18-.08,0-.2-.18,0-.11-.46-.11.11Zm.1,1.41.18.09.2-.13-.24-.08Zm0-1.66.38.07,0-.12h-.13L87,12.29Zm0,5.32.14.06-.09-.15Zm.22,1.3.12,0L87.1,19Zm.3,4.85-.12,0,0,.09Zm0-11,.11.16.2-.07L87.49,13Zm.05,5,.14.06-.09-.15Zm.32-5.3.08.18,0,.23.29.14.09-.24,0-.19-.1-.13-.14-.07Zm.55.45-.07.27L88,13.37l-.14,0,0,.23.1.18.17-.06.35-.51ZM88,18.29l.18-.08,0-.23-.1.17Zm.22-5.56.07.15.57.24,0,.18-.36.25,0,.09-.13.22.16.29.13-.51.18-.08.27-.29.08-.18-.4-.13-.28-.21-.18,0Zm.08,1.82.22,0,.08-.16-.2,0Zm.24,3.58.07,0,0-.09-.07,0Zm.21-.15.1-.22.21-.09-.16-.13-.22.3Zm-.06,1.24.11.05-.07-.14Zm.28-.48.13.12v-.14Zm1.09-5.15.08.12h.17l0,.18L90.2,14,90,13.9l0-.12-.29.27-.18-.38-.31,0-.12.13.2.17v.19l-.11.36.1.19.14-.19.35-.1.33.53.23,0v.21l0,.18-.09.24.13.14v.17l.07.14.13,0,.13.12.08.17.16-.09.13.06v.17l.22.1.18-.38h-.13l-.12.08-.16-.07V16l-.31,0-.09-.16.09-.06.24.11.06-.17-.21-.15.18,0,.14-.07-.11-.16-.16-.07v-.19L91,15h.2v.22l.4.08v-.19l-.16-.3.14-.12.09-.2-.22,0-.19,0,.08.11v.17l-.18-.08,0-.26-.2-.09-.14-.18-.13.11-.18,0,.06-.41-.08-.17-.18-.16-.12,0Zm-.75,5,.18-.05.15-.15-.16-.05-.16.09Zm.16-3.7.18.33.15-.15,0-.12-.16-.08Zm0-.64.18.08-.14.07Zm0-.16.25.17-.18,0Zm.73,2.48-.14.07,0,.15.17-.08-.05.17-.13.16-.17,0-.23-.38,0,.4,0,.19.2-.07.46,0V17l.1-.15.15-.09.16.07-.18.08,0,.2.06.22-.29.28,0,.23-.16,0-.1.17-.13.1.13.36.11.17,0-.58.09-.18.2-.1.15-.31.18,0,0,.16.06.16.17-.13-.1-.19v-.22l.3-.11.12-.14-.69-.56-.08.15-.15,0,.05-.16-.07-.15L90.19,16l0,.23.08.17Zm-.51.85,0,.22.13.15H90l.09-.07L90,17.5v-.11l-.08.07Zm0-3.79.11.06-.07-.15ZM89.85,19l.13.06-.1-.13Zm.24-2.45.1-.21L90,16.21l0,.21Zm.08-3.09.06-.19,0-.15-.12.08,0,.17Zm.08.7.13.06,0,.11-.13-.06Zm.18-1,.08.31.12.14.08-.16-.09-.23Zm.35,4.76,0,.33-.27-.07,0,.21.13.18.17-.17,0-.21.17-.11L90.93,18Zm0-3.47.24.36h-.19l-.23-.08.11-.11Zm.36-.43L91,13.85l-.08-.18-.13.11,0,.18.17.11ZM91,18.49l.17.05.08-.12-.1-.13Zm.3-4.1-.06-.16h-.14l.12.14Zm-.16,8.84.09,0,0-.07-.09,0Zm.22-5.75.14.07,0-.12-.14-.06ZM91.45,16l.13.14.21.13-.17.36.21,0L92,16.4l-.39-.56.16,0,.11-.11-.27-.21-.09.31Zm.14,2,.17.11.11.18.26,0,0-.2-.36-.09,0-.14-.11-.11-.07.14Zm0-1v.14l.15,0V17Zm.32,4.69.09,0,0-.09-.09,0Zm.2-5.7.08-.22-.1-.15L92,15.8Zm.38.47.15,0,.11-.11-.16-.13Z" fill="#878787"/><path d="M103.92,24.62l-.16-.12-.13.05.06.17.18.14-.35.2-.07.35-.69.54-.67.36-.54.18-.25-.12-.23.23-.4-.05-.55.08-.17.09-.13-.1,0-.1-.39.11-.4-.18h-.43l-.18,0-.24-.18-.75-.16-.71-.41-.22-.08-.25-.33v-.13l-.14-.05-.41,0L95.51,25l0-.18-.42-.07-.31.08-.14.14,0,.45-.15.16,0,.23-.06.23.79,1.56.17.09.05.19.19.12.08.21.21-.06.2.06.09.41.15.18.2-.26.7.34.51.1H98l.08.19.31-.05.17.07.2.15.57-.07.18-.11.19,0,.34,0,.15-.07.4,0L101,29l.39-.18.2.1.18,0,.53-.22.2,0,.12-.25.37-.07L104,28l.29.28.19.08,0,.19.19.32-.14.52-.17.06-.31.33-1.07.43-.36,0-.17.21-.41.1-.76.26H101l-.59.24-1.23.07-.2.06-.4-.08-.77.07L97.53,31l-.47.13L96.88,31h-.34l-1.13-.44-.21,0-.73-.36-.5-.44-.51-.1-.12-.31-.2-.06-.34-.28-.11-.18,0-.19-.28-.08-.22-.33-.29-.27-.21-.29-.09-.34-.31-.3v-.21L91,26.38,91,26l-.18-.14.07-.34-.13-.36,0-.38L91,23.59v-.37l.14-.14.27-.73.32-.35.21-.43.3-.33.25-.37.23-.17.15-.29.31-.29.86-.53.14-.15.52-.23h.18L95,19l.18-.08.37-.06.36-.16.18-.15.38,0,.68-.2h.19l.16.12.06.13.22-.3h.37l.78.12h.19l.19-.08.18.08.54.07.21.18.22-.05,1,.56.61.46.11.15.26-.06.76.76.13.19.18.14,0,.33.23.11.2.77.16.15.09.16.18.88-.17.15,0,.58-.06.2-.19.21,0,.18Zm-11.86-.51.15.05.16,0,.14-.14-.17-.07-.1.09Zm0,1.15.35,0,0-.1-.25,0Zm.19-.88.11.15.13-.22Zm.32-1.87.1.08,0-.15Zm.08,3.94.18.13,0-.24Zm.27-1.35.14,0,0-.17Zm0-3.77.15.05.15,0-.13-.23-.15.08Zm0,1,.13.16.12-.12-.07-.12Zm.23,4.36.08.06.06-.08-.08-.06Zm0-1.65.12.09.08-.1-.08-.06Zm0-.39h.18l.14-.24-.21-.09-.09.12Zm.1-.67.06.17.12-.16-.11-.11Zm.12-1.4,0,.15.11.15.09-.33,0-.16Zm.07,4,0,.17.08.15.14-.11,0-.16Zm.14,1.06.13-.09,0-.16-.13-.12-.11.19Zm.09-3.71,0,.15.22-.08Zm0-2,.2,0,.11-.2-.25,0Zm.06,2.9.14.13.16.37.15.05-.09-.38-.24-.3H93.8Zm.11-1.6-.07.26.17.07,0-.16.15-.16-.07-.11Zm0,3.4.24,0-.08-.18Zm0,1.85.19.05v-.2Zm.13-5.85v.21h.19l-.05-.14Zm.06-1.45.14.18.16-.17,0-.17-.15,0Zm.11,6.29.2-.1-.16-.16-.11.11Zm0-4.21.15.33,0-.22.15-.19h-.18Zm.48,4.48.06-.17,0-.14-.16.13Zm0-5.31,0,.15.19,0Zm.3.47.1.23-.27.23,0,.18.13-.09.25-.3-.09-.2Zm.13-2.32.24.05,0-.17-.13-.16Zm0,8.44.1.07.15-.16,0-.17-.13.09Zm.13.53.1,0,0-.15Zm.21-8.37,0,.23.1-.18Zm.06,2.07.12-.16-.09-.41-.08.18V23Zm0,5.28,0,.17.07.14.29-.12,0-.3-.13.18Zm.07.89v.2l.19-.08Zm0-4.88.18-.08.07-.13-.1-.08-.16.1Zm5.38-1.56-.14,0,0-.17,0-.19-.33-.09.1-.17V22.1h-.21l-.35-.19-.09-.17-.14.06h-.18l-.06-.21-.16,0,0-.15-.28-.21H99l-.17.06-.17.15,0,.15-1,.19-.07-.24-.08.19-.15.16-.18.08-.22,0-.12.25h-.2l-.57.56L96,22.51l-.17,0,.16.37,0,.17-.08.16.77.29,0,.33.3.09.11.15.54-.15.21.22.25-.13.19.12.31,0,.2.15H99l.41-.19.82-.09.18-.08.26-.34.19-.1,0-.22,0-.19L101,23l.18,0,.16-.1v-.18l-.09-.28-.11.13,0,.17Zm-5.24-2,.07.36.13.16.12-.16L96,21.12,96,21Zm.16,8.7.19.08.14-.11-.13-.16Zm0-8.82.19.17h.16l-.2-.15ZM96.15,24l.13-.09,0-.12Zm.07-3.6.23.07.18-.08-.23-.11Zm.67,10.16-.11-.05v.1Zm.26-9.71-.32-.31,0,.2.17.15Zm-.19-1L97,20l-.07.22h.19l.18-.11-.2-.27Zm.52-.2-.06-.17-.12-.09-.14,0-.09.17.25.2.17-.1h.33l-.15-.09Zm-.26,5.22.06-.17-.13-.16-.08.19Zm.28-4.75.23.4v-.34L97.64,20Zm.09,5.62h.12l0-.12Zm.06-1.32.12.09-.06-.17Zm.1-5.13.18.14.13.28,0,.17.06-.2-.07-.24-.14-.14ZM98,21.1l0-.21-.13-.19-.12.19v.2l.09.09Zm-.16-.86.13.28h.21l.2-.1-.12-.37.06-.21-.13.22-.16.09Zm.23-1.13.11.11.13-.06Zm.07,5.6.12.09-.06-.17Zm.18-3.87.16.12.21-.08-.21-.13Zm.19-1.4-.18.15.17.15,0,.21.16.15-.1.14v.16l.2,0,.27.27,0,.21.13.07.13,0,0-.14v-.17h.14l-.18-.2-.18,0,0-.13-.16-.12.08-.19-.17-.06v-.48l-.13.09Zm.16-.22.36.14.07-.1-.13,0-.1-.2Zm0,5.9.19,0,.07-.22-.14.14Zm.42-5.35.08.19.21,0-.15-.14Zm.06,6.4.1.07,0-.15Zm.08-1.09.06,0,.06-.07L99.36,25Zm.23-.1.15-.2.22-.05-.13-.16-.28.25Zm0-5.39,0,.19-.07.22.26.2.12-.22,0-.2-.08-.14-.11-.09Zm.45.56-.13.24-.15-.08-.14,0,0,.24.06.2.17,0,.46-.44Zm-.44,5.61.11.15v-.15Zm.21-4.24.21.1.1-.14-.19-.08Zm.16,4.12h.19l.18-.11-.15-.09-.17.06Zm.13-5.91,0,.15.51.36v.19l-.4.16,0,.11-.17.18.1.32.23-.47.19-.05.32-.22.12-.16-.37-.21-.23-.27-.17-.07Zm.27,6.49.12.09-.07-.15Zm.27-1.63-.1.21.1.16.16,0,.1,0,0-.19,0-.1-.1,0ZM101.72,21l0,.13.17,0-.07.17-.13.09-.2-.15V21.1l-.34.21-.09-.42-.31,0-.14.11.15.21,0,.18-.19.33.07.2.17-.15.37,0,.2.59.23.07-.06.2v.2l-.13.21.09.16,0,.17,0,.15.12.06.11.14,0,.19.17-.06.12.09,0,.16.2.15.25-.34-.13,0-.13.05-.14-.1,0-.24-.31,0-.06-.17.1,0,.22.16.09-.15-.17-.19.17.06.15,0-.08-.19-.14-.1,0-.19.15-.07.19,0,0,.21.38.16,0-.18-.1-.32.16-.1.13-.18-.2-.09h-.2l.06.13,0,.17-.16-.12,0-.25-.18-.14-.09-.2-.15.08H102l.14-.39-.05-.19L102,21h-.12Zm-.42,2.91-.15,0-.05.15.18-.05-.08.15-.16.13h-.18l-.15-.42-.1.39v.19l.21,0,.44.12.06-.21.12-.12.17-.06.14.1-.19.05-.08.19,0,.23-.35.2-.07.23h-.16l-.14.14-.15.08.06.38.08.18.17-.55.12-.16.22-.05.21-.28h.18l-.05.15,0,.18.2-.1-.07-.21,0-.21.32-.05.14-.11-.56-.7-.1.14-.15,0,.08-.15,0-.15-.19-.33-.09.21,0,.18Zm-.51,6.74.08.06,0-.06-.08-.06Zm.09-8.54.11.36.18-.12,0-.11-.14-.11Zm.23,1.81.13-.18-.19-.2-.06.2ZM101,21.43l.16.12-.15,0Zm0-.14.21.21-.17-.06Zm.42,4-.12.32-.25-.12v.21l.1.2.19-.13.08-.19.18-.08,0-.14Zm-.14-4.43.1.07,0-.15Zm.26,5.05.15.09.11-.11-.07-.14Zm.12-4.37.12.09-.07.1-.12-.09Zm.06-.69.1-.18v-.16l-.14.06-.08.15Zm0,8.34.08.06.06-.08-.08-.06Zm.4-7.29.16.4-.18,0-.22-.13.13-.09Zm-.09-1.33v.32l.1.16.1-.14,0-.24Zm0,4.43.12.09.07-.1-.12-.09Zm.1.48.15.14.06.21h.27l0-.2-.34-.16,0-.15-.09-.12-.09.11Zm.38-3.93-.13-.19-.05-.19-.14.08v.19l.14.14Zm-.19,3,0,.14.14.07,0-.16Zm.08-1,.1.16.18.17-.24.32h.22l.19-.1-.26-.63h.15l.13-.09-.21-.25-.15.29Zm.21-1.55,0-.18h-.14l.09.16Zm.43,1.69.12-.2-.06-.17-.12.2Zm.27.54.14.07.13-.09-.13-.16Z" fill="#878787"/><path d="M108.35,35.29l-.1,0-.1.16-.46,0,.09.22.2.12v.16l-.08.17,0-.16-.37,0,0-.12-.27.33-.16,0,.08-.14-.15-.16V35.5h.25l-.08-.2-.17-.12-.39-.12.11.13.21.09,0,.19-.18,0-.17-.09-.14.15-.48.2-.12.13.22.1-.13.18-.2.11-.18,0-.06-.37-.21-.05-.07.19.22.4.17-.14v.12l-.08.13h.14l.15.1-.15.36-.23.27.6.69-.26.23-.1.15,0,.17.19,0,.23-.23h.2l.06-.15,0-.15.28,0,.14-.14.12,0,.07-.19.23-.29-.06-.15.12,0,.08.16.15.06,0-.24.14-.15h.19l.2.09.14.11-.15.1h-.23l-.13.11-.49.23,0,.17-.1.19-.33.25.16.19,0,.14.11.17,0,.14.5.35.37.2h.2l.2-.07.14.17.28-.18.2.16.35-.08h.36l.18-.06.18-.13.4,0,.37,0,1.19-.22.17-.11.33.05.13-.08.61-.13.08.25h.34l.13.58-.1.38-.1.18-.32,0-.21.25-.36.11-1.62.29-.36.15-.24-.16-.15.16h-.37l-.2-.08-.21.18-.29-.11-.39.11-1-.06-.21.06-.38-.13-1.12-.25-.74-.28-.14-.24-.85-.41-.38-.59-.18-.14-.19-.33-.26-.68-.1-.15.15-.74.11-.36.11-.14.19-.09-.18-.21.2-.14.21,0,.07-.41.27-.27.94-.65.28-.28.34,0,.17-.22h.18l.76-.29.19,0,.26-.3.51-.17h.17l.1-.15.15-.09.58-.05.14-.18.17-.11.21,0,.14-.33.19.11.16,0,.21,0,.1-.19-.11-.58.24-.14-.16-.26.08-.14v-.15l.15-.13,0-.22-.18-.17.06-.24-.12-.17-.09.15.06.38-.09.17-.09-.18-.28-.22-.13-.18-.73-.29,0-.26-.44.12-.11-.27-.28.32-.67-.21-1.4.65-.53.3-.19-.07-.72.46-.54.13-.75.42-.38.17-.38.09-.2.18h-.55l-.11.14v.14L101,33l-.17.11-.19,0-.44.28-.57.14-.17.14-.17,0-.36-.22-.77-1-.28-.21-.15-.29-.44-.48v-.2L97.18,31l.16-.17.33-.18.52-.16.28-.24.33,0,.57-.33.41-.09.58-.4.57-.13.2-.14.29-.09.14-.18.52,0,.07-.16.14,0,.17.05.16-.17.19,0,.17-.18,1.79-.73.58-.36.79-.26,1-.47.38-.09.06-.12.15-.13.33.11.08-.17.34-.17.18,0,.21.05.22.37.15.36V27l-.09.21.26.14.08.58.23.35,0,.18.18.39v.2l.18-.06.16,0,.32.18.31-.13.5.28.41,0,.34.16.07.2h.19l.34.13.32.25.54.58.22.11.33.79.14.14v.36l.06.41.08.2-.14.11.05.36-.13.34-.4.67-.05.18-1.09,1-.71.51-.4.21L111.2,36l-.1.19-.32.24-.19,0-.19,0-.28.37-.41-.14-.13.19-.34.06-.32.28-.14,0-.17-.12-.15.2-.19.09,0-.38-.11,0-.1.15-.17-.08-.28-.45-.18,0-.13.18-.21-.32-.1.23V37l.27.09-.13.19-.17-.12-.21,0-.15.17-.31-.09,0,.19,0,.19.17.09.14-.1-.07.22-.38,0-.21-.09-.12-.15.45-.49.18-.32,0,.17h.19l0-.47.37,0,.18,0,.15-.17.17.12.2,0,.19.13-.1.12.07.2.11-.06.07-.16.32.38.17-.08.3-.33-.08-.09h-.16l.09.18-.16,0-.15.16-.38-.36.27-.26-.11-.17-.1-.41.2,0,.17.08v-.18l-.17-.08.22-.09,0-.14-.14-.13.24-.15-.15-.16-.47-.25h.15l.08-.1-.15-.09-.17.14-.08.14.07.3.36,0-.27.18.11.09.13-.08ZM97.76,30.72l.16,0,0-.06Zm1.13.66.08.06,0-.07Zm.32.52.24-.06-.11-.13Zm.19-1,.09.15.05-.14Zm.25.57-.24.21.26.07-.12.17.17.08.2,0,.2-.11-.07-.2-.19-.06Zm-.06-.08.15-.06-.1-.11Zm.23,1.37L100,33l.22,0-.17-.12Zm.19-2v.16l.1-.15Zm.57,1.53.5.43,0-.22-.13-.22-.18-.1Zm.28-1,0-.06,0-.23-.07.19Zm0-.55.1-.08-.1-.11Zm1.19.05-.08-.09-.15.09,0,.1ZM101.83,32l.07.08.15-.17h-.14Zm0-.71.18-.06.1-.19-.2.08ZM102,29.8l.08.09v-.16Zm.32-.35.07-.06-.1-.08Zm.63,1-.07.19,0,.2.21,0,.13-.08-.17-.08Zm.47-.17.12-.21-.15.06Zm.15-1.38v.3l.12-.13,0-.13Zm.25,7.8.15,0,0-.12Zm.06-6.46.15.1.07-.1Zm0-.77,0,.17L104,30v-.44Zm.26,8,0,.25.1-.15Zm.18-7.75.18.14.08-.14,0-.14h-.12Zm.1-.87.12,0v-.13Zm.1,9.21,0,.11,0-.17Zm.22-.91-.08.13v.23l-.1.22.17.08,0-.26.26,0-.07-.24Zm-.12,1.45.1-.22-.14.06Zm.15-10,0,.06,0-.14Zm.22,7.61.08-.17v-.16l-.15.16Zm0,1.88,0-.23L105,38ZM105,39l.07.2h.18l-.12-.25Zm.09-1.15h.12l.08-.21-.07-.19-.1-.12-.09.35Zm0,.92.17.05.16-.07-.16-.19-.15.09Zm.13-3.06,0-.24-.15.13Zm0-6.91.16.07.16,0-.19-.14Zm0,1v.14l.15,0Zm0-.76.06.15h.18l-.1-.15Zm.1,9.44.12-.09-.1-.15-.1.15Zm.2-9.69.19-.1-.1-.11Zm.08-.56.11.13.52.07.15.14.2,0,.19.07-.32-.26-.43-.12h-.21Zm0,11.35.33-.09.15-.13-.1-.11-.35.17Zm.24-.57-.11-.2,0,.17ZM106,35.2l-.06-.14-.16,0,.18.2.19.11.16,0-.15-.1ZM106,30l.17-.11,0-.17h-.16l-.11.1Zm.1,6.63v.16l-.14,0Zm.48-.51,0,.21-.15.16-.18-.13.07-.26Zm-.15-6.65-.12-.1,0,.12Zm0,9.59-.07-.16-.07.15Zm-.11-.43,0,.13.12-.08v-.13Zm2.17-9.92-.16-.07h-.15l-.16-.07,0,.16,0,.13-.2,0-.42-.07.24-.11.21,0-.21-.31-.15,0,0-.18.17-.18v-.21h-.37l-.16.05-.13.11-.1-.27-.24.14.36.18,0,.39-.19.35-.27-.16.06.22-.27,0,.22.17.27,0,0,.18-.2.14.06.11,0-.09h.16l.33-.15-.06-.34.13-.15.13.38.29.11,0-.12.36.08.09-.31.28.12.15-.19.51,0-.16-.15,0-.41-.28.35Zm-1.74,7,0,.25-.17.11-.13-.15.08-.13Zm-.17-8.3,0,.24.11-.22Zm.16,9.81v.14l-.08.13,0-.14Zm0-2.54.16.15.48.17,0,.14-.14.15.15.17v.19l.18-.06.07-.22.16-.2-.28-.32-.17-.08-.4-.08Zm.11-7.3.13.11.15-.06-.08-.09Zm.26,2.19.15.17.09-.08-.11-.09v-.18Zm.08-2.78,0,.16.1.08.14-.19-.13-.08Zm.06,9.54.08.16h.14l.15-.13-.18,0Zm0,.53.22-.06.08.13-.05.14,0-.11-.24.14Zm.11-7.46.18.14,0-.16-.08-.16Zm.2.31-.16.05,0,.06.19.1.2-.07ZM108,27.8l-.15.13.34.13,0,.18.25,0,.16-.17-.3-.23-.24.07Zm-.08.48.28.13-.17-.19Zm1.38,5.39-.27.17.15.1v.14H109l-.15.13.27.12,0,.14.19.11.05.54.1.2-.19.31-.14,0-.13,0-.11-.09-.06-.18h-.14l.13.18-.1.19-.17.07h-.19l.27.32.36-.31.2,0-.1.12,0,.15h.23l.17.08.09.22.06-.15-.13-.15.2-.27.24,0v-.16l-.16,0-.14,0,0-.18.08-.17-.07-.2.13-.15.08.17,0,.15.07.17.13-.08.18-.32-.15-.14,0-.19-.15-.21,0-.22h-.2l-.3-.23,0-.18Zm-.74-4.5,0,.46.2,0,.26.16,0-.21-.12-.45h-.16Zm.31,5.59.08.2-.07.16.17.15.12-.24,0-.21-.11-.13Zm.13,1.89.18.14.2-.11-.07-.16-.12-.1-.07-.16,0,.2Zm.22-8v.12l.09-.08-.2-.16Zm0,1.47.1-.15,0-.25-.14.19Zm.09-.73.2.12.08-.17,0-.17-.06-.18-.12.24Zm.4,5.16-.19.09-.15-.06.14-.06Zm-.14-4.43-.15.12.37.21.13.15,0-.21-.17-.12Zm-.09,3.48.12.19,0,.19.2-.1-.11-.14-.06-.18Zm0-4,.24.24H110l0-.21-.15-.1Zm.33-.29,0,.1,0-.17Zm.73,4.25-.34.06-.14-.2-.06-.18-.13.07.21.28-.08.33v.37l.17.05,0,.19-.24.14.15.17.12-.2.47-.4.21,0,0,.17.1.15.18.13.19.07h.16l-.3-.49,0-.14.09.15.15.06.27-.45.28,0-.08-.16.22-.06,0,.34-.18.09-.08.21,0,.19.13-.15.18,0-.06.15,0,.14.09-.2,0-.45.14-.15.16-.34.24-.07v-.53l.14-.22-.21-.08-.21.09.14.13,0,.21-.24-.09,0-.24-.09-.11.26-.26.18-.06L112.9,32l-.16.07-.21,0-.14.35h-.12l0-.21.17-.18-.32-.14.21-.18-.19-.14-.08.21-.15.12-.19-.33.63-.25-.07-.16.11-.1-.19-.06-.16-.19-.13.15-.18-.05-.17,0,0,.53h-.14l0,.18,0,.13-.36-.11-.31.14-.12.13.29.11-.09.11.24.21.28-.17.13.19,0,.23,0,.2-.33-.3-.06.19v.42l-.28-.25-.08.17v.33ZM110,30.08l.09-.08-.09-.11Zm.46,5-.43.6.43-.07.08-.4Zm-.3,1.47.1-.18.33-.12-.13-.15-.2.08-.1.18Zm0-6.91.15-.13-.16,0Zm.18.55.09.26.24-.21-.16-.12Zm.59,2.35h-.16l-.2.15.21.17.1-.15Zm-.35-2.65.32.08.12-.1-.13-.15-.2.08Zm.08,4.88.15.16,0,.31H111l.13-.12-.16-.18-.07-.27Zm.09-3.46.24.09.15-.13.13.26.16-.15-.17-.28-.39.05Zm.45,2-.19.19-.08,0-.08-.17.19-.09Zm.11.2,0,.26-.09-.11Zm0-2.69,0,.06.07-.07-.05-.06Zm.27,2.13.08.09,0,.1-.12,0Zm-.07-3.22.07.07.14-.06-.1-.11Zm1.07,3.13-.41.09-.06.16-.14.15-.18.09-.05-.48.12,0,.14,0,.1-.15v-.14h.18l.2.12Zm-.78-1.81.07.07-.06.05-.06-.07Zm.14,3.64.14-.06v-.19l-.18.06Zm.11-2.52.08.1-.16.14Zm.38,1.12-.08.1-.13-.12Zm.41-.36,0,.2-.15.06-.13-.12Zm0-1.12.13-.08,0-.14-.13.08Zm.67.21.13,0v-.15Z" fill="#878787"/><path d="M59.43,11.68h.06a.34.34,0,0,1,0,.1.13.13,0,0,1,.17.06c-.07,0-.19.94-.25,1s0,.19,0,.28c0,.33,0,.66-.07,1l-.09.29-.12.24-.19.05-.18,0-.06-.08-.09,0-.44,0-.12,0-.34-.13-.41.09,0-.07v-.11l-.11,0H57l-.18,0-.2,0-.12.06,0-.16a.6.6,0,0,0-.08.08l-.19,0-.15-.1-.1.12h-.1l-.16-.09-.1.1-.09,0-.18-.07-.07-.06-.15.11-.29-.11-.1.06h-.1l-.18-.11,0,.16-.08,0-.11,0L54,14.34l-.13.13H53.7l-.19.07-.28.05c-.15-.08-.19-.11-.33,0l0-.05s0-.11-.06-.09-.06.07-.1.07-.08-.11-.1-.19c-.07-.37-.09-.74-.13-1.11a3.41,3.41,0,0,0-.25-1.08.49.49,0,0,0,0-.32l.4-.07.18.07.11-.08.1,0,.17.09h.1l.22-.16h.19l.07.09.1-.09.19,0,.19,0,.24-.12,0,.18.12-.07.21,0,.21,0,.22-.07.43,0,.12,0,.09.1.11-.09h.11l.17.1.11-.08.29.09h.12l.13-.06.07.11.17-.15.2.08.52.06-.11.17.08,0s0-.1.05-.15l.11,0,.2-.14s.14,0,.17,0a1.28,1.28,0,0,0,0,.19h.1s0-.1.07-.08l.57.12h0s0,0,0-.06A.57.57,0,0,1,59.43,11.68Zm-6.93.62,0-.15-.09.17.24,0,.07-.08s0-.09,0-.14l-.1.06Zm.86.45a.43.43,0,0,1,0-.11l.15-.05-.12-.19.1-.14V12.2l-.1,0,0-.14.11.06a1.36,1.36,0,0,0,0-.2l-.22.08a2.89,2.89,0,0,1,0,.29l0,.08-.05.11-.1.09,0-.14-.19-.26c0-.05,0-.1,0-.14l0-.07-.12.05-.08.17.08,0c0,.14,0,.28.07.41l.11-.08.08,0,.07.09.05.14c0,.09,0,.19,0,.29l-.06.11.12.24.11,0,0,.09,0,.13.09,0,.16.07v-.15l-.07-.06,0-.13.2,0v-.18a2.33,2.33,0,0,1-.05-.28.3.3,0,0,1,0-.1l-.08-.07-.1,0Zm.47-.26-.07-.1a2.74,2.74,0,0,0,0-.28l-.08.12c0,.06,0,.12,0,.18l0,.14.1,0,0,.17c0-.08.07-.17.11-.26l0-.16Zm-.34.72-.12,0s0-.09-.08-.14l.09-.07.08.06Zm.54-.3L54,12.76l-.11,0,0,.28-.07,0,.07,0L53.9,13l.06.05a.86.86,0,0,0-.07.1,1.83,1.83,0,0,0-.08.25l0,.08c0,.05,0,.1,0,.15l.06-.12,0-.24A.76.76,0,0,0,54,13.2l.14-.09c0-.1,0-.2.08-.3v-.19l-.09.15Zm-1.5.59.06,0a.15.15,0,0,0,0-.07Zm2.25-.87.07-.13,0-.07-.11,0h-.17l-.09.08.07.11a.69.69,0,0,0,0,.13.78.78,0,0,1,0,.14l.1-.07.06-.11.05.06-.08.1s0,.11,0,.16l-.25.21-.08.1-.07-.06-.09.08-.07,0,.06.19.12-.06.08-.1s0,.07,0,.11l.1-.11.1,0a.88.88,0,0,0,.05-.15l.1,0,.06.1a2.44,2.44,0,0,1,0-.27.41.41,0,0,1,0-.09l0-.07a1,1,0,0,1,.07.15l.09,0v-.18l-.07-.11Zm1.19.56a2.25,2.25,0,0,1-.08-.24l.06-.08.1-.07v.13l.11,0,.17-.19.24.15V13a1,1,0,0,0-.17-.1l-.09.11c0,.05,0,.1,0,.16v.11l.1.05.06-.14a.94.94,0,0,1,.1-.1v.25l.09,0,.19.27.08,0,.09-.15.12-.05-.07-.07-.12.11a1.11,1.11,0,0,0,0-.19.86.86,0,0,0,.07-.1l.21.3.1,0,0,.12h.12l.07.11-.11.09-.07,0-.13-.12s0,.11,0,.16l-.06.31.09-.07.1-.14.06.11h.08a1,1,0,0,0,0,.17l.08.05c0-.11,0-.21,0-.31l.07-.16a.88.88,0,0,0,0-.15,1.42,1.42,0,0,0,.08-.18l.12-.13,0,.24a.76.76,0,0,0,.08-.11l.17,0c.06.09.11.19.16.28l.08-.07.21,0c0-.1,0-.2,0-.3l-.14.07-.18.2a.61.61,0,0,1,0-.12s0-.1,0-.15a.83.83,0,0,1,.07-.13l.06.07.11-.06-.06-.28a1.17,1.17,0,0,0-.05-.11l-.08-.07,0,.14a.75.75,0,0,1-.07.12,3.81,3.81,0,0,0-.15-.44l-.09,0-.12.31-.12.06-.05.14,0,.41-.09,0h-.08c0-.05,0-.1,0-.15a.68.68,0,0,0,0-.14.56.56,0,0,0,0-.12l-.1,0L57.17,13s0-.09-.05-.13l-.11,0-.07-.09,0-.26-.12,0v.11l.07.09-.09.36-.08,0,0-.14-.06-.23.05-.12,0-.14a.71.71,0,0,0,.14-.1c0-.07,0-.14-.07-.22l.15-.06.08,0c0,.05,0,.11,0,.17l-.1,0c0,.07,0,.13,0,.19l.17-.07-.06-.22.1,0-.31-.28a.69.69,0,0,1,0,.13l-.09.1-.06.12,0,0-.1,0,.12.41,0,.06h-.12a1,1,0,0,1,0-.1c0-.14-.07-.28-.1-.42l-.08,0s0,.1,0,.16a3.59,3.59,0,0,1,.08.35l-.27.12a2,2,0,0,0,0-.24H56a1,1,0,0,0,0-.1l-.09,0,0,.07-.2.09-.18,0-.06.1-.1.07c0-.08,0-.17,0-.25l-.09.18-.09.07.15-.33-.07-.15a1,1,0,0,1-.08.14c0,.05,0,.11,0,.16a.31.31,0,0,0-.1-.05l0-.19-.1.12v.14c0,.05,0,.1.05.15l.12.2.06.27,0,.07.11-.09.16-.27h.11l-.09.08s0,.09,0,.13l0-.08.1.22.13,0,.11,0,.12-.17,0,.09.09,0a.86.86,0,0,1,0-.16l-.1,0Zm-.33-1s0,.08,0,.13h.11l-.06-.11Zm.87-.17-.08.1,0,.14h.08s0-.08,0-.13S56.52,12,56.51,12Zm1.13-.18a.77.77,0,0,0-.07.16l-.23,0-.11.06c0,.07.05.14.07.21v.14l-.1.1a.93.93,0,0,0,0,.13l0,.08.09,0v-.15a.83.83,0,0,0,0-.15l.23.05a.78.78,0,0,1,0-.14l-.08-.06s0-.11-.05-.16h.18l.08-.18Zm-1.71.72s0,.09,0,.13l0-.1Zm-2.2,1.26.05,0c0-.05,0-.11,0-.17S53.75,13.71,53.73,13.78Zm1.92-1.09s0,.09,0,.14v-.12Zm-.61.36,0,.12.09.08C55.07,13.18,55.06,13.12,55,13.05Zm-2.37,1.32v.05l0,0v-.05Zm1.38-.74s0,.1,0,.15l-.08,0A.94.94,0,0,1,54,14l.15-.3ZM55.84,13l-.09,0a1.23,1.23,0,0,0,0-.2A1.11,1.11,0,0,1,55.84,13Zm-.94.73c0-.08,0-.16,0-.24l-.16-.18c0,.05,0,.09,0,.14l.06.05-.09.14c0,.05,0,.1,0,.15l.12.24.09-.08a.3.3,0,0,1,0-.1c0-.05,0-.1,0-.15Zm3.36-1.63-.2-.14,0,.18c0,.15.06.31.08.46l.11,0,.11-.09v-.15l-.11,0A1.1,1.1,0,0,1,58.26,12.07Zm.46-.32v.11l.09,0v-.12Zm-1.09.66.11,0,.15-.21.11,0v-.09l-.24.06-.1.1Zm-3.37,1.36.05.14c0-.05,0-.11,0-.16Zm5-2,.12,0a.37.37,0,0,1,0-.11Zm-.07.15-.26.16v.18l-.06.16-.1-.14s0-.11,0-.16L58.75,12l-.08.12h.11l-.1.09c0,.09,0,.18,0,.28l0,.11-.09-.08a.62.62,0,0,0,0-.13c0-.1.05-.2.07-.3l-.14.08-.09.15a.36.36,0,0,1,0,.11l-.07.18a1.43,1.43,0,0,1,.08.22l.15,0,0,.13.06.25.14.1,0-.12c0-.06,0-.12,0-.17l-.18.09v-.17l.12-.12,0-.15.17-.19h.13c0-.08,0-.16,0-.23l.09-.11c0-.09.09-.17.13-.26Zm-4.05,1.6a.5.5,0,0,1,0,.12h.12a.59.59,0,0,1,0-.13Zm2.54-1v.08l0,0v-.08Zm-3,1.37c0,.11-.08.21-.11.32l.18-.1,0-.14S54.71,14,54.7,13.92Zm.61-.23v.11a.57.57,0,0,1,0,.14l.11-.07,0-.13,0-.17-.09,0Zm.52-.29a.86.86,0,0,1,0,.16.5.5,0,0,1,0,.12l0,.1.11-.07.07-.09a2,2,0,0,0,0-.24Zm1.58-.56,0,.14.06-.17Zm-1.94,1,0,.14.07-.15Zm1.13-.4h-.09l-.08.07.16.09,0,.1v.15a.94.94,0,0,0,.1-.1v-.11l-.07-.09Zm-.58.26-.09.13a1.16,1.16,0,0,1,0,.18l.2-.15a.76.76,0,0,1,.11-.14,1.09,1.09,0,0,1,0-.17,1.29,1.29,0,0,1-.16.17Zm-1,.47c0,.05,0,.11,0,.17l.07-.08,0-.11Zm3-1.07-.06.12-.08.06,0-.06v-.14L58,13Zm-2,.88v.1l.05-.12Zm.07,0,.05.1h.1l.07,0,0-.09-.17-.08Zm.66-.17s0,.08,0,.13l0,.05.08-.13,0-.16Zm1,0,0,.12v.13h.1v-.16Zm.27-.07L58,14l.12.07,0-.29Zm.09.57.07,0,0-.11Z" fill="#878787"/><path d="M9.09,114.56l2.67-1.81-.65-1-2.68,1.81-.53-.79,5.89-4,.53.79-2.5,1.69.66,1,2.5-1.69.53.78-5.88,4Z" fill="#878787"/><path d="M12.87,119.45l5.3-4.75,1.57,1.76-.64.57-.94-1-1.61,1.44.83.93-.64.58-.83-.93-1.76,1.58.93,1-.64.57Z" fill="#878787"/><path d="M18.69,125.3l-.72-.62,3.85-4.47a1.05,1.05,0,0,1,1.66-.18l.54.47a1,1,0,0,1,.06,1.66l-3.84,4.47-.72-.62,1.7-2-.83-.71Zm3.09-1.92,1.54-1.79a.37.37,0,0,0,0-.59l-.19-.17a.37.37,0,0,0-.59,0L21,122.67Z" fill="#878787"/><path d="M26.24,131l-1.88-1.25,3.93-5.93.79.52-3.45,5.22,1.09.72Z" fill="#878787"/><path d="M34.15,128.25l-2.87,5.55-.84-.43,2.87-5.56-.81-.41.39-.77,2.47,1.27-.4.77Z" fill="#878787"/><path d="M38.52,136.91l1.11-3-1.1-.41-1.11,3-.9-.33L39,129.5l.89.33-1,2.83,1.1.41,1-2.84.89.33-2.44,6.68Z" fill="#878787"/><path d="M46.14,139.08l-.93-.21.58-2.55-.15-4.65.92.21v3.17h0l1.31-2.87.92.2-2.11,4.14Z" fill="#878787"/><path d="M62.12,140.48l-2.26,0-.13-7.11,1,0,.11,6.25,1.31,0Z" fill="#878787"/><path d="M66.84,140.11,66,133.05l.94-.11.86,7.06Z" fill="#878787"/><path d="M74,134.67l.2.84-1.22.28.72,3.14-.92.22-1.6-6.94,2.3-.52.19.84-1.37.31.49,2.11Z" fill="#878787"/><path d="M79.82,137.23l-2.39-6.7,2.22-.8.29.82-1.33.47.73,2,1.18-.42.29.81-1.18.42.8,2.23,1.32-.47.29.81Z" fill="#878787"/><path d="M85.9,129l-.28-.56a.37.37,0,0,0-.56-.19l-.14.07a.37.37,0,0,0-.17.56l.53,1.05a.4.4,0,0,0,.19.21l.32,0,1,0a3.77,3.77,0,0,1,.49,0,.65.65,0,0,1,.28.12,1.26,1.26,0,0,1,.29.42l.68,1.36a1,1,0,0,1-.49,1.59l-.52.26c-.68.34-1.21.12-1.6-.66l-.16-.32.85-.42.17.34a.37.37,0,0,0,.57.18l.15-.07a.36.36,0,0,0,.15-.54l-.55-1.08c-.06-.12-.12-.19-.19-.21a1.68,1.68,0,0,0-.31,0l-1-.05a3,3,0,0,1-.51,0,.65.65,0,0,1-.3-.17,1.47,1.47,0,0,1-.25-.37l-.66-1.3a1,1,0,0,1,.47-1.6l.53-.27a1,1,0,0,1,1.57.57l.31.62Z" fill="#878787"/><path d="M91.25,124.61l3.48,5.19-.79.53-3.48-5.19-.76.5-.48-.71,2.31-1.55.48.72Z" fill="#878787"/><path d="M100.67,125.19l-.72.62-1.71-2-3.83-2.64.71-.61,2.56,1.86h0l-1.54-2.76.72-.62L99,123.21Z" fill="#878787"/><path d="M106.47,119.33,105,121l-5.3-4.75.64-.71,4.65,4.18.88-1Z" fill="#878787"/><path d="M109.46,115.53l-5.84-4.06,1.35-1.94.71.49-.81,1.16,1.78,1.23.71-1,.71.49-.72,1,2,1.35.8-1.16.71.5Z" fill="#878787"/><path d="M2.92,74.16,1.7,75.38a.16.16,0,0,1-.24,0L.24,74.16A.82.82,0,0,1,.24,73l1.22-1.22a.16.16,0,0,1,.24,0L2.92,73A.82.82,0,0,1,2.92,74.16Z" fill="#878787"/><path d="M118.52,74.16l-1.22,1.22a.16.16,0,0,1-.24,0l-1.22-1.22a.82.82,0,0,1,0-1.16l1.22-1.22a.16.16,0,0,1,.24,0L118.52,73A.82.82,0,0,1,118.52,74.16Z" fill="#878787"/><path d="M71.11,56.31l-2.34,0c-1.49,0-3.62,0-6.18-.08L53.86,56l-2.45-.07a1.38,1.38,0,0,1-1.2-.94,2.36,2.36,0,0,1-.07-.71v-.63l0-2.53v-.64a1.92,1.92,0,0,1,.09-.72,1.32,1.32,0,0,1,1.23-.84c3.41,0,6.82,0,10-.13l8.74-.22,1,0a1.66,1.66,0,0,1,1.24.65,1.58,1.58,0,0,1,.3.61,1.88,1.88,0,0,1,.06.57c0,.28,0,.55,0,.81,0,1,0,1.94,0,2.69v.8a2.26,2.26,0,0,1-.07.39,1.76,1.76,0,0,1-.71,1A1.67,1.67,0,0,1,71.11,56.31Zm0-1.39a.5.5,0,0,0,.2-.06.34.34,0,0,0,.16-.19v-.06s0-.11,0-.08v-.65c0-.75,0-1.65,0-2.69,0-.26,0-.53,0-.81a1.43,1.43,0,0,0,0-.26.51.51,0,0,0-.07-.15.47.47,0,0,0-.3-.18l-.9,0-8.74-.22c-3.19-.1-6.6-.09-10-.13a.8.8,0,0,0-.74.52,4.89,4.89,0,0,0,0,1.18c0,.85,0,1.69,0,2.53v.63a1.56,1.56,0,0,0,0,.52.76.76,0,0,0,.66.49l2.41-.06L62.59,55c2.56-.06,4.69-.06,6.18-.08Z" fill="#878787"/><path d="M62.42,48.35l2.87-15.46.45.79-2.23-1.29.34-.19L60.76,49l-.33-.4ZM63,49.66l-2.58-.37h0a.33.33,0,0,1-.28-.37v0l3.24-16.79a.25.25,0,0,1,.29-.2h0l2.52.45a.58.58,0,0,1,.47.67h0l0,.11-3,15.94,0,.09A.59.59,0,0,1,63,49.66Z" fill="#878787"/><path d="M72.17,54.84h0l-20.32-.05a.1.1,0,0,1-.11-.1.11.11,0,0,1,.11-.11l15.76-.33-5.9-.14a.11.11,0,0,1-.1-.11.11.11,0,0,1,.1-.1l6.54-.16-4.37-.13a.11.11,0,0,1-.1-.1.12.12,0,0,1,.1-.11l4.5-.17-2.82,0a.1.1,0,0,1-.1-.1.1.1,0,0,1,.1-.11l4.2-.2-4-.19a.1.1,0,0,1-.1-.1.11.11,0,0,1,.11-.11l3.91,0L65.93,52a.11.11,0,0,1-.1-.11.11.11,0,0,1,.1-.1l3.89,0-4-.4a.11.11,0,1,1,0-.21h0l3.42,0L65,50.82a.1.1,0,0,1-.09-.1.1.1,0,0,1,.1-.1h4.6l-5.14-.44a.12.12,0,0,1-.1-.11.1.1,0,0,1,.1-.1l7.65-.2h0a.11.11,0,1,1,0,.21l-5.78.15,5.7.49a.1.1,0,1,1,0,.2H67.56l4.45.36a.12.12,0,0,1,.1.11.1.1,0,0,1-.11.1h0l-4,0,3.8.38a.11.11,0,0,1,0,.21L68.1,52l3.72.34a.1.1,0,0,1,.09.11.11.11,0,0,1-.1.1l-2.27,0,2.42.11a.11.11,0,0,1,.1.1.12.12,0,0,1-.1.11L68.64,53l3.38.06a.12.12,0,0,1,.1.11.11.11,0,0,1-.1.1l-5,.19,5.14.16a.1.1,0,1,1,0,.2l-6,.15,6.2.15a.11.11,0,0,1,.11.1.11.11,0,0,1-.11.11l-11.7.25,11.61,0a.1.1,0,0,1,0,.2Z" fill="#878787"/><path d="M51,54.91a.07.07,0,0,1-.06,0,.09.09,0,0,1,0-.14l.48-.64-.62-.26a.1.1,0,0,1-.07-.08.13.13,0,0,1,0-.1l.64-.47-.64-.48a.1.1,0,0,1,0-.09.1.1,0,0,1,.06-.08l.72-.39-.68,0a.11.11,0,0,1-.1-.09.12.12,0,0,1,.07-.11l.67-.22-.65-.07a.11.11,0,0,1-.09-.1.12.12,0,0,1,.09-.11l.54-.11-.6-.06a.09.09,0,0,1-.09-.1.11.11,0,0,1,.09-.1l.67-.11-.79-.06a.1.1,0,0,1-.09-.1.12.12,0,0,1,.09-.11l1.22-.11-1-.05a.11.11,0,0,1-.1-.1.11.11,0,0,1,.1-.11l1.53-.13-1.59,0a.1.1,0,0,1-.1-.11.1.1,0,0,1,.1-.1h0l3.53.06a.1.1,0,0,1,.1.1.09.09,0,0,1-.09.11l-2,.18,1,0a.09.09,0,0,1,.1.1.1.1,0,0,1-.09.1l-1.43.14.43,0a.09.09,0,0,1,.1.1.1.1,0,0,1-.09.1l-.74.12.49.05a.11.11,0,0,1,.09.1.11.11,0,0,1-.08.11l-.59.11.45,0a.13.13,0,0,1,.1.1.14.14,0,0,1-.07.11l-.61.2.52,0a.09.09,0,0,1,.09.08.1.1,0,0,1,0,.11l-.91.48.61.46a.11.11,0,0,1,0,.09.09.09,0,0,1,0,.08l-.6.45.58.24a.11.11,0,0,1,.06.07.1.1,0,0,1,0,.09l-.55.74A.12.12,0,0,1,51,54.91Z" fill="#878787"/><path d="M62.85,48.28H61.53a.11.11,0,0,1-.1-.1.11.11,0,0,1,.1-.11h.55l-.08,0a.1.1,0,0,1-.07-.11.09.09,0,0,1,.09-.09l.52-.05-.45-.16a.1.1,0,0,1-.07-.11.09.09,0,0,1,.09-.09l.58-.06-.52-.24a.1.1,0,0,1-.06-.11.12.12,0,0,1,.08-.09l.65-.13-.59-.36a.1.1,0,0,1,0-.11.11.11,0,0,1,.1-.08l.56,0-.49-.42a.11.11,0,0,1,0-.11.12.12,0,0,1,.1-.07h.61l-.42-.56a.09.09,0,0,1,0-.11s.05-.05.08-.06l.48,0-.41-.52a.09.09,0,0,1,0-.1.1.1,0,0,1,.07-.07l.41-.12-.36-.33a.11.11,0,0,1,0-.11.1.1,0,0,1,.07-.07l.49-.12L63,43.2a.11.11,0,0,1-.05-.11.12.12,0,0,1,.09-.09l.44,0-.36-.31a.11.11,0,0,1,0-.11.11.11,0,0,1,.09-.07l.28,0-.27-.4a.09.09,0,0,1,0-.1.1.1,0,0,1,.09-.06h.35l-.3-.47a.11.11,0,0,1,0-.11.1.1,0,0,1,.1,0l.24,0-.38-.41a.14.14,0,0,1,0-.11.11.11,0,0,1,.1-.06h.46l-.34-.27a.1.1,0,0,1,0-.11.08.08,0,0,1,.08-.07l.52-.11-.36-.5a.13.13,0,0,1,0-.12.09.09,0,0,1,.11,0l.26.06-.36-.39a.14.14,0,0,1,0-.09.11.11,0,0,1,.06-.07l.47-.22-.28-.35a.11.11,0,0,1,0-.08s0-.05,0-.07L64.4,38l-.27-.27a.13.13,0,0,1,0-.08.09.09,0,0,1,0-.08l.39-.32L64.14,37a.11.11,0,0,1,0-.09.11.11,0,0,1,.05-.09l.52-.32-.25-.82a.14.14,0,0,1,0-.09.13.13,0,0,1,.07,0l.41-.1-.35-.7a.12.12,0,0,1,0-.1.11.11,0,0,1,.09-.05h.4l-.4-.7a.1.1,0,0,1,0-.09.09.09,0,0,1,.07-.06l.41-.12-.44-.29a.1.1,0,0,1,0-.12.11.11,0,0,1,.12-.07l.72.14a.1.1,0,0,1,.08.12.11.11,0,0,1-.12.09l-.2,0,.19.12a.1.1,0,0,1,0,.1.08.08,0,0,1-.07.08l-.51.15.43.74a.14.14,0,0,1,0,.11.12.12,0,0,1-.1,0h-.41l.33.66a.14.14,0,0,1,0,.09.11.11,0,0,1-.07.06l-.44.11.24.8a.1.1,0,0,1,0,.12l-.46.28.37.27a.1.1,0,0,1,0,.08.18.18,0,0,1,0,.09l-.41.33.28.28a.11.11,0,0,1,0,.08.09.09,0,0,1,0,.08l-.44.3.29.36a.15.15,0,0,1,0,.09.11.11,0,0,1-.06.07l-.46.21.49.53a.11.11,0,0,1,0,.13.09.09,0,0,1-.11,0L64,39.74l.29.41a.12.12,0,0,1,0,.1s0,.06-.08.06l-.45.09.4.32a.09.09,0,0,1,0,.11.1.1,0,0,1-.1.07h-.53l.42.46a.11.11,0,0,1,0,.12.13.13,0,0,1-.11.06l-.31-.06.28.44a.11.11,0,0,1,0,.11.09.09,0,0,1-.09,0h-.35l.26.38a.12.12,0,0,1,0,.1.1.1,0,0,1-.09.06l-.2,0,.35.3a.11.11,0,0,1,0,.11.1.1,0,0,1-.08.07l-.39.05.34.21a.1.1,0,0,1,0,.11.08.08,0,0,1-.07.08l-.54.13.36.33a.15.15,0,0,1,0,.1.12.12,0,0,1-.07.07l-.45.14.45.56a.08.08,0,0,1,0,.1.1.1,0,0,1-.08.07l-.49,0,.43.57a.14.14,0,0,1,0,.11.13.13,0,0,1-.1.06h-.53l.47.4a.11.11,0,0,1,0,.11.11.11,0,0,1-.1.07l-.48,0,.53.32a.11.11,0,0,1,0,.11.12.12,0,0,1-.08.09l-.6.12.58.27a.11.11,0,0,1,.06.11.12.12,0,0,1-.1.09l-.47,0,.45.16a.1.1,0,0,1,.07.11c0,.05,0,.09-.09.09l-.43,0,.26.08a.1.1,0,0,1,.08.11A.11.11,0,0,1,62.85,48.28Z" fill="#878787"/><path d="M60.2,98.39a.11.11,0,0,1-.1-.08.11.11,0,0,1,.08-.13L62,97.74l-2,0h0a.12.12,0,0,1-.11-.09.11.11,0,0,1,.09-.12l2.15-.44-3.9.22a.13.13,0,0,1-.11-.09.1.1,0,0,1,.09-.11l3.41-.5c-1.51.07-3.18.13-3.3.09a.13.13,0,0,1-.08-.11c0-.09,0-.15,2.1-.55L58,96.25a.09.09,0,0,1-.11-.09.1.1,0,0,1,.08-.11l2.45-.55-2.72.26a.1.1,0,0,1-.12-.08.11.11,0,0,1,.09-.12l2.7-.56-3.16.28s-.11,0-.11-.09a.1.1,0,0,1,.08-.12l3.13-.51L57,94.6h0a.11.11,0,0,1-.11-.09.13.13,0,0,1,0-.09l-.54.1c-.05,0,.1,0,.09-.09s-.17-.19-.12-.2L58,93.91c-.32,0-.59,0-.68,0a.11.11,0,0,1-.08,0s0-.05,0-.08.54-.32,1-.48l-1.44,0h0a.1.1,0,0,1,0-.2l.85-.18-.33,0h0a.11.11,0,0,1-.1-.09.11.11,0,0,1,.07-.12l1-.31-.9,0a.11.11,0,0,1-.1-.1.1.1,0,0,1,.08-.11l.81-.15L56.66,92s-.12,0-.12-.1,0-.12,1.3-.35l-.46,0a.09.09,0,0,1-.09-.09.11.11,0,0,1,.08-.11l.55-.14-.59,0a.12.12,0,0,1-.1-.1.1.1,0,0,1,.08-.11l.49-.13-.4,0a.11.11,0,0,1-.11-.08.1.1,0,0,1,.07-.12l.92-.31-1.13,0a.1.1,0,0,1,0-.2l1-.27-.89-.08a.09.09,0,0,1-.09-.1.1.1,0,0,1,.08-.11l.69-.13-.73,0a.1.1,0,0,1,0-.2l1-.25-.67,0a.12.12,0,0,1-.1-.09.14.14,0,0,1,.07-.12l1-.32-1.14-.08a.14.14,0,0,1-.09-.09.11.11,0,0,1,.07-.12l1-.33-.81-.07a.11.11,0,0,1-.09-.1.11.11,0,0,1,.08-.11l.82-.21-.8-.07a.11.11,0,0,1-.1-.1.11.11,0,0,1,.08-.11l.87-.21-1.1-.28a.11.11,0,0,1-.08-.1.12.12,0,0,1,.08-.11l.87-.21L57.13,86a.11.11,0,0,1-.09-.1.11.11,0,0,1,.08-.11l.87-.18-1.14-.25a.11.11,0,0,1-.09-.1.12.12,0,0,1,.09-.1l1-.18-1.08-.09a.09.09,0,0,1-.09-.09.1.1,0,0,1,.08-.11l1-.21-1.18-.18a.11.11,0,0,1-.09-.1.1.1,0,0,1,.08-.1l1.33-.25L56,83.48a.1.1,0,0,1-.08-.1.1.1,0,0,1,.09-.1l1.42-.19-1.66-.2a.1.1,0,0,1,0-.2l1.43-.17-1.86-.26a.1.1,0,0,1-.09-.11.11.11,0,0,1,.1-.1l1.75-.11-2.27-.31a.11.11,0,0,1-.1-.11.13.13,0,0,1,.1-.1l1.81-.09L54.41,81a.12.12,0,0,1-.09-.11.11.11,0,0,1,.1-.1l1.47,0-2.19-.28a.11.11,0,0,1-.09-.11.1.1,0,0,1,.1-.1l1.79-.13-2.34-.1a.09.09,0,0,1-.1-.1.1.1,0,0,1,.09-.1l1.9-.17-2.68-.06a.1.1,0,0,1-.1-.1.12.12,0,0,1,.1-.11l2-.19-2.63,0a.11.11,0,0,1-.1-.1.1.1,0,0,1,.09-.11l1.74-.15c-1.16,0-2.25,0-2.35,0a.13.13,0,0,1-.08-.12c0-.09,0-.13,2.05-.22l-3.36-.17a.1.1,0,0,1-.1-.1s0-.06.1-.08v0h.13c.29,0,1-.08,2.52-.17h.15l-3.82-.09a.11.11,0,0,1-.11-.11.11.11,0,0,1,.11-.1l2.87,0-3.34-.18a.1.1,0,0,1-.11-.1s0-.07.1-.09h.08l.8,0,1.36,0-2,0h-.67c-.12,0-.13,0-.13-.07a.1.1,0,0,1,.07-.12,4,4,0,0,1,.65,0l2-.11-.8,0a.11.11,0,0,1-.1-.09.11.11,0,0,1,.09-.11l1.2-.22-.76,0a.11.11,0,0,1-.1-.09.13.13,0,0,1,.08-.12l.57-.15-.62-.07a.1.1,0,0,1-.09-.1.11.11,0,0,1,.08-.11l.64-.12-.63-.1a.1.1,0,0,1-.09-.1.11.11,0,0,1,.09-.1l.37-.07-.31,0a.11.11,0,0,1,0-.21l.57-.15-.62-.07a.1.1,0,0,1-.09-.1.11.11,0,0,1,.08-.11l.56-.11-.48,0a.11.11,0,0,1-.1-.09.12.12,0,0,1,.07-.11l.65-.25-.56,0a.11.11,0,0,1,0-.21l.51-.16h-.3a.1.1,0,0,1-.1-.09.09.09,0,0,1,.07-.11l.44-.13-.78,0a.1.1,0,0,1-.1-.09.11.11,0,0,1,.08-.11l.75-.16H50a.11.11,0,0,1-.11-.09.11.11,0,0,1,.08-.12l1-.23-.85-.11a.11.11,0,0,1,0-.21l.63,0-.17-.07a.1.1,0,0,1-.07-.07l-.12-.74a.12.12,0,0,1,.08-.12l.46-.1-.65-.25a.09.09,0,0,1-.07-.09.09.09,0,0,1,.06-.1l.73-.28-1-.13a.11.11,0,0,1-.09-.1.12.12,0,0,1,.09-.11l.56-.1-.55-.06a.1.1,0,0,1,0-.2l.77-.16h-.88a.11.11,0,0,1-.1-.09.12.12,0,0,1,.08-.12l1.22-.35-.9-.12a.1.1,0,0,1,0-.2l.82-.11-.65-.18a.1.1,0,0,1-.08-.1.1.1,0,0,1,.09-.1l.84-.1-1.15-.18a.12.12,0,0,1-.09-.1.12.12,0,0,1,.08-.11l1.17-.28H49.94a.1.1,0,0,1-.1-.1.12.12,0,0,1,.09-.11l.42-.06-.58,0a.1.1,0,0,1-.11-.09.1.1,0,0,1,.08-.12l1.44-.35-1.41.07h0a.11.11,0,0,1-.1-.09.11.11,0,0,1,.07-.12l1.44-.42-1.4.14a.1.1,0,0,1-.11-.09.11.11,0,0,1,.08-.12l1.45-.35.05-.92-1-.17a.1.1,0,0,1,0-.2l1.62-.42-1.73-.23a.11.11,0,0,1-.09-.1.1.1,0,0,1,.08-.11l2.33-.53-2.69-.3a.11.11,0,0,1-.09-.11.1.1,0,0,1,.09-.1L51.73,62l-1.79-.1a.11.11,0,0,1-.1-.1.11.11,0,0,1,.09-.11l2.12-.24-2.78,0a.1.1,0,0,1-.1-.1.12.12,0,0,1,.09-.11l3.16-.28H48.66a.1.1,0,0,1-.1-.1.12.12,0,0,1,.09-.11l4.14-.38-4.47,0h0a.11.11,0,0,1,0-.21l4.1-.49-3.12.15a.1.1,0,0,1-.11-.1.1.1,0,0,1,.1-.1l6.1-.31a.11.11,0,0,1,.11.1.1.1,0,0,1-.09.11l-5.21.62,5.08,0a.12.12,0,0,1,.1.1.1.1,0,0,1-.09.11l-4.35.4h3.85a.11.11,0,0,1,.1.1.1.1,0,0,1-.09.11l-3.46.31,1.77,0,.63,0h.07c.11,0,.11,0,.11.1a.1.1,0,0,1-.11.1c-.1,0-1.38.15-2.64.29l2,.11a.11.11,0,0,1,.09.11.1.1,0,0,1-.09.1l-2.28.21,2.28.26a.09.09,0,0,1,.09.09.1.1,0,0,1-.08.11l-2.37.55,1.69.22a.11.11,0,0,1,.09.1.1.1,0,0,1-.08.11l-1.67.43.57.1a.09.09,0,0,1,.08.11l-.06,1.09a.1.1,0,0,1-.08.1l-.06,0,1-.1a.1.1,0,0,1,.11.08.11.11,0,0,1-.08.12l-1.66.49,1.63-.08h0a.1.1,0,0,1,.11.09.1.1,0,0,1-.08.11l-1.45.36,1.48-.07c.07,0,.1,0,.11.09a.1.1,0,0,1-.09.11l-1,.16h.83a.11.11,0,0,1,.11.09.12.12,0,0,1-.08.12l-1.51.36,1.38.23a.1.1,0,0,1,.09.1.12.12,0,0,1-.1.1L51,68l.62.17a.1.1,0,0,1,.08.1.12.12,0,0,1-.09.1l-.57.08.63.08a.12.12,0,0,1,.09.1.1.1,0,0,1-.08.1l-1,.29h1.15a.1.1,0,0,1,.1.09.09.09,0,0,1-.08.11l-1.1.23.6.06a.09.09,0,0,1,.09.1.09.09,0,0,1-.08.1l-.66.13.71.09a.11.11,0,0,1,.09.1.11.11,0,0,1-.06.11l-.85.32.72.27a.1.1,0,0,1,.07.11.09.09,0,0,1-.08.09l-.7.16.1.58.56.23a.09.09,0,0,1,.06.11s0,.08-.08.08l.3,0a.12.12,0,0,1,.09.1.11.11,0,0,1-.08.11l-.67.16h.7a.1.1,0,0,1,0,.2l-.92.2.59,0a.1.1,0,0,1,.1.09.09.09,0,0,1-.07.11l-.35.1h.26a.11.11,0,0,1,.1.09.09.09,0,0,1-.07.11l-.62.2.47,0a.11.11,0,0,1,.1.09.1.1,0,0,1-.07.11l-.7.27.74.08a.1.1,0,0,1,.09.1.1.1,0,0,1-.08.1l-.55.11.48.06c.05,0,.08,0,.09.09a.11.11,0,0,1-.08.11l-.58.16.51.06a.11.11,0,0,1,.09.1.11.11,0,0,1-.09.11l-.45.07.57.09a.11.11,0,0,1,.09.1.1.1,0,0,1-.08.1l-.55.11.48.06c.05,0,.08,0,.09.09a.11.11,0,0,1-.08.11l-.45.12,1,0a.1.1,0,0,1,.1.1.11.11,0,0,1-.09.11l-1.18.22,2.08.06a.11.11,0,0,1,0,.21l-1.41.09,2.69.07a.1.1,0,1,1,0,.2l-3.35.13,4,.22a.1.1,0,1,1,0,.2H54l1.12,0a.11.11,0,0,1,.1.1.11.11,0,0,1-.1.11l-3.45.2,3.75.2a.1.1,0,0,1,.1.11.1.1,0,0,1-.1.1l-1.2,0,1.87,0h0a.1.1,0,0,1,.1.1.09.09,0,0,1-.09.11L53.89,79l2.47,0a.11.11,0,0,1,.1.1.11.11,0,0,1-.09.11l-2.24.21,2.84.07a.11.11,0,0,1,.1.1.11.11,0,0,1-.09.11L54.84,80l2.5.1a.11.11,0,0,1,.1.1.11.11,0,0,1-.1.11l-2.59.19,2.6.33a.12.12,0,0,1,.09.11.11.11,0,0,1-.11.1l-1.5,0,1.94.25a.09.09,0,0,1,.09.11.11.11,0,0,1-.09.1l-1.85.09,2.22.31a.12.12,0,0,1,.09.11.1.1,0,0,1-.1.1l-1.76.11,1.65.23a.11.11,0,0,1,.09.11.11.11,0,0,1-.09.1l-1.35.15,1.59.19a.11.11,0,0,1,.09.1.11.11,0,0,1-.09.11l-1.58.21,1.77.31a.11.11,0,0,1,.09.11.11.11,0,0,1-.09.1l-1.27.24,1.14.16a.11.11,0,0,1,.09.1.1.1,0,0,1-.08.11l-.87.18,1.16.1a.11.11,0,0,1,.1.1.12.12,0,0,1-.09.11l-1.23.22,1.11.24a.13.13,0,0,1,.09.11.11.11,0,0,1-.09.1l-.76.16.88.12a.11.11,0,0,1,.09.1.12.12,0,0,1-.08.11l-1,.24,1.11.29a.1.1,0,0,1,0,.2l-.65.16.76.06a.11.11,0,0,1,.09.1.11.11,0,0,1-.07.11l-.84.21.7.07s.08,0,.09.09a.09.09,0,0,1-.07.11l-.93.33,1.15.08a.09.09,0,0,1,.09.09.09.09,0,0,1-.07.11l-.93.31.84,0a.09.09,0,0,1,.1.09.09.09,0,0,1-.08.11l-1,.25.89,0a.1.1,0,0,1,.1.09.09.09,0,0,1-.08.11l-.85.17.71.06a.11.11,0,0,1,.1.09.11.11,0,0,1-.08.11l-.88.25,1,0a.12.12,0,0,1,.1.09.11.11,0,0,1-.07.12l-.65.21.67,0c.06,0,.1,0,.11.09a.09.09,0,0,1-.07.11L58,91l.65,0a.11.11,0,0,1,.1.09.11.11,0,0,1-.08.11L58,91.4l.65.06a.1.1,0,0,1,0,.2l-1.19.21,1.42.07a.12.12,0,0,1,.1.1.11.11,0,0,1-.08.11l-.73.14.59,0a.11.11,0,0,1,.1.09.11.11,0,0,1-.08.11l-.82.26.85,0a.1.1,0,0,1,.11.09.11.11,0,0,1-.08.11l-.95.2,1,0h0a.12.12,0,0,1,.11.11s0,.06-.11.08v0a11.32,11.32,0,0,0-1.23.4l1.59-.06a.13.13,0,0,1,.11.1.11.11,0,0,1-.09.11l-1.51.29L60,94a.1.1,0,0,1,.11.1.1.1,0,0,1-.09.11l-1.28.17,2.93,0h0a.1.1,0,0,1,.1.09.09.09,0,0,1-.09.11l-1.76.29,2.17-.19a.12.12,0,0,1,.11.09.11.11,0,0,1-.08.12l-2.53.52L62,95.13a.11.11,0,0,1,.12.09.1.1,0,0,1-.08.11l-2.72.61,2.81-.2a.12.12,0,0,1,.11.09.1.1,0,0,1-.09.12c-.92.16-2.24.41-3.06.58,1.09,0,3.11-.11,4.57-.18a.13.13,0,0,1,.11.09.12.12,0,0,1-.09.12L60.6,97l2.89-.17h0a.1.1,0,0,1,0,.2l-2.43.51,1.86,0h0a.1.1,0,0,1,.1.09.11.11,0,0,1-.08.12l-2.74.67Z" fill="#878787"/><path d="M80.33,76.83a.09.09,0,0,1-.09-.06.11.11,0,0,1,0-.12l.64-.59-.46-.49a.14.14,0,0,1,0-.11.13.13,0,0,1,.09-.07l.35,0-.38-.56a.11.11,0,0,1,0-.08.1.1,0,0,1,0-.07l.29-.18-.51-.71a.16.16,0,0,1,0-.1.11.11,0,0,1,.07-.06l.48-.15-.39-.54a.1.1,0,0,1,0-.09.18.18,0,0,1,0-.07l.44-.21-.46-.42s0-.06,0-.09a.08.08,0,0,1,0-.08l.44-.22-.6-.61a.08.08,0,0,1,0-.09.1.1,0,0,1,0-.08l.53-.26-.31-.28a.1.1,0,0,1,0-.12l.23-.46-.54-.15a.1.1,0,0,1-.07-.12l.12-.57-.66-.16a.11.11,0,0,1-.08-.07.12.12,0,0,1,0-.1l.19-.25-1,0s-.08,0-.1-.07l-.1-.27-.23.51a.09.09,0,0,1-.1.07s-.09,0-.09-.09l-.07-.44-.11.36a.1.1,0,0,1-.09.07.09.09,0,0,1-.1,0l-.23-.4,0,.36a.11.11,0,0,1-.08.09.1.1,0,0,1-.11,0L77,68l-.09.42a.11.11,0,0,1-.08.08.13.13,0,0,1-.11,0l-.2-.34-.08.4a.11.11,0,0,1-.09.08.1.1,0,0,1-.11,0l-.33-.62a.11.11,0,0,1,.05-.14.1.1,0,0,1,.14,0l.19.37.09-.39a.1.1,0,0,1,.19,0l.19.34.09-.4a.11.11,0,0,1,.08-.08.09.09,0,0,1,.11.05l.32.51.06-.38a.11.11,0,0,1,.08-.09s.09,0,.11,0l.26.45.17-.57a.1.1,0,0,1,.1-.07.11.11,0,0,1,.1.09l.09.55.18-.44a.12.12,0,0,1,.1-.06.11.11,0,0,1,.1.07l.16.45,1.11,0s.08,0,.1.06a.14.14,0,0,1,0,.11l-.24.3.61.15a.11.11,0,0,1,.07.13l-.12.56.57.17a.13.13,0,0,1,.07.06.08.08,0,0,1,0,.08l-.24.5.36.33a.1.1,0,0,1,0,.09.16.16,0,0,1-.06.08l-.53.26.6.61a.09.09,0,0,1,0,.09.09.09,0,0,1,0,.08l-.44.22.46.42a.08.08,0,0,1,0,.09.1.1,0,0,1,0,.08l-.46.23.4.56a.1.1,0,0,1,0,.09.11.11,0,0,1-.06.07l-.48.15.48.68a.1.1,0,0,1,0,.09s0,0,0,.06l-.28.18.41.62a.14.14,0,0,1,0,.11.15.15,0,0,1-.09.06l-.31,0,.38.42a.09.09,0,0,1,0,.14l-.26.25h.94l-.14-.09a.1.1,0,0,1,.06-.19h1.05L82.35,76a.12.12,0,0,1-.09-.11.11.11,0,0,1,.1-.1l.55,0-.5-.05a.09.09,0,0,1-.1-.1.1.1,0,0,1,.09-.1l.45-.05-.5-.08a.1.1,0,0,1,0-.2l.32,0-.33-.05a.11.11,0,0,1-.09-.1.11.11,0,0,1,.09-.11l.45-.07-.54,0a.11.11,0,0,1-.09-.1.11.11,0,0,1,.08-.11l.82-.18-.82-.18a.11.11,0,0,1-.08-.11.11.11,0,0,1,.09-.1l.77-.08-.88-.23a.11.11,0,0,1-.07-.12.09.09,0,0,1,.09-.09l.38,0-.34,0a.1.1,0,0,1-.09-.1.11.11,0,0,1,.1-.1l.72-.06L82.15,73a.1.1,0,0,1-.07-.11.11.11,0,0,1,.09-.1l.7,0-.62-.13a.1.1,0,0,1-.08-.1.12.12,0,0,1,.09-.11l.74-.12-.69-.1a.09.09,0,0,1-.09-.1.1.1,0,0,1,.08-.1l.8-.16-.84-.11a.11.11,0,0,1-.09-.11.11.11,0,0,1,.1-.1l.53,0-.59-.08a.11.11,0,0,1-.09-.11.11.11,0,0,1,.1-.1l.64-.06-.7-.11a.1.1,0,0,1-.08-.1.09.09,0,0,1,.08-.1l.88-.18-.78-.14a.11.11,0,0,1,0-.21l.55,0L82,70a.1.1,0,0,1-.08-.11.09.09,0,0,1,.09-.09l.81,0-.87-.17a.11.11,0,0,1-.08-.11.11.11,0,0,1,.09-.1l.72-.1-.77-.12a.11.11,0,0,1-.09-.1.11.11,0,0,1,.08-.1l.69-.15-.86-.08a.09.09,0,0,1-.1-.1.11.11,0,0,1,.09-.1l.88-.14-1.21-.18a.1.1,0,0,1-.09-.09.11.11,0,0,1,.08-.11l.55-.15-.81,0a.09.09,0,0,1-.1-.09.09.09,0,0,1,.08-.11l.34,0-1.08-.08a.09.09,0,0,1-.1-.1.09.09,0,0,1,.09-.1l.8-.13-1.55,0a.1.1,0,0,1-.1-.1.1.1,0,0,1,.09-.1l.57-.06-1.36,0a.09.09,0,0,1-.1-.1.1.1,0,0,1,.09-.11l.94-.1-2.21,0a.1.1,0,0,1-.1-.1.11.11,0,0,1,0-.08l-1,0h0a.11.11,0,0,1-.1-.1.08.08,0,0,1,.06-.1h-.58a.11.11,0,0,1-.1-.11.1.1,0,0,1,.1-.1l4.88-.1h0a.11.11,0,0,1,.11.1.43.43,0,0,1,0,0c1.25,0,1.24,0,1.25.11s-.09.12-.24.14-.49,0-.79.07h.54a.1.1,0,0,1,.1.1.1.1,0,0,1-.09.1l-1,.1,1.46,0h.12c.16,0,.16,0,.16.09s0,.11-.13.11-.56,0-1,.08l1.17,0h.09c.12,0,.12,0,.12.1s-.07.1-.12.1-.63.07-1.14.14l1.1.08a.09.09,0,0,1,.09.1.09.09,0,0,1-.09.1l-.12,0h.35a.12.12,0,0,1,.1.1.1.1,0,0,1-.08.11l-.75.2,1.4.21a.1.1,0,0,1,.09.1.1.1,0,0,1-.09.11l-.71.1.71.07a.1.1,0,0,1,.09.1.09.09,0,0,1-.08.1l-.82.17.91.15a.11.11,0,0,1,.09.11.11.11,0,0,1-.09.1l-.8.1,1,.21a.11.11,0,0,1,0,.21l-.84,0,.8.17a.11.11,0,0,1,.09.11.13.13,0,0,1-.1.1l-.45,0,.51.09a.1.1,0,0,1,.08.1.08.08,0,0,1-.08.1l-.85.17.94.15a.11.11,0,0,1,.09.11.11.11,0,0,1-.09.1l-.6,0c.72.11.72.13.71.23s-.07.1-.12.1a3.3,3.3,0,0,0-.39,0l.45.05a.11.11,0,0,1,.09.1.12.12,0,0,1-.09.11L83,72l.76.11a.1.1,0,0,1,.09.1.11.11,0,0,1-.09.1l-.87.15.83.17a.1.1,0,0,1,.08.11.11.11,0,0,1-.1.1l-.85,0,.78.21a.13.13,0,0,1,.08.12.11.11,0,0,1-.1.09l-.38,0,.34,0a.1.1,0,0,1,.09.1.09.09,0,0,1-.1.1l-.7,0,.82.22a.1.1,0,0,1,.07.11.11.11,0,0,1-.09.1l-.69.07.66.15a.1.1,0,0,1,0,.2l-.64.14.68.08h0c.12,0,.11.05.11.1a.11.11,0,0,1-.11.1L83,75l.54.08a.12.12,0,0,1,.09.11.13.13,0,0,1-.1.1l-.27,0,.37.06a.09.09,0,0,1,.09.1.1.1,0,0,1-.09.1l-.28,0c.49.06.49.1.49.17a.11.11,0,0,1-.11.12l-.54.06a3.61,3.61,0,0,1,.48.11.14.14,0,0,1,.08.13.15.15,0,0,1-.13.08H82.34l1.36.08a.1.1,0,0,1,.1.11.11.11,0,0,1,0,.07H84a.1.1,0,0,1,.09.11.1.1,0,0,1-.1.1l-3.65,0Z" fill="#878787"/><path d="M48.35,76.91l-.06,0a.62.62,0,0,1-.23-.48l-.44.13a.1.1,0,0,1-.1-.17l.6-.65-.72.06a.14.14,0,0,1-.11-.07.11.11,0,0,1,0-.12l.56-.41h-.16a.11.11,0,0,1-.09-.07.09.09,0,0,1,0-.11l.48-.45-.14,0a.1.1,0,0,1-.11-.06.11.11,0,0,1,0-.13l.15-.11-.5.08a.1.1,0,0,1-.12-.06.11.11,0,0,1,0-.13l1-.63-.67.12a.09.09,0,0,1-.11-.06.11.11,0,0,1,0-.13l.66-.5-.86.2a.13.13,0,0,1-.12-.06.14.14,0,0,1,0-.11s0,0-.05,0a.09.09,0,0,1,0-.13l.57-.65-.14,0a3.42,3.42,0,0,0-.45.1.1.1,0,0,1-.13,0,.11.11,0,0,1,0-.14l.22-.12a.11.11,0,0,1,0-.11l.58-.53-.58.16a.1.1,0,0,1-.12,0,.1.1,0,0,0-.06-.18.1.1,0,0,1,0-.14l.35-.18-.3.08a.09.09,0,0,1-.11,0,.11.11,0,0,1,0-.13l.56-.66-.3.1a.1.1,0,0,1-.13,0,.11.11,0,0,1,0-.13l.38-.3a.14.14,0,0,1-.11,0,.11.11,0,0,1,0-.14l.46-.31-.56.18a.12.12,0,0,1-.12,0,.11.11,0,0,1,0-.13l.88-.75L47.44,69a.11.11,0,0,1-.12,0,.1.1,0,0,1,0-.13l.63-.47-.5.18a.11.11,0,0,1-.13,0,.11.11,0,0,1,0-.13l.5-.3-.28.1a.11.11,0,0,1-.13-.06.09.09,0,0,1,0-.13l1-.56-1,.28a.1.1,0,0,1-.12,0,.11.11,0,0,1,0-.13l.9-.7-.76.26a.1.1,0,0,1-.13,0,.1.1,0,0,1,0-.13l.67-.45-.48.13a.1.1,0,0,1-.12,0,.1.1,0,0,1,0-.13l.88-.65-1,.22a.11.11,0,0,1-.07-.2l.6-.28-.46.12a.12.12,0,0,1-.12-.07.1.1,0,0,1,0-.13l1-.53-.86.14a.11.11,0,0,1-.12-.06.12.12,0,0,1,0-.13l.54-.36-.44.09a.11.11,0,0,1-.12-.06.11.11,0,0,1,0-.13l.17-.12a2.24,2.24,0,0,0-.38.06.11.11,0,0,1-.07-.2l.78-.39.18-.1-.54.08a.09.09,0,0,1-.11-.08.09.09,0,0,1,.06-.12l.06,0h0a.1.1,0,0,1-.11-.07.11.11,0,0,1,.06-.13l.21-.09-.07,0a.69.69,0,0,0-.43,0,.09.09,0,0,1-.11-.07.1.1,0,0,1,.06-.12l.81-.36.13-.06-.28,0a.1.1,0,0,1-.11-.09.11.11,0,0,1,.08-.12l.52-.1-.72,0h0a.11.11,0,0,1,0-.21l.68-.19-.75.06a.12.12,0,0,1-.12-.08.11.11,0,0,1,.07-.12c.28-.09.49-.17.69-.25l.18-.07h0a2.21,2.21,0,0,0-.58,0c-.05,0-.1,0-.11-.09a.1.1,0,0,1,.09-.12l1.44-.18c-.35,0-.73,0-1.27,0-.05,0-.09,0-.1-.09a.11.11,0,0,1,.07-.12c.48-.12.75-.22,1-.31l.27-.09h0c-.19,0-.38,0-.81,0a.13.13,0,0,1-.11-.09.1.1,0,0,1,.09-.12l2.4-.47,1-.21-2.31.11a.1.1,0,0,1-.11-.1.1.1,0,0,1,.09-.11l1.38-.21-1.28.05a.1.1,0,0,1-.11-.09.11.11,0,0,1,.08-.11l3.39-.69-2,0h0a.1.1,0,0,1-.11-.1.11.11,0,0,1,.11-.11L54,58.08h0a.1.1,0,0,1,.1.09.1.1,0,0,1-.08.12l-3.2.65,1.88-.08a.1.1,0,0,1,.1.09.09.09,0,0,1-.08.11l-1.36.21,1.8-.08a.1.1,0,0,1,.11.09.11.11,0,0,1-.09.12l-2.4.47-1.25.25a4.12,4.12,0,0,0,.46,0,.13.13,0,0,1,.11.09.11.11,0,0,1-.07.12c-.48.13-.75.22-1,.31l-.3.1.66,0c.39,0,.79,0,1.4,0a.09.09,0,0,1,.1.09.1.1,0,0,1-.09.12c-.62.08-1.06.14-1.48.18l-.27,0a.11.11,0,0,1,.07.08.11.11,0,0,1-.07.12l-.63.22,1-.09a.11.11,0,0,1,.11.09.09.09,0,0,1-.07.11l-.85.25,1.24-.06h0a.1.1,0,0,1,.11.09.11.11,0,0,1-.08.11l-.82.17a.11.11,0,0,1-.06.07l-.81.36-.41.18.07,0a.61.61,0,0,0,.42,0,.1.1,0,0,1,.11.08.1.1,0,0,1,0,.09l.38-.06a.11.11,0,0,1,.12.08.1.1,0,0,1-.07.12l-.07,0,.12,0a.11.11,0,0,1,.12.07.13.13,0,0,1-.05.13l-.76.38L47.9,64l.18,0a.1.1,0,0,1,.12.06.09.09,0,0,1,0,.12l-.13.1.47-.1a.1.1,0,0,1,.11.06.11.11,0,0,1,0,.13l-.58.39,1-.17a.11.11,0,0,1,.12.07.13.13,0,0,1,0,.13l-.83.43.66-.16a.1.1,0,0,1,.13.06.11.11,0,0,1-.06.13l-.72.34.58-.12a.1.1,0,0,1,.08.18l-.82.6.56-.16a.1.1,0,0,1,.12.06.1.1,0,0,1,0,.13l-.54.36.59-.21a.11.11,0,0,1,.13.05.11.11,0,0,1,0,.13l-1,.77,1.33-.36a.09.09,0,0,1,.12.06.1.1,0,0,1,0,.13l-.68.38.13,0a.11.11,0,0,1,.13,0,.12.12,0,0,1,0,.14l-.39.23.11,0a.11.11,0,0,1,.13,0,.11.11,0,0,1,0,.14l-.72.54,1-.33a.11.11,0,0,1,.12.05.09.09,0,0,1,0,.13l-.89.75.74-.24a.1.1,0,0,1,.12,0,.11.11,0,0,1,0,.14l-.17.11h0a.11.11,0,0,1,0,.14l-.72.58.11,0a.1.1,0,0,1,.12,0,.11.11,0,0,1,0,.13l-.59.69.93-.27a.1.1,0,0,1,.13.06.1.1,0,0,1,0,.13l-.06,0a.11.11,0,0,1,0,.11l-.48.31.32-.1a.11.11,0,0,1,.12,0,.09.09,0,0,1,0,.13l-.48.44.19-.07a.11.11,0,0,1,.14,0,.1.1,0,0,1-.05.13l-.32.18.17,0a.1.1,0,0,1,.12,0,.09.09,0,0,1,0,.12l-.38.44.3-.18a.11.11,0,0,1,.14,0,.11.11,0,0,1,0,.14l-.45.35.9-.19a.09.09,0,0,1,.11,0,.11.11,0,0,1,0,.13l-.7.53.78-.14a.11.11,0,0,1,.12.07.1.1,0,0,1,0,.12l-1,.64.42-.07a.1.1,0,0,1,.11.06.11.11,0,0,1,0,.13l-.12.08h0a.11.11,0,0,1,.12,0,.13.13,0,0,1,0,.13L48,75h.21a.11.11,0,0,1,.1.07.13.13,0,0,1,0,.12l-.51.37.62-.06s.08,0,.1.06a.11.11,0,0,1,0,.12l-.52.57.23-.07a.11.11,0,0,1,.11,0,.08.08,0,0,1,0,.1.41.41,0,0,0,.13.44.1.1,0,0,1,0,.14A.09.09,0,0,1,48.35,76.91Z" fill="#878787"/><path d="M47.73,78.89v-.73c0-3.76,0-7.64,0-11.58,0-1,0-2,0-3a5.51,5.51,0,0,1,.62-2.75A5.33,5.33,0,0,1,53,58.07l12,0,2.94,0a18.4,18.4,0,0,1,2.83.12,5.17,5.17,0,0,1,3.79,3.37,7.05,7.05,0,0,1,.27,2.62c0,.92,0,1.83,0,2.74,0,1.8,0,3.57,0,5.29q0,3.48-.06,6.68c.37-.13.76-.25,1.15-.37q0-3,0-6.31c0-1.72,0-3.49,0-5.29,0-.91,0-1.82,0-2.74a7.74,7.74,0,0,0-.36-2.9,6,6,0,0,0-4.45-3.84,18.83,18.83,0,0,0-3-.09l-2.94,0-12,0a5.84,5.84,0,0,0-5.13,3.11,6.11,6.11,0,0,0-.68,3c0,1,0,2,0,3,0,3.94,0,7.82,0,11.58v.53Z" fill="#878787"/><path d="M70.63,98.09h-.1a3.42,3.42,0,0,1-.55.07l-.32,0-5.51,0-6.32.06-3.89,0h-1l-.52,0-.46-.07a4.67,4.67,0,0,1-.64-.18,22.38,22.38,0,0,1-2.25-.17,6.12,6.12,0,0,0,.5.39,5.92,5.92,0,0,0,2.19.95l.6.1.53,0h1.07l3.89,0,6.32.06,5.51.05.41,0a5.16,5.16,0,0,0,1.18-.19,6.1,6.1,0,0,0,2.69-1.5A20.11,20.11,0,0,1,70.63,98.09Z" fill="#878787"/><path d="M75.54,69.31h1.57c.52,0,1.08,0,1.55,0a1.45,1.45,0,0,1,1,.61,1.89,1.89,0,0,1,.23,1.26l-.05,6.31v.11l1-.2,0-6.22a6.87,6.87,0,0,0,0-.86,2.19,2.19,0,0,0-.37-.89,2.28,2.28,0,0,0-1.65-1c-.57,0-1.06,0-1.6,0H76V65.58h1.89a6.41,6.41,0,0,1,2.17.22,5.17,5.17,0,0,1,3.15,2.73,5.29,5.29,0,0,1,.49,2.08c0,.73,0,1.53,0,2.29l0,4,.81-.15V72.89l0-2.33a6.66,6.66,0,0,0-.15-1.21,5.92,5.92,0,0,0-.41-1.16A6,6,0,0,0,80.24,65a7.37,7.37,0,0,0-2.4-.26H75.53a.4.4,0,0,0-.4.41v3.72A.42.42,0,0,0,75.54,69.31Z" fill="#878787"/><path d="M61.93,59a.1.1,0,0,0-.1.1.11.11,0,0,0,.1.11h5.61l-3.32.15a.1.1,0,0,0-.1.11.11.11,0,0,0,.1.1h0l4.41,0-2.76.15a.12.12,0,0,0-.1.11.11.11,0,0,0,.11.1L70,60l-2.84.16a.11.11,0,0,0-.1.11.1.1,0,0,0,.1.1l2.23,0-1.67.07a.1.1,0,0,0,0,.2l3,.1-2.39.1a.1.1,0,0,0-.1.1.1.1,0,0,0,.1.11l2.66.11-2.62.09a.11.11,0,0,0-.1.1.11.11,0,0,0,.1.11l3.47.2-3.35.14a.09.09,0,0,0-.1.1.09.09,0,0,0,.09.1l3.28.18-3.21.14a.11.11,0,0,0-.1.1.11.11,0,0,0,.1.11l3.57.18L68.62,63a.1.1,0,0,0-.1.1.09.09,0,0,0,.1.1l3.4.16-3.57.21a.1.1,0,0,0,0,.2l2.53.07-2.6.12a.11.11,0,1,0,0,.21l3.21.12-3.42.2a.1.1,0,0,0-.09.1.1.1,0,0,0,.1.11l3.46,0L68.31,65a.12.12,0,0,0-.09.11.09.09,0,0,0,.1.1l3,.08-2.83.18a.1.1,0,0,0,0,.2l3.15.12-3.28.2a.1.1,0,0,0-.1.11.1.1,0,0,0,.1.1l3.45.21-3.52.17a.12.12,0,0,0-.1.11.1.1,0,0,0,.1.1l2.92.07L68.25,67a.1.1,0,0,0,0,.2l3.59.13-3.59.26a.1.1,0,0,0-.1.11.11.11,0,0,0,.11.1l3.29,0-3.43.27a.12.12,0,0,0-.1.11.1.1,0,0,0,.1.1l3,.11-3.54.15a.1.1,0,0,0-.1.1.1.1,0,0,0,.11.1l3.46.11-3.47.15a.1.1,0,0,0-.1.1.11.11,0,0,0,.1.1l3.69.24-3.93.07a.11.11,0,0,0-.1.1.1.1,0,0,0,.1.11l3.71.12L67.59,70a.12.12,0,0,0-.1.11.11.11,0,0,0,.1.1l3.43.14-3.49.12a.09.09,0,0,0-.1.1.1.1,0,0,0,.1.1l4,.17-3.79.22a.1.1,0,0,0-.1.1.12.12,0,0,0,.1.11l3.31.11-.63,0c-2,.1-2.75.13-3.07.17h-.1v0c-.12,0-.11.05-.11.09s.1.1.14.1l3.49.07-3.62.19a.1.1,0,0,0,0,.2l3.72.11-3.46.15a.1.1,0,0,0,0,.2l3.37.11L67.66,73a.1.1,0,0,0-.1.1.12.12,0,0,0,.1.11l3.13,0-3.53.22a.09.09,0,0,0-.09.1.11.11,0,0,0,.1.11l3.42.11-3.16.14a.1.1,0,0,0-.1.1.1.1,0,0,0,.1.11l3.21.1-3.34.15a.1.1,0,0,0-.1.11.1.1,0,0,0,.1.1l3.3.07-3.22.16a.11.11,0,0,0-.1.11.1.1,0,0,0,.1.1h2.64l-2.67.15a.11.11,0,0,0-.1.11.1.1,0,0,0,.1.1h3l-2.93.19a.11.11,0,0,0-.1.11.1.1,0,0,0,.1.1l3.33,0-3.36.23a.11.11,0,0,0-.1.11.1.1,0,0,0,.1.1h3.69l-3.66.32a.1.1,0,0,0,0,.2l3.68,0-3.65.3a.1.1,0,0,0-.1.11.11.11,0,0,0,.1.1l3.91.09-3.94.28a.11.11,0,0,0-.1.11.1.1,0,0,0,.1.1l3.58.07-3.77.28a.1.1,0,0,0,0,.2l2.91.21-3.58.23a.11.11,0,0,0-.1.11.11.11,0,0,0,.1.1l2.72.06-3.29.37a.1.1,0,0,0-.1.1.11.11,0,0,0,.1.1l2.28.16L65.88,80a.11.11,0,0,0-.09.11.1.1,0,0,0,.1.1l2.35.12-2.49.2a.1.1,0,0,0-.09.1.1.1,0,0,0,.09.11l2.16.21-2.29.17a.11.11,0,0,0-.1.11.11.11,0,0,0,.1.1l1.89.09-2,.19a.11.11,0,0,0,0,.21l2,.11-2.15.26a.12.12,0,0,0-.09.11.1.1,0,0,0,.1.1l1.35.09-1.42.1a.11.11,0,0,0-.09.1.09.09,0,0,0,.09.11l1.85.25L65,83.27a.1.1,0,0,0-.1.1.12.12,0,0,0,.09.11c.57.08,1.29.19,1.86.29l-2.31.09a.1.1,0,0,0-.1.1.11.11,0,0,0,.09.11l2.09.22-2.28.23a.11.11,0,0,0-.1.11.12.12,0,0,0,.1.1l2.35.17-2.16.21a.12.12,0,0,0-.09.11.09.09,0,0,0,.1.1l2.15.09-2.56.36a.11.11,0,0,0,0,.21l2.32.17c-1.47.12-2.1.17-2.36.22H64v0c-.11,0-.11.06-.11.09a.11.11,0,0,0,.12.1l2.31.12-2.58.2a.11.11,0,0,0-.1.11.1.1,0,0,0,.1.1l2.15.14-2.22.11a.11.11,0,0,0-.1.1.1.1,0,0,0,.1.11l1.88.16-1.81,0a.1.1,0,0,0-.1.1.12.12,0,0,0,.1.11l1.86.15-1.92,0a.12.12,0,0,0-.11.1.1.1,0,0,0,.1.11l2.24.18-2,.07a.11.11,0,0,0-.1.11.1.1,0,0,0,.09.1l1.77.12-2,.07a.1.1,0,0,0-.1.1.11.11,0,0,0,.1.11l2.39.17-2.65.08a.11.11,0,0,0-.1.1.11.11,0,0,0,.1.11l2.47.14-3,.11a.11.11,0,0,0-.1.1.11.11,0,0,0,.1.11l3.11.24-3.1.08a.1.1,0,0,0-.11.1.1.1,0,0,0,.1.1l3.16.18L62.92,91a.11.11,0,0,0,0,.21l2.76.07L63,91.5a.1.1,0,0,0-.1.11.1.1,0,0,0,.1.1l2.13.06-2.26.13a.1.1,0,0,0,0,.2l1.72.08-1.72,0a.11.11,0,0,0-.1.11.1.1,0,0,0,.1.1l2.3.13-2,.06a.1.1,0,0,0-.1.1.11.11,0,0,0,.09.11l2.09.12L63.19,93a.09.09,0,0,0-.1.1.1.1,0,0,0,.1.1l2.46.11H63.19a.11.11,0,0,0-.1.1.1.1,0,0,0,.09.11l2.49.22-2.55,0a.1.1,0,0,0,0,.2l1.9.16-2.55,0h0a.11.11,0,0,0-.11.1.1.1,0,0,0,.1.11l3.83.23a4.12,4.12,0,0,0,0-.51L65.51,94l-.19,0h1v-.35l-.83-.08h.83v-.38l-.32,0h.32v-.32l-.8,0,.8,0v-.31l-1-.06,1,0V92L65,92l1.32-.08V91.6l-1.14,0,1.14-.07v-.36l-1.17,0L66.32,91v-.39l-.78,0,.78,0v-.39l-1.58-.12L66.33,90v-.38l-.41,0h.41c0-.14,0-.27,0-.4l-.68,0,.68,0,0-.35-.39,0h.39l0-.37-.57,0h.58l0-.34-.59,0h.6c0-.11,0-.22,0-.33l-1.21-.1,1.24-.06.06-.34L65.22,87l1.41-.12c0-.12.05-.25.08-.37l-1.17-.07,1.21-.1c0-.12.07-.24.11-.37l-1.7-.12L67,85.58c0-.12.09-.24.14-.37l-1,0,1.08-.1c0-.11.09-.22.14-.33l-1.73-.13,1.88-.19.12-.24L66,84l1.74-.07a2.39,2.39,0,0,1,.13-.21c-.2-.06-.7-.14-1.94-.33l2.16-.19a.09.09,0,0,0,.1-.1.1.1,0,0,0-.09-.1l-1.81-.24,1.93-.15a.1.1,0,0,0,.1-.1.11.11,0,0,0-.1-.11l-1.75-.11L68.67,82a.11.11,0,0,0,.09-.11.1.1,0,0,0-.1-.1l-1.76-.09,2.08-.2a.1.1,0,0,0,.09-.1.09.09,0,0,0-.1-.1l-1.66-.09,1.81-.13a.11.11,0,0,0,.1-.11.1.1,0,0,0-.09-.1l-2.2-.22,2.92-.23a.11.11,0,0,0,0-.21l-2.15-.11L69.91,80a.11.11,0,0,0,.1-.11.1.1,0,0,0-.1-.1l-2.66-.18,3.7-.41a.1.1,0,0,0,.09-.11.09.09,0,0,0-.1-.1l-1.93,0,2.77-.19a.09.09,0,0,0,.09-.1.1.1,0,0,0-.09-.1l-3-.21L73.35,78a.12.12,0,0,0,.1-.11.1.1,0,0,0-.1-.1l-3.55-.07c1.86-.14,3.79-.27,3.89-.27a.11.11,0,0,0,.11-.1s0-.08-.11-.09v0H73.6c-.14,0-.4,0-.86,0l-3.22-.08,4.09-.33a.12.12,0,0,0,.1-.11.11.11,0,0,0-.11-.1l-3.79,0,3.8-.33a.1.1,0,0,0,.1-.11.12.12,0,0,0-.11-.1H70.45l3.16-.22a.1.1,0,0,0,.1-.11.12.12,0,0,0-.11-.1H70.48l3.16-.21a.1.1,0,0,0,.1-.11.11.11,0,0,0-.11-.1H71.22l2.36-.13a.11.11,0,0,0,.1-.1.12.12,0,0,0-.11-.11H71.2l2.39-.12a.1.1,0,0,0,.1-.11.1.1,0,0,0-.1-.1l-3-.06,2.84-.13a.09.09,0,0,0,.1-.1.1.1,0,0,0-.1-.1L70.2,74l3.19-.15a.1.1,0,0,0,0-.2l-3.91-.13,4.18-.26a.1.1,0,0,0,.1-.11.11.11,0,0,0-.11-.1l-2.26,0,2.14-.1a.11.11,0,0,0,.1-.1.12.12,0,0,0-.11-.11l-3.23-.1,3.56-.15a.1.1,0,0,0,.1-.1.1.1,0,0,0-.1-.11l-4.06-.12,3.87-.2a.11.11,0,0,0,.1-.1.1.1,0,0,0-.1-.1l-3.57-.08,3.57-.18a.11.11,0,0,0,.1-.1.1.1,0,0,0-.1-.1l-3.57-.12,3.63-.2a.11.11,0,0,0,.11-.11s0-.07-.11-.09h-.08l-.88-.05-2.13-.09h-.27l3.49-.1A.11.11,0,0,0,74,70.4c0-.05,0-.07-.11-.09h-.09c-.15,0-.41,0-.88,0l-2.15-.09-.63,0L73.85,70a.1.1,0,0,0,.1-.11.1.1,0,0,0-.1-.1l-2.38-.08,2.38,0a.11.11,0,0,0,0-.21l-4.27-.27L73.92,69a.1.1,0,0,0,.1-.1.11.11,0,0,0-.1-.11l-3.48-.11,3.41-.14a.1.1,0,0,0,.1-.1.1.1,0,0,0-.1-.11l-3.92-.13,3.86-.32a.1.1,0,0,0,.1-.11.11.11,0,0,0-.1-.1l-3,0,3-.22a.1.1,0,0,0,.1-.11.12.12,0,0,0-.1-.1l-3.39-.12,3.19-.2a.1.1,0,0,0,.1-.1.09.09,0,0,0-.1-.1l-2.5-.07,2.57-.12a.11.11,0,0,0,.1-.1.11.11,0,0,0-.1-.11L70,66.06l3.71-.23a.1.1,0,0,0,.09-.1.1.1,0,0,0-.1-.11l-3.2-.12,3.14-.2a.1.1,0,1,0,0-.2L70.25,65l3.61-.3A.1.1,0,0,0,74,64.6a.1.1,0,0,0-.1-.1l-2.7,0,2.64-.15a.11.11,0,0,0,.1-.11.11.11,0,0,0-.1-.1L70.85,64l3-.14a.1.1,0,0,0,.09-.11.09.09,0,0,0-.1-.1L71,63.58l3.09-.19a.1.1,0,1,0,0-.2L70.57,63l3.4-.21a.1.1,0,0,0,.09-.11.1.1,0,0,0-.09-.1l-3.22-.17,3.17-.14a.1.1,0,1,0,0-.2l-3.21-.18L74,61.79a.1.1,0,0,0,.1-.1.1.1,0,0,0-.09-.11l-3.29-.19,3.08-.1a.1.1,0,0,0,.1-.11.1.1,0,0,0-.09-.1L70.87,61l2.77-.11a.1.1,0,0,0,.1-.1s0-.08-.1-.09v0h-.09l-.83,0-2-.07,2.67-.1a.09.09,0,0,0,.1-.1.1.1,0,0,0-.1-.1L70,60.19,73.11,60a.11.11,0,0,0,.1-.11.11.11,0,0,0-.1-.1l-3.92,0,3.58-.19a.11.11,0,0,0,.1-.11.12.12,0,0,0-.11-.1h0l-3.72,0,3.16-.15a.1.1,0,0,0,.1-.11.09.09,0,0,0-.1-.1H65.8l5.44-.3a.11.11,0,1,0,0-.21h0l-6.59.12L71,58.19a.1.1,0,0,0,.09-.11A.11.11,0,0,0,71,58h0l-10.4.73a.1.1,0,0,0-.1.11.11.11,0,0,0,.11.1h0l5.11-.09Z" fill="#878787"/><path d="M64.75,97.72l-1.44-.15L65,97.48a3.33,3.33,0,0,0,.25-.28l-1.48-.07,1.6-.1.2-.27-1.69,0,1.77-.13c.06-.1.12-.2.17-.3l-2.31,0,2.4-.17c0-.12.11-.23.15-.35l-1.31,0,1.33-.06c0-.11.07-.23.1-.34l-.68,0h.69l.06-.31-1.71-.1,1.74-.05,0-.21c-1.76.06-4.25.12-4.29.12a.1.1,0,1,0,0,.2l2.72.16-3,0a.1.1,0,0,0-.1.1.1.1,0,0,0,.1.11l3.49.16-3.76.16a.11.11,0,0,0-.1.1.12.12,0,0,0,.11.11l3.74.08-4.21.3a.11.11,0,0,0-.1.11.12.12,0,0,0,.11.1l3.35,0-2.9.21a.12.12,0,0,0-.1.11.11.11,0,0,0,.11.1l2,0L61.8,97a.11.11,0,0,0-.1.11.11.11,0,0,0,.1.1l2,.1L62,97.43a.1.1,0,0,0-.1.1.1.1,0,0,0,.09.1l1.73.19-1.32.07a.1.1,0,0,0-.1.11.11.11,0,0,0,.1.1h0L64.46,98A2.44,2.44,0,0,0,64.75,97.72Z" fill="#878787"/><path d="M81,100.83a32,32,0,0,1-17.52,1.37,22,22,0,0,0,25.93,6.54.59.59,0,0,0,.33-.39.57.57,0,0,0-.09-.51A21.72,21.72,0,0,0,81,100.83Z" fill="#878787"/><path d="M53,102.84a32,32,0,0,1-11.13-2,21.75,21.75,0,0,0-8.66,7,.61.61,0,0,0-.09.51.6.6,0,0,0,.34.39,22,22,0,0,0,25.92-6.54A32.11,32.11,0,0,1,53,102.84Z" fill="#878787"/><path d="M61.8,102.41a2.55,2.55,0,0,1-.43-1,3.63,3.63,0,0,1-.35,1,23.34,23.34,0,0,1-7.19,6.43,3.54,3.54,0,0,0,.49.61L61,116.11a.18.18,0,0,0,.29,0L68,109.44a3.77,3.77,0,0,0,.64-.86s-2-1.34-2.16-1.47a22.89,22.89,0,0,1-2-1.71,22,22,0,0,1-1.8-1.94C62.37,103.11,62.05,102.78,61.8,102.41Z" fill="#878787"/><path d="M61.18,99.71H51.93c-7.75,0-12.5-3.38-14.14-10A33.35,33.35,0,0,1,37.25,86c-.16-1.33-.31-2.7-.55-3.77A14.06,14.06,0,0,0,33,75.68a.79.79,0,0,1-.18-1,.82.82,0,0,1,.85-.45c3.53.54,10,1.86,10,1.88,10.17,2.09,14.13,6,14.13,14.13V94c0,2.36,2,3.42,3.43,4,.3.12.91.37.78,1.05A1,1,0,0,1,61.18,99.71ZM35.67,76.26a14.89,14.89,0,0,1,2.62,5.64c.25,1.14.41,2.56.57,3.92a33.39,33.39,0,0,0,.51,3.46c1.45,5.93,5.56,8.81,12.56,8.81h6.31a5.08,5.08,0,0,1-2-4.1v-3.7c0-6.11-2.14-10.34-12.83-12.54C43.36,77.74,39.12,76.87,35.67,76.26Z" fill="#878787"/><path d="M70.63,99.71H61.39a.94.94,0,0,1-.9-.67c-.13-.68.48-.93.78-1.05,1.47-.58,3.43-1.64,3.43-4v-3.7c0-8.08,4-12,14.13-14.13.06,0,6.5-1.34,10-1.88a.83.83,0,0,1,.85.45.81.81,0,0,1-.18,1,14,14,0,0,0-3.67,6.56c-.23,1.07-.39,2.44-.54,3.77a33.35,33.35,0,0,1-.54,3.65C83.14,96.33,78.38,99.71,70.63,99.71Zm-6.28-1.62h6.28c7,0,11.12-2.88,12.57-8.81.2-.85.35-2.12.51-3.46S84,83,84.27,81.9a14.89,14.89,0,0,1,2.63-5.64c-3.46.61-7.7,1.48-7.75,1.49C68.47,80,66.32,84.18,66.32,90.29V94A5.1,5.1,0,0,1,64.35,98.09Z" fill="#878787"/><path d="M60.61,99.1c-.2-.41-.12-.87-.58-1.14a1.43,1.43,0,0,0-.91-.16c-.38,0-.72.24-1.09.29a5.14,5.14,0,0,1-.68,0H51.93c-7,0-11.11-2.88-12.56-8.81a33.39,33.39,0,0,1-.51-3.46c-.15-1.3-.31-2.62-.54-3.73a30.16,30.16,0,0,0-5.61-.57,31.31,31.31,0,0,0-6.84.76,1.11,1.11,0,0,0-.75,1.56,31,31,0,0,0,34.73,16.83,1.14,1.14,0,0,0,.75-.6A1.1,1.1,0,0,0,60.61,99.1Z" fill="#878787"/><path d="M97.72,82.88a1.08,1.08,0,0,0-.75-.6,30,30,0,0,0-12.74-.15c-.22,1.11-.38,2.41-.52,3.69s-.31,2.61-.51,3.46c-1.45,5.93-5.57,8.81-12.57,8.81H65.4a6.14,6.14,0,0,0-2.14.11c-.8.29-1.44,1-1,1.87a1.14,1.14,0,0,0,.75.6A31.05,31.05,0,0,0,97.73,83.84,1.08,1.08,0,0,0,97.72,82.88Z" fill="#878787"/></g></g></svg>