<svg xmlns="http://www.w3.org/2000/svg" viewBox="0 0 300.35 68.23"><g style="isolation:isolate"><g id="be9ad504-9235-4a9a-b7b7-06160b45e4aa" data-name="Capa 2"><g id="aca1beae-2639-487a-b564-88b41acdca49" data-name="Capa 1"><path d="M155.62,23.53a1.36,1.36,0,0,1-.44,1,1.49,1.49,0,0,1-1,.42h-.42a1.49,1.49,0,0,1-1-.42,1.35,1.35,0,0,1-.43-1v-.24l.52-.08v.32a.87.87,0,0,0,.29.65,1,1,0,0,0,.69.28h.36a1,1,0,0,0,.68-.28.87.87,0,0,0,.29-.65v-.18c0-1.6-2.75-.84-2.75-2.84V20.4A1.43,1.43,0,0,1,153.77,19h.38a1.34,1.34,0,0,1,1,.42,1.39,1.39,0,0,1,.43,1v.15l-.53.08V20.4a.92.92,0,0,0-.93-.93h-.32a.92.92,0,0,0-.67.27,1,1,0,0,0-.26.66v.11c0,1.5,2.75.85,2.75,2.84Zm3.4-3.81v-.67h.59v.67Zm0,5.15V20.72h.49v4.15Zm8.54,0v-3a.72.72,0,0,0-.72-.72h-.25a.73.73,0,0,0-.73.72v3h-.49v-3a.73.73,0,0,0-.73-.72h-.25a.72.72,0,0,0-.72.72v3h-.5V20.72h.17l.27.42a1.17,1.17,0,0,1,1-.51h0a1.18,1.18,0,0,1,1.07.64,1.24,1.24,0,0,1,1.09-.64h0a1.23,1.23,0,0,1,1.22,1.22v3Zm6.81-1.14a1.19,1.19,0,0,1-.36.87,1.16,1.16,0,0,1-.86.36h-.34a1.16,1.16,0,0,1-.86-.36,1.19,1.19,0,0,1-.36-.87V21.85a1.23,1.23,0,0,1,1.22-1.22h.34a1.23,1.23,0,0,1,1.22,1.22Zm-.5-1.9a.72.72,0,0,0-.72-.72h-.34a.72.72,0,0,0-.72.72v1.93a.72.72,0,0,0,.72.72h.34a.72.72,0,0,0,.72-.72Zm6.35,3v-3a.73.73,0,0,0-.73-.72h-.33a.72.72,0,0,0-.72.72v3H178V20.72h.17l.27.42a1.17,1.17,0,0,1,1-.51h.12a1.23,1.23,0,0,1,1.23,1.22v3Zm6.8-1.14A1.21,1.21,0,0,1,185.85,25h-.33a1.16,1.16,0,0,1-.86-.36,1.15,1.15,0,0,1-.36-.87V21.85a1.13,1.13,0,0,1,.36-.86,1.16,1.16,0,0,1,.86-.36h.33a1.19,1.19,0,0,1,.87.36,1.15,1.15,0,0,1,.35.86v1H184.8v.92a.72.72,0,0,0,.72.72h.33a.73.73,0,0,0,.73-.72v-.28l.49.09Zm-.49-1.9a.73.73,0,0,0-.73-.72h-.33a.72.72,0,0,0-.72.72v.61h1.78Zm9.08-2.28v2.16h2.23v.5h-2.23v2.66h-.52V19.05h3.27v.5Zm8.68,4.18A1.21,1.21,0,0,1,203.12,25h-.33a1.16,1.16,0,0,1-.86-.36,1.15,1.15,0,0,1-.36-.87V21.85a1.13,1.13,0,0,1,.36-.86,1.16,1.16,0,0,1,.86-.36h.33A1.19,1.19,0,0,1,204,21a1.15,1.15,0,0,1,.35.86Zm-.49-1.9a.73.73,0,0,0-.73-.72h-.33a.72.72,0,0,0-.72.72v1.93a.72.72,0,0,0,.72.72h.33a.73.73,0,0,0,.73-.72Zm4.57,3.48a1.19,1.19,0,0,1-.36.87,1.16,1.16,0,0,1-.87.35v-.47a.73.73,0,0,0,.73-.72V20.72h.5Zm-.54-5.59v-.67h.58v.67Zm6.93,5.68a1,1,0,0,1-.36.81,1.19,1.19,0,0,1-.86.32h-.21a1.23,1.23,0,0,1-.87-.32,1,1,0,0,1-.35-.81v0a1,1,0,0,1,.33-.8.84.84,0,0,1-.43-.76.86.86,0,0,1,.35-.72,1.18,1.18,0,0,1-.42-.93v-.32a1.23,1.23,0,0,1,1.22-1.22h.21a1.17,1.17,0,0,1,1,.51l.27-.42h.17v1.45a1.16,1.16,0,0,1-.36.86,1.13,1.13,0,0,1-.86.36h-.73a.43.43,0,0,0,0,.85h.69a1.24,1.24,0,0,1,.86.32,1,1,0,0,1,.36.82Zm-.46-3.57a.72.72,0,0,0-.72-.72h-.42a.72.72,0,0,0-.72.72v.37a.72.72,0,0,0,.72.72h.42a.72.72,0,0,0,.72-.72Zm0,3.52a.65.65,0,0,0-.72-.64h-.26a.66.66,0,0,0-.72.64v.07a.66.66,0,0,0,.72.64h.26a.65.65,0,0,0,.72-.64Zm4-5.63v-.67h.58v.67Zm0,5.15V20.72h.5v4.15Zm6.85-1.14a1.19,1.19,0,0,1-.36.87A1.16,1.16,0,0,1,224,25h-.34a1.16,1.16,0,0,1-.86-.36,1.19,1.19,0,0,1-.36-.87V21.85a1.23,1.23,0,0,1,1.22-1.22H224a1.23,1.23,0,0,1,1.22,1.22v1h-2.28v.92a.72.72,0,0,0,.72.72H224a.72.72,0,0,0,.72-.72v-.28l.5.09Zm-.5-1.9a.72.72,0,0,0-.72-.72h-.34a.72.72,0,0,0-.72.72v.61h1.78Zm4.07,3V19.05h.5v5.82Z" fill="#878787"/><path d="M202.05,36.93a1.64,1.64,0,0,1-1-.34,1.56,1.56,0,0,1-1.19-1.69,2.47,2.47,0,0,1,3.67-1.81,1.56,1.56,0,0,1,.76,1.35v.68a1.55,1.55,0,0,1-1,1.43l-.65.26A1.66,1.66,0,0,1,202.05,36.93Z" fill="#878787"/><path d="M140.32,43.26l0-.08v-.09l0-.05,0-.09a2.21,2.21,0,0,0-.16-.35,2.61,2.61,0,0,0-.43-.53,3.44,3.44,0,0,0-.89-.58,6.34,6.34,0,0,0-1.58-.47,18.84,18.84,0,0,0-2.76-.28c-.87,0-1.61-.05-2.33-.09s-1.36-.07-2-.14l-1-.11.17-2.2a.49.49,0,0,0,0-.12,1.78,1.78,0,1,0-3.55,0l0,2.42a1.5,1.5,0,0,0-.4,1.68,1.41,1.41,0,0,0,.37.55l0,1.8-.13,5.4c-.39,0-.7.06-.91.08l-.34,0h0a1.44,1.44,0,0,0,.21,2.88l.36,0,.64,0-.14,4.56-.1,3.22a13.5,13.5,0,0,1-.4,3.21.36.36,0,0,0,0,.11,1.23,1.23,0,0,0,1,1.43l.31.06.64.11a1.55,1.55,0,0,0,1-2.87,17.94,17.94,0,0,1,0-1.94L128,57.5l.29-5c.37-.06.75-.13,1.16-.22a22,22,0,0,0,2.38-.61,26.21,26.21,0,0,0,2.59-1,17.72,17.72,0,0,0,2.63-1.48l.64-.46.64-.52.54-.49a4.83,4.83,0,0,0,.64-.71,4.66,4.66,0,0,0,.82-1.76A4.32,4.32,0,0,0,140.32,43.26Zm-2.27.5s0,0,0,0h0S138.06,43.77,138.05,43.76Zm-.49,1.71a1.89,1.89,0,0,1-.35.34c-.18.16-.37.32-.55.46l-.49.36-.55.35a17,17,0,0,1-2.28,1.17,24.1,24.1,0,0,1-4.46,1.28l-.4.07.32-4.87.15-2a6.8,6.8,0,0,1,1,0c.58,0,1.25.09,2,.14s1.55.08,2.34.12a14.17,14.17,0,0,1,2.42.3,4.86,4.86,0,0,1,1,.35,1.35,1.35,0,0,1,.27.18v0A2,2,0,0,1,137.56,45.47ZM170.77,7l0-.6c0-.19,0-.36,0-.6s0-.51-.09-.79-.07-.26-.1-.4a3,3,0,0,0-.17-.36,1.71,1.71,0,0,0-.58-.59,3.78,3.78,0,0,0-1.19-.46,8.41,8.41,0,0,0-.83-.14c-.15,0-.31,0-.46-.05l-.24,0H167l-1.14,0c-.19,0-.4,0-.58,0l-.51.06-1.08.1-1.17.23a22.07,22.07,0,0,0-5,1.81,41.93,41.93,0,0,0-5.35,3.22c-1.81,1.29-3.66,2.76-5.59,4.32s-4,3.24-6.07,4.91-4.25,3.4-6.47,5.22c-4.4,3.62-9,7.52-13.77,11.54s-9.72,8.16-14.95,12.21c-2.59,2-5.33,4-8.16,5.77L95,53.75c-.71.45-1.45.86-2.17,1.29s-1.45.86-2.2,1.26l-2.25,1.18c-1.48.82-3,1.49-4.57,2.22-.76.37-1.56.67-2.34,1l-2.36,1-2.39.84c-.81.27-1.59.59-2.41.81L71.87,64l-1.22.36-1.22.29A80.09,80.09,0,0,1,49.84,67a83.19,83.19,0,0,1-9.43-.58l-1.15-.12-1.14-.17c-.75-.12-1.47-.21-2.24-.38s-1.51-.28-2.24-.46l-2.17-.52a57.22,57.22,0,0,1-8.13-2.85,53.49,53.49,0,0,1-7.11-3.73c-1.11-.66-2.12-1.4-3.14-2.1s-2-1.44-2.83-2.21A53.24,53.24,0,0,1,5.44,49.3l-1-1.15-.5-.56-.12-.14-.08-.1-.06-.08L3.45,47,3,46.43l-.43-.63c-.3-.42-.51-.83-.76-1.24A14.73,14.73,0,0,1,.14,39.65a12.63,12.63,0,0,1,.08-4.2,13,13,0,0,1,.92-2.93c.19-.37.35-.7.5-1s.3-.5.4-.68l.35-.55A1,1,0,0,1,3.73,30a.94.94,0,0,1,.39,1.19l0,.07-.23.52c-.16.33-.36.85-.61,1.51a11.78,11.78,0,0,0-.37,5.92,13.21,13.21,0,0,0,1.52,4c.22.33.41.7.65,1l.34.49c.13.18.29.37.43.55.53.67,1.2,1.4,1.83,2.13a48.3,48.3,0,0,0,4.53,4.31c.82.74,1.75,1.4,2.67,2.11s1.91,1.37,3,2a55.51,55.51,0,0,0,14.43,6.34l2.06.52c.69.18,1.39.3,2.09.46s1.44.26,2.18.39l1.08.18,1.11.12a80,80,0,0,0,9.12.68,77.49,77.49,0,0,0,19-2l1.19-.27,1.18-.33,2.37-.66c.79-.21,1.56-.52,2.34-.77l2.33-.81,2.3-.92c.77-.31,1.54-.6,2.28-1,1.5-.71,3-1.35,4.48-2.14l2.2-1.15c.73-.38,1.44-.82,2.15-1.22s1.44-.82,2.14-1.25l2.09-1.33c2.78-1.76,5.39-3.69,8-5.71,5.11-4,10-8.16,14.76-12.23s9.25-8,13.62-11.76c2.18-1.84,4.33-3.65,6.41-5.34s4-3.37,6-5,3.82-3.13,5.71-4.5a44.61,44.61,0,0,1,5.72-3.52A24.44,24.44,0,0,1,161.8.5l1.38-.28,1.41-.15.69-.06c.22,0,.4,0,.6,0h1.5l.3,0,.59.07a11.3,11.3,0,0,1,1.16.22,6.9,6.9,0,0,1,2.19.92A4.6,4.6,0,0,1,173.11,3a4.73,4.73,0,0,1,.34.89,6.76,6.76,0,0,1,.15.79,7.67,7.67,0,0,1,0,1.23c0,.35-.06.67-.09.87l-.11.59h0a1.34,1.34,0,0,1-1.56,1.06A1.3,1.3,0,0,1,170.77,7ZM226.3,42.35c-.17-.19-.34-.36-.5-.52l-.46-.44c-.4-.37-.71-.62-1-.91a24.25,24.25,0,0,1-1.81-1.66,9.41,9.41,0,0,1-1.4-1.69,1.78,1.78,0,0,0-3.31.92v.41h0a4.34,4.34,0,0,1,.16,2.1,7.22,7.22,0,0,1-.73,2.17,11.27,11.27,0,0,1-1.33,2c-.25.3-.52.58-.78.85a8.9,8.9,0,0,1-.77.7l-.08.06-.07.05,0,0h0l-.26.18c-.17.11-.34.23-.51.33a10.83,10.83,0,0,1-1,.59,7.75,7.75,0,0,1-1,.46l-.26.09a1.6,1.6,0,0,0-.44,0h0a6.78,6.78,0,0,1-2.82.12,1.25,1.25,0,0,1-.26-.07l-.27-.08c-.16-.06-.3-.1-.49-.18l-.34-.15a5.29,5.29,0,0,1-1-.69,7.18,7.18,0,0,1-1.62-2.35,12.86,12.86,0,0,1-.87-3,1.59,1.59,0,0,0-1.09-1.22,1.57,1.57,0,0,0-1.94,1h0c-.12.45-.24.9-.39,1.33s-.33.87-.52,1.29-.41.82-.65,1.21a12.59,12.59,0,0,1-.78,1.13,9.7,9.7,0,0,1-1.92,1.87c-.19.14-.31.22-.52.35l-.33.19-.26.13a6.42,6.42,0,0,1-1.21.42,5.87,5.87,0,0,1-2.5.09,3.75,3.75,0,0,1-.6-.14,4.12,4.12,0,0,1-.59-.22,4.9,4.9,0,0,1-1-.61,4.43,4.43,0,0,1-1.39-2,11.48,11.48,0,0,1-.37-1.34c-.1-.44-.21-.9-.33-1.36a5,5,0,0,0-.33-1.2,3.19,3.19,0,0,0-2.81-2,4.55,4.55,0,0,0-1.42.13,8.78,8.78,0,0,0-2.18.87c-.32.18-.63.37-.94.57a10.48,10.48,0,0,0-.92.67,3.53,3.53,0,0,0-.34.32l.07-.24h0v-.77a1.43,1.43,0,0,0-2.74-.58c-.08.19-.18.37-.27.55h0v.05a13.34,13.34,0,0,1-1.48,2.26,15.82,15.82,0,0,1-2.36,2.34,15.2,15.2,0,0,1-2.68,1.81,8.79,8.79,0,0,1-2.88,1l-.33,0-.21,0h-.17a5.48,5.48,0,0,1-.7,0,5.33,5.33,0,0,1-1.35-.33,6.55,6.55,0,0,1-2.3-1.5,5.86,5.86,0,0,1-1.72-3.47c-.07-.41-.13-.82-.23-1.27h0v-.23a1.17,1.17,0,0,0,0-.26.93.93,0,0,0,0-.23,1.54,1.54,0,0,0-1.45-1.65l-.58,0c-.19,0-.38,0-.62,0-.45,0-.91,0-1.33,0a16.4,16.4,0,0,0-2.53.36,18.31,18.31,0,0,0-2.43.71,19.64,19.64,0,0,0-2.31,1,22,22,0,0,0-2.16,1.25,22.56,22.56,0,0,0-2,1.49c-.32.26-.63.54-.94.82a6.9,6.9,0,0,0-1,1.06,3.16,3.16,0,0,0-.65,1.86,4.28,4.28,0,0,0,0,.49c0,.12.05.24.08.34l.11.26a3.07,3.07,0,0,0,.58.87,4.27,4.27,0,0,0,1.43.93,6.3,6.3,0,0,0,1.48.38l.59.06.69,0c.44,0,.88,0,1.31,0a13,13,0,0,0,5-1.48,14.06,14.06,0,0,0,4.06-3.19l.23-.3a9.22,9.22,0,0,0,2.17,2.66,8.95,8.95,0,0,0,5.68,2.12,7,7,0,0,0,1-.05H165l.21,0,.52-.11a11.86,11.86,0,0,0,3.53-1.5,21,21,0,0,0,2.91-2.18c.41-.36.8-.74,1.19-1.11a12.59,12.59,0,0,0-.19,1.71,5.1,5.1,0,0,0,.17,1.57,3.11,3.11,0,0,0,.5,1,2.51,2.51,0,0,0,1.21.87,1.63,1.63,0,0,0,2-1h0l.31-.86.33-.87c.23-.57.47-1.14.72-1.69s.52-1.08.8-1.57c.14-.25.29-.48.43-.68a2.78,2.78,0,0,1,.36-.43,6.07,6.07,0,0,1,.63-.47c.23-.16.46-.3.7-.44a6,6,0,0,1,1.37-.58,1.71,1.71,0,0,1,.48-.07h.09s0,0,.07.1a1.77,1.77,0,0,1,.13.49v.1l0,.11a13.3,13.3,0,0,0,.54,1.53,16.34,16.34,0,0,0,.74,1.52,10.24,10.24,0,0,0,2.2,2.86,6.74,6.74,0,0,0,1.6,1,6.41,6.41,0,0,0,.84.33,7.22,7.22,0,0,0,.89.22,8.63,8.63,0,0,0,3.58-.08,10.71,10.71,0,0,0,1.68-.57l.2-.1.1,0,.05,0,.09,0,.34-.18a8,8,0,0,0,.77-.47,11.86,11.86,0,0,0,1.36-1.07,15.2,15.2,0,0,0,1.18-1.23,16.47,16.47,0,0,0,1-1.35c.13-.2.24-.4.36-.6a10.17,10.17,0,0,0,2.18,3.1,7.9,7.9,0,0,0,1.8,1.27,8,8,0,0,0,2.08.73h0l.41.13c.26.06.54.11.81.15s.56.07.83.08a9.25,9.25,0,0,0,1.67-.1,9,9,0,0,0,1.57-.39,12.26,12.26,0,0,0,1.43-.6c.46-.22.9-.46,1.32-.71l.62-.38.3-.2.17-.12.19-.14a8.59,8.59,0,0,0,1.18-1.14,12.87,12.87,0,0,0,.92-1.21,16.41,16.41,0,0,0,1.45-2.63,17.84,17.84,0,0,0,.8-2.23c.48.39,1,.76,1.43,1.11s.71.53.95.73l.49.41.42.36a3.54,3.54,0,0,1,1,1.48,2.89,2.89,0,0,1,.11.86,2,2,0,0,1-.13.73,1.54,1.54,0,0,1-.4.6,2.94,2.94,0,0,1-.69.51l-.26.13-.17.06a2.3,2.3,0,0,1-.43.12,2.58,2.58,0,0,1-.83,0,2.21,2.21,0,0,1-1.36-.75,1.56,1.56,0,0,0-.3-.27,1.69,1.69,0,1,0-1.94,2.77l.1.07a6.55,6.55,0,0,0,1.57.83,6.08,6.08,0,0,0,1.74.32,6,6,0,0,0,1.7-.2c.27-.08.54-.17.8-.27s.27-.13.41-.19l.3-.16a6.17,6.17,0,0,0,1.36-1,4.77,4.77,0,0,0,1-1.5,5,5,0,0,0,.37-1.77,6.08,6.08,0,0,0-.19-1.67A6.44,6.44,0,0,0,226.3,42.35ZM143,49.16s0,0,0,0S143,49.22,143,49.16ZM153.51,46a10.67,10.67,0,0,1-3.16,2.66,10.42,10.42,0,0,1-3.93,1.23,7.1,7.1,0,0,1-1,0c-.17,0-.32,0-.48,0l-.57-.06a3.42,3.42,0,0,1-.77-.21,1.62,1.62,0,0,1-.53-.33.22.22,0,0,1-.06-.1h0v0a1.06,1.06,0,0,1,.16-.29,4.79,4.79,0,0,1,.64-.63c.28-.24.55-.48.84-.7a18.49,18.49,0,0,1,1.79-1.25,17.57,17.57,0,0,1,1.91-1,17.16,17.16,0,0,1,2-.8,15.34,15.34,0,0,1,2.07-.53,16.7,16.7,0,0,1,2.1-.25h.36A9.34,9.34,0,0,1,153.51,46Zm60.63.43ZM300,48.62a2.48,2.48,0,0,0-.77-.73,4.11,4.11,0,0,0-.42-.21l-.2-.07h0l-.12,0-.14,0-.22,0-.23,0-.41,0-.77-.06c-1-.07-2.05-.12-3.07-.17q-3.06-.14-6.12-.23c-4.08-.12-8.16-.15-12.24,0-2,0-4.09.14-6.14.29s-4.1.36-6.17.71-4,.89-6,1.24a18.81,18.81,0,0,1-2.83.34,6.13,6.13,0,0,1-2.49-.38,2.85,2.85,0,0,1-.92-.59l-.19-.19c-.05-.06-.09-.12-.14-.17l-.21-.31h0l0-.09c-.13-.33-.27-.84-.4-1.32s-.28-1-.45-1.51a8.69,8.69,0,0,0-1.63-3.14,3.59,3.59,0,0,0-1.95-1.16,4,4,0,0,0-2.2.26,9.38,9.38,0,0,0-2.86,2c-.29.29-.62.64-.92,1,.48-1.68.83-3.35,1.15-5s.53-3.11.77-4.66c.08-.39.18-.78.25-1.18a62.58,62.58,0,0,0,.86-6.25h0a.13.13,0,0,0,0-.06,1.55,1.55,0,0,0-3.09-.34h0v.07h0a56.78,56.78,0,0,1-2.27,11.89,28.21,28.21,0,0,1-2.3,5.43,13.41,13.41,0,0,1-.75,1.2,10.11,10.11,0,0,1-.85,1.08,7.29,7.29,0,0,1-.94.91l-.25.2-.22.15-.1.08-.17.09-.34.19A1.56,1.56,0,1,0,233,50.42l.34-.19.17-.1.22-.14.42-.29.37-.29a10.93,10.93,0,0,0,1.29-1.25l.29-.35c0,.43,0,.85,0,1.27a11.37,11.37,0,0,0,.16,1.75,3.78,3.78,0,0,0,.17.59,2,2,0,0,0,.31.53,1.56,1.56,0,0,0,.6.42,1.46,1.46,0,0,0,1,0,2.2,2.2,0,0,0,.31-.16l.18-.15a2.19,2.19,0,0,0,.22-.24l.07-.09c0-.08-.07.12.11-.19v0a1.63,1.63,0,0,0,.1-.29l0-.09.08-.41c.09-.47.19-.92.31-1.37a11.56,11.56,0,0,1,1-2.54,9,9,0,0,1,1.65-2.13,7.27,7.27,0,0,1,2-1.51,1.45,1.45,0,0,1,.78-.13,1.13,1.13,0,0,1,.61.39A6.6,6.6,0,0,1,247,45.69c.15.45.28.92.42,1.41a15.43,15.43,0,0,0,.5,1.58,2,2,0,0,0,.12.26l.08.16,0,0,0,.06,0,0,.23.32.34.42.35.35a5.38,5.38,0,0,0,1.63,1,8.65,8.65,0,0,0,3.48.55,20.59,20.59,0,0,0,3.21-.37c2.07-.38,4-.93,5.94-1.23s3.94-.46,5.93-.58,4-.17,6-.19c4,0,8.06.06,12.1.24,2,.09,4,.21,6,.37,1,.07,2,.15,3,.25l.72.07a1.51,1.51,0,0,0,.67,1A1.55,1.55,0,0,0,300,51a2.4,2.4,0,0,0,.16-.3,2,2,0,0,0,.2-.83A2.14,2.14,0,0,0,300,48.62Zm-2.61.71a1.19,1.19,0,0,0-.08.16s0,0,0,0A.51.51,0,0,1,297.39,49.33Zm.25,1.19h0l.07,0A.15.15,0,0,1,297.64,50.52Z" fill="#878787"/><path d="M143.6,59.26h.66v6h-.39l-2.32-4.14v4.14h-.67v-6h.39l2.33,4.14Zm3.52.05,1.72,6h-.69l-.38-1.36h-1.71l-.38,1.36H145l0-.09,1.7-5.91h.38Zm-.21,1.53-.67,2.41h1.35Zm4.6,1.92,1.57,2.5h-.78l0,0-1.54-2.47h-.59v2.5h-.67v-6h1.9a1.39,1.39,0,0,1,1.05.45,1.44,1.44,0,0,1,.44,1.06v.48a1.5,1.5,0,0,1-.44,1.07A1.45,1.45,0,0,1,151.51,62.76Zm.69-2a.82.82,0,0,0-.25-.61.78.78,0,0,0-.59-.25h-1.21v2.2h1.21a.84.84,0,0,0,.84-.86Zm3.76,2,1.57,2.5h-.78l0,0-1.54-2.47h-.59v2.5h-.66v-6h1.89a1.39,1.39,0,0,1,1,.45,1.44,1.44,0,0,1,.44,1.06v.48a1.5,1.5,0,0,1-.44,1.07A1.43,1.43,0,0,1,156,62.76Zm.69-2a.82.82,0,0,0-.25-.61.76.76,0,0,0-.59-.25H154.6v2.2h1.21a.84.84,0,0,0,.84-.86ZM160,59.31l1.72,6H161l-.38-1.36h-1.7l-.38,1.36h-.69l0-.09,1.69-5.91H160Zm-.2,1.53-.67,2.41h1.34Zm1.91-.93h1.37v5.35h.67V59.91h1.37v-.65H161.7ZM166,65.26h.66v-6H166Zm4.86-5.64a1.46,1.46,0,0,1,.43,1.07v3.14a1.46,1.46,0,0,1-.44,1.08,1.4,1.4,0,0,1-1,.44h-.41a1.47,1.47,0,0,1-1.06-.44,1.55,1.55,0,0,1-.43-1.08V60.69a1.51,1.51,0,0,1,.43-1.07,1.48,1.48,0,0,1,1.06-.45h.41A1.44,1.44,0,0,1,170.81,59.62Zm-.48.46a.79.79,0,0,0-.6-.25h-.36a.8.8,0,0,0-.6.25.85.85,0,0,0-.24.61v3.14a.85.85,0,0,0,.24.61.81.81,0,0,0,.6.26h.36a.79.79,0,0,0,.6-.26.82.82,0,0,0,.25-.61V60.69A.82.82,0,0,0,170.33,60.08Zm4.88,3.32-2.33-4.14h-.39v6h.67V61.12l2.33,4.14h.39v-6h-.67Zm5.37.28-1.23-4.42h-.69l1.71,5.95,0,.05h.38l1.73-6h-.69Zm5.51-4.06a1.43,1.43,0,0,1,.44,1.07v3.14a1.46,1.46,0,0,1-.44,1.08,1.4,1.4,0,0,1-1,.44h-.41a1.47,1.47,0,0,1-1.06-.44,1.55,1.55,0,0,1-.43-1.08V60.69a1.51,1.51,0,0,1,.43-1.07,1.48,1.48,0,0,1,1.06-.45h.41A1.41,1.41,0,0,1,186.09,59.62Zm-.47.46a.79.79,0,0,0-.6-.25h-.36a.8.8,0,0,0-.6.25.85.85,0,0,0-.24.61v3.14a.85.85,0,0,0,.24.61.81.81,0,0,0,.6.26H185a.79.79,0,0,0,.6-.26.82.82,0,0,0,.25-.61V60.69A.82.82,0,0,0,185.62,60.08Zm2.16,5.18h.67v-6h-.67Zm3.81-6.09h-.41a1.44,1.44,0,0,0-1.05.45,1.47,1.47,0,0,0-.43,1.07v3.14a1.51,1.51,0,0,0,.43,1.08,1.45,1.45,0,0,0,1.05.44h.41a1.44,1.44,0,0,0,1-.44,1.5,1.5,0,0,0,.44-1.08v-.29l-.67-.11v.4a.82.82,0,0,1-.25.61.76.76,0,0,1-.59.26h-.36a.83.83,0,0,1-.61-.26.85.85,0,0,1-.24-.61V60.69a.85.85,0,0,1,.24-.61.82.82,0,0,1,.61-.25h.36a.75.75,0,0,1,.59.25.82.82,0,0,1,.25.61v.4l.67-.1v-.3a1.46,1.46,0,0,0-.44-1.07A1.43,1.43,0,0,0,191.59,59.17Zm2.65,6.09h3.39v-.65h-2.72v-2h2.2v-.65h-2.2v-2h2.72v-.65h-3.39Zm9.3-5.64a1.46,1.46,0,0,1,.44,1.07v3.14a1.46,1.46,0,0,1-.44,1.08,1.41,1.41,0,0,1-1,.44h-.41a1.47,1.47,0,0,1-1.06-.44,1.55,1.55,0,0,1-.43-1.08V60.69a1.51,1.51,0,0,1,.43-1.07,1.47,1.47,0,0,1,1.06-.45h.41A1.41,1.41,0,0,1,203.54,59.62Zm-.47.46a.79.79,0,0,0-.6-.25h-.36a.8.8,0,0,0-.6.25.85.85,0,0,0-.24.61v3.14a.85.85,0,0,0,.24.61.81.81,0,0,0,.6.26h.36a.79.79,0,0,0,.6-.26.82.82,0,0,0,.25-.61V60.69A.82.82,0,0,0,203.07,60.08Zm3.48,3.6-1.23-4.42h-.69l1.71,5.95,0,.05h.38l1.74-6h-.69Zm2.66,1.58h3.38v-.65h-2.72v-2h2.2v-.65h-2.2v-2h2.72v-.65h-3.38Zm6.33-2.5,1.56,2.5h-.78l0,0-1.53-2.47h-.59v2.5h-.67v-6h1.9a1.37,1.37,0,0,1,1,.45,1.44,1.44,0,0,1,.44,1.06v.48a1.5,1.5,0,0,1-.44,1.07A1.41,1.41,0,0,1,215.54,62.76Zm.69-2a.86.86,0,0,0-.25-.61.79.79,0,0,0-.6-.25h-1.2v2.2h1.2a.85.85,0,0,0,.85-.86Zm5.68-1.6h-.41a1.48,1.48,0,0,0-1.06.45,1.51,1.51,0,0,0-.43,1.07v3.14a1.55,1.55,0,0,0,.43,1.08,1.47,1.47,0,0,0,1.06.44h.41a1.44,1.44,0,0,0,1.05-.44,1.5,1.5,0,0,0,.44-1.08v-.29l-.67-.11v.4a.82.82,0,0,1-.25.61.79.79,0,0,1-.6.26h-.36a.81.81,0,0,1-.6-.26.85.85,0,0,1-.24-.61V60.69a.85.85,0,0,1,.24-.61.8.8,0,0,1,.6-.25h.36a.79.79,0,0,1,.6.25.82.82,0,0,1,.25.61v.4l.67-.1v-.3a1.46,1.46,0,0,0-.44-1.07A1.44,1.44,0,0,0,221.91,59.17Zm5.51.45a1.46,1.46,0,0,1,.44,1.07v3.14a1.5,1.5,0,0,1-.44,1.08,1.41,1.41,0,0,1-1,.44H226a1.47,1.47,0,0,1-1.06-.44,1.51,1.51,0,0,1-.43-1.08V60.69A1.5,1.5,0,0,1,226,59.17h.41A1.41,1.41,0,0,1,227.42,59.62Zm-.47.46a.79.79,0,0,0-.6-.25H226a.79.79,0,0,0-.6.25.81.81,0,0,0-.24.61v3.14a.81.81,0,0,0,.24.61.79.79,0,0,0,.6.26h.36a.79.79,0,0,0,.6-.26.86.86,0,0,0,.25-.61V60.69A.86.86,0,0,0,227,60.08Zm3.69-.77,1.71,6h-.69l-.37-1.36h-1.71l-.38,1.36h-.69l0-.09,1.7-5.91h.38Zm-.21,1.53-.67,2.41h1.35Zm4.47-1.67h-.41a1.48,1.48,0,0,0-1.06.45,1.51,1.51,0,0,0-.43,1.07v3.14a1.52,1.52,0,0,0,.44,1.08,1.44,1.44,0,0,0,1.05.44h.41a1.44,1.44,0,0,0,1-.44,1.5,1.5,0,0,0,.44-1.08v-.29l-.67-.11v.4a.82.82,0,0,1-.25.61.79.79,0,0,1-.59.26h-.37a.83.83,0,0,1-.6-.26.85.85,0,0,1-.24-.61V60.69a.85.85,0,0,1,.24-.61.82.82,0,0,1,.6-.25h.37a.78.78,0,0,1,.59.25.82.82,0,0,1,.25.61v.4l.67-.1v-.3a1.46,1.46,0,0,0-.44-1.07A1.44,1.44,0,0,0,234.9,59.17Zm5.37,2.77h-2.05V59.26h-.67v6h.67V62.59h2.05v2.67h.67v-6h-.67Zm2,3.32h.66v-6h-.66ZM247,63.4l-2.33-4.14h-.39v6h.67V61.12l2.32,4.14h.39v-6H247Zm5.3-2.41v-.3a1.46,1.46,0,0,0-.44-1.07,1.44,1.44,0,0,0-1.05-.45h-.41a1.48,1.48,0,0,0-1.06.45,1.51,1.51,0,0,0-.43,1.07v3.14a1.55,1.55,0,0,0,.43,1.08,1.47,1.47,0,0,0,1.06.44h.3a1.31,1.31,0,0,0,1-.5l.27.41h.28V62h-1.59v.65h.92v1.14a.82.82,0,0,1-.25.61.79.79,0,0,1-.6.26h-.36a.81.81,0,0,1-.6-.26.85.85,0,0,1-.24-.61V60.69a.85.85,0,0,1,.24-.61.8.8,0,0,1,.6-.25h.36a.79.79,0,0,1,.6.25.82.82,0,0,1,.25.61v.4Z" fill="#878787"/><path d="M227.12,67.36c-1.37,0-2.75.16-4.12.31-.41,0-6.19.77-6.2.51l0-3.63c0-.45-.05-1-.29-1.15a3.6,3.6,0,0,1,.19-2.24c.56-1.14,1.67-1,2.4-1,4.59-.31,9.18-.63,13.76-1q3.43-.3,6.87-.67A46.77,46.77,0,0,0,248,56.93l-.36.51a10.65,10.65,0,0,0,2.87-.52c.19-.33.5-.44.75-.27a.27.27,0,0,0-.45-.06c.33-.44,1.71-.09,2.13-.11s1.78-.4,2.19.5a3.15,3.15,0,0,1,.19,1l.48,5.31a1.76,1.76,0,0,1,0,.65.46.46,0,0,1-.55.38,11,11,0,0,0-2.68.4c-.95.11-1.91.21-2.87.3s-2,.18-3,.26c-.81.06-2-.25-2.74.19l.82-.46a8.51,8.51,0,0,1-2.27.43c-.86.22-1.74.42-2.62.58A78.42,78.42,0,0,1,227.12,67.36Z" fill="#e3e3e3" style="mix-blend-mode:multiply"/><path d="M254.51,57.59c-1.42-.14-2.92.07-4.3.07q-7.14,0-14.28.3c-2.38.11-4.76.24-7.14.43-.82.06-1.55.5-2.36.55-1.15.07-2.31,0-3.46,0a17.18,17.18,0,0,1-2-.16,1.29,1.29,0,0,0-1.28.47,3.73,3.73,0,0,0-.41,1.88l-.17,3.56a1.14,1.14,0,0,0,.11.68.43.43,0,0,0,.33.14,15.24,15.24,0,0,0,2.87-.25c1.18-.1,2.4,0,3.58.06,2.38,0,4.77,0,7.15,0q7.14,0,14.3-.33c2.72-.1,5.47-.51,8.18-.54a.31.31,0,0,0,.3-.13A.76.76,0,0,0,256,64l-.1-6.12A6.29,6.29,0,0,0,254.51,57.59Z" fill="#e3e3e3" style="mix-blend-mode:multiply"/></g></g></g></svg>