<svg xmlns="http://www.w3.org/2000/svg" viewBox="0 0 180.71 114.57"><g id="a1910217-c8f3-40d3-90c2-3f79d566be8e" data-name="Capa 2"><g id="add13813-fd3e-432b-a9c8-31eb720eb818" data-name="Capa 1"><path d="M81.68,73.78a8.36,8.36,0,0,1,16.56-1.69,12.54,12.54,0,0,0,3.53,6.12,12,12,0,0,0,6,3.5,8.36,8.36,0,0,1,6.79,8.22A8.37,8.37,0,0,1,98,91.52a12.1,12.1,0,0,0-3.5-6A12.72,12.72,0,0,0,88.36,82a8.37,8.37,0,0,1-6.68-8.2Z" fill="#ecf0f2"/><path d="M111.64,84.49a7.76,7.76,0,0,0-4-2.12,12.9,12.9,0,0,1-6.36-3.68,13.33,13.33,0,0,1-3.7-6.46,7.7,7.7,0,1,0-13,7,7.65,7.65,0,0,0,3.9,2.1A13.26,13.26,0,0,1,95,85a12.83,12.83,0,0,1,3.69,6.37,7.7,7.7,0,1,0,13-6.9Z" fill="#878787"/><path d="M108.57,92.3a3.34,3.34,0,1,1,0-4.74A3.35,3.35,0,0,1,108.57,92.3Z" fill="#fff"/><path d="M92.41,71.41a3.35,3.35,0,1,0,0,4.74A3.36,3.36,0,0,0,92.41,71.41Z" fill="#fff"/><path d="M65.41,90.05A8.37,8.37,0,0,1,82,88.36a12.56,12.56,0,0,0,3.52,6.12,12.12,12.12,0,0,0,6,3.5,8.38,8.38,0,1,1-9.79,9.81,12.2,12.2,0,0,0-3.51-6,12.76,12.76,0,0,0-6.11-3.53A8.21,8.21,0,0,1,67.86,96,8.31,8.31,0,0,1,65.41,90.05Z" fill="#ecf0f2"/><path d="M95.38,100.76a7.72,7.72,0,0,0-4-2.12A12.76,12.76,0,0,1,85,95a13.2,13.2,0,0,1-3.71-6.45,7.7,7.7,0,1,0-13,7,7.56,7.56,0,0,0,3.89,2.09,13.36,13.36,0,0,1,6.45,3.71,12.92,12.92,0,0,1,3.7,6.37,7.69,7.69,0,1,0,13-6.9Z" fill="#878787"/><path d="M92.3,108.57a3.35,3.35,0,1,1,0-4.74A3.36,3.36,0,0,1,92.3,108.57Z" fill="#fff"/><path d="M76.15,87.68a3.35,3.35,0,1,0,0,4.73A3.35,3.35,0,0,0,76.15,87.68Z" fill="#fff"/><path d="M32.89,40.79a8.37,8.37,0,0,1-16.57,1.69,12.56,12.56,0,0,0-3.52-6.12,12.12,12.12,0,0,0-6-3.5,8.37,8.37,0,1,1,9.8-9.81,12.1,12.1,0,0,0,3.5,6,12.64,12.64,0,0,0,6.12,3.52,8.37,8.37,0,0,1,6.68,8.2Z" fill="#ecf0f2"/><path d="M2.93,30.08a7.65,7.65,0,0,0,4,2.12,12.81,12.81,0,0,1,6.36,3.68A13.28,13.28,0,0,1,17,42.34a7.58,7.58,0,0,0,2.1,3.89,7.69,7.69,0,1,0,7-13,13.33,13.33,0,0,1-6.46-3.7,12.88,12.88,0,0,1-3.68-6.37,7.7,7.7,0,1,0-13,6.9Z" fill="#878787"/><path d="M6,22.27A3.35,3.35,0,1,1,6,27,3.37,3.37,0,0,1,6,22.27Z" fill="#fff"/><path d="M22.15,43.16a3.35,3.35,0,1,0,0-4.73A3.35,3.35,0,0,0,22.15,43.16Z" fill="#fff"/><path d="M49.16,24.53a8.37,8.37,0,0,1-16.57,1.68,12.5,12.5,0,0,0-3.53-6.12,12.07,12.07,0,0,0-6-3.5,8.37,8.37,0,1,1,9.8-9.8,12.14,12.14,0,0,0,3.51,6,12.67,12.67,0,0,0,6.11,3.53,8.36,8.36,0,0,1,6.69,8.2Z" fill="#ecf0f2"/><path d="M19.19,13.81a7.68,7.68,0,0,0,4,2.12,12.83,12.83,0,0,1,6.36,3.69,13.25,13.25,0,0,1,3.71,6.45A7.7,7.7,0,1,0,42.34,17a13.43,13.43,0,0,1-6.46-3.71,12.9,12.9,0,0,1-3.69-6.37,7.58,7.58,0,0,0-2.12-4A7.69,7.69,0,0,0,19.19,13.81Z" fill="#878787"/><path d="M22.27,6a3.35,3.35,0,1,1,0,4.74A3.35,3.35,0,0,1,22.27,6Z" fill="#fff"/><path d="M38.42,26.89a3.35,3.35,0,1,0,0-4.73A3.35,3.35,0,0,0,38.42,26.89Z" fill="#fff"/><path d="M81.59,8.41A8.37,8.37,0,0,1,98.16,6.73a12.53,12.53,0,0,0,3.52,6.11,12.07,12.07,0,0,0,6,3.5,8.37,8.37,0,1,1-7.5,14.14,8.29,8.29,0,0,1-2.3-4.33,12.12,12.12,0,0,0-3.51-6,12.64,12.64,0,0,0-6.11-3.52,8.36,8.36,0,0,1-6.69-8.2Z" fill="#ecf0f2"/><path d="M111.55,19.12a7.6,7.6,0,0,0-4-2.11,12.91,12.91,0,0,1-6.36-3.69A13.28,13.28,0,0,1,97.5,6.86,7.58,7.58,0,0,0,95.4,3a7.69,7.69,0,1,0-7,13,13.33,13.33,0,0,1,6.46,3.7A12.9,12.9,0,0,1,98.56,26a7.69,7.69,0,1,0,13-6.9Z" fill="#878787"/><path d="M108.48,26.93a3.34,3.34,0,1,1,0-4.73A3.34,3.34,0,0,1,108.48,26.93Z" fill="#fff"/><path d="M92.32,6a3.35,3.35,0,1,0,0,4.74A3.36,3.36,0,0,0,92.32,6Z" fill="#fff"/><path d="M57.28,49.39a8.37,8.37,0,0,1-1.69-16.57,12.56,12.56,0,0,0,6.12-3.52,12.12,12.12,0,0,0,3.5-6A8.36,8.36,0,1,1,75,33.09a12.1,12.1,0,0,0-6,3.5,12.67,12.67,0,0,0-3.52,6.12,8.37,8.37,0,0,1-8.2,6.68Z" fill="#ecf0f2"/><path d="M68,19.43a7.73,7.73,0,0,0-2.12,4,12.81,12.81,0,0,1-3.68,6.36,13.28,13.28,0,0,1-6.46,3.71,7.58,7.58,0,0,0-3.89,2.1,7.69,7.69,0,1,0,13,7,13.33,13.33,0,0,1,3.7-6.46,13,13,0,0,1,6.37-3.69,7.69,7.69,0,1,0-6.9-13Z" fill="#878787"/><path d="M75.8,22.5a3.34,3.34,0,1,1-4.74,0A3.34,3.34,0,0,1,75.8,22.5Z" fill="#fff"/><path d="M54.91,38.65a3.35,3.35,0,1,0,4.74,0A3.35,3.35,0,0,0,54.91,38.65Z" fill="#fff"/><path d="M73.55,65.66a8.37,8.37,0,0,1-1.69-16.57A12.56,12.56,0,0,0,78,45.57a12.22,12.22,0,0,0,3.5-6,8.37,8.37,0,0,1,8.22-6.78,8.36,8.36,0,0,1,1.58,16.58,12.14,12.14,0,0,0-6,3.51A12.56,12.56,0,0,0,81.75,59a8.42,8.42,0,0,1-2.29,4.24A8.31,8.31,0,0,1,73.55,65.66Z" fill="#ecf0f2"/><path d="M84.26,35.69a7.68,7.68,0,0,0-2.12,4A12.76,12.76,0,0,1,78.45,46,13.2,13.2,0,0,1,72,49.75a7.58,7.58,0,0,0-3.89,2.1,7.69,7.69,0,1,0,13,7,13.33,13.33,0,0,1,3.7-6.46,12.9,12.9,0,0,1,6.37-3.69,7.7,7.7,0,1,0-6.9-13Z" fill="#878787"/><path d="M92.07,38.77a3.35,3.35,0,1,1-4.74,0A3.36,3.36,0,0,1,92.07,38.77Z" fill="#fff"/><path d="M71.18,54.92a3.35,3.35,0,1,0,4.73,0A3.35,3.35,0,0,0,71.18,54.92Z" fill="#fff"/><path d="M73.78,32.89a8.37,8.37,0,0,1-1.69-16.57,12.56,12.56,0,0,0,6.12-3.52,12.12,12.12,0,0,0,3.5-6,8.37,8.37,0,1,1,9.8,9.8,12.12,12.12,0,0,0-6,3.5A12.64,12.64,0,0,0,82,26.21a8.39,8.39,0,0,1-8.2,6.68Z" fill="#ecf0f2"/><path d="M84.49,2.93a7.65,7.65,0,0,0-2.12,4,12.83,12.83,0,0,1-3.69,6.37A13.26,13.26,0,0,1,72.23,17a7.7,7.7,0,1,0,9.09,9.09A13.18,13.18,0,0,1,85,19.62a12.83,12.83,0,0,1,6.37-3.69,7.7,7.7,0,1,0-6.9-13Z" fill="#878787"/><path d="M92.3,6a3.35,3.35,0,1,1-4.74,0A3.37,3.37,0,0,1,92.3,6Z" fill="#ecf0f2"/><path d="M71.41,22.16a3.34,3.34,0,1,0,4.73,0A3.34,3.34,0,0,0,71.41,22.16Z" fill="#ecf0f2"/><path d="M90,49.16a8.37,8.37,0,0,1-1.68-16.57,12.56,12.56,0,0,0,6.12-3.52,12.12,12.12,0,0,0,3.5-6,8.37,8.37,0,1,1,9.8,9.8,12.12,12.12,0,0,0-6,3.5,12.71,12.71,0,0,0-3.53,6.11A8.36,8.36,0,0,1,90,49.16Z" fill="#ecf0f2"/><path d="M100.76,19.19a7.72,7.72,0,0,0-2.12,4A12.76,12.76,0,0,1,95,29.54a13.23,13.23,0,0,1-6.46,3.71,7.7,7.7,0,1,0,9.09,9.09,13.28,13.28,0,0,1,3.71-6.46,13,13,0,0,1,6.36-3.69,7.7,7.7,0,1,0-6.89-13Z" fill="#878787"/><path d="M108.57,22.27a3.35,3.35,0,1,1-4.74,0A3.36,3.36,0,0,1,108.57,22.27Z" fill="#ecf0f2"/><path d="M87.68,38.42a3.35,3.35,0,1,0,4.73,0A3.35,3.35,0,0,0,87.68,38.42Z" fill="#ecf0f2"/><path d="M33,106.16a8.28,8.28,0,0,1-2.46,5.92,8.37,8.37,0,0,1-14.11-4.23,12.46,12.46,0,0,0-3.53-6.12,12.07,12.07,0,0,0-6-3.5A8.34,8.34,0,0,1,.09,90a8.37,8.37,0,0,1,14.28-5.92,8.29,8.29,0,0,1,2.3,4.33,12.12,12.12,0,0,0,3.51,6A12.64,12.64,0,0,0,26.29,98a8.36,8.36,0,0,1,6.69,8.2Z" fill="#ecf0f2"/><path d="M3,95.45a7.76,7.76,0,0,0,4,2.12,12.81,12.81,0,0,1,6.36,3.68,13.35,13.35,0,0,1,3.71,6.46,7.69,7.69,0,1,0,9.09-9.09,13.29,13.29,0,0,1-6.46-3.7A12.9,12.9,0,0,1,16,88.55a7.7,7.7,0,1,0-13,6.9Z" fill="#878787"/><path d="M6.09,87.64a3.34,3.34,0,1,1,0,4.74A3.34,3.34,0,0,1,6.09,87.64Z" fill="#fff"/><path d="M22.24,108.53a3.34,3.34,0,1,0,0-4.73A3.35,3.35,0,0,0,22.24,108.53Z" fill="#fff"/><path d="M57.29,65.18A8.37,8.37,0,0,1,59,81.75a12.49,12.49,0,0,0-6.11,3.52,12.14,12.14,0,0,0-3.51,6,8.36,8.36,0,1,1-9.8-9.79,12.17,12.17,0,0,0,6-3.51,12.69,12.69,0,0,0,3.52-6.11,8.36,8.36,0,0,1,8.2-6.69Z" fill="#ecf0f2"/><path d="M46.58,95.15a7.7,7.7,0,0,0,2.11-4,12.83,12.83,0,0,1,3.69-6.36,13.28,13.28,0,0,1,6.46-3.71A7.69,7.69,0,1,0,49.75,72,13.28,13.28,0,0,1,46,78.46a12.83,12.83,0,0,1-6.36,3.69,7.7,7.7,0,1,0,6.9,13Z" fill="#878787"/><path d="M38.77,92.07a3.34,3.34,0,1,1,4.73,0A3.34,3.34,0,0,1,38.77,92.07Z" fill="#fff"/><path d="M59.66,75.92a3.35,3.35,0,1,0-4.74,0A3.37,3.37,0,0,0,59.66,75.92Z" fill="#fff"/><path d="M41,48.91a8.37,8.37,0,0,1,1.69,16.57A12.46,12.46,0,0,0,36.59,69a12.07,12.07,0,0,0-3.5,6,8.37,8.37,0,1,1-9.81-9.8,12.12,12.12,0,0,0,6-3.51,12.56,12.56,0,0,0,3.52-6.11A8.36,8.36,0,0,1,41,48.91Z" fill="#ecf0f2"/><path d="M30.31,78.88a7.76,7.76,0,0,0,2.12-4,12.81,12.81,0,0,1,3.68-6.36,13.28,13.28,0,0,1,6.46-3.71,7.7,7.7,0,1,0-7-13,7.73,7.73,0,0,0-2.1,3.89,13.23,13.23,0,0,1-3.71,6.46,12.83,12.83,0,0,1-6.36,3.69,7.7,7.7,0,1,0,6.9,13Z" fill="#878787"/><path d="M22.5,75.8a3.35,3.35,0,1,1,4.74,0A3.34,3.34,0,0,1,22.5,75.8Z" fill="#fff"/><path d="M43.39,59.65a3.35,3.35,0,1,0-4.74,0A3.34,3.34,0,0,0,43.39,59.65Z" fill="#fff"/><path d="M40.79,81.68a8.37,8.37,0,0,1,1.69,16.57,12.56,12.56,0,0,0-6.12,3.52,12.12,12.12,0,0,0-3.5,6A8.37,8.37,0,1,1,23.05,98a12.1,12.1,0,0,0,6-3.5,12.72,12.72,0,0,0,3.52-6.12,8.37,8.37,0,0,1,8.2-6.68Z" fill="#ecf0f2"/><path d="M30.08,111.64a7.73,7.73,0,0,0,2.12-4,12.88,12.88,0,0,1,3.68-6.37,13.33,13.33,0,0,1,6.46-3.7,7.69,7.69,0,1,0-9.09-9.09A13.28,13.28,0,0,1,29.54,95a12.81,12.81,0,0,1-6.36,3.68,7.7,7.7,0,1,0,6.9,13Z" fill="#878787"/><path d="M22.27,108.57a3.35,3.35,0,1,1,4.74,0A3.35,3.35,0,0,1,22.27,108.57Z" fill="#ecf0f2"/><path d="M43.16,92.41a3.34,3.34,0,1,0-4.73,0A3.35,3.35,0,0,0,43.16,92.41Z" fill="#ecf0f2"/><path d="M24.52,65.41A8.37,8.37,0,0,1,26.21,82a12.56,12.56,0,0,0-6.12,3.52,12.14,12.14,0,0,0-3.5,6,8.44,8.44,0,0,1-2.3,4.33,8.38,8.38,0,0,1-11.84,0A8.36,8.36,0,0,1,6.79,81.72a12.14,12.14,0,0,0,6-3.51,12.67,12.67,0,0,0,3.53-6.11,8.34,8.34,0,0,1,8.19-6.69Z" fill="#ecf0f2"/><path d="M13.81,95.38a7.72,7.72,0,0,0,2.12-4A12.89,12.89,0,0,1,19.61,85a13.28,13.28,0,0,1,6.46-3.71A7.69,7.69,0,1,0,17,72.23a13.33,13.33,0,0,1-3.7,6.46,12.9,12.9,0,0,1-6.37,3.69,7.7,7.7,0,1,0,6.9,13Z" fill="#878787"/><path d="M6,92.3a3.35,3.35,0,1,1,4.74,0A3.36,3.36,0,0,1,6,92.3Z" fill="#ecf0f2"/><path d="M26.89,76.15a3.35,3.35,0,1,0-4.73,0A3.35,3.35,0,0,0,26.89,76.15Z" fill="#ecf0f2"/><path d="M106.16,81.59a8.37,8.37,0,0,1,1.68,16.57,12.47,12.47,0,0,0-6.11,3.53,12.07,12.07,0,0,0-3.5,6,8.37,8.37,0,1,1-9.81-9.8,12.12,12.12,0,0,0,6-3.51A12.64,12.64,0,0,0,98,88.28,8.4,8.4,0,0,1,100.24,84,8.31,8.31,0,0,1,106.16,81.59Z" fill="#ecf0f2"/><path d="M95.45,111.56a7.67,7.67,0,0,0,2.11-4,12.83,12.83,0,0,1,3.69-6.36,13.28,13.28,0,0,1,6.46-3.71,7.7,7.7,0,0,0,3.89-13,7.7,7.7,0,0,0-13,3.89,13.23,13.23,0,0,1-3.71,6.46,12.83,12.83,0,0,1-6.36,3.69,7.7,7.7,0,1,0,6.9,13Z" fill="#878787"/><path d="M87.64,108.48a3.34,3.34,0,1,1,4.73,0A3.34,3.34,0,0,1,87.64,108.48Z" fill="#ecf0f2"/><path d="M108.53,92.33a3.35,3.35,0,1,0-4.74,0A3.34,3.34,0,0,0,108.53,92.33Z" fill="#ecf0f2"/><path d="M65.18,57.28A8.37,8.37,0,0,1,81.75,55.6a12.53,12.53,0,0,0,3.52,6.11,12,12,0,0,0,6,3.5A8.38,8.38,0,1,1,81.49,75,12.2,12.2,0,0,0,78,69a12.69,12.69,0,0,0-6.11-3.52,8.36,8.36,0,0,1-6.69-8.2Z" fill="#ecf0f2"/><path d="M95.14,68a7.64,7.64,0,0,0-4-2.11,12.91,12.91,0,0,1-6.36-3.69,13.28,13.28,0,0,1-3.71-6.46A7.69,7.69,0,1,0,72,64.82a13.28,13.28,0,0,1,6.46,3.71,12.81,12.81,0,0,1,3.68,6.36,7.7,7.7,0,1,0,13-6.9Z" fill="#878787"/><path d="M92.07,75.8a3.35,3.35,0,1,1,0-4.73A3.35,3.35,0,0,1,92.07,75.8Z" fill="#ecf0f2"/><path d="M75.92,54.91a3.35,3.35,0,1,0,0,4.74A3.37,3.37,0,0,0,75.92,54.91Z" fill="#ecf0f2"/><path d="M48.91,73.55a8.37,8.37,0,0,1,16.57-1.69A12.56,12.56,0,0,0,69,78a12.14,12.14,0,0,0,6,3.5A8.37,8.37,0,0,1,81.8,89.7a8.37,8.37,0,0,1-16.58,1.59,12.2,12.2,0,0,0-3.51-6,12.56,12.56,0,0,0-6.11-3.52,8.39,8.39,0,0,1-6.69-8.2Z" fill="#ecf0f2"/><path d="M78.88,84.26a7.68,7.68,0,0,0-4-2.12,12.81,12.81,0,0,1-6.36-3.68A13.28,13.28,0,0,1,64.82,72a7.58,7.58,0,0,0-2.1-3.89,7.69,7.69,0,1,0-7,13,13.29,13.29,0,0,1,6.46,3.7,13,13,0,0,1,3.69,6.37,7.58,7.58,0,0,0,2.12,4A7.69,7.69,0,0,0,78.88,84.26Z" fill="#878787"/><path d="M75.8,92.07a3.34,3.34,0,1,1,0-4.74A3.36,3.36,0,0,1,75.8,92.07Z" fill="#ecf0f2"/><path d="M59.65,71.18a3.35,3.35,0,1,0,0,4.73A3.35,3.35,0,0,0,59.65,71.18Z" fill="#ecf0f2"/><path d="M8.41,33A8.37,8.37,0,0,1,6.72,16.41a12.42,12.42,0,0,0,6.12-3.53,12.07,12.07,0,0,0,3.5-6,8.37,8.37,0,1,1,9.81,9.8,12.12,12.12,0,0,0-6,3.51,12.64,12.64,0,0,0-3.52,6.11A8.36,8.36,0,0,1,8.41,33Z" fill="#ecf0f2"/><path d="M19.12,3A7.59,7.59,0,0,0,17,7a12.91,12.91,0,0,1-3.69,6.36,13.28,13.28,0,0,1-6.46,3.71A7.58,7.58,0,0,0,3,19.17a7.69,7.69,0,1,0,13,7,13.33,13.33,0,0,1,3.7-6.46A12.9,12.9,0,0,1,26,16a7.7,7.7,0,1,0-6.9-13Z" fill="#878787"/><path d="M26.93,6.09a3.35,3.35,0,1,1-4.74,0A3.36,3.36,0,0,1,26.93,6.09Z" fill="#ecf0f2"/><path d="M6,22.24a3.35,3.35,0,1,0,4.73,0A3.36,3.36,0,0,0,6,22.24Z" fill="#ecf0f2"/><path d="M49.39,57.29A8.37,8.37,0,0,1,32.82,59a12.51,12.51,0,0,0-3.52-6.12,12,12,0,0,0-6-3.5,8.37,8.37,0,1,1,9.8-9.81,12.1,12.1,0,0,0,3.5,6,12.69,12.69,0,0,0,6.11,3.52,8.36,8.36,0,0,1,6.69,8.2Z" fill="#ecf0f2"/><path d="M19.42,46.58a7.7,7.7,0,0,0,4,2.11,12.91,12.91,0,0,1,6.36,3.69,13.28,13.28,0,0,1,3.71,6.46,7.58,7.58,0,0,0,2.1,3.89A7.69,7.69,0,0,0,46.46,51.85a7.58,7.58,0,0,0-3.89-2.1,13.33,13.33,0,0,1-6.46-3.7,12.9,12.9,0,0,1-3.69-6.37,7.7,7.7,0,1,0-13,6.9Z" fill="#878787"/><path d="M22.5,38.77a3.34,3.34,0,1,1,0,4.73A3.34,3.34,0,0,1,22.5,38.77Z" fill="#ecf0f2"/><path d="M38.65,59.66a3.35,3.35,0,1,0,0-4.74A3.36,3.36,0,0,0,38.65,59.66Z" fill="#ecf0f2"/><path d="M65.66,41a8.37,8.37,0,0,1-16.57,1.69,12.5,12.5,0,0,0-3.53-6.12,12.07,12.07,0,0,0-6-3.5,8.37,8.37,0,1,1,9.8-9.8,12.14,12.14,0,0,0,3.51,6A12.56,12.56,0,0,0,59,32.82,8.39,8.39,0,0,1,65.66,41Z" fill="#ecf0f2"/><path d="M35.69,30.31a7.68,7.68,0,0,0,4,2.12A12.81,12.81,0,0,1,46,36.11a13.28,13.28,0,0,1,3.71,6.46,7.7,7.7,0,1,0,13-7,7.73,7.73,0,0,0-3.89-2.1,13.29,13.29,0,0,1-6.46-3.7,12.9,12.9,0,0,1-3.69-6.37,7.58,7.58,0,0,0-2.12-4A7.69,7.69,0,1,0,35.69,30.31Z" fill="#878787"/><path d="M38.77,22.5a3.35,3.35,0,1,1,0,4.74A3.36,3.36,0,0,1,38.77,22.5Z" fill="#ecf0f2"/><path d="M54.92,43.39a3.34,3.34,0,1,0,0-4.73A3.34,3.34,0,0,0,54.92,43.39Z" fill="#ecf0f2"/><rect x="69.57" y="41.93" width="97.02" height="38.38" fill="#ecf0f2"/><path d="M58,67.68l7.84-12.5-7.32-12h7.65l3.33,6,3.32-6h33.84A7.32,7.32,0,0,1,110,44a7.12,7.12,0,0,1,2.35,1.92,7.62,7.62,0,0,1,1.36,2.62,9.42,9.42,0,0,1,.42,2.75,8,8,0,0,1-.29,2.07,8.23,8.23,0,0,1-.81,2,8.38,8.38,0,0,1-1.32,1.75,6.59,6.59,0,0,1-.94.81l1.58,3.61h2.49V43.23h17.54V49.4H121.5v2.91h9.34v6.17H121.5v3h11.61V43.23H139l4.28,8.46L145,55.36l1.82-3.79L151,43.23l5.84.05V67.69H150.2V59l-.11.22-2.83,5.39h-4.51L140,59.35l-.22-.43v8.77H107.86L107.6,67c-.07-.22-.21-.54-.38-1s-.38-.93-.61-1.47l-.71-1.69-.71-1.7c-.23-.53-.43-1-.61-1.47-.06-.12-.1-.23-.15-.34h-2.18v8.37H95.62V49.4H89.51V67.69H82.89V49.4H76.63l-3.51,5.78,7.72,12.51H73.23l-3.76-6.58-3.79,6.58Zm47.66-14.53a2,2,0,0,0,1.52-.48,1.92,1.92,0,0,0,.48-1.38,1.94,1.94,0,0,0-.49-1.39,2,2,0,0,0-1.51-.5h-3.39v3.75Z" fill="#ecf0f2"/><path d="M173.26,67.67l-1.68-4.94h-6.74l-1.74,4.94h-7.29L165,43.26h6.54l9.13,24.41Zm-3.7-10.78-1.31-3.81-1.36,3.81Z" fill="#ecf0f2"/><path d="M151.66,44.33l-3.82,7.72-2.71,5.62h-.19l-2.68-5.49-4-7.85h-4.07V62.62H120.4V57.38h9.34v-4H120.4v-5.1h10.92v-4H116V62.62h-4.3l-2.26-5.14A5.84,5.84,0,0,0,111,56.33a7.15,7.15,0,0,0,1.85-3.26,6.66,6.66,0,0,0,.25-1.79,8.76,8.76,0,0,0-.37-2.44,6.71,6.71,0,0,0-1.17-2.25,6,6,0,0,0-4.89-2.26H73.45l-4,7.14-4-7.14h-5l6.66,10.86L60,66.58h5.08l4.43-7.69,4.39,7.69h5l-7-11.4L76,48.31h8V66.59h4.42V48.31h8.31V66.59h4.43V58.22h4c.11.24.26.58.44,1l.61,1.47c.23.54.47,1.1.71,1.7s.49,1.15.71,1.69.43,1,.62,1.47.32.78.4,1h30v-12h.13l2.16,4.2,2.48,4.68h3.18l2.52-4.78,2.06-4.1h.13v12h4.43V44.37ZM108,53.42a3,3,0,0,1-2.32.83h-4.49V48.31h4.49a3,3,0,0,1,2.31.84,3.3,3.3,0,0,1,0,4.27Z" fill="#878787"/><path d="M170.81,44.36l8.31,22.21h-5.07l-1.68-4.94h-8.31l-1.74,4.94H157.4l8.4-22.21ZM171.09,58l-2.79-8.16h-.07L165.34,58Z" fill="#878787"/><path d="M68.05,64.39h.16c.33,0,.51.2.55.63v.06a14.86,14.86,0,0,1-.37,1.52,25.37,25.37,0,0,0-.49,3.81v.2l0,.11,0,.12v.25a8.72,8.72,0,0,0,.17,1.85,3.87,3.87,0,0,1,3-1.58,13.56,13.56,0,0,1,2.37.23,4.48,4.48,0,0,1,.26,1.56v.14A6.38,6.38,0,0,1,70.93,78a5.4,5.4,0,0,1-2.79,1H68a2.27,2.27,0,0,1-1.71-.8,4.61,4.61,0,0,1-.18-1.33l.14-1.86-.06-3.79v-.34a50,50,0,0,1,.7-5.38C67.1,64.79,67.49,64.41,68.05,64.39Zm.18,12.67h0q3.38-.68,3.45-3.07l0-.43a5.07,5.07,0,0,0-.94-.08c-1.07,0-1.8.71-2.2,2A9.34,9.34,0,0,0,68.23,77.06Z" fill="#ecf0f2"/><path d="M67.92,80.06A3.25,3.25,0,0,1,65.54,79a.94.94,0,0,1-.25-.43,5.42,5.42,0,0,1-.22-1.64l.14-1.9-.06-3.7v-.39a49.76,49.76,0,0,1,.71-5.52l0-.12A2.26,2.26,0,0,1,68,63.37h.16a1.54,1.54,0,0,1,1.61,1.56.71.71,0,0,1,0,.14,9.41,9.41,0,0,1-.41,1.81,23.46,23.46,0,0,0-.45,3.57v.2s0,.08,0,.13v.11A4.87,4.87,0,0,1,71,70.33a14.77,14.77,0,0,1,2.61.26,1,1,0,0,1,.76.68,5.42,5.42,0,0,1,.31,1.91v.15c0,2-1.11,3.82-3.13,5.47a6.69,6.69,0,0,1-3.4,1.26h-.26Zm-.73-2.36a1.13,1.13,0,0,0,.68.32,1.14,1.14,0,0,1-.39-.27,1,1,0,0,1-.27-.82,10.47,10.47,0,0,1,.36-1.73A4.59,4.59,0,0,1,68.12,74a.8.8,0,0,1-.31,0,1,1,0,0,1-.58-.37l0,1.48L67.11,77A3.36,3.36,0,0,0,67.19,77.7Zm3.4-3.19c-.28,0-.68.22-1,1A1.91,1.91,0,0,0,70.59,74.51Zm.24-2.06a6,6,0,0,1,1,.1,1,1,0,0,1,.82.73v-.17a2.72,2.72,0,0,0,0-.62c-.46-.06-1-.09-1.58-.11a2.59,2.59,0,0,0-.63.1l.29,0Z" fill="#ecf0f2"/><path d="M76.05,70.32c.36,0,.54.08.53.27a23.07,23.07,0,0,1,.21,4l0,.83-.14,3.08a1.7,1.7,0,0,1-.66.28l-.22.23h0c-.16,0-.3-.11-.42-.35,0,.11,0,.17-.06.17-.27-.24-.39-.79-.36-1.64l.34-3.52c0-.49,0-1.2,0-2.1S75.53,70.34,76.05,70.32Zm0-2.91h.16c.46,0,.73.1.83.34l.07.31v0c0,.39-.39.65-1.13.81h-.19c-.54,0-.81-.19-.8-.48l0-.12v-.17A1.06,1.06,0,0,1,76.08,67.41Z" fill="#ecf0f2"/><path d="M75.74,80A1.32,1.32,0,0,1,75,79.8a1.07,1.07,0,0,1-.45-.23,3.07,3.07,0,0,1-.69-2.43l.35-3.51c0-.51,0-1.22,0-2.11a2.33,2.33,0,0,1,.69-1.8,1.42,1.42,0,0,1-.9-1.18c0-.09,0-.21,0-.27V68.1a.93.93,0,0,1,0-.29,2.07,2.07,0,0,1,2-1.42h.16a1.66,1.66,0,0,1,1.82,1,.58.58,0,0,1,0,.14l.07.31a1,1,0,0,1,0,.23,1.73,1.73,0,0,1-1,1.54.52.52,0,0,1,.11.1,1.15,1.15,0,0,1,.36.8,23.5,23.5,0,0,1,.22,4.1l-.17,3.93a1,1,0,0,1-.37.74,2.38,2.38,0,0,1-.76.4l0,0a1.09,1.09,0,0,1-.7.32Z" fill="#ecf0f2"/><path d="M80.53,63.53h.11c.38,0,.57.1.56.24a21.52,21.52,0,0,1,.06,2.62v.28a35.28,35.28,0,0,1-.33,4l3.15-1.16.84-.14a1.24,1.24,0,0,1,.94.28,2.65,2.65,0,0,0-.1.74l0,0a6,6,0,0,1-2.06,1,14.24,14.24,0,0,0-2.13.76,5,5,0,0,0-.69.47v.06c.14.32.62.61,1.43.87a3,3,0,0,1,1.34.66h.22a2,2,0,0,1,.71.37,7.26,7.26,0,0,1,2.59,1.45v0c-.06,0-.11.21-.16.63-.08.18-.28.27-.6.28l-.38.16c-2-.93-3.35-1.54-4-1.81a8.38,8.38,0,0,0-1.12-.33,2.31,2.31,0,0,0-.19.92v.14l0,1.85a1.12,1.12,0,0,1-.29.84.65.65,0,0,0-.15.26l0,0v0l0,0v0l0,0h-.13l-.28.35-.11,0q-.51-.1-.51-.21v0L79.3,79h-.13v.26l-.08.09a4.1,4.1,0,0,1-.22-1.73L79,75v-.71l-.82-.57v0l0-.34-.1-.43c0-.26.36-.62,1.06-1.08q.18,0,.44-6.72c.06-.82.13-1.23.19-1.23A1.45,1.45,0,0,1,80.53,63.53Z" fill="#ecf0f2"/><path d="M79.66,80.59h-.14a2.07,2.07,0,0,1-1-.41.84.84,0,0,1-.41-.42,5.25,5.25,0,0,1-.31-2.17L78,74.9v-.12l-.39-.27a1,1,0,0,1-.44-.88l0-.27-.06-.26a1.09,1.09,0,0,1,0-.26,2.39,2.39,0,0,1,1.18-1.67c.06-.55.17-2.06.32-6.13.09-1.06.16-1.91.81-2.15a2.21,2.21,0,0,1,1.12-.38h.11c1.54.09,1.62,1,1.62,1.28a26,26,0,0,1,.06,2.63v.28q0,1.22-.15,2.46l1.58-.58.19,0,.84-.14.14,0a2.4,2.4,0,0,1,1.68.57,1,1,0,0,1,.27,1,1.68,1.68,0,0,0,0,.36v.17a1,1,0,0,1-.33.72A7,7,0,0,1,84,72.46c-.37.1-.72.21-1,.32a4.3,4.3,0,0,1,1,.51,2.8,2.8,0,0,1,1,.48c2.27,1,2.81,1.44,3,2a.9.9,0,0,1,.09.46,1.11,1.11,0,0,1-.12.44c0,.07,0,.17,0,.29a1,1,0,0,1-.1.34,1.55,1.55,0,0,1-1.28.83l-.24.09a1,1,0,0,1-.82,0c-1.89-.88-3.2-1.47-3.89-1.74l0,1.58a2.31,2.31,0,0,1-.45,1.42,1.25,1.25,0,0,1-.2.4,1,1,0,0,1-.44.34l0,0a1,1,0,0,1-.52.35A2,2,0,0,1,79.66,80.59ZM88,76.75a1,1,0,0,1-.78.43A1,1,0,0,0,88,76.75Zm-8.79-3.6.35.25a1,1,0,0,1,.44.83v.32a1,1,0,0,1,.75-.48,2,2,0,0,1-.8-.87.85.85,0,0,1-.09-.44v-.11a.64.64,0,0,1-.36.14l-.32.25v0S79.2,73.13,79.21,73.15Zm1.07-1.65c0,.18,0,.34-.08.47l0,0,.35-.27a1.28,1.28,0,0,1-.3-.17Z" fill="#ecf0f2"/><path d="M90.42,70.21c.94,0,1.69.59,2.24,1.86a3.64,3.64,0,0,1,.14.94c0,1-.75,1.75-2.18,2.38v0a1.54,1.54,0,0,0,1.43,1c.82,0,1.71-.75,2.69-2.17.58-.68,1-1,1.33-1h.05l.06,0v.29l0,.11a.13.13,0,0,0,.1.11c.12,0,.2-.11.25-.32h.06v0a3.79,3.79,0,0,1-.86,1.62,2.81,2.81,0,0,0-.21.58c-.25.06-.38.17-.38.32a4.5,4.5,0,0,1-2.31,1.93A2.8,2.8,0,0,1,92,78h-.27c-1.33,0-2.61-.92-3.84-2.89v-.06l-.07-2.25v-.22a1.82,1.82,0,0,1,.92-1.8A3.69,3.69,0,0,1,90.42,70.21ZM89.5,73a1.31,1.31,0,0,0,.42,1.18,2,2,0,0,0,1-.55A1.71,1.71,0,0,0,91,73.1a1.08,1.08,0,0,0-.7-1.17l-.21,0q-.41,0-.42.3A1.87,1.87,0,0,0,89.5,73Z" fill="#ecf0f2"/><path d="M91.65,79.06c-1.66,0-3.22-1.14-4.62-3.38a1,1,0,0,1-.16-.56l-.07-2.25v-.29a2.76,2.76,0,0,1,1.47-2.68,4.4,4.4,0,0,1,2.1-.71c1,0,2.3.37,3.22,2.47a.64.64,0,0,1,.06.18,4.6,4.6,0,0,1,.16,1.2,2.94,2.94,0,0,1-.17.93l.25-.35c.87-1.05,1.49-1.47,2.14-1.49a1.2,1.2,0,0,1,.81.3,1,1,0,0,1,.39.24,1.06,1.06,0,0,1,.33.73,3.93,3.93,0,0,1-1,2.18c0,.08-.06.17-.09.28a1,1,0,0,1-.55.69,5.54,5.54,0,0,1-2.76,2.29,4.5,4.5,0,0,1-1.13.21h-.39Zm-2.74-4.23a8.54,8.54,0,0,0,.79,1,.92.92,0,0,1-.1-.49.88.88,0,0,1,0-.17,1.08,1.08,0,0,1-.3-.16,1.59,1.59,0,0,1-.41-.41Z" fill="#ecf0f2"/><path d="M99,70.49h.22c.66,0,1,.14,1.07.47a2.21,2.21,0,0,1,.17.63,1.47,1.47,0,0,1-.85.51c-1.31.26-2,.47-2,.63a2.31,2.31,0,0,0,1.44.79,14.82,14.82,0,0,1,2.92.86,1.52,1.52,0,0,1,.8,1.4c0,1-.87,1.68-2.54,2.06a7.86,7.86,0,0,1-1.35.18c-1.68-.07-2.51-.24-2.5-.53a.93.93,0,0,1-.24-.68v-.15a1.43,1.43,0,0,1,.58-1,5.3,5.3,0,0,0,2.35.64,1.9,1.9,0,0,0,1.3-.53v0a11.47,11.47,0,0,0-2.78-.85c-1.35-.38-2-.89-2-1.5v-.1A2.65,2.65,0,0,1,97.36,71,3.82,3.82,0,0,1,99,70.49Z" fill="#ecf0f2"/><path d="M98.9,79c-1.45,0-3.15-.11-3.49-1.13a2,2,0,0,1-.31-1.13v-.15a2.23,2.23,0,0,1,.6-1.43,2.07,2.07,0,0,1-1.16-1.85,3.62,3.62,0,0,1,2.36-3.29,4.67,4.67,0,0,1,2-.58h.22c1.58,0,2,.77,2.09,1.22a2.93,2.93,0,0,1,.21.93,1.13,1.13,0,0,1-.16.52,2,2,0,0,1-.77.68,11.8,11.8,0,0,1,1.87.63,2.61,2.61,0,0,1,1.4,2.36c0,1-.63,2.4-3.34,3A8.45,8.45,0,0,1,98.9,79Zm2.31-3.87a1,1,0,0,1,.17.6,1.08,1.08,0,0,1-.29.71c.36-.18.64-.42.65-.73,0-.15,0-.31-.32-.5Zm-4.58-2.11a1.39,1.39,0,0,0,0,.24s.05.11.34.26a1.72,1.72,0,0,1-.23-.32A1.42,1.42,0,0,1,96.63,73.05Z" fill="#ecf0f2"/><path d="M113.66,64.51h.19c.31,0,.48.24.52.75l0,.23a12.76,12.76,0,0,1-.26,1.66c.29.09,1,.26,2,.5.39.18.59.36.58.53v.28c0,.39-.26.61-.75.68h-.3a9.36,9.36,0,0,1-1.53-.2,1,1,0,0,0-.18.51v.86a1.54,1.54,0,0,1,1.07.56l-.07.66,0,.25q-.27,0-.63.45a.43.43,0,0,1-.25.1H114a2.09,2.09,0,0,0-.1.6v.23a3.83,3.83,0,0,0,.06.85H114a8.07,8.07,0,0,0,2.48-.71c.42-.07.63-.19.63-.33s.09-.15.12-.43v-.2l.06-.06h.08l.43.1.11,0a1.12,1.12,0,0,1,.24.76v.12c0,1-1.13,1.83-3.31,2.39l-.82.11v0q0,.3.21,2.13V78a.64.64,0,0,1-.53.68c-.07,0-.15.06-.25.17h-.11l-.29-.28c0,.14,0,.2-.08.2a3.13,3.13,0,0,1-.52-1.66c-.08-.91-.21-1.36-.37-1.35a6.76,6.76,0,0,1-2.07-.42,3.53,3.53,0,0,1-1.25-.93c0-1.18.79-2.08,2.27-2.72v0a4.16,4.16,0,0,1-1.7-1.2v-.11a2.83,2.83,0,0,1,2.19-2.67l1-.29C112.8,65.49,113.16,64.52,113.66,64.51Zm-2.78,9.21,1.21.18h.22v-.4c0-.31,0-.46-.1-.45a2.37,2.37,0,0,0-1.31.61l0,0Zm.44-4a1.94,1.94,0,0,0,1,.31v-.54c0-.15,0-.23-.1-.23A1.27,1.27,0,0,0,111.32,69.71Z" fill="#ecf0f2"/><path d="M113.46,79.9a1.68,1.68,0,0,1-.43-.07h0a1,1,0,0,1-.82-.41,4.1,4.1,0,0,1-.72-2.2q0-.3-.06-.48a6.56,6.56,0,0,1-1.76-.43A4.67,4.67,0,0,1,108,75.12a1,1,0,0,1-.25-.71,3.57,3.57,0,0,1,1.38-2.73c-.15-.14-.31-.28-.48-.45a1,1,0,0,1-.33-.76,3.84,3.84,0,0,1,2.88-3.73l.45-.12c.24-1.68.71-3.09,2-3.14h.2a1.6,1.6,0,0,1,1.57,1.7l0,.21v.18c0,.28-.06.55-.1.83l1.06.25a.66.66,0,0,1,.2.06c.8.37,1.19.87,1.17,1.49v.28a1.72,1.72,0,0,1-1.64,1.66l-.34,0A1,1,0,0,1,116,71l-.06.5,0,.11a1,1,0,0,1-.21.83l-.07.08.38-.16.13,0h0a1,1,0,0,1,.27-.66,1.25,1.25,0,0,1,.78-.39c.08,0,.25,0,.34,0l.29.07a1.1,1.1,0,0,1,.81.34,2.16,2.16,0,0,1,.48,1.44c-.07,2.42-3,3.2-4.07,3.46,0,.29.07.66.14,1.17v.29a1.67,1.67,0,0,1-1.14,1.59,1.2,1.2,0,0,1-.63.26Zm-.81-5a1.1,1.1,0,0,1,.45.48,1.12,1.12,0,0,1,.35-.45,1.26,1.26,0,0,1-.37-.32A1,1,0,0,1,112.65,74.86ZM112.22,72a1.1,1.1,0,0,1,.71.27L113,72a1,1,0,0,1,.81-.72,1,1,0,0,1-.77-.54,1,1,0,0,1-.66.26,2,2,0,0,1-.53,0,1.06,1.06,0,0,1,.23.69A1,1,0,0,1,112,72l.17,0Zm.63-3.61a1.24,1.24,0,0,1,.18.14l.09.1.11-.21a1,1,0,0,1,.4-.4.61.61,0,0,1-.16-.12,1.09,1.09,0,0,1-.62.49Z" fill="#ecf0f2"/><path d="M127.15,70.4h0c.93,0,1.56.55,1.89,1.73a3.37,3.37,0,0,1,.12,1.05v.25a4.37,4.37,0,0,1-1.56,3.33,2.89,2.89,0,0,1-1.45.55h-.09c-1,0-1.62-.59-2-1.87a3.67,3.67,0,0,1-.12-1v-.15a8,8,0,0,1,.43-2.46,2.8,2.8,0,0,1,.68-.4,4.57,4.57,0,0,0,.52-.65A3,3,0,0,1,127.15,70.4Zm-1.36,2.39,0,.23-.09,1.36q0,1.16.45,1.14a2.27,2.27,0,0,0,1-1,2.68,2.68,0,0,0,.31-1.15v-.1a1.8,1.8,0,0,0-.56-1.41c-.3,0-.57.22-.83.63C125.93,72.69,125.84,72.78,125.79,72.79Z" fill="#ecf0f2"/><path d="M126.08,78.34c-.94,0-2.34-.37-3-2.62a5.3,5.3,0,0,1-.15-1.34v-.15a9.45,9.45,0,0,1,.49-2.76.85.85,0,0,1,.13-.25,2.19,2.19,0,0,1,.92-.66c0-.07.15-.21.28-.4a1,1,0,0,1,.25-.25,3.81,3.81,0,0,1,2.08-.53h0c.82,0,2.3.25,2.91,2.47a4.46,4.46,0,0,1,.16,1.36v.25a5.34,5.34,0,0,1-1.91,4.07l-.11.08a3.79,3.79,0,0,1-2,.72Z" fill="#ecf0f2"/><path d="M134.37,70.67h.14a.8.8,0,0,1,.77.43,19.6,19.6,0,0,0,.66,4.31,1.39,1.39,0,0,1,.36.9v.23a.47.47,0,0,1-.17.38h-.36c-.67,0-1.21-.64-1.62-2l-.18-.31a10.87,10.87,0,0,1-1.81,1.83h0l-.27,0a3.82,3.82,0,0,0-.73.28l-.14,0c-.39,0-.61-.43-.67-1.32v-.74a6.86,6.86,0,0,1,.94-3.48.89.89,0,0,1,.63-.39c.25,0,.51.17.77.54a10.54,10.54,0,0,1-.52,2,3.15,3.15,0,0,0-.1.78v.11a3.34,3.34,0,0,0,1.16-1.75c.47-1.19.78-1.79.94-1.8Z" fill="#ecf0f2"/><path d="M135.73,77.94a2.33,2.33,0,0,1-2.06-1.44,6.51,6.51,0,0,1-.95.82,1,1,0,0,1-.52.17,1.13,1.13,0,0,1-.26,0h0l-.39.17-.17.06-.14,0a.76.76,0,0,1-.21,0c-.6,0-1.59-.26-1.72-2.28v-.83a8,8,0,0,1,1.1-4l.1-.14a2,2,0,0,1,1.37-.74,1.8,1.8,0,0,1,1.24.52,1.22,1.22,0,0,1,1-.62l.12,0h.25a1.83,1.83,0,0,1,1.69.93,1,1,0,0,1,.14.46,19.6,19.6,0,0,0,.57,3.91,2.3,2.3,0,0,1,.45,1.39v.23a1.48,1.48,0,0,1-.55,1.14,1.07,1.07,0,0,1-.61.23h-.42ZM131.32,75l0,.38a.45.45,0,0,0,0,.12,1.27,1.27,0,0,1,.47-.1h0l.13-.13a.91.91,0,0,1-.5-.15A1,1,0,0,1,131.32,75ZM134,73.62h.09a1,1,0,0,1,.49.18c-.07-.46-.14-.94-.19-1.45l-.21.53c-.11.27-.21.52-.33.75Z" fill="#ecf0f2"/><path d="M141.47,62.89h.11a.86.86,0,0,1,.87.63,39.79,39.79,0,0,0-.7,5.58l0,1.22.38,0a10.55,10.55,0,0,0,2.66-.49l.38,0h.08c.42,0,.62.18.61.6,0,.62-.43,1-1.23,1.16a26.48,26.48,0,0,1-2.74.4s-.07.06-.19.06v.09l.12,1.79a1.54,1.54,0,0,1-.19.72,1,1,0,0,1,.17.68v.28c0,.65-.09,1-.22,1.06l-.7,0a.46.46,0,0,0-.3.21q-.72-.28-.66-2.46c0-1.29,0-1.93-.14-1.93-.16-.18-.73-.26-1.72-.23a.89.89,0,0,1-.93-.71v-.08a1.56,1.56,0,0,1,1.53-.82c.42,0,.63,0,.62.06s.25-.13.31-.38l.09-.06h.24l0-.37a54.61,54.61,0,0,1,.68-6.43A1.19,1.19,0,0,1,141.47,62.89Z" fill="#ecf0f2"/><path d="M140.47,77.84a.87.87,0,0,1-.32-.06c-1.25-.5-1.34-2.2-1.31-3.44,0-.52,0-.87,0-1.1a7.07,7.07,0,0,0-.81,0,1.89,1.89,0,0,1-1.93-1.42.9.9,0,0,1-.05-.36,1.52,1.52,0,0,1,.1-.47,2.52,2.52,0,0,1,2.43-1.42h.23l0,0a57.33,57.33,0,0,1,.67-6.29,1.18,1.18,0,0,1,.2-.46,2.18,2.18,0,0,1,1.71-.92h.11a1.86,1.86,0,0,1,1.86,1.26.93.93,0,0,1,.06.57,37.66,37.66,0,0,0-.68,5.42v.14a10.86,10.86,0,0,0,1.69-.39l.19,0,.38,0h.15a1.57,1.57,0,0,1,1.23.44,1.6,1.6,0,0,1,.44,1.22,2.19,2.19,0,0,1-2.06,2.13,15.43,15.43,0,0,1-2,.33l.06.95a3.23,3.23,0,0,1-.1.74,3,3,0,0,1,.09.75v.28c0,.82-.11,1.65-.83,2a1,1,0,0,1-.47.09l-.39,0A1.27,1.27,0,0,1,140.47,77.84Zm-.13-6.23.15.12a1.46,1.46,0,0,1,.16.19,1,1,0,0,1,.48-.76,1,1,0,0,1-.36-.44,1.15,1.15,0,0,1-.14.19,1,1,0,0,1-.38.26,1.06,1.06,0,0,1-.23.24A1.45,1.45,0,0,1,140.34,71.61Z" fill="#ecf0f2"/><path d="M151.34,63.73h.29c0,.15.11.27.34.36s.26.87.26,2.24l-.09,2.51v.32a10.8,10.8,0,0,0,1.21,4.77,1.76,1.76,0,0,1,.51,1l0,.19a3,3,0,0,1-.49.88H153c-.63,0-1.06-.4-1.29-1.27a3,3,0,0,0-.6-1,4,4,0,0,1-1.56,1.79,6.53,6.53,0,0,1-3.11.85,4.42,4.42,0,0,1-.66-.55,7,7,0,0,1-.11-1v-.17c0-.55.59-1.44,1.72-2.68A6.18,6.18,0,0,1,150,70.33a.52.52,0,0,0,.34-.49c-.13-2.28-.19-3.77-.17-4.47l0-.8.91-.74A.68.68,0,0,1,151.34,63.73Zm-3.86,10.82.24,0q1.17,0,2-2a1.24,1.24,0,0,0,.15-.46,3.52,3.52,0,0,0-1.91,1.55A3.77,3.77,0,0,0,147.48,74.55Z" fill="#ecf0f2"/><path d="M146.4,77.37a1,1,0,0,1-.62-.21c-.73-.55-1-.78-1.06-1.26a5.9,5.9,0,0,1-.11-1.12v-.17c0-.84.62-1.84,2-3.34a8.47,8.47,0,0,1,2.64-1.8c-.12-2-.17-3.43-.15-4.13l0-.8a1,1,0,0,1,.38-.76l.91-.75.12-.08a1.61,1.61,0,0,1,.77-.24h.3a1,1,0,0,1,.76.3.89.89,0,0,1,.16.22l0,0c.55.37.71,1,.71,3.08l-.11,2.86a9.87,9.87,0,0,0,1.07,4.2,2.57,2.57,0,0,1,.66,1.43V75a.76.76,0,0,1,0,.15,2.77,2.77,0,0,1-.66,1.41,1,1,0,0,1-.81.45H153a2.11,2.11,0,0,1-2.05-1.32,5.89,5.89,0,0,1-.85.68,7.52,7.52,0,0,1-3.66,1Zm4.67-4.68a1,1,0,0,1,.77.34l0,0a11.86,11.86,0,0,1-.69-2.62,1.48,1.48,0,0,1-.74.78h0a1,1,0,0,1,.42.87,1.72,1.72,0,0,1-.15.64l.18,0A.5.5,0,0,1,151.07,72.69Zm.09-7.62v.33c0,.35,0,.92,0,1.7l0-.82c0-.57,0-1,0-1.22Z" fill="#ecf0f2"/><path d="M158.1,69.37h0c.93,0,1.55.54,1.88,1.72a3.45,3.45,0,0,1,.12,1v.26a4.37,4.37,0,0,1-1.55,3.32,3,3,0,0,1-1.46.56H157c-1,0-1.62-.59-2-1.87a3.65,3.65,0,0,1-.11-1v-.15a8.33,8.33,0,0,1,.43-2.46,2.49,2.49,0,0,1,.68-.4,3.92,3.92,0,0,0,.52-.65A2.92,2.92,0,0,1,158.1,69.37Zm-1.36,2.39,0,.23-.09,1.35c0,.77.18,1.16.45,1.15a2.19,2.19,0,0,0,1-1,2.66,2.66,0,0,0,.32-1.14v-.1a1.8,1.8,0,0,0-.55-1.41,1.12,1.12,0,0,0-.84.62A1,1,0,0,1,156.74,71.76Z" fill="#ecf0f2"/><path d="M157,77.3c-.93,0-2.33-.37-3-2.61a5.35,5.35,0,0,1-.15-1.34V73.2a9.45,9.45,0,0,1,.48-2.77.94.94,0,0,1,.13-.24,2.11,2.11,0,0,1,.92-.66l.29-.41a1.36,1.36,0,0,1,.24-.24,3.83,3.83,0,0,1,2.09-.53h0c.8,0,2.3.26,2.92,2.48a4.37,4.37,0,0,1,.15,1.35v.26a5.38,5.38,0,0,1-1.92,4.07l-.11.08a3.88,3.88,0,0,1-2,.72Z" fill="#ecf0f2"/><path d="M164.31,69.16h0c.93,0,1.56.54,1.89,1.73a3.11,3.11,0,0,1,.11,1v.25a4.33,4.33,0,0,1-1.56,3.32,3,3,0,0,1-1.45.56h-.1c-.95,0-1.61-.59-2-1.87a4.06,4.06,0,0,1-.11-1V73a8.33,8.33,0,0,1,.43-2.46,3,3,0,0,1,.69-.4,4.11,4.11,0,0,0,.51-.65A3.05,3.05,0,0,1,164.31,69.16ZM163,71.55v.23l-.08,1.35c0,.78.17,1.16.44,1.15a2.29,2.29,0,0,0,1-1,2.72,2.72,0,0,0,.31-1.15v-.1a1.76,1.76,0,0,0-.55-1.41,1.11,1.11,0,0,0-.84.63A1,1,0,0,1,163,71.55Z" fill="#ecf0f2"/><path d="M163.25,77.09c-.94,0-2.34-.37-3-2.61a4.49,4.49,0,0,1-.15-1.33V73a9,9,0,0,1,.49-2.76.75.75,0,0,1,.13-.25,2.12,2.12,0,0,1,.91-.66c0-.07.16-.21.29-.4a.82.82,0,0,1,.25-.24,3.67,3.67,0,0,1,2.08-.54h0c.81,0,2.3.25,2.91,2.47a4.35,4.35,0,0,1,.16,1.35v.26a5.37,5.37,0,0,1-1.91,4.07l-.11.08a3.88,3.88,0,0,1-2,.72Z" fill="#ecf0f2"/><path d="M172.91,67.49H173c.56,0,.84.11.83.37a1.09,1.09,0,0,0,.28.62v.06a8.13,8.13,0,0,0-3.62,4.28,8.79,8.79,0,0,0-.58,2.5,3.42,3.42,0,0,1-1.1.43c0-.22-.21-.43-.65-.63,0-.31-.21-1.6-.65-3.85a5.64,5.64,0,0,1-.12-1.42v-.4c.09-.32.37-.51.83-.57h.08c.55,0,.87.38,1,1.2v.14l0,.31a20.55,20.55,0,0,0,1.84-2A2.88,2.88,0,0,1,172.91,67.49Z" fill="#ecf0f2"/><path d="M168.8,76.77a1,1,0,0,1-.72-.3,1,1,0,0,1-.24-.37l-.11,0a1,1,0,0,1-.61-1,35.58,35.58,0,0,0-.63-3.63,8,8,0,0,1-.14-1.64l0-.4a.84.84,0,0,1,0-.27,1.86,1.86,0,0,1,1.66-1.29h.24a1.85,1.85,0,0,1,1.42.64c.17-.2.36-.41.55-.65a4,4,0,0,1,2.59-1.37H173a2,2,0,0,1,1.51.46,1.28,1.28,0,0,1,.38.8.33.33,0,0,0,0,.08.81.81,0,0,1,.26.72,1.1,1.1,0,0,1-.52.9,7.06,7.06,0,0,0-3.16,3.77,7.25,7.25,0,0,0-.52,2.15,1,1,0,0,1-.55.88,3.75,3.75,0,0,1-1.53.55Zm-.25-5.49c.26,1.34.41,2.2.5,2.76a14.64,14.64,0,0,1,.47-1.58,11.28,11.28,0,0,1,.74-1.52c-.12.12-.24.24-.35.33a1,1,0,0,1-1.15.16A.8.8,0,0,1,168.55,71.28Z" fill="#ecf0f2"/><path d="M68.05,64.39h.16c.33,0,.51.2.55.63v.06a14.86,14.86,0,0,1-.37,1.52,25.37,25.37,0,0,0-.49,3.81v.2l0,.11,0,.12v.25a8.72,8.72,0,0,0,.17,1.85,3.87,3.87,0,0,1,3-1.58,13.56,13.56,0,0,1,2.37.23,4.48,4.48,0,0,1,.26,1.56v.14A6.38,6.38,0,0,1,70.93,78a5.4,5.4,0,0,1-2.79,1H68a2.27,2.27,0,0,1-1.71-.8,4.61,4.61,0,0,1-.18-1.33l.14-1.86-.06-3.79v-.34a50,50,0,0,1,.7-5.38C67.1,64.79,67.49,64.41,68.05,64.39Zm.18,12.67h0q3.38-.68,3.45-3.07l0-.43a5.07,5.07,0,0,0-.94-.08c-1.07,0-1.8.71-2.2,2A9.34,9.34,0,0,0,68.23,77.06Z" fill="#878787"/><path d="M76.05,70.32c.36,0,.54.08.53.27a23.07,23.07,0,0,1,.21,4l0,.83-.14,3.08a1.7,1.7,0,0,1-.66.28l-.22.23h0c-.16,0-.3-.11-.42-.35,0,.11,0,.17-.06.17-.27-.24-.39-.79-.36-1.64l.34-3.52c0-.49,0-1.2,0-2.1S75.53,70.34,76.05,70.32Zm0-2.91h.16c.46,0,.73.1.83.34l.07.31v0c0,.39-.39.65-1.13.81h-.19c-.54,0-.81-.19-.8-.48l0-.12v-.17A1.06,1.06,0,0,1,76.08,67.41Z" fill="#878787"/><path d="M80.53,63.53h.11c.38,0,.57.1.56.24a21.52,21.52,0,0,1,.06,2.62v.28a35.28,35.28,0,0,1-.33,4l3.15-1.16.84-.14a1.24,1.24,0,0,1,.94.28,2.65,2.65,0,0,0-.1.74l0,0a6,6,0,0,1-2.06,1,14.24,14.24,0,0,0-2.13.76,5,5,0,0,0-.69.47v.06c.14.32.62.61,1.43.87a3,3,0,0,1,1.34.66h.22a2,2,0,0,1,.71.37,7.26,7.26,0,0,1,2.59,1.45v0c-.06,0-.11.21-.16.63-.08.18-.28.27-.6.28l-.38.16c-2-.93-3.35-1.54-4-1.81a8.38,8.38,0,0,0-1.12-.33,2.31,2.31,0,0,0-.19.92v.14l0,1.85a1.12,1.12,0,0,1-.29.84.65.65,0,0,0-.15.26l0,0v0l0,0v0l0,0h-.13l-.28.35-.11,0q-.51-.1-.51-.21v0L79.3,79h-.13v.26l-.08.09a4.1,4.1,0,0,1-.22-1.73L79,75v-.71l-.82-.57v0l0-.34-.1-.43c0-.26.36-.62,1.06-1.08q.18,0,.44-6.72c.06-.82.13-1.23.19-1.23A1.45,1.45,0,0,1,80.53,63.53Z" fill="#878787"/><path d="M90.42,70.21c.94,0,1.69.59,2.24,1.86a3.64,3.64,0,0,1,.14.94c0,1-.75,1.75-2.18,2.38v0a1.54,1.54,0,0,0,1.43,1c.82,0,1.71-.75,2.69-2.17.58-.68,1-1,1.33-1h.05l.06,0v.29l0,.11a.13.13,0,0,0,.1.11c.12,0,.2-.11.25-.32h.06v0a3.79,3.79,0,0,1-.86,1.62,2.81,2.81,0,0,0-.21.58c-.25.06-.38.17-.38.32a4.5,4.5,0,0,1-2.31,1.93A2.8,2.8,0,0,1,92,78h-.27c-1.33,0-2.61-.92-3.84-2.89v-.06l-.07-2.25v-.22a1.82,1.82,0,0,1,.92-1.8A3.69,3.69,0,0,1,90.42,70.21ZM89.5,73a1.31,1.31,0,0,0,.42,1.18,2,2,0,0,0,1-.55A1.71,1.71,0,0,0,91,73.1a1.08,1.08,0,0,0-.7-1.17l-.21,0q-.41,0-.42.3A1.87,1.87,0,0,0,89.5,73Z" fill="#878787"/><path d="M99,70.49h.22c.66,0,1,.14,1.07.47a2.21,2.21,0,0,1,.17.63,1.47,1.47,0,0,1-.85.51c-1.31.26-2,.47-2,.63a2.31,2.31,0,0,0,1.44.79,14.82,14.82,0,0,1,2.92.86,1.52,1.52,0,0,1,.8,1.4c0,1-.87,1.68-2.54,2.06a7.86,7.86,0,0,1-1.35.18c-1.68-.07-2.51-.24-2.5-.53a.93.93,0,0,1-.24-.68v-.15a1.43,1.43,0,0,1,.58-1,5.3,5.3,0,0,0,2.35.64,1.9,1.9,0,0,0,1.3-.53v0a11.47,11.47,0,0,0-2.78-.85c-1.35-.38-2-.89-2-1.5v-.1A2.65,2.65,0,0,1,97.36,71,3.82,3.82,0,0,1,99,70.49Z" fill="#878787"/><path d="M113.66,64.51h.19c.31,0,.48.24.52.75l0,.23a12.76,12.76,0,0,1-.26,1.66c.29.09,1,.26,2,.5.39.18.59.36.58.53v.28c0,.39-.26.61-.75.68h-.3a9.36,9.36,0,0,1-1.53-.2,1,1,0,0,0-.18.51v.86a1.54,1.54,0,0,1,1.07.56l-.07.66,0,.25q-.27,0-.63.45a.43.43,0,0,1-.25.1H114a2.09,2.09,0,0,0-.1.6v.23a3.83,3.83,0,0,0,.06.85H114a8.07,8.07,0,0,0,2.48-.71c.42-.07.63-.19.63-.33s.09-.15.12-.43v-.2l.06-.06h.08l.43.1.11,0a1.12,1.12,0,0,1,.24.76v.12c0,1-1.13,1.83-3.31,2.39l-.82.11v0q0,.3.21,2.13V78a.64.64,0,0,1-.53.68c-.07,0-.15.06-.25.17h-.11l-.29-.28c0,.14,0,.2-.08.2a3.13,3.13,0,0,1-.52-1.66c-.08-.91-.21-1.36-.37-1.35a6.76,6.76,0,0,1-2.07-.42,3.53,3.53,0,0,1-1.25-.93c0-1.18.79-2.08,2.27-2.72v0a4.16,4.16,0,0,1-1.7-1.2v-.11a2.83,2.83,0,0,1,2.19-2.67l1-.29C112.8,65.49,113.16,64.52,113.66,64.51Zm-2.78,9.21,1.21.18h.22v-.4c0-.31,0-.46-.1-.45a2.37,2.37,0,0,0-1.31.61l0,0Zm.44-4a1.94,1.94,0,0,0,1,.31v-.54c0-.15,0-.23-.1-.23A1.27,1.27,0,0,0,111.32,69.71Z" fill="#878787"/><path d="M127.15,70.4h0c.93,0,1.56.55,1.89,1.73a3.37,3.37,0,0,1,.12,1.05v.25a4.37,4.37,0,0,1-1.56,3.33,2.89,2.89,0,0,1-1.45.55h-.09c-1,0-1.62-.59-2-1.87a3.67,3.67,0,0,1-.12-1v-.15a8,8,0,0,1,.43-2.46,2.8,2.8,0,0,1,.68-.4,4.57,4.57,0,0,0,.52-.65A3,3,0,0,1,127.15,70.4Zm-1.36,2.39,0,.23-.09,1.36q0,1.16.45,1.14a2.27,2.27,0,0,0,1-1,2.68,2.68,0,0,0,.31-1.15v-.1a1.8,1.8,0,0,0-.56-1.41c-.3,0-.57.22-.83.63C125.93,72.69,125.84,72.78,125.79,72.79Z" fill="#878787"/><path d="M134.37,70.67h.14a.8.8,0,0,1,.77.43,19.6,19.6,0,0,0,.66,4.31,1.39,1.39,0,0,1,.36.9v.23a.47.47,0,0,1-.17.38h-.36c-.67,0-1.21-.64-1.62-2l-.18-.31a10.87,10.87,0,0,1-1.81,1.83h0l-.27,0a3.82,3.82,0,0,0-.73.28l-.14,0c-.39,0-.61-.43-.67-1.32v-.74a6.86,6.86,0,0,1,.94-3.48.89.89,0,0,1,.63-.39c.25,0,.51.17.77.54a10.54,10.54,0,0,1-.52,2,3.15,3.15,0,0,0-.1.78v.11a3.34,3.34,0,0,0,1.16-1.75c.47-1.19.78-1.79.94-1.8Z" fill="#878787"/><path d="M141.47,62.89h.11a.86.86,0,0,1,.87.63,39.79,39.79,0,0,0-.7,5.58l0,1.22.38,0a10.55,10.55,0,0,0,2.66-.49l.38,0h.08c.42,0,.62.18.61.6,0,.62-.43,1-1.23,1.16a26.48,26.48,0,0,1-2.74.4s-.07.06-.19.06v.09l.12,1.79a1.54,1.54,0,0,1-.19.72,1,1,0,0,1,.17.68v.28c0,.65-.09,1-.22,1.06l-.7,0a.46.46,0,0,0-.3.21q-.72-.28-.66-2.46c0-1.29,0-1.93-.14-1.93-.16-.18-.73-.26-1.72-.23a.89.89,0,0,1-.93-.71v-.08a1.56,1.56,0,0,1,1.53-.82c.42,0,.63,0,.62.06s.25-.13.31-.38l.09-.06h.24l0-.37a54.61,54.61,0,0,1,.68-6.43A1.19,1.19,0,0,1,141.47,62.89Z" fill="#878787"/><path d="M151.34,63.73h.29c0,.15.11.27.34.36s.26.87.26,2.24l-.09,2.51v.32a10.8,10.8,0,0,0,1.21,4.77,1.76,1.76,0,0,1,.51,1l0,.19a3,3,0,0,1-.49.88H153c-.63,0-1.06-.4-1.29-1.27a3,3,0,0,0-.6-1,4,4,0,0,1-1.56,1.79,6.53,6.53,0,0,1-3.11.85,4.42,4.42,0,0,1-.66-.55,7,7,0,0,1-.11-1v-.17c0-.55.59-1.44,1.72-2.68A6.18,6.18,0,0,1,150,70.33a.52.52,0,0,0,.34-.49c-.13-2.28-.19-3.77-.17-4.47l0-.8.91-.74A.68.68,0,0,1,151.34,63.73Zm-3.86,10.82.24,0q1.17,0,2-2a1.24,1.24,0,0,0,.15-.46,3.52,3.52,0,0,0-1.91,1.55A3.77,3.77,0,0,0,147.48,74.55Z" fill="#878787"/><path d="M158.1,69.37h0c.93,0,1.55.54,1.88,1.72a3.45,3.45,0,0,1,.12,1v.26a4.37,4.37,0,0,1-1.55,3.32,3,3,0,0,1-1.46.56H157c-1,0-1.62-.59-2-1.87a3.65,3.65,0,0,1-.11-1v-.15a8.33,8.33,0,0,1,.43-2.46,2.49,2.49,0,0,1,.68-.4,3.92,3.92,0,0,0,.52-.65A2.92,2.92,0,0,1,158.1,69.37Zm-1.36,2.39,0,.23-.09,1.35c0,.77.18,1.16.45,1.15a2.19,2.19,0,0,0,1-1,2.66,2.66,0,0,0,.32-1.14v-.1a1.8,1.8,0,0,0-.55-1.41,1.12,1.12,0,0,0-.84.62A1,1,0,0,1,156.74,71.76Z" fill="#878787"/><path d="M164.31,69.16h0c.93,0,1.56.54,1.89,1.73a3.11,3.11,0,0,1,.11,1v.25a4.33,4.33,0,0,1-1.56,3.32,3,3,0,0,1-1.45.56h-.1c-.95,0-1.61-.59-2-1.87a4.06,4.06,0,0,1-.11-1V73a8.33,8.33,0,0,1,.43-2.46,3,3,0,0,1,.69-.4,4.11,4.11,0,0,0,.51-.65A3.05,3.05,0,0,1,164.31,69.16ZM163,71.55v.23l-.08,1.35c0,.78.17,1.16.44,1.15a2.29,2.29,0,0,0,1-1,2.72,2.72,0,0,0,.31-1.15v-.1a1.76,1.76,0,0,0-.55-1.41,1.11,1.11,0,0,0-.84.63A1,1,0,0,1,163,71.55Z" fill="#878787"/><path d="M172.91,67.49H173c.56,0,.84.11.83.37a1.09,1.09,0,0,0,.28.62v.06a8.13,8.13,0,0,0-3.62,4.28,8.79,8.79,0,0,0-.58,2.5,3.42,3.42,0,0,1-1.1.43c0-.22-.21-.43-.65-.63,0-.31-.21-1.6-.65-3.85a5.64,5.64,0,0,1-.12-1.42v-.4c.09-.32.37-.51.83-.57h.08c.55,0,.87.38,1,1.2v.14l0,.31a20.55,20.55,0,0,0,1.84-2A2.88,2.88,0,0,1,172.91,67.49Z" fill="#878787"/></g></g></svg>