<svg xmlns="http://www.w3.org/2000/svg" viewBox="0 0 779.96 268.15"><g id="bfc15fab-d7c2-4819-ac47-6503f4273a42" data-name="Capa 2"><g id="ff45b70d-9783-4a20-a705-bb0a7e4690c0" data-name="Capa 1"><rect y="109.9" width="42.7" height="158.24" fill="#878787"/><path d="M136.39,109.9H66.81V268.15h42.45V218.67h27.13c41.19,0,65.55-19.6,65.55-54.51S177.58,109.9,136.39,109.9Zm-2,74.61H109.26V144.07h25.12c19.09,0,26.37,7,26.37,20.34S153.47,184.51,134.38,184.51Z" fill="#878787"/><polygon points="258.45 109.91 215.75 109.91 215.75 268.15 340.34 268.15 340.34 232.98 258.45 232.98 258.45 109.91" fill="#878787"/><polygon points="355.15 268.15 479.74 268.15 479.74 232.98 397.1 232.98 397.1 205.6 459.14 205.6 459.14 170.94 397.1 170.94 397.1 145.07 479.74 145.07 479.74 109.91 355.15 109.91 355.15 268.15" fill="#878787"/><path d="M626.55,231.73c-1.76-18.09-28.54-32.06-46.85-30.9,19.09-2.26,52.87-7.66,52.87-40.69,0-30.89-20.34-50.24-61.28-50.24H498.82V268.15h41.95v-52.5h21c14.32,0,22.11,4,23.36,22.11,1.26,16.32,3.27,26.12,6.53,30.39h43.21c-2.77-2.77-4.53-6.78-5.28-11.56S627.8,243.53,626.55,231.73Zm-62.8-49h-23V144.06h23c18.09,0,27.13,6.79,27.13,19.6C590.88,178,581.84,182.75,563.75,182.75Z" fill="#878787"/><path d="M780,23.11V0C690.38,0,655.63,42.33,655.61,118.31,655.6,42.33,620.85,0,531.27,0V23.11C614.34,25.24,652,54.82,655.61,123.85h0a42.56,42.56,0,0,0-4.11-15.19c-12.57-31.54-51.23-54.51-97-54.51a132.55,132.55,0,0,0-23.25,2.06V85a112.85,112.85,0,0,1,30.47-4.15c42.4,0,78.21,23,89.87,54.51a47.24,47.24,0,0,1,4,19.81v0h0v0a47.4,47.4,0,0,1,4-19.81c11.65-31.54,47.47-54.51,89.87-54.51A112.85,112.85,0,0,1,780,85V56.21a132.55,132.55,0,0,0-23.25-2.06c-45.75,0-84.41,23-97,54.51a42.77,42.77,0,0,0-4.12,15.19h0C659.19,54.82,696.89,25.24,780,23.11ZM655.61,123.85Z" fill="#878787"/></g></g></svg>