<svg xmlns="http://www.w3.org/2000/svg" viewBox="0 0 119.59 96.07"><g id="b21109b5-0bd4-42f3-a9ab-3be0558bf373" data-name="Capa 2"><g id="ab917a4c-fae3-4665-be54-cdb15459e662" data-name="Capa 1"><path d="M11.9,14.61c0-3.08,0-6.16,0-9.24,0-2.35.65-3.29,2.93-4C18.53.11,22.38-.7,26.06.86a6,6,0,0,0,5.13.05c6-2.37,12,.29,13.72,5.83a9.59,9.59,0,0,1,.49,2.69c.05,4.91,0,9.82,0,14.74a2.59,2.59,0,0,1-2.57,2.91c-1.77.07-2.81-1-2.82-2.95,0-4.64-.05-9.28,0-13.93,0-2.07-.58-3.74-2.5-4.68s-3.89-.31-5.72.58c-.7.34-.53,1-.53,1.56,0,5.4,0,10.8,0,16.19,0,2.24-.85,3.25-2.68,3.23S26,26,26,23.91c0-4.86,0-9.72,0-14.57,0-3.11-1.19-4.29-4.32-4.29-4.09,0-4.36.26-4.36,4.33q0,7.21,0,14.41c0,2.21-.89,3.29-2.67,3.29s-2.7-1-2.7-3.24C11.89,20.76,11.9,17.68,11.9,14.61Z" fill="#878787" fill-rule="evenodd"/><path d="M60.35,16.21c-1.73,0-3.45,0-5.18,0-.87,0-1.1.34-1.08,1.16.08,3.46,2.59,5.37,6.35,4.74a17.92,17.92,0,0,0,3.86-1.17,2.56,2.56,0,1,1,2,4.7,16,16,0,0,1-10.58,1.07,9.24,9.24,0,0,1-7-8.74c-.1-2.85-.11-5.72,0-8.57A9.54,9.54,0,0,1,58.31.13C64.38,0,68.63,3.46,69.15,8.91a16.32,16.32,0,0,1,.07,4.19A3.31,3.31,0,0,1,66,16.16a4.22,4.22,0,0,1-.49,0Zm-1.29-5H63c.46,0,.91.12,1-.68a5,5,0,0,0-4.74-5.46,4.76,4.76,0,0,0-5.09,5.21c0,.68.23,1,.94.94C56.36,11.17,57.71,11.19,59.06,11.2Z" fill="#878787" fill-rule="evenodd"/><path d="M102.77,13.62a23.15,23.15,0,0,1-.43,6.1A10.28,10.28,0,0,1,91.25,27.2c-5.89-.53-9.54-3.94-10-9.69A36.51,36.51,0,0,1,81.35,9c.9-5.82,5.4-9.21,11.58-8.79a10.13,10.13,0,0,1,9.83,10.22C102.79,11.46,102.77,12.54,102.77,13.62Zm-16.19.05h0c0,1.34-.09,2.69,0,4,.22,2.95,2.3,4.58,5.59,4.51,3-.06,5-1.83,5.1-4.69q.14-3.72,0-7.43a5.12,5.12,0,0,0-5.41-5c-3.15,0-5.17,1.87-5.32,4.89C86.53,11.18,86.58,12.43,86.58,13.67Z" fill="#878787" fill-rule="evenodd"/><path d="M77.87,16.42c0,4.2,0,8.42,0,12.62a10,10,0,0,1-7.16,9.87c-2.18.57-3.77-.28-3.92-2.1a2.41,2.41,0,0,1,1.65-2.66c3.22-1.29,4-2.48,4-5.94,0-8.1,0-16.19,0-24.27a7.83,7.83,0,0,1,.1-1.61A2.65,2.65,0,0,1,75.54.15,2.68,2.68,0,0,1,77.86,3C77.89,7.47,77.87,12,77.87,16.42Z" fill="#878787" fill-rule="evenodd"/><path d="M111.24,16.19c0,2.64,0,5.28,0,7.93,0,1.89-1,3-2.55,3.09a2.7,2.7,0,0,1-2.79-2.92c-.08-3.89-.05-7.77,0-11.65,0-1.94,0-3.89.14-5.81A7.34,7.34,0,0,1,113.12.14a17.14,17.14,0,0,1,4.17.38,2.63,2.63,0,0,1,2.25,3,2.58,2.58,0,0,1-3.16,2c-4.84-.72-5.14-.46-5.14,4.46Z" fill="#878787" fill-rule="evenodd"/><path d="M7.07,39.07H4.64c-1.43,0-1.7.39-1.19,1.75a2.62,2.62,0,0,0,3.14,1.67,25.73,25.73,0,0,0,2.78-.8,1.49,1.49,0,0,1,1.32,2.62c-2.45,2-7.6,1.37-9.47-1.09C-.39,41.1-.41,34.16,1.18,32a6.39,6.39,0,0,1,7.76-1.62,6.46,6.46,0,0,1,3,7.23,2,2,0,0,1-2.25,1.42C8.8,39.05,7.94,39.07,7.07,39.07Zm-1-2.93H8.17c.45,0,.74-.12.67-.65-.16-1.17-.52-2.24-1.78-2.62a2.72,2.72,0,0,0-3.31,1,2.15,2.15,0,0,0-.39,2c.27.66,1,.24,1.59.32A6.08,6.08,0,0,0,6.08,36.14Z" fill="#878787" fill-rule="evenodd"/><path d="M14.09,38V32.7a2.1,2.1,0,0,1,1.53-2.2,12.39,12.39,0,0,1,4.93-.72,5.57,5.57,0,0,1,5.48,6c0,2.59,0,5.18,0,7.77,0,1.07-.37,1.86-1.49,1.9s-1.65-.79-1.64-1.92c0-2.54,0-5.07,0-7.6A3.41,3.41,0,0,0,17.72,33c-.58.31-.43.81-.43,1.27,0,3,0,5.92,0,8.89,0,1.18-.18,2.31-1.62,2.27s-1.6-1.18-1.58-2.35C14.1,41.38,14.09,39.71,14.09,38Z" fill="#878787" fill-rule="evenodd"/><path d="M19.18,70.89c0-6.41,0-12.84,0-19.26a3.33,3.33,0,0,1,2.43-3.42,3.44,3.44,0,0,1,3.84,1.39A3.73,3.73,0,0,1,26,51.9c0,3.08,0,6.16,0,9.23,0,1.12.19,1.43,1.34,1a14.63,14.63,0,0,1,8.86-.86c5.22,1.15,8.7,5,9.41,10.82a51.16,51.16,0,0,1,0,12.61c-1,7.48-6.93,11.9-14.62,11.24a35.86,35.86,0,0,1-8.4-1.55c-2.42-.8-3.4-2.13-3.41-4.67Q19.17,80.29,19.18,70.89ZM26,79.09c0,2.81,0,5.61,0,8.42,0,.93.26,1.32,1.22,1.48A28.06,28.06,0,0,0,33,89.5c3.33-.17,5.38-1.93,5.74-5.24a55.72,55.72,0,0,0,0-11.62c-.38-3.59-3-5.61-6.61-5.38a10.84,10.84,0,0,0-5,1.63A2,2,0,0,0,26,70.83C26.08,73.58,26,76.34,26,79.09Z" fill="#878787" fill-rule="evenodd"/><path d="M67.45,78.38c0,1.78-.07,3.56,0,5.34.2,3.85,3.06,6.16,6.9,5.71A19.07,19.07,0,0,0,80,87.91c2-.91,3.85-.33,4.67,1.41s0,3.58-1.91,4.52a19.3,19.3,0,0,1-12,1.79c-5.7-1-9.59-5.17-10.2-11.39a53.65,53.65,0,0,1,.12-12.6A12.55,12.55,0,0,1,74.43,60.92a24.18,24.18,0,0,1,8,1.83c2.18,1,3.06,2.86,2.24,4.65S82,69.69,79.81,68.79c-2.47-1-5-1.85-7.68-1.32a5.35,5.35,0,0,0-4.63,5.08c-.12,1.94,0,3.89,0,5.83Z" fill="#878787" fill-rule="evenodd"/><path d="M88.56,78.39V64.79c0-2.37,1.3-3.82,3.4-3.84s3.44,1.41,3.44,3.79q0,13.68,0,27.36c0,2.34-1.42,3.84-3.47,3.8S88.56,94.32,88.56,92Z" fill="#878787" fill-rule="evenodd"/><path d="M56.53,78.48c0,4.53,0,9.06,0,13.59,0,2.28-1.29,3.78-3.25,3.84s-3.59-1.53-3.6-3.91V64.82c0-2.44,1.4-3.91,3.58-3.87s3.27,1.43,3.27,3.94C56.54,69.42,56.53,74,56.53,78.48Z" fill="#878787" fill-rule="evenodd"/><path d="M105.42,88.65a3.69,3.69,0,0,1,1.22.82,3.84,3.84,0,0,1,.82,1.23,4.13,4.13,0,0,1,0,3,3.91,3.91,0,0,1-.82,1.22,3.83,3.83,0,0,1-1.22.81,4,4,0,0,1-3,0,4,4,0,0,1-1.23-.81,4.06,4.06,0,0,1-.81-1.22,4,4,0,0,1,0-3,4,4,0,0,1,.81-1.23,4,4,0,0,1,4.28-.82Zm-2.83.51a3.27,3.27,0,0,0-1,.71,3.22,3.22,0,0,0-.68,1,3.48,3.48,0,0,0,0,2.59,3.22,3.22,0,0,0,.68,1,3.19,3.19,0,0,0,2.33,1,3.2,3.2,0,0,0,1.29-.26,3.31,3.31,0,0,0,1-.71,3.22,3.22,0,0,0,.68-1,3.48,3.48,0,0,0,0-2.59,3.22,3.22,0,0,0-.68-1,3.31,3.31,0,0,0-1-.71,3.2,3.2,0,0,0-1.29-.26A3.28,3.28,0,0,0,102.59,89.16Zm-.1,5.29V90h1.71a1.62,1.62,0,0,1,1.11.32,1.19,1.19,0,0,1,.35.92,1.36,1.36,0,0,1-.09.51,1.05,1.05,0,0,1-.25.37,1,1,0,0,1-.35.23,1.64,1.64,0,0,1-.43.13l1.32,2h-.64l-1.25-2H103v2ZM104.26,92a1.36,1.36,0,0,0,.43-.09.53.53,0,0,0,.3-.23.72.72,0,0,0,.12-.44.67.67,0,0,0-.33-.62.92.92,0,0,0-.34-.12,2.38,2.38,0,0,0-.39,0h-1V92h.73Z" fill="#878787"/><path d="M53.18,56.92A11.66,11.66,0,0,1,53,33.61a11.66,11.66,0,1,1,.17,23.31Z" fill="#878787" fill-rule="evenodd"/><path d="M103.55,45.31a11.59,11.59,0,1,1-23.18,0,11.59,11.59,0,1,1,23.18,0Z" fill="#878787" fill-rule="evenodd"/></g></g></svg>