<svg xmlns="http://www.w3.org/2000/svg" viewBox="0 0 88.66 97.89"><g id="b584a458-8473-4d9b-bba1-557ac7489a8c" data-name="Capa 2"><g id="f37a9cac-f9f9-453a-bb83-f8a197b80053" data-name="Capa 1"><path d="M19.93,97.89H0L20.78,0H40.71ZM79.72,68.76q-2.94,13.9-13.06,21.52T39.25,97.89H32.81l4.11-19.64h6.3q8.06,0,11.44-1.9c2.92-1.64,4.86-4.93,5.84-9.81a35.41,35.41,0,0,0,9.09-2.19q4.26-1.87,10.71-7.6c.08,1.07.19,2,.31,2.79v1.89a33.77,33.77,0,0,1-.89,7.33m8-39.72c-2,9.1-6,16.18-12,21.27q-10.23,8.63-27.69,8.63H41.18l4.08-19.65h8.37a19.62,19.62,0,0,0,9.1-1.78q4.38-2.34,5.72-8.35a23.93,23.93,0,0,0,.28-2.78,5.28,5.28,0,0,0-2.64-4.83c-1.86-1.08-5.09-1.61-9.67-1.61h-6.9L53.78,0h4.69Q72.79,0,80.3,4.7,88.66,10,88.66,21.28A38.5,38.5,0,0,1,87.77,29" fill="#878787"/></g></g></svg>