<svg xmlns="http://www.w3.org/2000/svg" viewBox="0 0 203.01 133.3"><g id="b614d019-93bf-41da-858a-8efac81148d8" data-name="Capa 2"><g id="e8227d7a-c72c-458d-8af7-37f54898dcab" data-name="Capa 1"><path d="M125.51,72.08a4.9,4.9,0,0,1-1,.34l.9,1.65c3.93.24,5.9.39,9.83.72l.89-1.53a5.51,5.51,0,0,1-.95-.47,3.37,3.37,0,0,1-.58-.7V31.87a2.52,2.52,0,0,1,.58-.6,5.09,5.09,0,0,1,.95-.32c-.35-.67-.53-1-.89-1.67-3.93-.3-5.9-.43-9.83-.63l-.9,1.55a5.39,5.39,0,0,1,1,.44,5.55,5.55,0,0,1,.66.73v40A3.44,3.44,0,0,1,125.51,72.08Z" fill="#878787"/><path d="M40,76a4.52,4.52,0,0,1-.95-.24,2,2,0,0,1-.52-.48V48.08c2.93,4.49,4.41,6.75,7.35,11.31,2.94-5.67,4.41-8.5,7.36-14.14v28h0a4.22,4.22,0,0,1-.64.79,5.63,5.63,0,0,1-.95.5c.36.59.54.88.89,1.47,3.93-.45,5.89-.65,9.82-1,.36-.66.53-1,.89-1.66a4.59,4.59,0,0,1-.95-.3,2.65,2.65,0,0,1-.58-.58V32.82a3.6,3.6,0,0,1,.58-.69,5.82,5.82,0,0,1,.95-.48c-.35-.6-.53-.9-.89-1.5-3.93.4-5.89.62-9.81,1.1l-.9,1.69a4.55,4.55,0,0,1,.95.27,4.11,4.11,0,0,1,.67.59v3.5l-3.58,6.3c-2.85-4.47-4.28-6.69-7.13-11.09-3.47.52-5.2.79-8.66,1.38L33,35.61a4.3,4.3,0,0,1,1,.23,2.19,2.19,0,0,1,.6.57h0V75.74h-.06a3.74,3.74,0,0,1-.63.83,6.21,6.21,0,0,1-.94.53l.88,1.43c2.13-.34,3.19-.51,5.32-.82Z" fill="#878787"/><path d="M94.89,70.61a3.09,3.09,0,0,1-.63.74,5.32,5.32,0,0,1-1,.4l.89,1.58c4,0,5.92-.06,9.86,0l.9-1.59a5,5,0,0,1-1-.4,3.11,3.11,0,0,1-.58-.64V55.57l1.54-2q3,8.72,6,17.42a2.57,2.57,0,0,1-.46.47,5.45,5.45,0,0,1-1,.36c.35.65.53,1,.89,1.62,3.83.1,5.75.17,9.57.35h0l.89-1.56a5.43,5.43,0,0,1-1-.43,3.18,3.18,0,0,1-.6-.72h0q-4.81-13-9.7-25.93,4.16-7.16,8.33-14.31a3.1,3.1,0,0,1,1.08-.69A3.27,3.27,0,0,1,120.3,30l-.89-1.63h0c-3-.12-4.51-.16-7.51-.21L111,29.7a3.8,3.8,0,0,1,1.88.19,6.46,6.46,0,0,1,.54.41q-5,8.54-10,17.07V30.71a2.88,2.88,0,0,1,.58-.64,4.79,4.79,0,0,1,1-.39l-.9-1.6c-3.94,0-5.91,0-9.85.12l-.9,1.61a5.76,5.76,0,0,1,1,.36,5.49,5.49,0,0,1,.66.67V70.61Z" fill="#878787"/><path d="M163.31,34.27a4.33,4.33,0,0,1,.95-.26c-.35-.7-.53-1-.89-1.74-2.12-.31-3.19-.46-5.32-.73L157.16,33a5.47,5.47,0,0,1,1,.52,3.59,3.59,0,0,1,.6.77h0V46.17c-.39-.5-3-3.91-7.14-8.77-4.43-5.27-4.65-7.17-4.65-7.17-2.34-.25-3.52-.36-5.86-.58l-.89,1.53a5.82,5.82,0,0,1,.95.48,3.48,3.48,0,0,1,.6.74h0V72.62a4.06,4.06,0,0,1-.69.66,4.59,4.59,0,0,1-1,.3l.88,1.7c2.14.21,3.21.32,5.35.56.36-.6.53-.9.89-1.51a5.63,5.63,0,0,1-.95-.5,3.11,3.11,0,0,1-.52-.62V44.27a29.92,29.92,0,0,0,3.49,4.85,112.64,112.64,0,0,1,7.43,8.48,19.45,19.45,0,0,1,2.06,3.65V74.67a3.78,3.78,0,0,1-.69.64,4.55,4.55,0,0,1-.95.27l.89,1.73c2.13.3,3.19.46,5.32.79.35-.6.53-.89.89-1.48a6.09,6.09,0,0,1-.95-.54,3.3,3.3,0,0,1-.52-.65V34.87h0A2.38,2.38,0,0,1,163.31,34.27Z" fill="#878787"/><path d="M78.23,74.43h0c8-.44,10.5-5.09,10.5-5.09a3.09,3.09,0,0,1,.32-.52,6.15,6.15,0,0,1,.79-.56,4,4,0,0,1-.69-.64A1.11,1.11,0,0,1,89,67V34.64a1.16,1.16,0,0,1,.18-.59,4,4,0,0,1,.69-.68,5.13,5.13,0,0,1-.79-.52,2.84,2.84,0,0,1-.32-.5s-2.45-4.63-10.5-4.16h0c-8,.52-10.49,5.44-10.49,5.44a3.88,3.88,0,0,1-.32.54,6.31,6.31,0,0,1-.79.6,3.58,3.58,0,0,1,.69.6,1,1,0,0,1,.18.57V68.19a1.22,1.22,0,0,1-.18.6,4.63,4.63,0,0,1-.69.71,5.65,5.65,0,0,1,.79.47,2.92,2.92,0,0,1,.32.49S70.18,74.83,78.23,74.43ZM76,33.58a2.91,2.91,0,0,1,2.26-1.18,2.52,2.52,0,0,1,2.25.91V69.07a2.86,2.86,0,0,1-2.25,1.15A2.53,2.53,0,0,1,76,69.31Z" fill="#878787"/><path d="M64.71,127.73V88.08a3.28,3.28,0,0,1,.58-.68,5.23,5.23,0,0,1,.95-.46l-.89-1.51c-3.94.31-5.9.5-9.83.91L54.63,88a4.2,4.2,0,0,1,1,.28,4.3,4.3,0,0,1,.66.6v3.5l-3.58,6.24c-2.86-4.52-4.29-6.77-7.14-11.23-3.47.45-5.2.69-8.66,1.21L36,90.33a4.48,4.48,0,0,1,.94.24,2.38,2.38,0,0,1,.6.58h0v39.36a5.7,5.7,0,0,1-.69.82,6.3,6.3,0,0,1-1,.52l.89,1.44c2.12-.3,3.19-.44,5.32-.72.35-.68.53-1,.89-1.69a4.33,4.33,0,0,1-1-.26,2,2,0,0,1-.52-.49V102.91c2.94,4.55,4.41,6.84,7.35,11.46,2.95-5.62,4.42-8.43,7.37-14v28a4.21,4.21,0,0,1-.67.78,5.08,5.08,0,0,1-.95.48l.9,1.5c3.92-.38,5.88-.54,9.82-.83.35-.66.53-1,.89-1.64a5.09,5.09,0,0,1-.95-.32A2.34,2.34,0,0,1,64.71,127.73Z" fill="#878787"/><path d="M90.6,89.85a3.81,3.81,0,0,1,.69-.67,6,6,0,0,1-.79-.52,3.59,3.59,0,0,1-.33-.51s-2.45-4.68-10.49-4.32h-.06c-8.05.4-10.49,5.28-10.49,5.28a3.35,3.35,0,0,1-.32.54,7.12,7.12,0,0,1-.79.59,3.4,3.4,0,0,1,.69.61,1,1,0,0,1,.18.57v32.26a1.07,1.07,0,0,1-.18.59A4.18,4.18,0,0,1,68,125a5,5,0,0,1,.79.48,2.92,2.92,0,0,1,.32.49s2.44,4.41,10.49,4.13h.06c8-.32,10.49-4.93,10.49-4.93a3.46,3.46,0,0,1,.33-.52,5.61,5.61,0,0,1,.79-.54,3.63,3.63,0,0,1-.69-.66,1,1,0,0,1-.18-.59V90.45A1,1,0,0,1,90.6,89.85Zm-8.7,34.91a2.82,2.82,0,0,1-2.25,1.11,2.56,2.56,0,0,1-2.26-.94V89.19A2.86,2.86,0,0,1,79.65,88,2.56,2.56,0,0,1,81.9,89Z" fill="#878787"/><path d="M112.82,112.16a25.73,25.73,0,0,1-3.15,9c-2.44,4.14-5.5,4.28-5.92,4.28V86.59a2.84,2.84,0,0,1,.58-.63,5.23,5.23,0,0,1,1-.38l-.9-1.61c-3.45,0-5.18,0-8.63,0H94.54c-.36.64-.54,1-.9,1.6a5.23,5.23,0,0,1,1,.38,5.38,5.38,0,0,1,.66.68v40.05a2.82,2.82,0,0,1-.74.68,4.73,4.73,0,0,1-1.45.3l.9,1.58c6.39,0,12.74.16,19.13.39a31.25,31.25,0,0,1,.16-6.28c.44-3.33,2-9.72,2-9.72a5.67,5.67,0,0,1-1.21-.46A3.47,3.47,0,0,1,112.82,112.16Z" fill="#878787"/><path d="M135.1,113.62a24.75,24.75,0,0,1-3.15,8.86c-2.43,4-5.49,4-5.91,4v-39a2.52,2.52,0,0,1,.58-.6,4.64,4.64,0,0,1,.95-.33c-.36-.67-.53-1-.89-1.66-3.94-.27-5.91-.37-9.85-.54l-.89,1.56a5.12,5.12,0,0,1,1,.43,5.29,5.29,0,0,1,.67.71v40.24a2.56,2.56,0,0,1-.75.64,4.5,4.5,0,0,1-1.44.22l.9,1.65c6.38.37,12.73.84,19.1,1.4a32.27,32.27,0,0,1,.16-6.29c.43-3.32,1.95-9.67,1.95-9.67a5.77,5.77,0,0,1-1.2-.52A3.64,3.64,0,0,1,135.1,113.62Z" fill="#878787"/><path d="M153.91,87.51c-.36.59-.53.89-.89,1.49a3.83,3.83,0,0,1,1.87.42,7.24,7.24,0,0,1,.59.51l-6.12,15.94q-3.06-8.57-6.15-17.13a4.06,4.06,0,0,1,.64-.53,2.83,2.83,0,0,1,1.59-.13l-.9-1.71c-4.74-.52-7.12-.75-11.87-1.13h0l-.89,1.53a5.25,5.25,0,0,1,1.25.43,5,5,0,0,1,.72.73q4.47,11.13,8.91,22.28v19.2a2.26,2.26,0,0,1-.54.53,4.37,4.37,0,0,1-1,.29c.35.68.53,1,.89,1.7,3.89.44,5.83.69,9.72,1.22l.88-1.49a6.3,6.3,0,0,1-.95-.52,3.59,3.59,0,0,1-.6-.77h0V111.5q4.27-10.41,8.57-20.81a2.67,2.67,0,0,1,.88-.42,3.37,3.37,0,0,1,1.28,0L161,88.5C158.14,88.08,156.73,87.88,153.91,87.51Z" fill="#878787"/><path d="M22.6,60.74C18.21,58.12,12.75,54.44,12,49c0-3.29,1.24-6.87,6-7.87C24,39.82,23.48,49,23.48,49c1.55.06,2.33.1,3.89.18,0-5.09,0-7.63,0-12.71,0,0-1.92-1.12-9.5.48C9.34,38.77,2.61,45.51,2.62,54.49c0,13,19.42,13,19.42,25.79,0,4.84-1.83,7.18-3.53,8.32l-.1-.09-1.34.83a6.83,6.83,0,0,1-1.26.35c-4.87,1-5.81-7.2-5.81-7.2V77.68l.23-.76L10,76.75v-.32c-2.16-1.58-3.24-2.36-5.4-3.9v.3L2.25,71.12,0,74.73C4.2,77.12,4.71,80.94,4.57,85c-.24,7.23-3.28,9.2-3.28,9.2l3.48,3c.09.09,3.76-1,4.71-1.22,4-.91,5.77-1.21,8.65-2.89l.93-.18c5.77-4.25,10.76-10.69,10.86-18.12C30,69.27,27.41,63.61,22.6,60.74Z" fill="#878787"/><path d="M195.49,81.36c.63-5.67,2.77-9.67,7.19-10.11l-1.69-3-9.47-1.94v.15l-6.34-1.31-.66-.14-1.09,1.78a7.74,7.74,0,0,1,1.16.72,3.77,3.77,0,0,1,.63.84c0,7.78.07,11.48.07,19.27,0,0-.62,1.18-2.86.73a3.52,3.52,0,0,1-2.77-2.11V42s.64-2,3.36-1.43a3.91,3.91,0,0,1,3.21,2.66s.74,6.91-.16,10.11a7.53,7.53,0,0,1-.78,2.22c1.85,1.13,2.78,1.7,4.63,2.85a24.71,24.71,0,0,1,.84-5.1c1.58-5.69,4-12.11,4-12.11s-.69-.46-1.42-1-2.35-3.81-11.19-5.51-12.53,3.61-13,4a10.75,10.75,0,0,1-1,.75,5.23,5.23,0,0,1,.84.94,5.68,5.68,0,0,1,.4,1v41a3.05,3.05,0,0,1-.5.78,2.64,2.64,0,0,1-.79.37s.71.54.92.72a6.81,6.81,0,0,1,.6.61,15.15,15.15,0,0,0,10.82,7.73,12,12,0,0,0,8.74-1.4v2.57c1,.23,2.15.47,3.33.72a11.36,11.36,0,0,1,4.41,2.67L200.58,94A15,15,0,0,1,195.49,81.36Z" fill="#878787"/><path d="M10.67,18.46c.24,0,1.2-.62,1.81-.84,2.16-.75,4.58-.88,4.75,1.11s-3.18,4-5.79,4.85c-1.93.6-5,.25-5.59.46-1.35.51-2.76,6.36-2.06,8.33.61,1.76,2.05,2,3.72,1.48a10.1,10.1,0,0,0,4.32-3.17,12.92,12.92,0,0,0,1.55-2.22c0-.1.2-.33.32-.29s.08.24,0,.37A23.51,23.51,0,0,1,12,30.93a10.91,10.91,0,0,1-4.45,3.33c-2.72,1-5,.84-5.86-1.36-1.06-2.61,3.1-8.74,3-9.32,0-.19-1.27-.93-1.51-1.63-.59-1.71.7-3.41,2.6-4C7.44,17.38,10,18.44,10.67,18.46ZM3.58,21.85c.19.58,1.14,1.48,1.37,1.44.81-.13,5.17-4.49,5.17-4.49a8.59,8.59,0,0,0-4.52-.38A2.74,2.74,0,0,0,3.58,21.85Zm12.3-2.79c-.06-1.52-1.41-1.84-3.23-1.25a8.23,8.23,0,0,0-1.71.9A16.31,16.31,0,0,1,12,20.2c.2.46.25.82.14.79s-.09-.18-.33-.57c-.35-.55-1.15-1.43-1.37-1.43C9.55,19,6,23.57,6,23.74s3.5.1,5.35-.48C13.85,22.48,16,20.68,15.88,19.06Z" fill="#878787"/><path d="M20,24.77c.56-1,1.05-1.56,1.58-1.72.71-.21.84-.05.65.36S21.32,25,20.82,26A16.28,16.28,0,0,0,20,27.87c-.16.45,0,.68.13.74s.51-.16.74-.35a10.27,10.27,0,0,0,1.25-1.39c.57-.73,1-1.34,1.28-1.73.13-.17.26-.4.38-.34s-.07.39-.15.51c-.3.48-1.09,1.57-1.59,2.18a5.78,5.78,0,0,1-2.54,2.07c-.64.19-1,0-1.17-.36A1.67,1.67,0,0,1,18.51,28h0a8,8,0,0,1-3.17,2.88c-.72.26-1.55.22-1.76-.8a3.38,3.38,0,0,1,.43-2h0c-.08.12-.15.26-.22.37s-.31.37-.38.33,0-.28.12-.45a9.21,9.21,0,0,1,.86-1.18,17,17,0,0,1,1.4-1.47,7.13,7.13,0,0,1,3.17-1.88.87.87,0,0,1,1.06,1ZM16.34,27c-.94,1.56-1.37,2.7-1.21,3.07.09.2.3.24.53.17a6.54,6.54,0,0,0,2.39-2.31c.8-1.18,1.67-2.87,1.57-3.37s-.41-.49-.78-.38C18.15,24.36,17.2,25.55,16.34,27Z" fill="#878787"/><path d="M28.09,26.33a14.07,14.07,0,0,0,1.3-1.14,17.79,17.79,0,0,0,1.87-2.09c.11-.15.27-.37.4-.3s-.1.36-.18.48A17,17,0,0,1,30,25.08a15,15,0,0,1-1.86,1.61A9.36,9.36,0,0,1,25.42,28c-1.79.49-2.44-.4-2.55-1.3a2,2,0,0,1,1.37-2.08.56.56,0,0,1,.76.49,1.42,1.42,0,0,1-.54,1,1.47,1.47,0,0,0-.52,1.15c.1.5.58.67,1.19.51s1.36-.91,1.82-2.29c.35-1.05.51-3.1.78-3.6a0,0,0,0,0,0,0c-.26.4-.86,1.06-1.34,1.62a12,12,0,0,1-1.1,1.09c-.14.12-.27.2-.32.15s0-.2.09-.32c.23-.28.76-.77,1.21-1.26a9.35,9.35,0,0,0,1.64-2,3.91,3.91,0,0,1,.42-.67,1.92,1.92,0,0,1,.92-.6c.79-.2.36.34,0,.7a6,6,0,0,0-.71.68c-.22.32-.12.57,0,.9a5.53,5.53,0,0,1,.35,2.64,3.64,3.64,0,0,1-.76,1.55S28.08,26.32,28.09,26.33Z" fill="#878787"/><path d="M37.71,20.27c.62-1,1.14-1.49,1.68-1.62.71-.17.84,0,.63.39-.29.55-1,1.53-1.55,2.54a19.94,19.94,0,0,0-.9,1.78c-.18.44-.06.68.1.74s.51-.12.75-.3a10,10,0,0,0,1.33-1.31c.6-.69,1.06-1.27,1.37-1.64.14-.17.28-.39.41-.32s-.1.38-.19.5c-.33.46-1.18,1.5-1.71,2.08A5.82,5.82,0,0,1,37,25c-.65.15-1-.07-1.14-.43a1.69,1.69,0,0,1,.22-1.24h0A7.91,7.91,0,0,1,32.7,26c-.74.21-1.56.12-1.7-.91a3.28,3.28,0,0,1,.54-1.92h0c-.08.11-.15.24-.24.35s-.32.35-.39.3,0-.28.14-.43a9.83,9.83,0,0,1,.93-1.13,15.44,15.44,0,0,1,1.48-1.38,7.07,7.07,0,0,1,3.26-1.68.88.88,0,0,1,1,1Zm-3.75,2c-1,1.5-1.52,2.6-1.38,3,.07.2.28.26.52.2a6.42,6.42,0,0,0,2.51-2.15c.86-1.12,1.83-2.76,1.76-3.27s-.37-.51-.75-.42C35.92,19.74,34.9,20.87,34,22.25Z" fill="#878787"/><path d="M53.05,17.05a50.12,50.12,0,0,1,3.63-5.73,52.47,52.47,0,0,1,3.67-4.57A2.07,2.07,0,0,1,61.62,6c.36,0,.58.08.57.16-.12.61-2.44,3-3.57,4.52-1,1.36-2,2.87-3.7,5.52a36.44,36.44,0,0,0-2.17,4.15c-.16.38-.15.64,0,.72s.69-.13,1-.37a13.24,13.24,0,0,0,1.2-1.11c.64-.65,1.13-1.25,1.45-1.57.13-.12.34-.33.42-.29s-.12.37-.21.49a23.5,23.5,0,0,1-1.81,2A5.76,5.76,0,0,1,52,22c-.65.11-1-.12-1.11-.49a1.68,1.68,0,0,1,.28-1.23h0a8,8,0,0,1-3.44,2.5c-.75.17-1.58.06-1.69-1-.07-.77.45-2.05,2-3.52a7.37,7.37,0,0,1,4-2.06.85.85,0,0,1,1,.85Zm-3.88,2c-1.09,1.44-1.65,2.51-1.53,2.9a.4.4,0,0,0,.51.23,6.57,6.57,0,0,0,2.62-2c.91-1.08,2-2.67,1.91-3.18s-.34-.53-.72-.46C51.26,16.67,50.19,17.74,49.17,19.07Z" fill="#878787"/><path d="M62.84,15.41c0,.83-1,1.63-2,2.25S58.32,18.79,58,19.12c-.12.13-.11.52-.1.74,0,.43.43.67.9.61a6.65,6.65,0,0,0,3-1.6,16.2,16.2,0,0,0,2-1.93c.12-.15.31-.33.42-.25s-.12.37-.22.48a17.13,17.13,0,0,1-2,1.95,8,8,0,0,1-3.83,2c-1.27.2-2-.21-2.1-1a3.28,3.28,0,0,1,.56-1.88h0a3.5,3.5,0,0,1-.24.3c-.13.15-.35.31-.42.26s.07-.27.19-.42a8.35,8.35,0,0,1,1-1,18.25,18.25,0,0,1,1.53-1.21,7.82,7.82,0,0,1,3-1.37C62.41,14.62,62.82,15.06,62.84,15.41Zm-4.71,3.37a10.67,10.67,0,0,0,2.25-1.34,3.08,3.08,0,0,0,1.2-1.86c0-.27-.18-.41-.48-.36a3.39,3.39,0,0,0-1.42,1.08,12.56,12.56,0,0,0-1.55,2.45Z" fill="#878787"/><path d="M92.69,4.05a19.2,19.2,0,0,0-2.07,1.07c0,.14,2.56,1.8,1.72,3.74-.71,1.66-3.17,2.44-4.63,2.52,0,0,0,0,0,0A1.77,1.77,0,0,1,89,12.7a3,3,0,0,1-.62,1.86c-.59.9-1.18,1.64-1.14,2.32,0,.26.2.54.69.51a6,6,0,0,0,2.61-1.51,19.69,19.69,0,0,0,1.56-1.31c.14-.14.34-.3.45-.21s-.16.36-.26.46c-.41.4-1,.94-1.83,1.59a6.67,6.67,0,0,1-3.17,1.53c-1.1.06-1.65-.46-1.7-1.2a5.05,5.05,0,0,1,1.12-2.54c.61-.87,1.11-1.46,1.06-2.06,0-.37-.38-.59-.67-.7l-.71,0c-.29,0-.66-.12-.72-.09a9.74,9.74,0,0,0-.91,1.28,23,23,0,0,1-6.22,5.09s1.31.12,1.72.12a4.3,4.3,0,0,0,2.5-.73c.5-.36.49-.45.56-.43s0,.29-.28.57a5.43,5.43,0,0,1-3.18,1.3c-.82.06-2.25-.27-2.69-.23-1.06.09-3.53.89-5.17,1-1.23.12-3.17.09-3.26-.71S70,17.17,72.2,17.05c1.49-.08,4.58.79,5.79.56,1-.18,2.63-2.09,4.76-5a45.54,45.54,0,0,1,7-7.28,11,11,0,0,0-4.56-.64c-4.59.26-9.25,3.18-9.84,6.67-.29,1.73.45,3.16,2.13,3.14.8,0,.86-.21.94-.11s-.26.38-.92.43c-2.14.15-3.78-1.12-3.53-3.37.4-3.68,5.63-6.73,11.21-7A23.21,23.21,0,0,1,90.22,5c.35,0,1.56-.9,2.27-1.18a9.69,9.69,0,0,1,3.29-.71,3.5,3.5,0,0,1,2.63.79c.18.26.19.48.12.48s0-.07-.33-.35a3.64,3.64,0,0,0-2.41-.63A9.67,9.67,0,0,0,92.69,4.05ZM76.62,18.21c-1.23-.08-3.24-.4-4.48-.38-1.7,0-3,.27-2.93.84s1.85.52,2.78.44a21,21,0,0,0,4.63-.87ZM90.17,5.56A12.94,12.94,0,0,0,88,8c-.73,1-2.09,3-2.09,3s.42,0,.67,0,.56.12.72.12A4.54,4.54,0,0,0,91,8.62a2.36,2.36,0,0,0-.8-3.09Z" fill="#878787"/><path d="M92.71,14.42c-.24.23-.44.44-.68.63s-.39.28-.45.22.1-.27.24-.4A9.12,9.12,0,0,1,92.94,14c.35-.24,1-.67,1.73-1.05a9.36,9.36,0,0,1,2.94-1c.17,0,.5,0,.53.12s-.24.14-.38.2a9.8,9.8,0,0,0-2.5,1.83A6.92,6.92,0,0,0,93.32,17a.44.44,0,0,0,.5.53A5.19,5.19,0,0,0,97,15.46a4.23,4.23,0,0,1,.6-1.36,4.77,4.77,0,0,1,1.11-.85c.12-.11.12-.67.1-.81s-.15-.4,0-.45.35.07.5.19a1.22,1.22,0,0,1,.43,1.12c-.1.77-2,2.58-2,2.63a2.07,2.07,0,0,0,.66,0,3.47,3.47,0,0,0,1.18-.56c.43-.3.9-.68,1.22-.94.14-.12.35-.27.42-.2s-.07.23-.28.42a11.07,11.07,0,0,1-1.22,1,4.15,4.15,0,0,1-1.31.59,4.49,4.49,0,0,1-1-.05c-.49,0-2.49,1.63-3.91,1.68-1.08,0-1.8-.46-1.75-1.36a3.61,3.61,0,0,1,.9-2Z" fill="#878787"/><path d="M100.3,16.35a3.55,3.55,0,0,1,1-2h0a6.8,6.8,0,0,1-.55.49c-.17.13-.4.26-.46.19s.11-.26.24-.38a8.88,8.88,0,0,1,1.16-.88,13.45,13.45,0,0,1,1.75-1,6.46,6.46,0,0,1,3.29-.88.94.94,0,0,1,.9,1.24,1.54,1.54,0,0,1-1.21,1.08c-.59,0-.6-.48-.31-.91.41-.6.56-1,.15-1.12s-1.2.45-2.19,1.36a6.52,6.52,0,0,0-2,2.87c-.06.44.25.74.8.74A6.72,6.72,0,0,0,106.05,16c.66-.41,1.55-1.06,2-1.38.13-.1.39-.27.49-.19s-.12.29-.28.41a18.7,18.7,0,0,1-2,1.45,8.77,8.77,0,0,1-4,1.37C100.87,17.7,100.23,17.21,100.3,16.35Z" fill="#878787"/><path d="M109.81,16a29.09,29.09,0,0,1,3.11-2.23,15.3,15.3,0,0,1,2.38-1.33,3.62,3.62,0,0,1,1.74-.18c.87.1,1.47.75,1.09,1.4-.23.41-.88.47-1.68.54a2.68,2.68,0,0,0-1.52.38,1.91,1.91,0,0,0-.33,1.31c0,.76.2,1.15.54,1.21a1.86,1.86,0,0,0,.91-.21,8.56,8.56,0,0,0,1.37-.78c.75-.51,1.31-.94,1.74-1.23.13-.09.35-.27.47-.17s-.2.32-.31.4c-.46.37-1.33,1-2.21,1.6a6,6,0,0,1-3,1.13c-.69,0-1.21-.48-1.1-1.56a2.85,2.85,0,0,1,.8-1.74,3.33,3.33,0,0,1,1.46-.49,1.91,1.91,0,0,0,1.11-.41c.22-.21.36-.71,0-.93a1.74,1.74,0,0,0-1.11.11,11.13,11.13,0,0,0-2.72,1.52c-1.54,1.08-2.9,2.35-3.92,3a1.52,1.52,0,0,1-.91.31c-.55,0-.68-.11-.48-.52a13.75,13.75,0,0,1,1.47-2.14c.28-.34.65-.79,1-1.2v0c-.5.37-1,.81-1.29,1s-.31.17-.38.09.07-.21.25-.35c.61-.51,1.55-1.12,2.22-1.73,1.22-1.11,2.77-3.11,4.45-4.72a61.23,61.23,0,0,1,8.83-6.94A6.34,6.34,0,0,1,127,0c1,.07,1.2.68,1,1.24-.41,1.52-4.12,3.83-7.89,6.3-2.26,1.49-5.55,3.27-7.49,4.92a44.78,44.78,0,0,0-2.9,3.47Zm3.43-4.28c3.45-2.59,4.9-3.29,6.59-4.51,3.57-2.58,7-4.8,7.29-6.19.07-.41-.17-.63-.57-.66a4.76,4.76,0,0,0-2.48,1.12,51.64,51.64,0,0,0-5.1,4.3c-1.75,1.68-2.82,2.69-5.73,5.9Z" fill="#878787"/><path d="M138.62,13.27a16.06,16.06,0,0,0-2.83,2.66c0,.56,2.42,3.16,2.16,5.33a15.82,15.82,0,0,1-.48,1.63c.46.81,10.34,3.19,9.36,7.84-.54,2.58-3.76,3.9-5.77,3.94-.36,0-.89-.05-.87-.21s.24,0,.95-.07a5.24,5.24,0,0,0,4.53-3.9c.83-4.25-6.87-8.11-8.34-7.29-.79.44-2.76,4-4.93,5.64-3.54,2.74-8,4.78-11.32,4.57-1.94-.13-3-.8-3-2.18.11-2.06,2.75-4.47,6.3-6.11,3.21-1.47,9.77-1.5,11-2.36.38-.26.62-1.85.68-2.65.1-1.27-.78-3.52-1-3.55s-2.05,1.5-3.22,2.06a7.21,7.21,0,0,1-3.94.81c-1.2-.17-2.4-.63-2.4-1.75,0-1.43,1.33-2.84,3.41-3.95,1-.55,3.37-1.14,3.51-1.39s-.24-2.35.31-3.23a4.14,4.14,0,0,1,4-2,1.46,1.46,0,0,1,1.29,1.76c-.38,1.68-4.8,3.09-5,3.58a11.91,11.91,0,0,0,2.18,2.91c.3,0,1.82-1.7,2.45-2.19,1.52-1.18,3-2,4.71-1.78a2.15,2.15,0,0,1,2,2c.06.88-.47,1.78-1,1.64-.38-.09-.37-.48-.19-.74.29-.41.87-.66.83-1.09a1.78,1.78,0,0,0-1.67-1.49C141,11.48,139.76,12.4,138.62,13.27ZM121.1,33.09c3.39.21,7.27-2.26,10.24-5a32.48,32.48,0,0,0,4-5c-.31-.5-7.29.8-10.53,2.34-3.46,1.65-5.92,4-6,5.8C118.74,32.23,119.46,33,121.1,33.09Zm11.42-20.48a16.92,16.92,0,0,0-3.27,1.57c-1.5,1-2.51,2.15-2.48,3.51A1.43,1.43,0,0,0,128,19.11a5.82,5.82,0,0,0,3.68-.89c.88-.49,2.91-1.91,2.93-2.26s-1.7-2.34-2.11-3.32Zm.47-.47c2-.84,3.68-1.85,4.23-3.31.32-.83-.16-1.19-.58-1.29a3.53,3.53,0,0,0-3.4,1.71,3.81,3.81,0,0,0-.29,2.92Z" fill="#878787"/><path d="M159.85,21.61a2.07,2.07,0,0,1,2.49-1.34c.58.11,1,.47.91,1s-.64.66-1.08.73-.82.14-.95.47c-.21.51.53.89,1.14,1a5.66,5.66,0,0,0,6-3.76,1.93,1.93,0,0,0-1.59-2.42c-.42,0-.55,0-.93-.1s-1-.29-.88-.45.66-.14,1-.05.75.26,1,.31a4.4,4.4,0,0,0,4.11-2.09c.5-.93.1-2.36-.28-2.4-.16,0-.68.37-1,.57a64.21,64.21,0,0,0-5.4,3.88c-4,3.27-8.36,5.88-12.33,5.21-2.12-.36-3.53-1.25-3.26-3s2.29-4.31,7-6.32a23.32,23.32,0,0,1,13.39-1.36c.5.11,1.08.4,1.37.41,1,0,2.74-.8,3.81-.91a10.81,10.81,0,0,1,3.69.2,3.38,3.38,0,0,1,2.35,1.49c.06.18,0,.27-.07.28s-.14-.1-.21-.22a3.42,3.42,0,0,0-2.1-1.29,9.54,9.54,0,0,0-3.51-.13,27.41,27.41,0,0,0-3.19.95c0,.15,1.9,1.8,1.36,3-.75,1.63-3.41,2.12-5.13,2v0c2.06.78,2.82,2.11,2.46,3.38-.75,2.6-4.26,3.75-7.71,3C161,23.45,159.61,22.81,159.85,21.61Zm-7.71.27c3.15.53,5.83-2,9.14-4.65a38.56,38.56,0,0,1,7.78-4.76c.33-.15,1-.4,1-.4a7.29,7.29,0,0,0-1.12-.34,21.24,21.24,0,0,0-12.55,1.45c-4.32,2-5.9,4.58-6.16,6.23A2,2,0,0,0,152.14,21.88Z" fill="#878787"/><path d="M170.16,24.44c.21-.74,1.37-1.74,2.67-2.75a75.51,75.51,0,0,1,6.32-4.23,48.46,48.46,0,0,1,5.2-2.75,2,2,0,0,1,1.42-.18c.35.09.53.29.47.36-.35.42-4.76,2.57-6.62,3.75a50.92,50.92,0,0,0-7.19,5.47c-.15.16-.51.63-.31.85s.76.16,1.1.07,1-.32,1.54-.51,1.53-.7,2-.87c.16-.07.41-.18.49-.08s-.25.27-.38.34c-.5.27-1.58.76-2.45,1.11a6.3,6.3,0,0,1-3.36.51C170.34,25.37,170,25,170.16,24.44Z" fill="#878787"/><path d="M179.87,22.77a14.25,14.25,0,0,0-1.61.54c-.57.24-1.12.51-1.81.8-.14.07-.32.11-.37,0s.09-.21.26-.3a27.64,27.64,0,0,1,3.14-1.28,3.56,3.56,0,0,1,2.18-.16c.71.18.76.33.28.61s-1.48.86-2.37,1.44a10.59,10.59,0,0,0-1.67,1.35c-.19.22-.28.4-.2.52s.44.22.79.17a19.63,19.63,0,0,0,3-.93c1.81-.61,3.13-1.22,4.44-1.66a1.58,1.58,0,0,1,1.1-.06c.58.17.89.33.36.65-.8.48-1.47.86-2.37,1.46a17.47,17.47,0,0,0-1.71,1.22c-.3.28-.37.55-.29.65s.47.17.81.13a10.15,10.15,0,0,0,1.79-.52c.82-.31,1.56-.65,2-.8.16-.06.44-.13.49-.05s-.26.26-.39.32a25.56,25.56,0,0,1-2.5,1,5.83,5.83,0,0,1-3.25.42c-.68-.18-1-.56-.84-1a2.46,2.46,0,0,1,.89-1.12,11.69,11.69,0,0,1,1.7-1,.35.35,0,0,0,0-.08c-.87.35-2,.75-2.89,1.07-1.64.59-3.06,1-4.08.76-.71-.19-1.08-.63-.9-1.16a2.92,2.92,0,0,1,.89-1,17.25,17.25,0,0,1,3.16-1.94A0,0,0,0,0,179.87,22.77Z" fill="#878787"/><path d="M194.64,27.05c-.33.76-1.6,1-2.76,1.18s-2.82-.07-3.24.09c-.17.06-.32.42-.41.62-.17.4.11.79.56.94a6.71,6.71,0,0,0,3.41-.17,16.81,16.81,0,0,0,2.65-.87c.17-.08.43-.17.5-.05s-.28.29-.41.35a18.69,18.69,0,0,1-2.63.91,8.28,8.28,0,0,1-4.34.12c-1.24-.37-1.75-1.07-1.47-1.81a3.19,3.19,0,0,1,1.31-1.46h0l-.35.16c-.19.08-.46.14-.49.06s.17-.22.34-.3a8.84,8.84,0,0,1,1.37-.5c.36-.1,1.21-.32,1.91-.44a8,8,0,0,1,3.31.05C194.59,26.15,194.78,26.72,194.64,27.05Zm-5.74,1a10.64,10.64,0,0,0,2.63-.24,3.08,3.08,0,0,0,1.89-1.16c.12-.25,0-.45-.29-.53a3.27,3.27,0,0,0-1.75.37A12.5,12.5,0,0,0,188.91,28Z" fill="#878787"/><path d="M198.06,32.41a15.57,15.57,0,0,0,1.72-.23,20.22,20.22,0,0,0,2.73-.72c.17-.07.43-.16.5,0s-.28.25-.41.3a18.48,18.48,0,0,1-2.26.67,14.09,14.09,0,0,1-2.46.32,9.52,9.52,0,0,1-3-.38c-1.77-.58-1.83-1.67-1.42-2.49a2,2,0,0,1,2.29-1,.56.56,0,0,1,.36.83,1.39,1.39,0,0,1-1,.52c-.31.06-.9.25-1.06.67s.12.88.72,1.08a3.17,3.17,0,0,0,2.78-.91c.87-.69,2.13-2.31,2.64-2.58a0,0,0,0,1,0,0c-.44.19-1.31.41-2,.61a11,11,0,0,1-1.52.31c-.19,0-.34,0-.36-.05s.1-.17.26-.22c.34-.1,1.06-.22,1.7-.38a9.42,9.42,0,0,0,2.5-.79,3.82,3.82,0,0,1,.72-.33,2,2,0,0,1,1.1,0c.78.27.12.49-.39.58a6.82,6.82,0,0,0-1,.18c-.36.15-.42.41-.52.74a5.49,5.49,0,0,1-1.16,2.39,3.66,3.66,0,0,1-1.5.89Z" fill="#878787"/></g></g></svg>