<svg xmlns="http://www.w3.org/2000/svg" viewBox="0 0 686 128.8"><g id="f5f9431d-99d3-4a1c-8436-bf3a5fdbd0c8" data-name="Capa 2"><g id="ad172da9-f526-40e0-8b41-60774dee657d" data-name="Capa 1"><path d="M108.8,57.5H62.6v19H82.9V107c-2.4,1-7.3,1.8-13.9,1.8-23.2,0-40.6-14.6-40.6-43.5,0-30.2,19-43.8,44.1-43.8,12.4,0,20.5,1.9,26.9,4.5l5.7-19.8C98.3,3.3,86.4,1,72.1,1,31.7,1,0,23.6,0,65.8c0,19.8,7,36.9,19,47.4s28.2,15.3,49.6,15.3c15.9,0,31.9-3.4,40.1-6.2l.1-64.8Zm29.8,14.9c.7-8.9,6.2-20.9,19.2-20.9,13.4,0,17.6,11.5,17.4,20.9ZM191.3,107a83.32,83.32,0,0,1-24.9,3.7c-14.6,0-27.1-6.2-27.8-21.6h61a53.85,53.85,0,0,0,.7-9.6c0-29.2-16.1-44.8-40.8-44.8-29.8,0-46.7,22.4-46.7,48.4,0,28.1,17.9,45.6,49.4,45.6,12.6,0,24.5-1.9,33-5.2Z" fill="#c4c4c4"/><path d="M260.3,123.1A44.71,44.71,0,0,1,267.1,36V.1A80.5,80.5,0,0,0,209,128.8h47.4a36,36,0,0,0,3.9-5.7m19-87.1a44.69,44.69,0,0,1,6.7,87.1,42.41,42.41,0,0,0,3.8,5.6h47.5A80.5,80.5,0,0,0,279.2,0l.1,36Z" fill="#4f4f4f"/><path d="M349.3,36.6H335.9V54.3h13.4V96c0,10.1.5,32.6,29.8,32.6,7.9,0,14.5-.8,18.1-2.1l-.4-18.3a42.61,42.61,0,0,1-8.8.8c-8.2,0-12.1-4.5-12.1-15.4V54.3h22.5V36.6H375.9V13l-26.7,7V36.6Zm73.2,35.7c.7-8.9,6.2-20.9,19.2-20.9,13.4,0,17.6,11.5,17.4,20.9Zm52.8,34.6a83.32,83.32,0,0,1-24.9,3.7c-14.6,0-27.1-6.2-27.8-21.6h61a53.85,53.85,0,0,0,.7-9.6c0-29.2-16.1-44.8-40.8-44.8-29.8,0-46.7,22.4-46.7,48.4,0,28.1,17.9,45.6,49.4,45.6,12.6,0,24.5-1.9,33-5.2Zm70.3-71.8a33.67,33.67,0,0,0-6-.5c-9.5,0-20.5,6-25.3,17.7h-.7l-1.1-15.7H489.3c.4,8.1.7,17,.7,28.2V127h27.1V80.2c0-15.4,9.3-22.7,21.6-22.7a47.89,47.89,0,0,1,7,.5l-.1-22.9Zm61.1,0a33.67,33.67,0,0,0-6-.5c-9.5,0-20.5,6-25.3,17.7h-.7l-1.1-15.7H550.4c.4,8.1.7,17,.7,28.2V127h27.1V80.2c0-15.4,9.3-22.7,21.6-22.7a47.89,47.89,0,0,1,7,.5l-.1-22.9ZM658.4,96c0,11.5-10.6,15.6-17,15.6-6.8,0-12.8-3.7-12.8-12.3,0-13.1,15.2-16.2,29.8-16.2Zm26.3-23.6c0-19.8-8.6-37.7-40.3-37.7-15.9,0-28.6,4.1-35.3,7.6l5.1,15.6a54.11,54.11,0,0,1,25.1-6.2c14.8,0,18.3,6.8,18.3,15.7-32.4,0-55.7,10.9-55.7,34.1,0,14.6,11.7,27.1,30.6,27.1,11.4,0,21.2-4.1,27.1-11.2h.5l1.6,9.4H686c-1.1-5.5-1.5-13.5-1.5-21.4v-33Z" fill="#878787"/></g></g></svg>