<svg xmlns="http://www.w3.org/2000/svg" viewBox="0 0 168.82 83.82"><g id="ee7d5eec-9928-489a-8b5e-7c49fea27367" data-name="Capa 2"><g id="af068a18-9e85-4795-97cc-418d74af6e85" data-name="Capa 1"><path d="M14.83,20.28A6.16,6.16,0,0,1,13,15.34c0-3.78,4-6.84,7.81-6.84,3.42,0,7,2.32,7.7,4.72a.78.78,0,0,1-.5,1l-2.67.89a.76.76,0,0,1-1-.46,3.7,3.7,0,0,0-3.57-2c-2.05,0-3.7,1.23-3.7,2.73s1.59,2.66,3.7,3a19.93,19.93,0,0,1,4.69,1.15c1.86.77,3.81,2.49,3.81,6.66S25,33.7,20.8,33.7c-3.87,0-7.88-2.56-8.43-5.49a.78.78,0,0,1,.53-.87l2.68-.89a.76.76,0,0,1,1,.47,4.9,4.9,0,0,0,4.25,2.67c2,0,4.39-1.53,4.39-3.42,0-2.44-2.44-3.18-4.39-3.7C18.17,21.78,16.12,21.59,14.83,20.28Z" fill="#878787"/><path d="M45.17,12.88H38.29a.78.78,0,0,0-.78.78v4.6a.78.78,0,0,0,.78.78h5.29a.78.78,0,0,1,.78.78v2.55a.78.78,0,0,1-.78.78H38.29a.78.78,0,0,0-.78.78v4.61a.78.78,0,0,0,.78.78H46a.78.78,0,0,1,.74,1l-.85,2.55a.79.79,0,0,1-.74.54h-11a.78.78,0,0,1-.78-.78V9.55a.78.78,0,0,1,.78-.78H46a.78.78,0,0,1,.74,1l-.85,2.55A.8.8,0,0,1,45.17,12.88Z" fill="#878787"/><path d="M100.05,12.88H93.47a.94.94,0,0,0-1,.95v4.26a.94.94,0,0,0,1,.95h5a1,1,0,0,1,1,.95V22.2a1,1,0,0,1-1,.95h-5a1,1,0,0,0-1,1v4.27a1,1,0,0,0,1,.95h7.32a1,1,0,0,1,.9,1.25L101,32.78a1,1,0,0,1-.9.65H89.36a1,1,0,0,1-1-1V9.72a.94.94,0,0,1,1-1h11.43a1,1,0,0,1,.9,1.25L101,12.23A1,1,0,0,1,100.05,12.88Z" fill="#878787"/><path d="M110.32,21.46V32.71a.72.72,0,0,1-.72.72h-2.67a.72.72,0,0,1-.72-.72V10.5a.72.72,0,0,1,1.23-.5l11.24,11.24a.72.72,0,0,0,1.23-.51V9.49a.72.72,0,0,1,.72-.72h2.67a.72.72,0,0,1,.72.72v22.2a.72.72,0,0,1-1.23.51L111.55,21A.72.72,0,0,0,110.32,21.46Z" fill="#878787"/><path d="M146.43,12.88h-5.78a.87.87,0,0,0-.88.88V32.55a.88.88,0,0,1-.88.88h-2.35a.88.88,0,0,1-.88-.88V13.76a.87.87,0,0,0-.88-.88H129a.88.88,0,0,1-.88-.88V9.65a.88.88,0,0,1,.88-.88h17.43a.87.87,0,0,1,.87.88V12A.87.87,0,0,1,146.43,12.88Z" fill="#878787"/><path d="M168.08,33.43h-3.16a.73.73,0,0,1-.68-.46l-1.3-3.19a.73.73,0,0,0-.68-.46h-8a.73.73,0,0,0-.68.46L152.28,33a.73.73,0,0,1-.68.46h-3.16a.74.74,0,0,1-.68-1l9.82-22.1a.74.74,0,0,1,1.36,0l9.82,22.1A.74.74,0,0,1,168.08,33.43Zm-11.51-8.22H160a.74.74,0,0,0,.69-1L158.94,20a.74.74,0,0,0-1.37,0l-1.69,4.15A.74.74,0,0,0,156.57,25.21Z" fill="#878787"/><path d="M109.74,46.75V58a.72.72,0,0,1-.72.72h-2.67a.72.72,0,0,1-.72-.72V35.79a.72.72,0,0,1,1.23-.51L118.1,46.53a.72.72,0,0,0,1.23-.51V34.78a.72.72,0,0,1,.72-.72h2.67a.72.72,0,0,1,.72.72V57a.72.72,0,0,1-1.23.51L111,46.24A.72.72,0,0,0,109.74,46.75Z" fill="#878787"/><path d="M145.85,38.17h-5.78a.87.87,0,0,0-.88.88V57.84a.88.88,0,0,1-.88.88H136a.88.88,0,0,1-.88-.88V39.05a.87.87,0,0,0-.88-.88h-5.78a.89.89,0,0,1-.88-.88V34.94a.88.88,0,0,1,.88-.88h17.43a.87.87,0,0,1,.87.88v2.35A.88.88,0,0,1,145.85,38.17Z" fill="#878787"/><path d="M167.5,58.72h-3.16a.74.74,0,0,1-.68-.46l-1.3-3.19a.73.73,0,0,0-.69-.46h-8a.73.73,0,0,0-.68.46l-1.3,3.19a.74.74,0,0,1-.68.46h-3.16a.74.74,0,0,1-.68-1L157,35.58a.74.74,0,0,1,1.35,0l9.83,22.1A.74.74,0,0,1,167.5,58.72ZM156,50.5h3.38a.74.74,0,0,0,.69-1l-1.7-4.15a.74.74,0,0,0-1.37,0l-1.69,4.15A.74.74,0,0,0,156,50.5Z" fill="#878787"/><path d="M18.4,37.87h-6a.78.78,0,0,0-.78.78v19a.78.78,0,0,1-.78.78H8.31a.78.78,0,0,1-.78-.78v-19a.77.77,0,0,0-.78-.78h-6A.78.78,0,0,1,0,37.09V34.54a.78.78,0,0,1,.78-.78H18.4a.78.78,0,0,1,.78.78v2.55A.78.78,0,0,1,18.4,37.87Z" fill="#878787"/><path d="M26.72,58.42H24a.67.67,0,0,1-.67-.67V34.43a.67.67,0,0,1,.67-.67h7.88A9.25,9.25,0,0,1,36.66,50.9a.67.67,0,0,0-.21.9l3.82,6.38c.12.2.09.24.06.24h-5a.68.68,0,0,1-.58-.33l-3.28-5.51a.68.68,0,0,0-.57-.33H28.06a.67.67,0,0,0-.67.67v4.83A.67.67,0,0,1,26.72,58.42Zm5.11-20.55H27.44a0,0,0,0,0-.05,0V48.1a0,0,0,0,0,.05,0H31.6a5.3,5.3,0,0,0,5.34-4.48A5.14,5.14,0,0,0,31.83,37.87Z" fill="#878787"/><path d="M97.38,34.71V57.47a1,1,0,0,1-.95,1H94.22a1,1,0,0,1-1-1V34.71a1,1,0,0,1,1-1h2.21A1,1,0,0,1,97.38,34.71Z" fill="#878787"/><path d="M59.32,35.16H69a1.53,1.53,0,0,0,1.39-.89l14.8-32.1A1.53,1.53,0,0,0,83.75,0H52.84A1.54,1.54,0,0,0,51.3,1.53V9a1.53,1.53,0,0,0,1.54,1.53h13a1.53,1.53,0,0,1,1.39,2.18L57.93,33A1.53,1.53,0,0,0,59.32,35.16Z" fill="#878787"/><path d="M80.29,28.78A18.22,18.22,0,0,0,77.79,27a1.54,1.54,0,0,0-2.19.67L71.94,35.6a1.52,1.52,0,0,0,.46,1.85,10.25,10.25,0,0,1,4.07,8c0,5.73-5.26,10.35-10.75,10.35a11.09,11.09,0,0,1-10.51-8.18,1.51,1.51,0,0,0-2-1l-9.09,3a1.54,1.54,0,0,0-1,1.64c1,8.14,11.18,16.49,22.61,16.49,12.1,0,22.69-9.79,22.69-21.89A21.83,21.83,0,0,0,80.29,28.78Z" fill="#878787"/><path d="M18,82.17a0,0,0,0,0,0,0c-.05-.26-.12-.51-.16-.76-.12-.6-.15-.87-.27-1.46a.14.14,0,0,0-.15-.12c-.06,0-.4,0-.6,0l-.88,0c-.19,0-.46,0-.58.17a1.75,1.75,0,0,0-.09.69c0,.25,0,.48,0,.75-.05.61,0,1.23,0,1.84a.19.19,0,0,1-.23.18c-.19,0-.38-.06-.56-.09s-.2-.12-.24-.23a4,4,0,0,1,0-1,9.81,9.81,0,0,1,.08-1.09c0-.29.08-.58.1-.88s.09-.47.12-.78a6.22,6.22,0,0,1,.1-.72c.05-.32.09-.65.14-1a11.68,11.68,0,0,1,.38-1.85,1.55,1.55,0,0,1,.44-.56.45.45,0,0,1,.34-.09c.24,0,.5.07.74.11s.43.4.55.64a9.6,9.6,0,0,1,.46,1.56c.08.32.21.62.31.93a6.69,6.69,0,0,1,.22.85c.06.27.1.41.16.7a2,2,0,0,0,.11.35c.05.24.12.57.22.9s.11.49.21.8a7.94,7.94,0,0,1,.26,1c.06.23,0,.37-.22.41a2,2,0,0,1-.26.05c-.1,0-.2-.09-.24-.23C18.27,83,18.11,82.5,18,82.17Zm-1.55-3h0l.64-.07a.16.16,0,0,0,.15-.23q-.12-.34-.21-.69c-.05-.13-.08-.25-.12-.37s-.08-.21-.13-.32a4.43,4.43,0,0,0-.13-.49l-.2-.56a4.55,4.55,0,0,0-.21-.51c-.16-.35-.47.62-.48.76s-.1.54-.13.81-.11.61-.16.9-.22.79.11.78h.83Z" fill="#878787"/><path d="M20.77,75.22c.93,0,.69.19.74.9,0,.39,0,.79,0,1.17s0,.61,0,.92-.08.89-.11,1.33l-.06,1.1c0,.47-.09.94-.1,1.43,0,.22,0,0,0,.5,0,.12.41,0,.7,0,.64,0,1.29,0,1.94,0a3.56,3.56,0,0,1,.73,0c.28,0,.34.47.23.62s-.58.12-.83.14a21.32,21.32,0,0,1-2.14.1c-.4,0-.87,0-1.27,0-.24,0-.11-1.21-.11-1.48a13.07,13.07,0,0,1,.06-1.65l.16-1.65a14.36,14.36,0,0,0,0-1.61c0-.55,0-1.1-.06-1.66C20.66,75.31,20.75,75.25,20.77,75.22Z" fill="#878787"/><path d="M30.2,83.12c-.06.21-.68.16-1,.19l-1.05,0c-.34,0-.68,0-1,.09s-.6.13-.78,0,0-.19.08-.26a1.83,1.83,0,0,1,.74-.12c.22,0,.53,0,.63-.13a1.8,1.8,0,0,0,.13-1c0-.73-.06-1.46-.09-2.18s0-1.41-.05-2.11a12.46,12.46,0,0,1-.05-1.5c0-.35,0-.53-.39-.53a5.83,5.83,0,0,1-1.1-.09s-.09-.16-.06-.22a.21.21,0,0,1,.2-.12c.36,0,.73-.06,1.09,0s.57,0,.85,0c.52,0,1,0,1.53.06.05,0,.15.16.13.18a.37.37,0,0,1-.21.18c-.38,0-.79,0-1.18,0-.06,0-.13.24-.14.38,0,1,.1,2,.12,3,0,.76,0,1.52,0,2.28,0,.37,0,.73,0,1.1s0,.44.29.44a7.48,7.48,0,0,1,.82,0C30,82.94,30.06,82.89,30.2,83.12Z" fill="#878787"/><path d="M31.47,83.49c-.31,0-.31,0-.35-.22a3.57,3.57,0,0,1,0-.8c0-.34-.05-.68-.05-1,0-1.23,0-2.48,0-3.71V75.69c0-.36.7-.59,1-.39a1.38,1.38,0,0,1,.4.47,12.11,12.11,0,0,0,.89,1.46c.14.2.28.49.42.7s.12.31.3,0a9.2,9.2,0,0,0,.49-.93c.19-.36.39-.72.56-1.08.1-.21.16-.56.39-.69a.72.72,0,0,1,.91.49,14,14,0,0,1,.21,2,10.51,10.51,0,0,0,.09,1.25c0,.43,0,.85.08,1.28.11.91,0,1.84.12,2.75,0,.27-.31.48-.57.41s-.4-.21-.39-.52c0-.57-.07-1.13-.08-1.69s0-1.18,0-1.77,0-1.08-.06-1.62c0-.31,0-.63,0-1,0-.07,0-.71-.13-.44a6.63,6.63,0,0,1-.79,1.8,3.11,3.11,0,0,1-.71,1,.59.59,0,0,1-.68-.29,10.87,10.87,0,0,1-.69-1c-.24-.44-.83-1.58-.83-1.58a7.52,7.52,0,0,0,0,1.77c0,.43.12,4.44.08,4.75s0,.48-.27.6A1.55,1.55,0,0,1,31.47,83.49Z" fill="#878787"/><path d="M40.61,79.19a.51.51,0,0,1-.24.1c-.17,0-.35,0-.53.08a4.07,4.07,0,0,0-.75.13c-.06,0-.06.28-.06.43,0,.47,0,1,.08,1.43s0,.67,0,1c0,.49.1.56.63.53a9.9,9.9,0,0,1,1.54,0c.11,0,.17,0,.23.17s-.12.19-.22.21c-.3,0-.6.08-.9.1l-1.61.1a.48.48,0,0,1-.55-.5c0-.39-.09-.77-.11-1.15s0-.5,0-.75,0-.75,0-1.13l0-1.16c0-.78-.07-1.55-.11-2.33,0-.32,0-.62,0-.93,0-.08.18-.2.29-.21a9.83,9.83,0,0,1,1.21-.08c.33,0,.65,0,1,0s.36,0,.53,0a.5.5,0,0,1,.28.12s0,.15,0,.17a.59.59,0,0,1-.29.1c-.34,0-.68,0-1,0a6.93,6.93,0,0,0-.89.1.18.18,0,0,0-.12.13c0,.51,0,1,0,1.53s.08.86.13,1.3a1.45,1.45,0,0,0,0,.27c.17,0,.34,0,.51-.07L40,79a.93.93,0,0,1,.55.11C40.66,79.12,40.65,79.16,40.61,79.19Z" fill="#878787"/><path d="M44.25,80.38c0,.58,0,1.41,0,2,0,.35,0,.5-.05.86s-.21.25-.31.26c-.26,0-.41-.11-.4-.4.06-1.13,0-2.27,0-3.4,0-.69,0-1.38,0-2.07,0-.45,0-.74,0-1.18a2.69,2.69,0,0,1,0-.57c0-.14.14-.33.25-.36s.21-.09.43.22a5.46,5.46,0,0,0,.31.71c.15.29.17.61.32.9s.29.81.49,1.21.53,1.1.77,1.6c0-.36,0-.84,0-1.18-.07-.57-.09-1.16-.15-1.73l-.09-1.35c0-.74.34-.73.6-.57a.69.69,0,0,1,.23.43c.06.49.11,1,.14,1.5s.09,1.56.12,1.77c0,.46,0,.91,0,1.36s.09,1.32.14,1.85c0,.24.06.48.09.71.07.64-.51.5-.57.5-.4,0-.58-.85-.69-1.15-.22-.54-.36-.93-.6-1.46a16.15,16.15,0,0,0-1-1.87Z" fill="#878787"/><path d="M53.41,76.17a.48.48,0,0,1-.29.06h0a.93.93,0,0,1-.29,0l-1.3,0c0,.06,0,.13,0,.16,0,.28-.09.54-.11.82,0,.44,0,.89,0,1.34s0,.68-.06,1,0,.5,0,.74,0,.56,0,.85,0,.83-.05,1.25-.07.66-.11,1c0,0-.12.06-.2.06a1.08,1.08,0,0,1-.31,0,.32.32,0,0,1-.23-.08.58.58,0,0,1-.07-.32c0-.28,0-.55.06-.83s.09-.74.11-1.11,0-.65,0-1,0-.49.05-.75,0-.64.06-.94,0-.54.09-.81.1-.71.14-1.06c0-.09,0-.22,0-.34l-2,0s-.11-.21-.13-.33a1.93,1.93,0,0,1,0-.34c0-.31.14-.41.45-.39a6.17,6.17,0,0,0,.86,0c.41,0,.82,0,1.23,0s.2,0,.53,0,.86,0,1.32,0a2.43,2.43,0,0,1,.38,0s.09.07.09.1A1.08,1.08,0,0,1,53.41,76.17Z" fill="#878787"/><path d="M58.53,82.17a0,0,0,0,0,0,0c-.05-.26-.12-.51-.16-.76-.13-.6-.15-.87-.27-1.46a.14.14,0,0,0-.15-.12c-.06,0-.4,0-.6,0l-.88,0c-.19,0-.47,0-.59.17s-.06.48-.09.69,0,.48,0,.75c-.05.61,0,1.23,0,1.84a.2.2,0,0,1-.24.18l-.56-.09a.28.28,0,0,1-.23-.23,3.58,3.58,0,0,1,0-1,9.81,9.81,0,0,1,.08-1.09c0-.29.07-.58.1-.88s.08-.47.12-.78a6.22,6.22,0,0,1,.1-.72c.05-.32.08-.65.14-1a11.65,11.65,0,0,1,.37-1.85,1.57,1.57,0,0,1,.45-.56.44.44,0,0,1,.34-.09c.24,0,.49.07.74.11s.43.4.55.64a9.6,9.6,0,0,1,.46,1.56c.08.32.21.62.31.93s.15.53.22.85.1.41.16.7a2,2,0,0,0,.11.35c.05.24.12.57.22.9s.11.49.21.8c.17.53.18.74.26,1s0,.37-.22.41a2.38,2.38,0,0,1-.26.05c-.1,0-.2-.09-.25-.23C58.77,83,58.62,82.5,58.53,82.17Zm-1.55-3h0l.64-.07a.15.15,0,0,0,.14-.23l-.21-.69c0-.13-.07-.25-.12-.37a2.08,2.08,0,0,0-.12-.32c0-.16-.08-.33-.13-.49l-.2-.56c-.07-.17-.13-.35-.21-.51-.16-.35-.47.62-.48.76s-.1.54-.14.81-.11.61-.15.9-.22.79.11.78H57Z" fill="#878787"/><path d="M62.83,75.21a2.6,2.6,0,0,1,.56,0,.41.41,0,0,1,.26.1c.09.07.07.13,0,.14a1.19,1.19,0,0,1-.46,0,1.49,1.49,0,0,0-1,.31,4.11,4.11,0,0,0-1.08,2.89,10.74,10.74,0,0,0,.11,2,4.46,4.46,0,0,0,.51,1.7,1.78,1.78,0,0,0,2,.87,2.08,2.08,0,0,0,.57-.22c.13.06.08.26,0,.38a1.39,1.39,0,0,1-.92.33,4,4,0,0,1-.78-.07,2.53,2.53,0,0,1-.61-.23,3.24,3.24,0,0,1-1-1,5.9,5.9,0,0,1-.8-2.84,6.4,6.4,0,0,1,.3-2.5,4.83,4.83,0,0,1,.33-.85,2.8,2.8,0,0,1,.49-.6A2.33,2.33,0,0,1,62.83,75.21Z" fill="#878787"/><path d="M70.36,83.12c-.07.21-.69.16-1,.19l-1,0c-.35,0-.69,0-1,.09s-.6.13-.77,0,0-.19.08-.26a1.78,1.78,0,0,1,.73-.12c.23,0,.53,0,.63-.13a1.7,1.7,0,0,0,.14-1c0-.73-.07-1.46-.09-2.18s0-1.41-.06-2.11a15,15,0,0,1,0-1.5c0-.35,0-.53-.4-.53a5.73,5.73,0,0,1-1.09-.09.19.19,0,0,1,.13-.34c.37,0,.73-.06,1.09,0s.58,0,.85,0c.52,0,1,0,1.54.06a.36.36,0,0,1,.13.18.4.4,0,0,1-.21.18c-.39,0-.8,0-1.18,0-.07,0-.13.24-.14.38-.06,1,.09,2,.12,3,0,.76,0,1.52,0,2.28,0,.37,0,.73,0,1.1s0,.44.29.44a7.67,7.67,0,0,1,.83,0C70.11,82.94,70.21,82.89,70.36,83.12Z" fill="#878787"/><path d="M75.61,78.29a11.62,11.62,0,0,1-.15,2.63,3.77,3.77,0,0,1-.67,2.14,1.25,1.25,0,0,1-1.63.47,2,2,0,0,1-.72-1.82c0-.95,0-1.89,0-2.84a9.52,9.52,0,0,1,.36-3c.41-1.06,1.94-.65,2.36.18a6.51,6.51,0,0,1,.36,1.71A3.19,3.19,0,0,1,75.61,78.29Zm-2.43,3.92c.12.43.32.81.64.78s.69-.89.78-1.22A8.85,8.85,0,0,0,75,78.26a6.82,6.82,0,0,0-.14-1c-.13-.62-.23-1.39-1-1.34-.14,0-.31.24-.39.4a6.49,6.49,0,0,0-.33,2.32c0,.79-.12,1.6-.09,2.39A7.49,7.49,0,0,0,73.18,82.21Z" fill="#878787"/><path d="M78.66,80.38c0,.58,0,1.41,0,2,0,.35,0,.5-.06.86s-.2.25-.3.26c-.26,0-.41-.11-.4-.4,0-1.13,0-2.27,0-3.4,0-.69,0-1.38,0-2.07,0-.45,0-.74,0-1.18a2.16,2.16,0,0,1,0-.57c0-.14.14-.33.25-.36s.21-.09.43.22a5.46,5.46,0,0,0,.31.71c.14.29.17.61.32.9s.29.81.49,1.21.53,1.1.77,1.6c0-.36,0-.84,0-1.18-.06-.57-.08-1.16-.14-1.73s-.07-.9-.09-1.35c0-.74.33-.73.6-.57a.69.69,0,0,1,.23.43c0,.49.11,1,.14,1.5s.09,1.56.11,1.77c0,.46,0,.91,0,1.36s.08,1.32.14,1.85c0,.24,0,.48.09.71.06.64-.51.5-.58.5-.39,0-.57-.85-.68-1.15-.22-.54-.36-.93-.61-1.46a14.72,14.72,0,0,0-1-1.87Z" fill="#878787"/><path d="M90.41,75.21a2.49,2.49,0,0,1,.55,0,.43.43,0,0,1,.27.1c.09.07.06.13,0,.14a1.19,1.19,0,0,1-.46,0,1.47,1.47,0,0,0-1,.31,4.11,4.11,0,0,0-1.08,2.89,10,10,0,0,0,.11,2,4.3,4.3,0,0,0,.51,1.7,1.78,1.78,0,0,0,2,.87,1.81,1.81,0,0,0,.56-.22c.14.06.09.26,0,.38a1.42,1.42,0,0,1-.93.33,3.94,3.94,0,0,1-.77-.07,2.77,2.77,0,0,1-.62-.23,3.32,3.32,0,0,1-1-1,5.9,5.9,0,0,1-.8-2.84,6.58,6.58,0,0,1,.29-2.5,4.86,4.86,0,0,1,.34-.85,2.53,2.53,0,0,1,.49-.6A2.33,2.33,0,0,1,90.41,75.21Z" fill="#878787"/><path d="M97.45,78.29a12.22,12.22,0,0,1-.14,2.63,3.85,3.85,0,0,1-.68,2.14,1.25,1.25,0,0,1-1.63.47,2.05,2.05,0,0,1-.72-1.82c0-.95,0-1.89,0-2.84a9.52,9.52,0,0,1,.35-3c.41-1.06,1.94-.65,2.36.18a6.13,6.13,0,0,1,.36,1.71A3.19,3.19,0,0,1,97.45,78.29ZM95,82.21c.12.43.32.81.64.78s.69-.89.79-1.22a9,9,0,0,0,.36-3.51,6.82,6.82,0,0,0-.14-1c-.12-.62-.22-1.39-1-1.34-.14,0-.31.24-.38.4a6.28,6.28,0,0,0-.33,2.32A23.87,23.87,0,0,0,94.85,81,6.28,6.28,0,0,0,95,82.21Z" fill="#878787"/><path d="M100.51,80.38c0,.58,0,1.41-.05,2,0,.35,0,.5,0,.86s-.21.25-.31.26c-.26,0-.41-.11-.4-.4.06-1.13,0-2.27,0-3.4,0-.69,0-1.38,0-2.07,0-.45,0-.74,0-1.18a2.69,2.69,0,0,1,0-.57c0-.14.14-.33.25-.36s.21-.09.43.22a5.46,5.46,0,0,0,.31.71c.15.29.17.61.32.9s.29.81.49,1.21.53,1.1.77,1.6c0-.36,0-.84,0-1.18-.07-.57-.09-1.16-.15-1.73L102,75.88c0-.74.34-.73.6-.57a.69.69,0,0,1,.23.43c.06.49.11,1,.15,1.5s.08,1.56.11,1.77c0,.46,0,.91,0,1.36s.09,1.32.14,1.85c0,.24.06.48.09.71.07.64-.51.5-.57.5-.4,0-.58-.85-.69-1.15-.22-.54-.36-.93-.6-1.46a16.15,16.15,0,0,0-1-1.87Z" fill="#878787"/><path d="M113.56,78.29a12.91,12.91,0,0,1-.15,2.63,3.84,3.84,0,0,1-.67,2.14,1.26,1.26,0,0,1-1.63.47,2,2,0,0,1-.72-1.82c0-.95,0-1.89,0-2.84a9.52,9.52,0,0,1,.36-3c.4-1.06,1.94-.65,2.36.18a6.51,6.51,0,0,1,.36,1.71A4.68,4.68,0,0,1,113.56,78.29Zm-2.43,3.92c.12.43.32.81.64.78s.68-.89.78-1.22a9,9,0,0,0,.37-3.51,6.83,6.83,0,0,0-.15-1c-.12-.62-.22-1.39-1-1.34-.15,0-.31.24-.39.4a6.28,6.28,0,0,0-.33,2.32c0,.79-.12,1.6-.09,2.39A6.47,6.47,0,0,0,111.13,82.21Z" fill="#878787"/><path d="M119.05,76.39a1.08,1.08,0,0,1,0,.31,5.73,5.73,0,0,1-.41,1.23,4.35,4.35,0,0,1-.85.92s-.12.11-.1.14a.33.33,0,0,0,.16.17,2.12,2.12,0,0,1,1.4,1.12,3.28,3.28,0,0,1,.18,1.24,2.39,2.39,0,0,1-1.07,1.63,1.22,1.22,0,0,1-1.23.24c-.16,0-.41-.1-.5-.26a2.27,2.27,0,0,1,0-.78c0-.75,0-1.52,0-2.27-.07-1-.12-1.94-.14-2.91,0-.48,0-1,0-1.45s.1-.4.44-.47a2.46,2.46,0,0,1,1.64.26A1.13,1.13,0,0,1,119.05,76.39Zm-1.52-.69a.56.56,0,0,0-.41.13c-.14.16-.07.48-.06.67s.08.48.08.72,0,.64,0,1c0,.16,0,.36.23.24a1.05,1.05,0,0,0,.38-.5,3.56,3.56,0,0,0,.26-.93,1.7,1.7,0,0,0-.08-1,.62.62,0,0,0-.32-.32Zm.88,5.47A1.75,1.75,0,0,0,118,80a3.81,3.81,0,0,0-.46-.44c-.09-.06-.22-.13-.32-.09s0,.77.07.83c0,.32,0,.64.06,1,0,.56,0,1.13.07,1.68.26.06.52-.4.67-.64A1.88,1.88,0,0,0,118.41,81.17Z" fill="#878787"/><path d="M122.36,81.26c.28.07.32.49.37.75s.4.79.81.75c.79,0,.64-2.68.63-3,0-.81,0-1.63-.07-2.45,0-.31,0-.63,0-1s0-.58-.43-.57-.52.07-.86.07-1.38.13-1.38-.21.58-.33.78-.33c.45,0,.86,0,1.28-.06a4.18,4.18,0,0,0,.5,0c.31,0,.77-.13,1,.21a2.53,2.53,0,0,1,.11.91c0,.67.11,1.32.11,2a16.39,16.39,0,0,1-.32,4.36,1.42,1.42,0,0,1-2.19.54,2.49,2.49,0,0,1-.6-.84C121.83,82,121.76,81.33,122.36,81.26Z" fill="#878787"/><path d="M130.18,79.19a.53.53,0,0,1-.23.1c-.18,0-.35,0-.53.08a3.93,3.93,0,0,0-.75.13c-.07,0-.07.28-.07.43,0,.47.06,1,.08,1.43s0,.67,0,1c0,.49.1.56.63.53a9.77,9.77,0,0,1,1.53,0,.21.21,0,0,1,.23.17c0,.19-.12.19-.22.21-.3,0-.59.08-.89.1l-1.61.1a.48.48,0,0,1-.55-.5c0-.39-.09-.77-.11-1.15a6.26,6.26,0,0,1,0-.75c0-.38,0-.75,0-1.13l0-1.16c0-.78-.08-1.55-.11-2.33,0-.32,0-.62,0-.93,0-.08.17-.2.28-.21a9.87,9.87,0,0,1,1.22-.08c.33,0,.65,0,1,0s.35,0,.53,0a.45.45,0,0,1,.27.12s0,.15,0,.17a.53.53,0,0,1-.28.1c-.35,0-.69,0-1,0a6.55,6.55,0,0,0-.89.1.17.17,0,0,0-.13.13c0,.51,0,1,0,1.53s.08.86.12,1.3a.83.83,0,0,0,.06.27c.16,0,.34,0,.5-.07l.49,0a.93.93,0,0,1,.55.11C130.24,79.12,130.22,79.16,130.18,79.19Z" fill="#878787"/><path d="M137.25,76.17a.5.5,0,0,1-.3.06h0a.93.93,0,0,1-.29,0l-1.3,0c0,.06,0,.13,0,.16,0,.28-.09.54-.11.82,0,.44,0,.89,0,1.34s0,.68-.06,1,0,.5,0,.74,0,.56,0,.85,0,.83-.05,1.25-.07.66-.11,1c0,0-.13.06-.2.06a1.08,1.08,0,0,1-.31,0,.32.32,0,0,1-.23-.08.58.58,0,0,1-.07-.32c0-.28,0-.55.06-.83s.08-.74.11-1.11,0-.65,0-1,0-.49.05-.75,0-.64.06-.94,0-.54.09-.81.1-.71.14-1.06c0-.09,0-.22,0-.34l-2,0s-.11-.21-.13-.33a1.93,1.93,0,0,1,0-.34c0-.31.14-.41.45-.39a6.17,6.17,0,0,0,.86,0c.41,0,.82,0,1.23,0s.19,0,.53,0,.86,0,1.32,0l.37,0s.1.07.1.1A1.08,1.08,0,0,1,137.25,76.17Z" fill="#878787"/><path d="M142.72,83.12c-.06.21-.68.16-1,.19l-1.05,0c-.34,0-.68,0-1,.09s-.6.13-.78,0,0-.19.08-.26a1.83,1.83,0,0,1,.74-.12c.22,0,.53,0,.63-.13a1.8,1.8,0,0,0,.13-1c0-.73-.06-1.46-.09-2.18s0-1.41-.05-2.11a12.46,12.46,0,0,1,0-1.5c0-.35,0-.53-.39-.53a5.73,5.73,0,0,1-1.09-.09s-.1-.16-.07-.22a.21.21,0,0,1,.2-.12c.36,0,.73-.06,1.09,0s.57,0,.85,0c.52,0,1,0,1.53.06.05,0,.15.16.13.18a.38.38,0,0,1-.2.18c-.39,0-.8,0-1.19,0-.06,0-.13.24-.14.38-.05,1,.1,2,.12,3,0,.76,0,1.52,0,2.28,0,.37,0,.73,0,1.1s0,.44.29.44a7.48,7.48,0,0,1,.82,0C142.48,82.94,142.58,82.89,142.72,83.12Z" fill="#878787"/><path d="M148.06,78c-.07.37-.15.75-.21,1.12-.11.83-.3,1.67-.43,2.49a16,16,0,0,1-.3,1.59.32.32,0,0,1-.22.25.6.6,0,0,1-.64-.11c-.32-.24-.33-.67-.43-1a13.12,13.12,0,0,0-.36-1.33c-.21-.55-.35-1.1-.55-1.65a12.86,12.86,0,0,1-.58-2.6,3,3,0,0,1-.09-1c0-.16,0-.46.37-.46.17,0,.28.26.31.36.18.51.17.75.32,1.26s.19.78.29,1.17l.16.56c.11.39.19.76.3,1.15s.14.76.25,1.14c0,.09.15.65.19.73a0,0,0,0,0,.06,0s.05,0,.05-.06c.06-.39.18-1.21.24-1.61l.3-1.64c.08-.41.17-.84.26-1.25s.24-1,.38-1.47.72-.24.76,0a1.58,1.58,0,0,1-.05.61C148.32,76.78,148.19,77.36,148.06,78Z" fill="#878787"/><path d="M153.71,78.29a12.22,12.22,0,0,1-.14,2.63,3.85,3.85,0,0,1-.68,2.14,1.25,1.25,0,0,1-1.63.47,2.05,2.05,0,0,1-.72-1.82c0-.95,0-1.89,0-2.84a9.52,9.52,0,0,1,.35-3c.41-1.06,1.94-.65,2.36.18a6.13,6.13,0,0,1,.36,1.71A3.19,3.19,0,0,1,153.71,78.29Zm-2.43,3.92c.13.43.32.81.64.78s.69-.89.79-1.22a9,9,0,0,0,.36-3.51,6.82,6.82,0,0,0-.14-1c-.12-.62-.22-1.39-1-1.34-.14,0-.31.24-.38.4a6.28,6.28,0,0,0-.33,2.32,23.87,23.87,0,0,0-.09,2.39A6.28,6.28,0,0,0,151.28,82.21Z" fill="#878787"/><path d="M156.06,81.9a1.21,1.21,0,0,1,.24-.77c.14-.19.61-.54.8-.22s0,.55-.09.74c-.11.46.1,1,.63,1.06s.71-.51.74-.92a3.62,3.62,0,0,0-.41-1.5c-.31-.74-.74-1.41-1.05-2.15a2.83,2.83,0,0,1-.15-2.17,1.8,1.8,0,0,1,1.31-.71,1.75,1.75,0,0,1,.89.22c.52.36.9,1.45.4,1.9s-.39-.28-.46-.49a1.49,1.49,0,0,0-.26-.5c-.18-.24-.52-.48-.81-.29-.67.41-.06,1.59.16,2.08.49,1.11,1.38,2.31,1.29,3.58a1.7,1.7,0,0,1-1.59,1.81A1.6,1.6,0,0,1,156.06,81.9Z" fill="#878787"/><path d="M74.54,73.43c0,.54-.17.82-.6.89-.25.05-.31-.07-.2-.24a1,1,0,0,0,.11-1c0-.09.07-.39.24-.39a.45.45,0,0,1,.43.38A1.37,1.37,0,0,1,74.54,73.43Z" fill="#878787"/></g></g></svg>