<svg xmlns="http://www.w3.org/2000/svg" viewBox="0 0 171.13 61.9"><g id="f19873cd-1869-4124-a002-187d6af34e40" data-name="Capa 2"><g id="b3c0f6bc-1ca5-4f66-b9da-275d6ed9b3f6" data-name="Capa 1"><path d="M17.45,39.48H0v-8.7A8.75,8.75,0,0,1,8.75,22h8.7ZM37.14,8.75A8.74,8.74,0,0,0,28.4,0H19.7V52.76a8.75,8.75,0,0,0,8.75,8.75h8.69Zm22,16.18L76.54,0H59.1ZM92.57,36.45h8v-28h.09l4.64,28h5.42l4.65-28h.09v28h8V.4H110.44L108.1,18.27H108L105.66.4H92.57Zm34-9.84c0,6.41,4.11,10.43,10.7,10.43s10.69-4,10.69-10.43V.4h-8.3V26.7c0,1.94,0,3.66-2.39,3.66s-2.39-1.72-2.39-3.66V.4h-8.31Zm28.16,9.84H165L171.13.4h-8.34L160,26h-.09L157.69.4H149.2ZM92.54,61.9h7.23c4.54,0,5.89-2.85,5.89-6.56,0-2.8-.85-4.65-3.35-5.09v-.06c2.47-.83,2.8-2.88,2.8-5.2,0-3.8-1.8-5.21-5.51-5.21H92.54Zm5.1-18.35h1.13c1.25,0,1.58.85,1.58,2.41,0,1.38-.17,2.57-1.77,2.57h-.94Zm0,8.58H98.8c1.58,0,1.77,1.47,1.77,3,0,2.19-.19,3-1.88,3h-1Zm59.79,9.77h5.1V52.35h.94c1.44,0,1.93.55,1.93,1.83v3.54c0,1.47,0,3.46.59,4.18h5c-.59-.72-.53-2.71-.53-4.18v-3.9a3.45,3.45,0,0,0-3-3.52v0c2.71-.83,3.07-2.52,3.07-5.13,0-4-1.91-5.34-6.45-5.34h-6.73Zm5.1-18.35h1c2,0,2,.88,2,2.43s0,2.61-1.75,2.61h-1.24Zm-50.06,9.16h5.46V48.45h-5.46V45.18h-5.09V61.9H119V57.64h-6.48Zm36.77,4.93V52.71h5.45V48.45h-5.45V45.18h-5.1V61.9h11.58V57.64Zm6.48-17.93H107.38v4h15.74V61.9h5.14V43.72h6.59V61.9H140V43.72h15.73ZM58.12.07a8,8,0,0,0-5.55,3.34L39.47,22.13v17.5h5.18a8,8,0,0,0,6.55-3.42l6.92-9.88Zm1,26.37V61.51h8.69a8.75,8.75,0,0,0,8.75-8.75V1.51Z" fill="#878787"/></g></g></svg>