<svg xmlns="http://www.w3.org/2000/svg" viewBox="0 0 107.89 117.68"><g id="a93b1295-a553-443e-bc0d-930080c307d6" data-name="Capa 2"><g id="b0102308-4ea7-4e14-8516-974a7c292c1a" data-name="Capa 1"><path d="M88.43,101.22l-17.1,0c-1,0-1.4-.56-1.39-1.59,0-4.72,0-9.44,0-14.15a13.41,13.41,0,0,0-7-12.34,10.53,10.53,0,0,0-5.28-1.39c-2.24-.06-4.48,0-6.72,0-4.91-.06-8.41,2.34-11,6.28a11.18,11.18,0,0,0-1.83,6.45c0,4.87,0,9.75,0,14.62,0,1.74-.4,2.14-2.14,2.14H19.45a2.83,2.83,0,0,1-.47-2q0-22,0-44c0-.49.2-1-.22-1.46A8.53,8.53,0,0,0,19,50.89V37.26c0-1.41.39-1.79,1.82-1.79l5.52,0c3.34,0,6.67,0,10,0,1.51,0,1.76.26,1.76,1.8,0,3.14,0,6.28,0,9.42A3.8,3.8,0,0,0,39,49.41a13.39,13.39,0,0,0,6.81,3.67,1.2,1.2,0,0,0,1,.57c1,.17,2.07.45,3.11.53,3.67.25,7.34.45,11-.48.36-.09.83,0,.89-.58,1.66,0,3-.94,4.37-1.57a5.9,5.9,0,0,0,3.83-6.24c-.14-2.75-.13-5.5-.14-8.25,0-1.22.41-1.63,1.63-1.63l10.13,0c1.89,0,3.77,0,5.66,0,1.39,0,1.63.27,1.63,1.66,0,4.4,0,8.8,0,13.21A15.1,15.1,0,0,0,89,53.49c0,.43-.06.86-.06,1.29V99.37C88.94,100,89,100.72,88.43,101.22Z" fill="#c8c8c8"/><path d="M45.8,53.08A13.39,13.39,0,0,1,39,49.41a3.8,3.8,0,0,1-.89-2.74c0-3.14,0-6.28,0-9.42,0-1.54-.25-1.8-1.76-1.8-3.34,0-6.67,0-10,0l1.2-3.24c.39,0,.78-.09,1.17-.12a9.3,9.3,0,0,0,8.41-5.5A9,9,0,0,0,36,16.85c-.44-.6-1-1.13-1.45-1.69,1.89-4.51,3.79-9,5.63-13.53A2.25,2.25,0,0,1,42.57,0Q54,.06,65.42,0a2.14,2.14,0,0,1,2.29,1.56c1.82,4.54,3.72,9,5.58,13.58,0,.55-.43.8-.75,1.13a9.42,9.42,0,0,0,.15,12.87,10.49,10.49,0,0,0,7.63,3,32.32,32.32,0,0,1,1.22,3.28l-10.13,0c-1.22,0-1.64.41-1.63,1.63,0,2.75,0,5.5.14,8.25a5.9,5.9,0,0,1-3.83,6.24c-1.42.63-2.71,1.6-4.37,1.57q-.93-2.53-1.88-5.06c-1.45-3.85-2.89-7.69-4.35-11.53a1.72,1.72,0,0,0-1.83-1.33A1.83,1.83,0,0,0,52,36.59Q48.9,44.84,45.8,53.08Z" fill="#565656"/><path d="M88.43,101.22c.58-.5.51-1.18.51-1.85V54.78c0-.43,0-.86.06-1.29,2,4.7,4,9.39,5.89,14.1Q101.25,83,107.57,98.4c.78,1.89.14,2.86-1.92,2.85Q97,101.25,88.43,101.22Z" fill="#565656"/><path d="M18.75,53.78c.42.43.22,1,.22,1.46q0,22,0,44a2.83,2.83,0,0,0,.47,2H2.12c-1.87,0-2.56-1-1.84-2.75Q5,87.14,9.71,75.74,14.24,64.78,18.75,53.78Z" fill="#565656"/><path d="M34.56,15.16c.49.56,1,1.09,1.45,1.69a9,9,0,0,1,1.12,9.74,9.3,9.3,0,0,1-8.41,5.5c-.39,0-.78.08-1.17.12-.28-.39-.74-.41-1.15-.51a9.48,9.48,0,0,1-7.15-8.6,9.49,9.49,0,0,1,6.82-9.46,9.11,9.11,0,0,1,7.44,1.06A2,2,0,0,0,34.56,15.16Z" fill="#c8c8c8"/><path d="M80.32,32.17a10.49,10.49,0,0,1-7.63-3,9.42,9.42,0,0,1-.15-12.87c.32-.33.77-.58.75-1.13a1.61,1.61,0,0,0,1.3-.41,9.32,9.32,0,0,1,14.06,6.11,9.49,9.49,0,0,1-7,10.87C81.18,31.81,80.66,31.77,80.32,32.17Z" fill="#c8c8c8"/><path d="M29.49,113.86l-1.58,2.2-1.58-2.21-.26.08c0,1,0,1.92,0,2.88,0,.51-.08.79-.7.78s-.58-.37-.58-.78c0-1.53,0-3.06,0-4.6,0-.31-.16-.78.38-.83s1-.17,1.27.34.72,1.13,1.06,1.7.55.47.83,0,.66-1,.92-1.51.87-.61,1.41-.51.34.63.35,1c0,1.41,0,2.83,0,4.24,0,.41.23,1-.59,1s-.65-.58-.66-1c0-.88,0-1.76,0-2.63Z" fill="#565656"/><path d="M53.93,115.11c0-1.2,0-2.1,0-3,0-.43,0-.75.6-.77s.71.29.7.8c0,1.49,0,3,0,4.47,0,.33.25.85-.36,1a1,1,0,0,1-1.13-.42c-.77-1.08-1.6-2.12-2.57-3.38a10,10,0,0,0-.19,2.92c0,.47.08.93-.69.91s-.58-.47-.58-.88c0-1.45,0-2.9,0-4.35,0-.34-.26-.85.33-1a1.09,1.09,0,0,1,1.23.45c.67.92,1.37,1.82,2.06,2.72A7,7,0,0,0,53.93,115.11Z" fill="#565656"/><path d="M62.6,115.32c0,1.58-.32,2-1.8,2.26a3.23,3.23,0,0,1-3.39-5.22,3.49,3.49,0,0,1,3.88-.87c.36.15,1.08.17.76.89s-.66.58-1.23.28a1.76,1.76,0,0,0-2.34.47,2.06,2.06,0,0,0-.19,2.43,1.86,1.86,0,0,0,2.11.91c.44-.07.86-.17.88-.75s-.39-.57-.79-.56-.6-.11-.61-.53.27-.6.68-.58a2.91,2.91,0,0,0,.59,0C62.32,113.86,62.89,114.25,62.6,115.32Z" fill="#565656"/><path d="M43,112.47H40.73c-.39,0-.82.08-.82-.54s.38-.58.79-.58c1.06,0,2.12,0,3.18,0,.36,0,.86-.24,1,.25a1.21,1.21,0,0,1-.4,1.27c-.71.79-1.39,1.6-2.06,2.42-.24.29-.76.55-.59.93s.77.16,1.17.21a9.29,9.29,0,0,0,1.18,0c.44,0,.76.05.75.62s-.4.49-.73.49c-1.18,0-2.36,0-3.54,0-.31,0-.75.21-.9-.27a1.09,1.09,0,0,1,.32-1.08c.83-.95,1.64-1.9,2.46-2.86A1.13,1.13,0,0,0,43,112.47Z" fill="#565656"/><path d="M23.57,117.45c-.88.26-1.45.17-1.65-.7-.16-.7-.73-.66-1.22-.58-.67.11-1.59-.46-1.94.55-.28.79-.73,1-1.64.74.82-1.93,1.6-3.85,2.45-5.75a.86.86,0,0,1,1.56.07C22,113.63,22.74,115.5,23.57,117.45ZM20.3,113c-.29.7-.88,1.23-.57,1.88.13.28,1,.27,1.16,0C21.28,114.25,20.62,113.74,20.3,113Z" fill="#565656"/><path d="M38.76,117.47c-.79.19-1.4.24-1.63-.68s-1-.64-1.55-.62-1.42-.33-1.68.61c-.22.79-.71.93-1.6.68.84-2,1.64-3.92,2.52-5.84.26-.57,1.22-.47,1.5.14C37.16,113.64,37.94,115.55,38.76,117.47Zm-3.25-4.22c-.32.55-.95,1-.55,1.68A1.11,1.11,0,0,0,36,115C36.51,114.3,35.79,113.83,35.51,113.25Z" fill="#565656"/><path d="M72.1,114.41c0,.78,0,1.57,0,2.35,0,.41,0,.8-.58.81s-.67-.29-.65-.75c0-.12,0-.23,0-.35A1.61,1.61,0,0,0,68.43,115c-.34.15-.33.4-.34.67,0,.44,0,.87,0,1.3s-.15.58-.55.58-.64-.07-.64-.5c0-1.73,0-3.46,0-5.18,0-.35.25-.45.56-.46s.61.1.62.51a3.87,3.87,0,0,1,0,.59c-.16,1.12.28,1.49,1.43,1.49s1.52-.38,1.36-1.44v-.11c0-.43-.19-1,.59-1s.62.53.63,1C72.11,113.07,72.1,113.74,72.1,114.41Z" fill="#c8c8c8"/><path d="M73.93,114.43c0-3,0-3.05,3-3,.51,0,1.52-.49,1.49.49s-1,.3-1.55.46a2.34,2.34,0,0,1-.46,0c-.54,0-1.25-.24-1.23.76s.67.74,1.23.84,1.55-.44,1.55.45-1,.38-1.6.52-1.15-.25-1.18.69.63.91,1.27.91h1.52c.32,0,.52.14.52.49s-.19.49-.5.49H74.54c-.56,0-.62-.35-.62-.79C73.93,116,73.93,115.22,73.93,114.43Z" fill="#c8c8c8"/><path d="M85.76,114.47a5.8,5.8,0,0,1,0-.59c.1-.8-.4-2,.27-2.31a4.78,4.78,0,0,1,3.21,0,2.09,2.09,0,0,1,.11,3.81,2.57,2.57,0,0,1-1,.26c-1-.1-1.57.2-1.38,1.33.06.38-.16.57-.56.58s-.63-.19-.63-.63c0-.83,0-1.65,0-2.47Zm1.22-.82c-.09.57,0,1.09.81,1s1.56-.1,1.51-1.18c0-.9-.7-1-1.39-1.07C87,112.32,86.9,112.9,87,113.65Z" fill="#c8c8c8"/><path d="M80.1,114.48v-2.35c0-.39.05-.69.55-.71s.66.27.65.73c0,1.1,0,2.2,0,3.29,0,.71.2,1,.93,1a12.91,12.91,0,0,1,1.76,0c.37,0,.55.26.56.63s-.25.52-.61.52H80.75c-.52,0-.66-.27-.65-.73C80.11,116.05,80.1,115.27,80.1,114.48Z" fill="#c8c8c8"/><path d="M47.89,114.46c0,.78,0,1.56,0,2.34,0,.5-.07.8-.69.79s-.61-.3-.61-.74q0-2.34,0-4.68c0-.48,0-.83.67-.81s.63.33.62.76Z" fill="#565656"/></g></g></svg>