<svg xmlns="http://www.w3.org/2000/svg" viewBox="0 0 151.98 78.69"><g id="fbee503c-53a0-4402-ab22-dcbe0cfc2e8b" data-name="Capa 2"><g id="a09151b3-6c72-49ca-a9b4-fe2a09c328c9" data-name="Capa 1"><circle cx="55.43" cy="31.21" r="3.48" fill="#c4c4c4"/><path d="M125,31.21a3.48,3.48,0,1,1-3.48-3.48A3.48,3.48,0,0,1,125,31.21Z" fill="#c4c4c4"/><path d="M88.25,52.72A19.62,19.62,0,1,1,107.87,33.1,19.64,19.64,0,0,1,88.25,52.72Zm0-31.38A11.76,11.76,0,1,0,100,33.1,11.77,11.77,0,0,0,88.25,21.34ZM33.35,0V17.44A19.59,19.59,0,1,0,41.21,33.1V0ZM21.59,44.86A11.76,11.76,0,1,1,33.35,33.1,11.78,11.78,0,0,1,21.59,44.86ZM148.43,21.34V13.48h-4.51V0h-7.86V40.35a12.39,12.39,0,0,0,12.37,12.37V44.86a4.52,4.52,0,0,1-4.51-4.51v-19Zm-142.6,50a3.41,3.41,0,0,0-1-.61,3,3,0,0,0-1.12-.2,2.49,2.49,0,0,0-1.84.72,2.84,2.84,0,0,0,0,3.72,2.29,2.29,0,0,0,1.74.72,3.26,3.26,0,0,0,1.16-.21,3.88,3.88,0,0,0,1.06-.66v1.27a3.08,3.08,0,0,1-1,.48,3.92,3.92,0,0,1-1.16.16,3.9,3.9,0,0,1-1.46-.26A3.37,3.37,0,0,1,1,75.75a3.51,3.51,0,0,1-.77-1.16A3.83,3.83,0,0,1,0,73.16a3.7,3.7,0,0,1,.27-1.42,3.34,3.34,0,0,1,.78-1.17,3.49,3.49,0,0,1,1.18-.77,3.76,3.76,0,0,1,1.44-.26,3.64,3.64,0,0,1,1.15.17,4,4,0,0,1,1.07.54Zm5.6,3.13H7.86a1.5,1.5,0,0,0,.38,1,1.16,1.16,0,0,0,.88.35,1.53,1.53,0,0,0,.83-.21,1.67,1.67,0,0,0,.57-.67l.86.48a2.58,2.58,0,0,1-.93,1,2.49,2.49,0,0,1-1.3.33,2.25,2.25,0,0,1-1.71-.65,2.43,2.43,0,0,1-.64-1.75,2.35,2.35,0,0,1,.66-1.72A2.26,2.26,0,0,1,9.15,72a2.24,2.24,0,0,1,1.68.62,2.38,2.38,0,0,1,.6,1.73Zm-1.06-.69a1.06,1.06,0,0,0-.37-.73,1.25,1.25,0,0,0-.83-.25,1.26,1.26,0,0,0-.81.24,1.3,1.3,0,0,0-.43.74Zm2.12,2.77V72.13h1v.73a2,2,0,0,1,.72-.67,2.12,2.12,0,0,1,1-.22,2.15,2.15,0,0,1,.85.16,1.26,1.26,0,0,1,.55.47,1.29,1.29,0,0,1,.17.43,5.26,5.26,0,0,1,.05.85v2.71h-1V74.3a2.18,2.18,0,0,0-.21-1.17.91.91,0,0,0-.76-.29,1.44,1.44,0,0,0-.64.13,1,1,0,0,0-.6.78,5.33,5.33,0,0,0,0,.81v2Zm5.91,0V73h-.78v-.89h.78V70.44h1v1.69h.78V73h-.78v3.57Zm3.7-3.75a1.41,1.41,0,0,1,.44-.65,1,1,0,0,1,.67-.22,1.59,1.59,0,0,1,.43.06,1.7,1.7,0,0,1,.41.15l-.37.86a1,1,0,0,0-.28-.14,1.29,1.29,0,0,0-.35,0,.74.74,0,0,0-.72.41,3,3,0,0,0-.23,1.36v2h-1V72.12h1Zm2.2,1.52a2.23,2.23,0,0,1,.19-.92,2.26,2.26,0,0,1,.53-.77,2.31,2.31,0,0,1,.79-.52,2.5,2.5,0,0,1,.94-.18,2.55,2.55,0,0,1,.95.18,2.44,2.44,0,0,1,.79.53,2.3,2.3,0,0,1,.72,1.68,2.41,2.41,0,0,1-.18.93,2.13,2.13,0,0,1-.53.77,2.52,2.52,0,0,1-.81.53,2.5,2.5,0,0,1-.94.18,2.44,2.44,0,0,1-.93-.18,2.35,2.35,0,0,1-.8-.52,2.6,2.6,0,0,1-.54-.78A2.41,2.41,0,0,1,24.3,74.36Zm3.84,0a1.53,1.53,0,0,0-.4-1.05,1.29,1.29,0,0,0-1-.43,1.28,1.28,0,0,0-1,.43,1.59,1.59,0,0,0,0,2.11,1.31,1.31,0,0,0,1,.43,1.29,1.29,0,0,0,1-.43A1.5,1.5,0,0,0,28.14,74.37Zm8.24-5.07h1v7.29h-1V76a1.76,1.76,0,0,1-.64.58,2,2,0,0,1-2.32-.46,2.7,2.7,0,0,1-.54-1.78,2.57,2.57,0,0,1,.55-1.72,1.95,1.95,0,0,1,2.38-.43,1.32,1.32,0,0,1,.57.66Zm0,5a1.64,1.64,0,0,0-.32-1.08,1.12,1.12,0,0,0-.9-.39,1.1,1.1,0,0,0-.91.4,1.61,1.61,0,0,0-.34,1.1,1.7,1.7,0,0,0,.32,1.1,1.12,1.12,0,0,0,.91.39,1.11,1.11,0,0,0,.9-.42A1.68,1.68,0,0,0,36.41,74.35Zm6.7.16H39.54a1.5,1.5,0,0,0,.38,1,1.18,1.18,0,0,0,.89.35,1.51,1.51,0,0,0,.82-.21A1.67,1.67,0,0,0,42.2,75l.86.48a2.58,2.58,0,0,1-.93,1,2.49,2.49,0,0,1-1.3.33,2.25,2.25,0,0,1-1.71-.65,2.42,2.42,0,0,1-.63-1.75,2.35,2.35,0,0,1,.65-1.72,2.51,2.51,0,0,1,3.37-.06,2.38,2.38,0,0,1,.6,1.73Zm-1.06-.69a1.09,1.09,0,0,0-.36-.73,1.29,1.29,0,0,0-.84-.25,1.26,1.26,0,0,0-.81.24,1.3,1.3,0,0,0-.43.74Zm5.14,2.77V69.7h1.12v6.89Zm2.64,0V72.13h1v.73a2,2,0,0,1,.72-.67,2.09,2.09,0,0,1,1-.22,2.18,2.18,0,0,1,.85.16,1.32,1.32,0,0,1,.55.47,1.29,1.29,0,0,1,.17.43,5.26,5.26,0,0,1,0,.85v2.71h-1V74.3a2.07,2.07,0,0,0-.22-1.17.88.88,0,0,0-.76-.29,1.39,1.39,0,0,0-.63.13,1,1,0,0,0-.6.78,5,5,0,0,0,0,.81v2Zm5.67,0V72.13h1v.73a1.83,1.83,0,0,1,.72-.67,2.05,2.05,0,0,1,1-.22,2.11,2.11,0,0,1,.85.16,1.21,1.21,0,0,1,.55.47,1.11,1.11,0,0,1,.17.43,4.29,4.29,0,0,1,0,.85v2.71h-1V74.3a2.18,2.18,0,0,0-.21-1.17.9.9,0,0,0-.76-.29,1.47,1.47,0,0,0-.64.13,1.07,1.07,0,0,0-.44.37,1.17,1.17,0,0,0-.16.41,5.33,5.33,0,0,0,0,.81v2Zm5.33-2.23a2.4,2.4,0,0,1,.19-.92,2.26,2.26,0,0,1,.53-.77,2.41,2.41,0,0,1,.79-.52,2.57,2.57,0,0,1,1.89,0,2.48,2.48,0,0,1,.8.53,2.4,2.4,0,0,1,.53.78,2.14,2.14,0,0,1,.19.9,2.3,2.3,0,0,1-.71,1.7,2.68,2.68,0,0,1-.82.53,2.52,2.52,0,0,1-1.87,0,2.45,2.45,0,0,1-.8-.52,2.41,2.41,0,0,1-.72-1.71Zm3.84,0a1.48,1.48,0,0,0-.4-1.05,1.28,1.28,0,0,0-1-.43,1.29,1.29,0,0,0-1,.43,1.59,1.59,0,0,0,0,2.11,1.33,1.33,0,0,0,2,0A1.49,1.49,0,0,0,64.67,74.37Zm3.73,2.49-2.34-4.73h1.11l1,2.24c0,.07.07.18.11.31s.09.31.14.5a2.62,2.62,0,0,1,.11-.4,3.39,3.39,0,0,1,.15-.41l1-2.24h1.11Zm7.18-.27h-1V76a1.94,1.94,0,0,1-.64.58,2.05,2.05,0,0,1-2.33-.46,2.7,2.7,0,0,1-.54-1.78,2.58,2.58,0,0,1,.56-1.72A1.8,1.8,0,0,1,73.06,72a1.83,1.83,0,0,1,.93.23,1.32,1.32,0,0,1,.57.66v-.73h1Zm-1-2.24a1.59,1.59,0,0,0-.33-1.08,1.09,1.09,0,0,0-.9-.39,1.1,1.1,0,0,0-.91.4,1.66,1.66,0,0,0-.33,1.1,1.7,1.7,0,0,0,.32,1.1,1.09,1.09,0,0,0,.9.39,1.11,1.11,0,0,0,.9-.42A1.69,1.69,0,0,0,74.59,74.35Zm5.73-.95a1.81,1.81,0,0,0-.55-.4,1.67,1.67,0,0,0-.67-.13,1.29,1.29,0,0,0-1,.4,1.49,1.49,0,0,0-.38,1.08,1.54,1.54,0,0,0,.38,1.09,1.39,1.39,0,0,0,1.05.4,1.59,1.59,0,0,0,.66-.14,1.44,1.44,0,0,0,.51-.42v1.17a2.22,2.22,0,0,1-.6.24,2.61,2.61,0,0,1-.69.08,2.31,2.31,0,0,1-1.71-.66,2.38,2.38,0,0,1-.66-1.74,2.33,2.33,0,0,1,.69-1.74A2.46,2.46,0,0,1,79.14,72a3.22,3.22,0,0,1,.64.07,2.52,2.52,0,0,1,.54.21Zm1-3.2a.61.61,0,0,1,.19-.45.64.64,0,0,1,.45-.19.62.62,0,0,1,.46.19.61.61,0,0,1,.18.45.62.62,0,0,1-.19.46.61.61,0,0,1-.45.18.65.65,0,0,1-.64-.64Zm.13,6.39V72.13h1v4.46Zm2.15-2.23a2.4,2.4,0,0,1,.19-.92,2.26,2.26,0,0,1,.53-.77,2.41,2.41,0,0,1,.79-.52,2.48,2.48,0,0,1,2.69.53,2.4,2.4,0,0,1,.53.78,2.14,2.14,0,0,1,.19.9,2.3,2.3,0,0,1-.71,1.7,2.68,2.68,0,0,1-.82.53,2.52,2.52,0,0,1-1.87,0,2.45,2.45,0,0,1-.8-.52,2.4,2.4,0,0,1-.53-.78A2.24,2.24,0,0,1,83.56,74.36Zm3.84,0a1.48,1.48,0,0,0-.4-1.05,1.28,1.28,0,0,0-1-.43,1.29,1.29,0,0,0-1,.43,1.59,1.59,0,0,0,0,2.11,1.33,1.33,0,0,0,2,0A1.49,1.49,0,0,0,87.4,74.37Zm-2-2.92.89-1.28h1.06l-1.37,1.28Zm4.2,5.14V72.13h1v.73a1.83,1.83,0,0,1,.72-.67,2.07,2.07,0,0,1,1-.22,2.18,2.18,0,0,1,.85.16,1.24,1.24,0,0,1,.54.47,1.11,1.11,0,0,1,.17.43,4.29,4.29,0,0,1,0,.85v2.71h-1V74.3a2.18,2.18,0,0,0-.21-1.17.9.9,0,0,0-.76-.29,1.47,1.47,0,0,0-.64.13,1.14,1.14,0,0,0-.44.37,1.4,1.4,0,0,0-.16.41,7.1,7.1,0,0,0,0,.81v2Zm9.34,2.1H97.85l1.22-2.49-1.63-4.07h1.13l.82,2.31.12.43c0,.15.06.29.09.44a6.1,6.1,0,0,1,.29-.74l0-.06,1.1-2.38h1.11Zm12.3-7.31a3.33,3.33,0,0,0-1-.61,3,3,0,0,0-1.11-.2,2.47,2.47,0,0,0-1.84.72,2.82,2.82,0,0,0,0,3.72,2.31,2.31,0,0,0,1.74.72,3.28,3.28,0,0,0,1.17-.21,3.88,3.88,0,0,0,1.06-.66v1.27a3.08,3.08,0,0,1-1,.48,4.25,4.25,0,0,1-2.62-.1,3.28,3.28,0,0,1-1.18-.76,3.51,3.51,0,0,1-.77-1.16,3.83,3.83,0,0,1-.27-1.43,3.7,3.7,0,0,1,.27-1.42,3.34,3.34,0,0,1,.78-1.17,3.4,3.4,0,0,1,1.18-.77,3.75,3.75,0,0,1,1.43-.26,3.7,3.7,0,0,1,1.16.17,4.14,4.14,0,0,1,1.07.54Zm1,3a2.23,2.23,0,0,1,.19-.92,2.26,2.26,0,0,1,.53-.77,2.31,2.31,0,0,1,.79-.52,2.57,2.57,0,0,1,1.89,0,2.59,2.59,0,0,1,.8.53,2.4,2.4,0,0,1,.53.78,2.3,2.3,0,0,1,.19.9,2.24,2.24,0,0,1-.19.93,2.13,2.13,0,0,1-.53.77,2.52,2.52,0,0,1-.81.53,2.52,2.52,0,0,1-1.87,0,2.35,2.35,0,0,1-.8-.52,2.4,2.4,0,0,1-.53-.78A2.24,2.24,0,0,1,112.17,74.36Zm3.84,0a1.53,1.53,0,0,0-.4-1.05,1.33,1.33,0,0,0-2,0,1.59,1.59,0,0,0,0,2.11,1.33,1.33,0,0,0,2,0A1.53,1.53,0,0,0,116,74.37Zm6.43,2.49-1-2.32c-.08-.18-.15-.34-.2-.48s-.09-.28-.13-.41c-.07.2-.13.38-.19.52s-.09.26-.12.33l-1.06,2.36-2.31-4.73h1.08l1,2.15a2.7,2.7,0,0,1,.12.37c0,.16.07.34.1.53a1.48,1.48,0,0,1,.05-.35,4.24,4.24,0,0,1,.18-.46L121,72h.08l1.11,2.41a3.22,3.22,0,0,1,.16.42,2.63,2.63,0,0,1,.06.39,3.39,3.39,0,0,1,.1-.48c0-.15.1-.29.15-.41l1-2.16h1.08Zm2.63-2.5a2.39,2.39,0,0,1,.18-.92,2.44,2.44,0,0,1,.54-.77,2.31,2.31,0,0,1,.79-.52,2.47,2.47,0,0,1,2.68.53,2.43,2.43,0,0,1,.54.78,2.3,2.3,0,0,1,.18.9,2.41,2.41,0,0,1-.18.93,2.26,2.26,0,0,1-.53.77,2.76,2.76,0,0,1-.81.53,2.55,2.55,0,0,1-1,.18,2.48,2.48,0,0,1-.93-.18,2.31,2.31,0,0,1-.79-.52,2.28,2.28,0,0,1-.54-.78A2.41,2.41,0,0,1,125.07,74.36Zm3.83,0a1.48,1.48,0,0,0-.4-1.05,1.32,1.32,0,0,0-2,0,1.56,1.56,0,0,0,0,2.11,1.32,1.32,0,0,0,2,0A1.49,1.49,0,0,0,128.9,74.37Zm3.18-1.53a1.41,1.41,0,0,1,.44-.65,1,1,0,0,1,.67-.22,1.59,1.59,0,0,1,.43.06,1.7,1.7,0,0,1,.41.15l-.37.86a1,1,0,0,0-.28-.14,1.29,1.29,0,0,0-.35,0,.74.74,0,0,0-.72.41,3,3,0,0,0-.23,1.36v2h-1V72.12h1Zm2.53,3.75V69.3h1V74l1.87-1.85h1.26l-2,2L139,76.59h-1.31l-2-2.3v2.3Zm4.89-6.39a.61.61,0,0,1,.19-.45.64.64,0,0,1,.45-.19.65.65,0,0,1,.64.64.66.66,0,0,1-.19.46.61.61,0,0,1-.45.18.65.65,0,0,1-.64-.64Zm.13,6.39V72.13h1v4.46Zm2.48,0V72.13h1v.73a2,2,0,0,1,.72-.67,2.09,2.09,0,0,1,1-.22,2.18,2.18,0,0,1,.85.16,1.32,1.32,0,0,1,.55.47,1.29,1.29,0,0,1,.17.43,5.26,5.26,0,0,1,0,.85v2.71h-1V74.3a2.07,2.07,0,0,0-.22-1.17.88.88,0,0,0-.76-.29,1.42,1.42,0,0,0-.63.13,1,1,0,0,0-.6.78,5,5,0,0,0-.05.81v2Zm9.87-.28a2.58,2.58,0,0,1-.53,1.84,2.38,2.38,0,0,1-1.76.54,2.51,2.51,0,0,1-1.47-.39,1.23,1.23,0,0,1-.56-1h1.1a.53.53,0,0,0,.26.44,1.36,1.36,0,0,0,.69.15,1.25,1.25,0,0,0,.94-.29,1.33,1.33,0,0,0,.29-1V76a1.82,1.82,0,0,1-.63.58,1.92,1.92,0,0,1-.84.18,1.84,1.84,0,0,1-1.49-.64,2.7,2.7,0,0,1-.54-1.78,2.57,2.57,0,0,1,.55-1.72,1.81,1.81,0,0,1,1.45-.66,1.84,1.84,0,0,1,.94.23,1.26,1.26,0,0,1,.56.66v-.73h1Zm-1-2a1.64,1.64,0,0,0-.32-1.08,1.12,1.12,0,0,0-.9-.39,1.1,1.1,0,0,0-.91.4,1.66,1.66,0,0,0-.33,1.1,1.64,1.64,0,0,0,.32,1.1,1.09,1.09,0,0,0,.9.39,1.11,1.11,0,0,0,.9-.42A1.68,1.68,0,0,0,151,74.35Z" fill="#8c8c8a"/></g></g></svg>