<svg xmlns="http://www.w3.org/2000/svg" viewBox="0 0 195.87 71.56"><g style="isolation:isolate"><g id="f38d33d7-691c-4046-a163-f4a3caab5405" data-name="Capa 2"><g id="a046b44f-62a0-4355-90c6-8cbc20aced2e" data-name="Capa 1"><path d="M110.63,71l-.34.15-.48.18a4.07,4.07,0,0,1-.58.15,3.49,3.49,0,0,1-.65.05,2.16,2.16,0,0,1-1.35-.43,1.54,1.54,0,0,1-.56-1.33V64.07h-1.15V63h1.15V60.13h1.42V63H110v1.12h-1.89v5.24a.85.85,0,0,0,.31.68,1,1,0,0,0,.65.21,1.87,1.87,0,0,0,.76-.14,3.15,3.15,0,0,0,.48-.21Z" fill="#9d9d9c"/><path d="M118.6,64.2a3.61,3.61,0,0,0-1.89.55,2.81,2.81,0,0,0-1.16,1.44V71.4h-1.42V63h1.33v2a4.23,4.23,0,0,1,1.15-1.45,2.38,2.38,0,0,1,1.52-.57h.47Z" fill="#9d9d9c"/><path d="M124.39,71.56a3.11,3.11,0,0,1-1.16-.2,2.86,2.86,0,0,1-.93-.55,2.49,2.49,0,0,1-.6-.83,2.29,2.29,0,0,1-.22-1,2.22,2.22,0,0,1,.26-1.09,2.44,2.44,0,0,1,.73-.84,3.76,3.76,0,0,1,1.14-.54,5.33,5.33,0,0,1,1.43-.18,7.64,7.64,0,0,1,1.25.11,5.9,5.9,0,0,1,1.11.31v-.68a2,2,0,0,0-2.23-2.22,4.74,4.74,0,0,0-2.69,1L122,63.9a7.18,7.18,0,0,1,1.64-.82,5.29,5.29,0,0,1,1.68-.28,3.59,3.59,0,0,1,2.56.89,3.29,3.29,0,0,1,.94,2.51v3.45c0,.34.15.51.45.52V71.4l-.31,0-.27,0a1.41,1.41,0,0,1-.7-.2.77.77,0,0,1-.37-.66l0-.6a3.92,3.92,0,0,1-.67.68,4,4,0,0,1-.79.48,4.48,4.48,0,0,1-.87.3A4.38,4.38,0,0,1,124.39,71.56Zm.36-1.07a3.16,3.16,0,0,0,1.33-.29,2.94,2.94,0,0,0,1-.71,1.07,1.07,0,0,0,.3-.66V67.58a5.68,5.68,0,0,0-1.06-.3,5.76,5.76,0,0,0-1.07-.1,3.09,3.09,0,0,0-1.77.44,1.4,1.4,0,0,0-.66,1.22,1.51,1.51,0,0,0,.13.63,1.46,1.46,0,0,0,.37.52,2,2,0,0,0,.6.37A2.3,2.3,0,0,0,124.75,70.49Z" fill="#9d9d9c"/><path d="M135.53,71.4,132.2,63h1.47l2.67,7.2L139,63h1.36l-3.34,8.45Z" fill="#9d9d9c"/><path d="M147.77,71.56a4.18,4.18,0,0,1-1.75-.35,4.09,4.09,0,0,1-1.36-.94,4.32,4.32,0,0,1-.88-1.4,4.61,4.61,0,0,1-.32-1.69,4.54,4.54,0,0,1,.32-1.69,4.3,4.3,0,0,1,.89-1.39,4.16,4.16,0,0,1,1.37-.95,4.34,4.34,0,0,1,1.75-.35,4.13,4.13,0,0,1,3.07,1.31,4.11,4.11,0,0,1,.85,1.37,4.57,4.57,0,0,1,.3,1.63,3.11,3.11,0,0,1,0,.32,1.21,1.21,0,0,1,0,.23h-7a3.3,3.3,0,0,0,.29,1.15,2.9,2.9,0,0,0,1.51,1.47,2.66,2.66,0,0,0,1,.21,2.78,2.78,0,0,0,.76-.1,3.56,3.56,0,0,0,.69-.28,2.53,2.53,0,0,0,.58-.44,1.82,1.82,0,0,0,.38-.58l1.23.34a3.17,3.17,0,0,1-.57.85A4,4,0,0,1,150,71a4.62,4.62,0,0,1-1.06.44A4.42,4.42,0,0,1,147.77,71.56Zm2.9-5a2.89,2.89,0,0,0-1.82-2.54,2.94,2.94,0,0,0-2.13,0,3,3,0,0,0-.89.57,2.89,2.89,0,0,0-.61.87,3,3,0,0,0-.28,1.1Z" fill="#9d9d9c"/><path d="M155.86,59.58h1.43v9.63a1,1,0,0,0,.25.74.91.91,0,0,0,.7.27,1.76,1.76,0,0,0,.42-.06,2.77,2.77,0,0,0,.46-.14l.22,1.15a4.46,4.46,0,0,1-.84.25,4.75,4.75,0,0,1-.86.09,1.64,1.64,0,0,1-1.78-1.78Z" fill="#9d9d9c"/><path d="M162.66,59.58h1.43v9.63a1,1,0,0,0,.25.74.91.91,0,0,0,.7.27,1.76,1.76,0,0,0,.42-.06,2.77,2.77,0,0,0,.46-.14l.22,1.15a4.46,4.46,0,0,1-.84.25,4.75,4.75,0,0,1-.86.09,1.64,1.64,0,0,1-1.78-1.78Z" fill="#9d9d9c"/><path d="M173.2,71.56a4.21,4.21,0,0,1-1.75-.35,4.09,4.09,0,0,1-1.36-.94,4.49,4.49,0,0,1-.88-1.4,4.61,4.61,0,0,1-.31-1.69,4.53,4.53,0,0,1,.31-1.69,4.3,4.3,0,0,1,.89-1.39,4.16,4.16,0,0,1,1.37-.95,4.34,4.34,0,0,1,1.75-.35,4.17,4.17,0,0,1,1.74.36,4,4,0,0,1,1.33,1,4.11,4.11,0,0,1,.85,1.37,4.57,4.57,0,0,1,.3,1.63v.32c0,.1,0,.18,0,.23h-7a3.3,3.3,0,0,0,.29,1.15,3,3,0,0,0,.63.89,2.91,2.91,0,0,0,.89.58,2.61,2.61,0,0,0,1,.21,2.78,2.78,0,0,0,.76-.1,3.93,3.93,0,0,0,.7-.28,2.71,2.71,0,0,0,.57-.44,1.67,1.67,0,0,0,.38-.58l1.23.34a3.17,3.17,0,0,1-.57.85,4,4,0,0,1-.84.68,5,5,0,0,1-1.06.44A4.49,4.49,0,0,1,173.2,71.56Zm2.9-5a3,3,0,0,0-.3-1.11,3.14,3.14,0,0,0-.63-.87,3.22,3.22,0,0,0-.88-.56,3,3,0,0,0-1.07-.2,2.91,2.91,0,0,0-1.07.2,2.78,2.78,0,0,0-.88.57,2.75,2.75,0,0,0-.62.87,3.24,3.24,0,0,0-.28,1.1Z" fill="#9d9d9c"/><path d="M185.73,64.2a3.58,3.58,0,0,0-1.88.55,2.76,2.76,0,0,0-1.16,1.44V71.4h-1.43V63h1.33v2a4.35,4.35,0,0,1,1.15-1.45,2.4,2.4,0,0,1,1.52-.57h.47Z" fill="#9d9d9c"/><path d="M192.32,71.56a6.59,6.59,0,0,1-2-.31,5.07,5.07,0,0,1-1.7-.92l.62-1a6.29,6.29,0,0,0,1.49.85,4.33,4.33,0,0,0,1.57.28,2.61,2.61,0,0,0,1.46-.36,1.17,1.17,0,0,0,.55-1,.92.92,0,0,0-.15-.53,1.29,1.29,0,0,0-.44-.38,3.57,3.57,0,0,0-.74-.29c-.3-.09-.65-.18-1.05-.28s-.95-.25-1.31-.37a3.68,3.68,0,0,1-.91-.42,1.43,1.43,0,0,1-.52-.58,1.94,1.94,0,0,1-.16-.84,2.44,2.44,0,0,1,.25-1.13,2.38,2.38,0,0,1,.69-.82,3,3,0,0,1,1-.51,4.64,4.64,0,0,1,1.27-.17,5.2,5.2,0,0,1,1.78.31,4.59,4.59,0,0,1,1.39.81l-.65.86a3.63,3.63,0,0,0-1.2-.71,4.18,4.18,0,0,0-1.36-.23,2.54,2.54,0,0,0-1.32.33,1.16,1.16,0,0,0-.54,1.06,1,1,0,0,0,.11.49.88.88,0,0,0,.35.34,2.82,2.82,0,0,0,.62.26l.91.24c.56.13,1.05.26,1.47.4a4.12,4.12,0,0,1,1,.47,1.82,1.82,0,0,1,.62.65,1.94,1.94,0,0,1,.2.91,2.26,2.26,0,0,1-.9,1.88A4,4,0,0,1,192.32,71.56Z" fill="#9d9d9c"/><path d="M105.06,45.06a94.05,94.05,0,0,1,13.21-4.53c10.33-2.81,20-4.34,20-4.34a59.89,59.89,0,0,0-10,8.12c-4.26,4.5-5.39,6.54-5.39,6.54a32.08,32.08,0,0,0-8.57-4.09A37.73,37.73,0,0,0,105.06,45.06Z" fill="#dadada" style="mix-blend-mode:multiply"/><path d="M16.64,41.3H0L0,20.42H15.88v3H3.7V38.25H16.64Z" fill="#878787"/><path d="M43.51,41.65a7.21,7.21,0,0,1-2.38-.4,7.92,7.92,0,0,1-2.05-1.09,8.57,8.57,0,0,1-1.68-1.67,11.58,11.58,0,0,1-1.25-2.05l2.57-2.12a6.49,6.49,0,0,0,.77,1.31A12.08,12.08,0,0,0,40.67,37a7.52,7.52,0,0,0,1.39,1.11,2.77,2.77,0,0,0,1.45.44,4.76,4.76,0,0,0,1.84-.29,3.11,3.11,0,0,0,1.11-.73,2.52,2.52,0,0,0,.55-.91,3,3,0,0,0,.13-.84,5.37,5.37,0,0,0-.08-.84,2.71,2.71,0,0,0-.46-1,5.28,5.28,0,0,0-1.15-1.08,10.49,10.49,0,0,0-2.14-1.09,28,28,0,0,1-3.25-1.56,9.69,9.69,0,0,1-2-1.47,4.21,4.21,0,0,1-1-1.51,4.53,4.53,0,0,1-.29-1.66,6.19,6.19,0,0,1,.35-1.95,5.08,5.08,0,0,1,1.17-1.87,6.23,6.23,0,0,1,2.12-1.38,8.46,8.46,0,0,1,3.27-.55A7.08,7.08,0,0,1,48,21.15a8.18,8.18,0,0,1,2.64,3.62l-3.12,1a3.88,3.88,0,0,0-3.87-2.71,3.76,3.76,0,0,0-2.29.58,1.88,1.88,0,0,0-.76,1.55,1.58,1.58,0,0,0,.4,1,4.35,4.35,0,0,0,1.08.89,10.66,10.66,0,0,0,1.59.82l2,.84a12.16,12.16,0,0,1,2.8,1.65A6.79,6.79,0,0,1,50,32.16a5.36,5.36,0,0,1,.65,1.75,10.25,10.25,0,0,1,.13,1.61,6.23,6.23,0,0,1-1.5,3.86A6.38,6.38,0,0,1,47,41,8.3,8.3,0,0,1,43.51,41.65Z" fill="#878787"/><path d="M90.08,37.64A15.14,15.14,0,0,1,86,40.58a10.83,10.83,0,0,1-4.74,1.1,12.92,12.92,0,0,1-4.42-.86,10.16,10.16,0,0,1-3.52-2.33,10.91,10.91,0,0,1-3-7.6A10.38,10.38,0,0,1,71,26.72a11.19,11.19,0,0,1,2.28-3.5,10.24,10.24,0,0,1,3.47-2.31,11.71,11.71,0,0,1,4.5-.83A10.71,10.71,0,0,1,86,21.15,14.86,14.86,0,0,1,90,24.08l-2.29,2.47A14.59,14.59,0,0,0,84.48,24a6.7,6.7,0,0,0-3.24-.91,7.15,7.15,0,0,0-3,.62A7.29,7.29,0,0,0,75.9,25.4a7.59,7.59,0,0,0-1.54,2.46,8.48,8.48,0,0,0-.55,3,8.35,8.35,0,0,0,.55,3,7.5,7.5,0,0,0,1.54,2.44A7.29,7.29,0,0,0,78.27,38a7,7,0,0,0,3,.62,6.74,6.74,0,0,0,3.22-.92,14.66,14.66,0,0,0,3.25-2.5Z" fill="#878787"/><path d="M157.59,22.1a5.57,5.57,0,0,1,1.59,2.12,6.56,6.56,0,0,1,.53,2.67,5,5,0,0,1-.68,2.74,6.83,6.83,0,0,1-2.52,2.51,4.53,4.53,0,0,1-1.11.46,10.84,10.84,0,0,1-1.66.35,17.19,17.19,0,0,1-2.31.13h-2.36V41.3H145.4l0-20.88h6.2a12.52,12.52,0,0,1,3.5.44,7.26,7.26,0,0,1,2.49,1.24Zm-2.53,7.12a2.81,2.81,0,0,0,1-2.26,3.63,3.63,0,0,0-.85-2.54,4.71,4.71,0,0,0-1.49-.68,7.88,7.88,0,0,0-2.17-.28h-2.5V30h3.49a4.51,4.51,0,0,0,1.28-.19A3.64,3.64,0,0,0,155.06,29.22Z" fill="#878787"/><path d="M195.87,41.3H179.26l0-20.88h15.88v3H182.93v5.21h11.12v3H182.93v6.54h12.94Z" fill="#878787"/><rect x="7.37" y="29.54" width="11.12" height="3.05" fill="#878787"/><path d="M115.64,15.9c8.5,4.72,8.75,15,8.75,15,2.62-6.53,5-11.27,10.69-20C140.49,2.46,144.54,0,144.53,0,133.73,3.78,120.54,11.66,115.64,15.9Z" fill="#9d9d9c"/><path d="M144.34,0c-.41.06-7.06,1.3-13.6,3.12C127.6,4,116.87,7,110.24,11.93c-5.35,4-6.41,6.58-6.63,7,.44-.82,3.1-5.16,8.26-4.66C120.73,8,130.88,4.08,144.34,0Z" fill="#9d9d9c"/><path d="M110.8,15.62a8,8,0,0,0-7,5.54,8.22,8.22,0,0,0,.69,7.09A21,21,0,0,1,110.8,15.62Z" fill="#575756"/></g></g></g></svg>