<svg xmlns="http://www.w3.org/2000/svg" xmlns:xlink="http://www.w3.org/1999/xlink" viewBox="0 0 205.38 81.86"><defs><linearGradient id="ea043293-af0d-41fa-8927-3dca7fc65aba" x1="27.34" y1="31.98" x2="19.1" y2="46.75" gradientUnits="userSpaceOnUse"><stop offset="0" stop-color="#878787"/><stop offset="0.3" stop-color="#939393"/><stop offset="0.86" stop-color="#b4b4b4"/><stop offset="1" stop-color="#bebebd"/></linearGradient><linearGradient id="efaa7880-94c0-458b-9f53-8ab32e592dca" x1="26.39" y1="38.98" x2="53.91" y2="8.36" gradientUnits="userSpaceOnUse"><stop offset="0" stop-color="#504f4f"/><stop offset="0.17" stop-color="#5c5b5b"/><stop offset="0.49" stop-color="#7d7d7c"/><stop offset="0.91" stop-color="#b2b2b1"/><stop offset="1" stop-color="#bebebd"/></linearGradient><linearGradient id="b9abd412-d9d7-481a-979e-e984e259da17" x1="18.99" y1="7.73" x2="9.38" y2="-9.53" gradientUnits="userSpaceOnUse"><stop offset="0" stop-color="#9d9d9c"/><stop offset="0.28" stop-color="#b6b6b6"/><stop offset="0.57" stop-color="#cacaca"/><stop offset="0.76" stop-color="#d1d1d1"/><stop offset="1" stop-color="#bebebd"/></linearGradient><linearGradient id="b34acb73-c951-4528-b302-96d3c56c8be5" x1="33.01" y1="35.64" x2="31.89" y2="33.63" gradientUnits="userSpaceOnUse"><stop offset="0" stop-color="#504f4f"/><stop offset="0.11" stop-color="#838282"/><stop offset="0.21" stop-color="#aeadad"/><stop offset="0.27" stop-color="#bebebd"/><stop offset="0.42" stop-color="#cacaca"/><stop offset="0.57" stop-color="#d1d1d1"/><stop offset="1" stop-color="#bebebd"/></linearGradient><linearGradient id="a5c0f238-6583-4e30-9791-57b5ae629f9f" x1="36.96" y1="36.52" x2="-7.6" y2="-13.43" gradientUnits="userSpaceOnUse"><stop offset="0" stop-color="#8a8989"/><stop offset="0.17" stop-color="#aeadad"/><stop offset="0.27" stop-color="#bebebd"/><stop offset="0.42" stop-color="#cacaca"/><stop offset="0.57" stop-color="#d1d1d1"/><stop offset="1" stop-color="#bebebd"/></linearGradient></defs><g id="b8dec9a0-0fd4-4cc6-9b52-7c65a06665b8" data-name="Capa 2"><g id="b45a25b5-f972-485d-be59-be56342ab055" data-name="Capa 1"><path d="M46.63,64h5.19v1H48v5.45h3.2v1H48v7H46.63Zm6.76,1H54.7v1.77H53.39Zm0,3.2H54.7V78.47H53.39Zm3.5,0H58.2v1.07a4.09,4.09,0,0,1,1.15-.9A2.82,2.82,0,0,1,60.68,68a1.38,1.38,0,0,1,1.18.57,2.77,2.77,0,0,1,.41,1.62v8.29H61v-8a2,2,0,0,0-.25-1.13A.85.85,0,0,0,60,69a1.87,1.87,0,0,0-.89.26,3.86,3.86,0,0,0-.89.71v8.5H56.89ZM64.48,78a2.43,2.43,0,0,1-.57-1.64,3.2,3.2,0,0,1,.39-1.67,3.6,3.6,0,0,1,1.24-1.17,22.58,22.58,0,0,1,2.53-1.29v-.73A8.14,8.14,0,0,0,68,70a1.31,1.31,0,0,0-.4-.77,1.18,1.18,0,0,0-.77-.23c-1,0-1.45.59-1.45,1.77v.37l-1.29,0,0-.31a3,3,0,0,1,.75-2.12,2.88,2.88,0,0,1,2-.66,2.21,2.21,0,0,1,1.94.82,4.59,4.59,0,0,1,.58,2.59v5c0,.34,0,.72,0,1.15s0,.73.07.91H68.3L68.11,77a2.53,2.53,0,0,1-.8,1.14,2.06,2.06,0,0,1-1.33.45A1.89,1.89,0,0,1,64.48,78Zm2.89-.81a3.08,3.08,0,0,0,.7-.87V73.08q-1.25.66-1.77,1a2.69,2.69,0,0,0-.8.77A2.14,2.14,0,0,0,65.21,76a1.7,1.7,0,0,0,.34,1.15,1.07,1.07,0,0,0,.84.37A1.5,1.5,0,0,0,67.37,77.16Zm3.92-9h1.3v1.07a4.23,4.23,0,0,1,1.15-.9A2.85,2.85,0,0,1,75.07,68a1.36,1.36,0,0,1,1.18.57,2.7,2.7,0,0,1,.41,1.62v8.29h-1.3v-8a2,2,0,0,0-.24-1.13.86.86,0,0,0-.74-.34,1.88,1.88,0,0,0-.9.26,4.08,4.08,0,0,0-.89.71v8.5h-1.3Zm8.12,10a2.54,2.54,0,0,1-.81-1.37,9.55,9.55,0,0,1-.21-2.19V72.15a9.13,9.13,0,0,1,.25-2.4,2.31,2.31,0,0,1,.84-1.32A2.73,2.73,0,0,1,81.16,68a2.3,2.3,0,0,1,2.07.83,4.45,4.45,0,0,1,.56,2.47v.5H82.57v-.5a5.7,5.7,0,0,0-.13-1.41,1.23,1.23,0,0,0-.44-.71,1.53,1.53,0,0,0-.84-.2,1.33,1.33,0,0,0-.92.28,1.62,1.62,0,0,0-.43.91,11.13,11.13,0,0,0-.11,1.77v2.9a9,9,0,0,0,.12,1.67,1.56,1.56,0,0,0,.45.88,1.37,1.37,0,0,0,.91.27,1.34,1.34,0,0,0,.9-.26,1.32,1.32,0,0,0,.4-.78,8.89,8.89,0,0,0,.09-1.44v-.58h1.22v.5A7.29,7.29,0,0,1,83.58,77a2.06,2.06,0,0,1-.77,1.19,2.7,2.7,0,0,1-1.65.43A2.67,2.67,0,0,1,79.41,78.12ZM85.68,65H87v1.77h-1.3Zm0,3.2H87V78.47h-1.3ZM89.47,78a2.43,2.43,0,0,1-.58-1.64,3.2,3.2,0,0,1,.4-1.67,3.48,3.48,0,0,1,1.23-1.17,22.91,22.91,0,0,1,2.54-1.29v-.73a7.21,7.21,0,0,0-.12-1.5,1.36,1.36,0,0,0-.39-.77,1.23,1.23,0,0,0-.78-.23c-1,0-1.45.59-1.45,1.77v.37l-1.28,0,0-.31a2.92,2.92,0,0,1,.75-2.12,2.83,2.83,0,0,1,2-.66,2.2,2.2,0,0,1,1.94.82,4.51,4.51,0,0,1,.58,2.59v5c0,.34,0,.72,0,1.15s0,.73.06.91H93.29L93.09,77a2.51,2.51,0,0,1-.79,1.14,2.08,2.08,0,0,1-1.33.45A1.89,1.89,0,0,1,89.47,78Zm2.88-.81a3.12,3.12,0,0,0,.71-.87V73.08q-1.26.66-1.77,1a2.57,2.57,0,0,0-.8.77A2.06,2.06,0,0,0,90.2,76a1.7,1.7,0,0,0,.33,1.15,1.07,1.07,0,0,0,.85.37A1.5,1.5,0,0,0,92.35,77.16Zm3.92-9h1.3v1.07a4.13,4.13,0,0,1,1.16-.9,2.82,2.82,0,0,1,1.33-.33,1.38,1.38,0,0,1,1.18.57,2.77,2.77,0,0,1,.41,1.62v8.29h-1.31v-8a2,2,0,0,0-.24-1.13.86.86,0,0,0-.74-.34,1.84,1.84,0,0,0-.89.26,4.12,4.12,0,0,0-.9.71v8.5h-1.3ZM104,77.63a7,7,0,0,1-.58-3.32V72.4a8.06,8.06,0,0,1,.52-3.31,1.92,1.92,0,0,1,1.91-1.1,2.43,2.43,0,0,1,1.82.89V64h1.3V78.47h-1.3v-.73a2.42,2.42,0,0,1-1.77.89A2,2,0,0,1,104,77.63Zm3.67-.71V69.74a2.41,2.41,0,0,0-1.54-.74,1.1,1.1,0,0,0-1.11.7,6.18,6.18,0,0,0-.3,2.27v2.45a7.07,7.07,0,0,0,.3,2.42,1.12,1.12,0,0,0,1.15.75A2.25,2.25,0,0,0,107.63,76.92Zm3.73.75a5.59,5.59,0,0,1-.61-2.93V71.88a5.65,5.65,0,0,1,.61-2.94,2.9,2.9,0,0,1,4.29,0,5.67,5.67,0,0,1,.6,2.94v2.86a5.6,5.6,0,0,1-.6,2.93,2.88,2.88,0,0,1-4.29,0Zm3.1-.36a1.73,1.73,0,0,0,.4-.93,10.87,10.87,0,0,0,.09-1.57v-3a10.78,10.78,0,0,0-.09-1.57,1.66,1.66,0,0,0-.4-.93,1.51,1.51,0,0,0-1.91,0,1.66,1.66,0,0,0-.4.92,10.74,10.74,0,0,0-.09,1.58v3a10.84,10.84,0,0,0,.09,1.58,1.7,1.7,0,0,0,.4.92,1.51,1.51,0,0,0,1.91,0Zm7.46,4.15a1.39,1.39,0,0,1-.92-1.35,2.14,2.14,0,0,1,.5-1.37,3.63,3.63,0,0,1,1.2-1,2.38,2.38,0,0,1-.8-.38.66.66,0,0,1-.34-.52,1.8,1.8,0,0,1,.34-1,6.78,6.78,0,0,1,.89-1.09,3,3,0,0,1-1-1.28,5,5,0,0,1-.31-1.87,4.33,4.33,0,0,1,.73-2.59,2.51,2.51,0,0,1,2.16-1,2.26,2.26,0,0,1,2.21,1.28,3,3,0,0,1,.56-.61,3.2,3.2,0,0,1,.84-.55l.27-.09.35.91a3.24,3.24,0,0,0-1,.36,2.56,2.56,0,0,0-.74.54,6.21,6.21,0,0,1,.22.88,5.93,5.93,0,0,1,.1.92,4.53,4.53,0,0,1-.68,2.63,2.44,2.44,0,0,1-2.16,1,3.64,3.64,0,0,1-.56,0,3.83,3.83,0,0,1-.5-.11l-.25.38a5.34,5.34,0,0,0-.32.53,1,1,0,0,0-.12.41c0,.18.28.31.85.41a4.54,4.54,0,0,0,.59.11l.68.1a3,3,0,0,1,.38.06,3.78,3.78,0,0,1,1.94.79,2.05,2.05,0,0,1,.65,1.6,2,2,0,0,1-.87,1.81,4.15,4.15,0,0,1-2.35.58A6.68,6.68,0,0,1,121.92,81.46Zm4.19-1a1.14,1.14,0,0,0,.19-1.87,3.68,3.68,0,0,0-1.54-.52l-1.33-.17c-.88.54-1.32,1.13-1.32,1.76a.9.9,0,0,0,.56.86,4.52,4.52,0,0,0,1.84.27A3.29,3.29,0,0,0,126.11,80.48Zm-.35-6.94a4.89,4.89,0,0,0,.33-2c0-1.78-.56-2.67-1.69-2.67a1.37,1.37,0,0,0-1.36.78,4.4,4.4,0,0,0-.37,1.89c0,1.8.57,2.7,1.73,2.7A1.34,1.34,0,0,0,125.76,73.54Zm3.73-5.39h1.32v1.41a3.18,3.18,0,0,1,1.1-1.14,2.49,2.49,0,0,1,1.28-.38l.23,0v1.39a2.11,2.11,0,0,0-.65-.11,2.22,2.22,0,0,0-2,1.2v7.93h-1.32ZM135,78a2.43,2.43,0,0,1-.57-1.64,3.2,3.2,0,0,1,.39-1.67A3.51,3.51,0,0,1,136,73.49a22.58,22.58,0,0,1,2.53-1.29v-.73a8.14,8.14,0,0,0-.11-1.5,1.31,1.31,0,0,0-.4-.77,1.18,1.18,0,0,0-.77-.23c-1,0-1.45.59-1.45,1.77v.37l-1.29,0,0-.31a3,3,0,0,1,.75-2.12,2.86,2.86,0,0,1,2-.66,2.18,2.18,0,0,1,1.93.82,4.5,4.5,0,0,1,.59,2.59v5c0,.34,0,.72,0,1.15s0,.73.06.91h-1.16L138.58,77a2.53,2.53,0,0,1-.8,1.14,2.06,2.06,0,0,1-1.33.45A1.89,1.89,0,0,1,135,78Zm2.89-.81a3.08,3.08,0,0,0,.7-.87V73.08q-1.24.66-1.77,1a2.69,2.69,0,0,0-.8.77,2.14,2.14,0,0,0-.29,1.16,1.7,1.7,0,0,0,.33,1.15,1.09,1.09,0,0,0,.85.37A1.52,1.52,0,0,0,137.84,77.16Zm3.92-9h1.3v1.07a4.09,4.09,0,0,1,1.15-.9,2.85,2.85,0,0,1,1.33-.33,1.36,1.36,0,0,1,1.18.57,2.77,2.77,0,0,1,.41,1.62v8.29h-1.3v-8a2,2,0,0,0-.24-1.13.86.86,0,0,0-.74-.34,1.88,1.88,0,0,0-.9.26,4.08,4.08,0,0,0-.89.71v8.5h-1.3Zm7.68,9.48a7.08,7.08,0,0,1-.58-3.32V72.4a8.23,8.23,0,0,1,.52-3.31,1.93,1.93,0,0,1,1.91-1.1,2.4,2.4,0,0,1,1.82.89V64h1.31V78.47h-1.31v-.73a2.38,2.38,0,0,1-1.76.89A2,2,0,0,1,149.44,77.63Zm3.67-.71V69.74a2.39,2.39,0,0,0-1.53-.74,1.12,1.12,0,0,0-1.12.7,6.46,6.46,0,0,0-.29,2.27v2.45a7.39,7.39,0,0,0,.29,2.42,1.13,1.13,0,0,0,1.15.75A2.25,2.25,0,0,0,153.11,76.92Zm4.31,1.32a2.3,2.3,0,0,1-.89-1.27,7.93,7.93,0,0,1-.29-2.38V72a8,8,0,0,1,.29-2.39,2.19,2.19,0,0,1,.92-1.24A3,3,0,0,1,159,68a2.67,2.67,0,0,1,1.66.45,2.45,2.45,0,0,1,.8,1.37,10.56,10.56,0,0,1,.22,2.44l0,.93h-4.16v1.54a8.46,8.46,0,0,0,.13,1.71,1.57,1.57,0,0,0,.45.92,1.26,1.26,0,0,0,.91.3,1.31,1.31,0,0,0,1-.43,2.49,2.49,0,0,0,.37-1.55V75h1.26v.57a3.69,3.69,0,0,1-.62,2.31,2.46,2.46,0,0,1-2.05.8A2.93,2.93,0,0,1,157.42,78.24Zm3-5.81v-.85a9.19,9.19,0,0,0-.1-1.47,1.61,1.61,0,0,0-.4-.84A1.26,1.26,0,0,0,159,69a1.44,1.44,0,0,0-.88.24,1.41,1.41,0,0,0-.46.84,7.33,7.33,0,0,0-.15,1.69v.69Zm3.45,5.41A3.45,3.45,0,0,1,163,75.7l1.09-.34a3.23,3.23,0,0,0,.55,1.73,1.47,1.47,0,0,0,1.22.56,1.38,1.38,0,0,0,1.06-.4,1.44,1.44,0,0,0,.39-1.07,2.94,2.94,0,0,0-1.25-2.07l-1.41-1.21a5,5,0,0,1-1.07-1.18,2.64,2.64,0,0,1-.34-1.36,2.3,2.3,0,0,1,.66-1.75,2.49,2.49,0,0,1,1.8-.62,2.17,2.17,0,0,1,1.76.73,3.31,3.31,0,0,1,.69,2l-.93.3c-.07-1.35-.56-2-1.47-2a1.39,1.39,0,0,0-1,.33,1.15,1.15,0,0,0-.35.92,1.93,1.93,0,0,0,.18.85,2.58,2.58,0,0,0,.66.77l1.47,1.31a8.59,8.59,0,0,1,1.27,1.38,2.86,2.86,0,0,1,.44,1.62,2.39,2.39,0,0,1-.71,1.83,2.78,2.78,0,0,1-1.93.65A2.56,2.56,0,0,1,163.89,77.84ZM173.76,65h1.3v1.77h-1.3Zm0,3.2h1.3V78.47h-1.3Zm3.88,9.48a7.08,7.08,0,0,1-.58-3.32V72.4a8.06,8.06,0,0,1,.52-3.31,1.93,1.93,0,0,1,1.91-1.1,2.42,2.42,0,0,1,1.82.89V64h1.31V78.47h-1.31v-.73a2.4,2.4,0,0,1-1.77.89A2,2,0,0,1,177.64,77.63Zm3.67-.71V69.74a2.41,2.41,0,0,0-1.53-.74,1.12,1.12,0,0,0-1.12.7,6.23,6.23,0,0,0-.29,2.27v2.45a7.12,7.12,0,0,0,.29,2.42,1.13,1.13,0,0,0,1.15.75A2.25,2.25,0,0,0,181.31,76.92Zm4.31,1.32a2.31,2.31,0,0,1-.9-1.27,8,8,0,0,1-.28-2.38V72a8,8,0,0,1,.29-2.39,2.22,2.22,0,0,1,.91-1.24,3.06,3.06,0,0,1,1.6-.37,2.62,2.62,0,0,1,1.65.45,2.41,2.41,0,0,1,.81,1.37,10.56,10.56,0,0,1,.22,2.44l0,.93h-4.16v1.54a8.46,8.46,0,0,0,.13,1.71,1.62,1.62,0,0,0,.44.92,1.3,1.3,0,0,0,.91.3,1.33,1.33,0,0,0,1.05-.43,2.5,2.5,0,0,0,.36-1.55V75h1.27v.57a3.76,3.76,0,0,1-.62,2.31,2.47,2.47,0,0,1-2.06.8A2.92,2.92,0,0,1,185.62,78.24Zm3-5.81v-.85a9.39,9.39,0,0,0-.09-1.47,1.55,1.55,0,0,0-.41-.84,1.23,1.23,0,0,0-.91-.3,1.21,1.21,0,0,0-1.34,1.08,8.05,8.05,0,0,0-.14,1.69v.69ZM192,78a2.43,2.43,0,0,1-.57-1.64,3.2,3.2,0,0,1,.39-1.67A3.6,3.6,0,0,1,193,73.49a22.58,22.58,0,0,1,2.53-1.29v-.73a8.14,8.14,0,0,0-.11-1.5,1.31,1.31,0,0,0-.4-.77,1.18,1.18,0,0,0-.77-.23c-1,0-1.45.59-1.45,1.77v.37l-1.28,0v-.31a3,3,0,0,1,.75-2.12,2.88,2.88,0,0,1,2-.66,2.21,2.21,0,0,1,1.94.82,4.59,4.59,0,0,1,.58,2.59v5c0,.34,0,.72,0,1.15s0,.73.07.91H195.8L195.6,77a2.53,2.53,0,0,1-.8,1.14,2,2,0,0,1-1.33.45A1.91,1.91,0,0,1,192,78Zm2.89-.81a3.08,3.08,0,0,0,.7-.87V73.08c-.83.44-1.42.77-1.76,1a2.61,2.61,0,0,0-.81.77,2.14,2.14,0,0,0-.28,1.16,1.7,1.7,0,0,0,.33,1.15,1.07,1.07,0,0,0,.84.37A1.5,1.5,0,0,0,194.86,77.16Zm4.32.68a3.34,3.34,0,0,1-.85-2.14l1.09-.34a3.24,3.24,0,0,0,.54,1.73,1.49,1.49,0,0,0,1.23.56,1.38,1.38,0,0,0,1.06-.4,1.43,1.43,0,0,0,.38-1.07,2.92,2.92,0,0,0-1.24-2.07L200,72.9a4.88,4.88,0,0,1-1.06-1.18,2.65,2.65,0,0,1-.35-1.36,2.3,2.3,0,0,1,.66-1.75A2.52,2.52,0,0,1,201,68a2.17,2.17,0,0,1,1.76.73,3.24,3.24,0,0,1,.68,2l-.92.3c-.08-1.35-.56-2-1.47-2a1.39,1.39,0,0,0-1,.33,1.12,1.12,0,0,0-.35.92,1.93,1.93,0,0,0,.18.85,2.58,2.58,0,0,0,.66.77l1.46,1.31a8.15,8.15,0,0,1,1.27,1.38,2.79,2.79,0,0,1,.45,1.62,2.36,2.36,0,0,1-.72,1.83,2.76,2.76,0,0,1-1.92.65A2.53,2.53,0,0,1,199.18,77.84Z" fill="#878787"/><path d="M35,35.34a13.23,13.23,0,0,1-5.87,3.11c1.59-3.18-.23-7.39-4.93-9.94-1.36-.74-2.68-1.44-4-2.15a31.9,31.9,0,0,0-2.61,6.25c-4.8,16.91,2.22,29.11,2.22,29.11C16.37,44.53,24,42.33,29,40c5.88-2.7,7.45-5.81,8.23-7.72A17.31,17.31,0,0,1,35,35.34Z" fill="url(#ea043293-af0d-41fa-8927-3dca7fc65aba)"/><path d="M54.14,15.42a45.17,45.17,0,0,0-8-1.66,9.46,9.46,0,0,0-3.63-3.61c-3.75-1.76-7.63,0-11.18,2.75a13.84,13.84,0,0,1,7.87,12.17v.05c.57-2.24,1.26-4.42,2.23-5.59,3.26-3.94,7.32-3.4,9.27-3.24a27.74,27.74,0,0,1,11.42,3.48A23.52,23.52,0,0,0,54.14,15.42Z" fill="url(#efaa7880-94c0-458b-9f53-8ab32e592dca)"/><path d="M26.87,11.48a18.68,18.68,0,0,1,2.48.64c-.42-.23-.86-.44-1.31-.64C19.48,7.87,13.92,4.27,9.61.24,8.27-1,9.2,2.86,10.71,7.07A89.24,89.24,0,0,0,26.87,11.48Z" fill="url(#b9abd412-d9d7-481a-979e-e984e259da17)"/><path d="M35,35.34a12.78,12.78,0,0,1-5.37,3c-.09.35-.18.7-.3,1,0,0,3.86-1.36,5.57-3.36a12,12,0,0,0,2.12-3.36A18,18,0,0,1,35,35.34Z" fill="url(#b34acb73-c951-4528-b302-96d3c56c8be5)"/><path d="M34.76,36.12S39,31.21,38.32,25.61,34.2,13.93,25.18,12.8C14,11.39,6.53,9.08.82,6.06-2.14,4.5,3.63,15.75,7,19.53,11.29,24.43,17,26.9,23.57,30a8.1,8.1,0,0,1,4,10.67S32.61,38.6,34.76,36.12Z" fill="url(#a5c0f238-6583-4e30-9791-57b5ae629f9f)"/><path d="M71,30.67a3.72,3.72,0,1,1,2.6,1.06A3.52,3.52,0,0,1,71,30.67Z" fill="#b2b2b2"/><path d="M170.71,50.57q3.12,0,5.61-3.12L180,51.61q-4.34,4.5-9.37,4.5a12.12,12.12,0,0,1-8.51-3.19,10.73,10.73,0,0,1-3.47-8.32,10.84,10.84,0,0,1,3.51-8.37A12,12,0,0,1,170.54,33a12.94,12.94,0,0,1,4.89,1,12.35,12.35,0,0,1,4.35,3l-3.25,4.25a7.35,7.35,0,0,0-2.64-2,7.48,7.48,0,0,0-3.1-.71,6.12,6.12,0,0,0-4.23,1.6,5.71,5.71,0,0,0-1.76,4.46A5.62,5.62,0,0,0,166.56,49,6,6,0,0,0,170.71,50.57Zm34.67-6a11.07,11.07,0,0,1-3.37,8.2,12.44,12.44,0,0,1-16.94,0,11.08,11.08,0,0,1-3.38-8.2,11.13,11.13,0,0,1,3.38-8.22,12.36,12.36,0,0,1,16.94,0A11.12,11.12,0,0,1,205.38,44.58Zm-17.4,0a6.41,6.41,0,0,0,1.56,4.47,5.48,5.48,0,0,0,8,0,6.41,6.41,0,0,0,1.56-4.47,6.52,6.52,0,0,0-1.56-4.5,5.44,5.44,0,0,0-8,0A6.52,6.52,0,0,0,188,44.58ZM66.47,26.82v5.7H53v6.29H65.81v5.7H53v11.4h-6.5V26.82ZM88.08,43.43V55.91H81.83V33.52h6.25V36a8.71,8.71,0,0,1,6.37-2.87,7.91,7.91,0,0,1,5.93,2.49,9.26,9.26,0,0,1,2.39,6.66V55.91H96.53V43.26c0-3.44-1.27-5.16-3.79-5.16a4.55,4.55,0,0,0-3.27,1.35A5.3,5.3,0,0,0,88.08,43.43Zm28.49,12.82a9.49,9.49,0,0,1-7.1-3.37,11.86,11.86,0,0,1-3.12-8.37,11.34,11.34,0,0,1,3-8.18,9.54,9.54,0,0,1,7.12-3.18A8.54,8.54,0,0,1,123.17,36V25h6.24V55.91h-6.24V53A8.12,8.12,0,0,1,116.57,56.25Zm-3.94-11.49a6.22,6.22,0,0,0,1.63,4.43,5,5,0,0,0,3.79,1.73,4.73,4.73,0,0,0,3.68-1.73,6.49,6.49,0,0,0,1.52-4.45,6.84,6.84,0,0,0-1.52-4.54A4.67,4.67,0,0,0,118,38.39a4.83,4.83,0,0,0-3.78,1.83A6.69,6.69,0,0,0,112.63,44.76Zm34.19,7h0a6.64,6.64,0,0,1-1.18.1,8.23,8.23,0,0,1-1.33-.11c-.22,0-.43-.09-.64-.15a6.55,6.55,0,0,1-1.21-.46,7.34,7.34,0,0,1-1.64-1.12l0,0a4.78,4.78,0,0,1-.45-.45c-.1-.11-.19-.23-.28-.34s-.1-.12-.14-.19a4.8,4.8,0,0,1-.3-.48l-.06-.09c-.1-.19-.19-.39-.28-.59v0a8,8,0,0,1-.53-2.89h0s0-.07,0-.1a6.66,6.66,0,0,1,2.09-5.2,7.08,7.08,0,0,1,4.91-1.87,6.49,6.49,0,0,1,3.72,1.05,14.33,14.33,0,0,1,1.28.94l-4,4-2.49-2.49-2.78,2.79,2.48,2.48h0l2.87,2.87,2.79-2.78,7.34-7.34a2,2,0,0,0-.16-.23c-.11-.16-.23-.32-.37-.5s-.42-.52-.71-.84c-.53-.59-1.49-1.45-1.49-1.45h0a13.08,13.08,0,0,0-3.64-2.4,14.19,14.19,0,0,0-5.11-1,12.49,12.49,0,0,0-8.7,3.36,11.31,11.31,0,0,0-3.65,8.7v0h0v0c0,.21,0,.42,0,.63h0a12,12,0,0,0,.9,4.15h0c.08.17.15.35.24.52v0l.25.48,0,0c.09.15.18.31.28.46a.35.35,0,0,0,0,.08l.27.41.08.1.27.36.1.12.28.33.14.15.26.29a.86.86,0,0,1,.14.13c.1.09.19.19.3.28a12.31,12.31,0,0,0,6.53,3.14,15,15,0,0,0,2.35.18,11.57,11.57,0,0,0,5.1-1.21l-3.88-3.88ZM76.75,33.52H70.51V55.91h6.24Z" fill="#878787"/></g></g></svg>