<svg xmlns="http://www.w3.org/2000/svg" viewBox="0 0 144.18 99.6"><g id="a3768eb2-5dd7-4a25-ab24-c338cd8b6393" data-name="Capa 2"><g id="b9b2dae6-6486-4ead-b343-0377ebf908d2" data-name="Capa 1"><path d="M81.25,55.81V21.57A3.63,3.63,0,0,0,77.63,18H56.39A3.61,3.61,0,0,0,53,20.25L31.91,74.18a.59.59,0,0,1-.56.39h-7.1a.62.62,0,0,1-.57-.39L3.06,22.11a.56.56,0,0,1,.06-.56.59.59,0,0,1,.5-.27H15.33a.63.63,0,0,1,.58.41l8.66,25.17A3.56,3.56,0,0,0,28,49.3h0a3.57,3.57,0,0,0,3.4-2.45L46,9l0-.06A3.42,3.42,0,0,1,49.3,6.55h17V9a.82.82,0,0,0,1.24.7l6.65-4.09a.82.82,0,0,0,0-1.41L67.57.11a.83.83,0,0,0-1.24.7V3.54h-17a6.43,6.43,0,0,0-6.1,4.4L28.59,45.82l0,.06a.58.58,0,0,1-.57.41.55.55,0,0,1-.58-.41L18.76,20.71a3.63,3.63,0,0,0-3.43-2.44H3.62A3.62,3.62,0,0,0,.25,23.22L20.88,75.29a3.6,3.6,0,0,0,3.37,2.29h7.1a3.6,3.6,0,0,0,3.37-2.3L55.83,21.35a.6.6,0,0,1,.56-.38H77.63a.6.6,0,0,1,.61.6V55.81a5.23,5.23,0,1,0,3,0ZM79.74,63A2.21,2.21,0,1,1,82,60.81,2.22,2.22,0,0,1,79.74,63Z" fill="#878787"/><path d="M143.3,72l-16-24.55a.59.59,0,0,1,0-.66l15.09-22.66a3.61,3.61,0,0,0-3-5.62H126.83a3.59,3.59,0,0,0-3,1.65L116.15,32a.59.59,0,0,1-.5.27.56.56,0,0,1-.5-.26L106.31,19.2a3.62,3.62,0,0,0-3-1.56H91a3.62,3.62,0,0,0-3,5.61l13.56,20.51A5.14,5.14,0,0,0,100.39,47a5.22,5.22,0,1,0,5.22-5.22A5.37,5.37,0,0,0,104,42L90.49,21.59a.6.6,0,0,1,.5-.94h12.34a.61.61,0,0,1,.5.26l8.84,12.81a3.57,3.57,0,0,0,3,1.57,3.63,3.63,0,0,0,3-1.66l7.63-11.84a.59.59,0,0,1,.51-.28H139.4a.58.58,0,0,1,.53.32.56.56,0,0,1,0,.62L124.81,45.11a3.62,3.62,0,0,0,0,4l16,24.54a.6.6,0,0,1-.51.94H126.33a.61.61,0,0,1-.53-.31l-7-12.08a3.58,3.58,0,0,0-3.13-1.81h0a3.57,3.57,0,0,0-3.13,1.8l-7,12a.62.62,0,0,1-.52.3H64.48a.6.6,0,0,1-.6-.61V39.78a5.22,5.22,0,1,0-3,0V73.89a3.63,3.63,0,0,0,3.62,3.62h40.6a3.64,3.64,0,0,0,3.13-1.8l7-12a.58.58,0,0,1,.52-.3h0a.58.58,0,0,1,.52.3l7,12.09a3.64,3.64,0,0,0,3.14,1.81h13.93a3.62,3.62,0,0,0,3-5.59ZM107.82,47a2.21,2.21,0,1,1-2.21-2.21A2.21,2.21,0,0,1,107.82,47ZM60.16,34.78A2.21,2.21,0,1,1,62.37,37,2.21,2.21,0,0,1,60.16,34.78Z" fill="#878787"/><path d="M68.56,1.18Z" fill="#878787"/><path d="M23.19,97l-2.65-8.38c0-.14,0-.21.16-.21h.89a.21.21,0,0,1,.21.16l2.05,6.81c0,.06.06.06.08,0l2-6.81a.21.21,0,0,1,.21-.16H27c.13,0,.2.07.16.21L24.53,97a.2.2,0,0,1-.22.15H23.4A.19.19,0,0,1,23.19,97Z" fill="#878787"/><path d="M27.87,89a.78.78,0,0,1,.83-.79.76.76,0,0,1,.81.79.75.75,0,0,1-.81.78A.77.77,0,0,1,27.87,89Zm.23,7.91v-6a.18.18,0,0,1,.19-.19h.82a.18.18,0,0,1,.19.19v6a.18.18,0,0,1-.19.18h-.82A.17.17,0,0,1,28.1,96.93Z" fill="#878787"/><path d="M34.7,88.37h.82a.18.18,0,0,1,.19.19v8.37a.18.18,0,0,1-.19.18H34.7a.17.17,0,0,1-.19-.18V96.6a0,0,0,0,0-.08,0,1.84,1.84,0,0,1-1.45.65,2.33,2.33,0,0,1-2.36-1.7,4.77,4.77,0,0,1-.22-1.59,5.42,5.42,0,0,1,.18-1.52A2.35,2.35,0,0,1,33,90.65a1.89,1.89,0,0,1,1.45.64s.08,0,.08,0V88.56A.17.17,0,0,1,34.7,88.37Zm-.2,5.56a3.24,3.24,0,0,0-.33-1.6,1.18,1.18,0,0,0-1.06-.64,1.25,1.25,0,0,0-1.11.6,3,3,0,0,0-.4,1.65,3.27,3.27,0,0,0,.31,1.55,1.27,1.27,0,0,0,1.2.69,1.2,1.2,0,0,0,1.09-.68A3.29,3.29,0,0,0,34.5,93.93Z" fill="#878787"/><path d="M41.09,95.4c.06-.11.14-.15.25-.07l.51.31a.19.19,0,0,1,.08.26,2.61,2.61,0,0,1-2.4,1.31,2.44,2.44,0,0,1-2.42-1.52,4.77,4.77,0,0,1-.32-1.79,5,5,0,0,1,.14-1.38,2.64,2.64,0,0,1,5.16.55,8.92,8.92,0,0,1,.09,1.12.17.17,0,0,1-.19.19H38a.06.06,0,0,0-.06.06,2.5,2.5,0,0,0,.09.67,1.5,1.5,0,0,0,1.57,1.08A1.57,1.57,0,0,0,41.09,95.4Zm-3-2.72a2.6,2.6,0,0,0-.12.7s0,.06.07.06h2.83a.05.05,0,0,0,.06-.06,2.84,2.84,0,0,0-.07-.61,1.37,1.37,0,0,0-1.41-1.08A1.3,1.3,0,0,0,38.11,92.68Z" fill="#878787"/><path d="M43.23,95.44A5,5,0,0,1,43,93.92a4.79,4.79,0,0,1,.22-1.5,2.74,2.74,0,0,1,5.12,0,4.77,4.77,0,0,1,.22,1.5,5,5,0,0,1-.22,1.54,2.73,2.73,0,0,1-5.11,0Zm4-.34a4.46,4.46,0,0,0,.14-1.17,5,5,0,0,0-.12-1.16,1.5,1.5,0,0,0-2.88,0,4.47,4.47,0,0,0-.13,1.16,4.73,4.73,0,0,0,.13,1.17,1.49,1.49,0,0,0,2.86,0Z" fill="#878787"/><path d="M51.78,96.93V88.56a.17.17,0,0,1,.18-.19h.83a.17.17,0,0,1,.18.19v8.37a.17.17,0,0,1-.18.18H52A.17.17,0,0,1,51.78,96.93Z" fill="#878787"/><path d="M59.43,92.87v4.06a.17.17,0,0,1-.18.18h-.83a.18.18,0,0,1-.19-.18V93.1a1.34,1.34,0,0,0-2.66-.22v4.05a.17.17,0,0,1-.18.18h-.83a.18.18,0,0,1-.19-.18v-6a.18.18,0,0,1,.19-.19h.83a.18.18,0,0,1,.18.19v.35s0,.08.07,0a1.88,1.88,0,0,1,1.57-.66A2.06,2.06,0,0,1,59.43,92.87Z" fill="#878787"/><path d="M63.59,91.74H62.32a.06.06,0,0,0-.06.06v3.26c0,.73.31,1,1,1h.3a.18.18,0,0,1,.19.19v.65a.19.19,0,0,1-.19.2H63c-1.16,0-1.91-.29-1.91-1.6V91.8a.06.06,0,0,0-.06-.06h-.69a.18.18,0,0,1-.19-.19v-.61a.18.18,0,0,1,.19-.19h.69a.06.06,0,0,0,.06-.06v-1.4a.17.17,0,0,1,.19-.18h.77a.18.18,0,0,1,.19.18v1.4a.05.05,0,0,0,.06.06h1.27a.18.18,0,0,1,.19.19v.61A.17.17,0,0,1,63.59,91.74Z" fill="#878787"/><path d="M68.73,95.4c.06-.11.14-.15.25-.07l.51.31a.19.19,0,0,1,.08.26,2.61,2.61,0,0,1-2.4,1.31,2.46,2.46,0,0,1-2.43-1.52,4.78,4.78,0,0,1-.31-1.79,5,5,0,0,1,.14-1.38,2.64,2.64,0,0,1,5.16.55c0,.33.07.7.09,1.12a.17.17,0,0,1-.19.19H65.68a.05.05,0,0,0-.06.06,2.5,2.5,0,0,0,.09.67,1.5,1.5,0,0,0,1.57,1.08A1.58,1.58,0,0,0,68.73,95.4Zm-3-2.72a2.63,2.63,0,0,0-.11.7.06.06,0,0,0,.06.06h2.84a.05.05,0,0,0,.06-.06,3.68,3.68,0,0,0-.07-.61,1.38,1.38,0,0,0-1.41-1.08A1.31,1.31,0,0,0,65.74,92.68Z" fill="#878787"/><path d="M70.84,96.93V88.56a.18.18,0,0,1,.19-.19h.82a.17.17,0,0,1,.19.19v8.37a.17.17,0,0,1-.19.18H71A.18.18,0,0,1,70.84,96.93Z" fill="#878787"/><path d="M73.32,96.93V88.56a.17.17,0,0,1,.18-.19h.83a.17.17,0,0,1,.18.19v8.37a.17.17,0,0,1-.18.18H73.5A.17.17,0,0,1,73.32,96.93Z" fill="#878787"/><path d="M75.65,89a.78.78,0,0,1,.83-.79.77.77,0,0,1,.81.79.76.76,0,0,1-.81.78A.77.77,0,0,1,75.65,89Zm.23,7.91v-6a.18.18,0,0,1,.18-.19h.83a.18.18,0,0,1,.19.19v6a.18.18,0,0,1-.19.18h-.83A.17.17,0,0,1,75.88,96.93Z" fill="#878787"/><path d="M82.51,90.75h.83a.18.18,0,0,1,.18.19v5.85c0,2.37-1.73,2.93-3.71,2.78-.12,0-.17-.08-.17-.19l0-.74a.18.18,0,0,1,.21-.18c1.72.12,2.45-.31,2.45-1.71v-.21c0-.05,0-.06-.07,0a1.92,1.92,0,0,1-1.53.6,2.36,2.36,0,0,1-2.37-1.67,5.81,5.81,0,0,1-.16-1.52,5.13,5.13,0,0,1,.19-1.6,2.31,2.31,0,0,1,2.27-1.67,2.08,2.08,0,0,1,1.6.62s.07,0,.07,0v-.3A.18.18,0,0,1,82.51,90.75Zm-.19,3.15a4.32,4.32,0,0,0-.08-1.16,1.3,1.3,0,0,0-1.33-1,1.39,1.39,0,0,0-1.37,1,3.37,3.37,0,0,0-.14,1.16,3.92,3.92,0,0,0,.12,1.18,1.42,1.42,0,0,0,1.39,1,1.31,1.31,0,0,0,1.34-1A5.11,5.11,0,0,0,82.32,93.9Z" fill="#878787"/><path d="M88.82,95.4c.06-.11.14-.15.25-.07l.51.31a.19.19,0,0,1,.08.26,2.61,2.61,0,0,1-2.4,1.31,2.46,2.46,0,0,1-2.43-1.52,4.78,4.78,0,0,1-.31-1.79,5,5,0,0,1,.14-1.38,2.64,2.64,0,0,1,5.16.55c.05.33.07.7.09,1.12a.17.17,0,0,1-.19.19h-4a.05.05,0,0,0-.06.06,2.5,2.5,0,0,0,.09.67,1.5,1.5,0,0,0,1.57,1.08A1.57,1.57,0,0,0,88.82,95.4Zm-3-2.72a2.63,2.63,0,0,0-.11.7.06.06,0,0,0,.06.06h2.84a.05.05,0,0,0,.06-.06,2.84,2.84,0,0,0-.07-.61,1.37,1.37,0,0,0-1.41-1.08A1.31,1.31,0,0,0,85.83,92.68Z" fill="#878787"/><path d="M96,92.87v4.06a.18.18,0,0,1-.19.18H95a.17.17,0,0,1-.19-.18V93.1a1.34,1.34,0,0,0-2.66-.22v4.05a.18.18,0,0,1-.19.18h-.82a.17.17,0,0,1-.19-.18v-6a.18.18,0,0,1,.19-.19h.82a.18.18,0,0,1,.19.19v.35s0,.08.06,0a1.88,1.88,0,0,1,1.58-.66A2.06,2.06,0,0,1,96,92.87Z" fill="#878787"/><path d="M97.19,95.43A4.87,4.87,0,0,1,97,93.92a5.32,5.32,0,0,1,.19-1.52,2.75,2.75,0,0,1,5.1-.07,1.81,1.81,0,0,1,.09.35.17.17,0,0,1-.17.2l-.81.11a.18.18,0,0,1-.21-.14l0-.16a1.39,1.39,0,0,0-1.42-1,1.36,1.36,0,0,0-1.4,1,5.42,5.42,0,0,0-.11,1.19,5.08,5.08,0,0,0,.11,1.17,1.36,1.36,0,0,0,1.4,1.08,1.41,1.41,0,0,0,1.42-1,.18.18,0,0,0,0-.05v0a.23.23,0,0,1,.22-.16l.81.14a.17.17,0,0,1,.16.2c0,.07,0,.15-.06.24a2.51,2.51,0,0,1-2.55,1.68A2.54,2.54,0,0,1,97.19,95.43Z" fill="#878787"/><path d="M107.34,95.4c.06-.11.13-.15.25-.07l.51.31a.18.18,0,0,1,.07.26,2.59,2.59,0,0,1-2.39,1.31,2.45,2.45,0,0,1-2.43-1.52A4.78,4.78,0,0,1,103,93.9a4.61,4.61,0,0,1,.14-1.38,2.64,2.64,0,0,1,5.16.55,9.05,9.05,0,0,1,.08,1.12.17.17,0,0,1-.18.19h-3.95a.05.05,0,0,0-.06.06,2.58,2.58,0,0,0,.08.67,1.52,1.52,0,0,0,1.58,1.08A1.59,1.59,0,0,0,107.34,95.4Zm-3-2.72a2.63,2.63,0,0,0-.11.7.05.05,0,0,0,.06.06h2.84a.06.06,0,0,0,.06-.06,2.74,2.74,0,0,0-.08-.61,1.37,1.37,0,0,0-1.41-1.08A1.3,1.3,0,0,0,104.35,92.68Z" fill="#878787"/><path d="M111.06,96.89l2.52-4.11a.06.06,0,0,0,0-.08l-2.52-4.11c-.07-.12,0-.22.13-.22h.89a.26.26,0,0,1,.23.12l2,3.26s0,0,.07,0l2-3.26a.24.24,0,0,1,.22-.12h.89c.15,0,.2.1.12.22l-2.51,4.13a.09.09,0,0,0,0,.07l2.51,4.1c.08.12,0,.22-.12.22h-.89a.22.22,0,0,1-.22-.12l-2-3.25s-.05,0-.07,0l-2,3.25a.24.24,0,0,1-.23.12h-.89C111,97.11,111,97,111.06,96.89Z" fill="#878787"/><path d="M123.87,94a5,5,0,0,1-.19,1.51,2.34,2.34,0,0,1-2.4,1.75,1.9,1.9,0,0,1-1.45-.63s-.07,0-.07,0v2.71a.18.18,0,0,1-.19.19h-.83a.17.17,0,0,1-.18-.19V90.94a.18.18,0,0,1,.18-.19h.83a.18.18,0,0,1,.19.19v.33s0,.07.07,0a1.88,1.88,0,0,1,1.45-.65,2.33,2.33,0,0,1,2.36,1.7A4.82,4.82,0,0,1,123.87,94Zm-1.2,0a3.23,3.23,0,0,0-.32-1.55,1.26,1.26,0,0,0-1.19-.69,1.2,1.2,0,0,0-1.09.68,4.21,4.21,0,0,0,0,3.17,1.18,1.18,0,0,0,1.07.64,1.28,1.28,0,0,0,1.11-.6A3,3,0,0,0,122.67,93.93Z" fill="#878787"/><path d="M129,95.4c.06-.11.14-.15.25-.07l.51.31a.19.19,0,0,1,.08.26,2.61,2.61,0,0,1-2.4,1.31A2.44,2.44,0,0,1,125,95.69a4.77,4.77,0,0,1-.32-1.79,5,5,0,0,1,.14-1.38,2.64,2.64,0,0,1,5.16.55,8.92,8.92,0,0,1,.09,1.12.17.17,0,0,1-.19.19h-4a.06.06,0,0,0-.06.06,2.5,2.5,0,0,0,.09.67,1.5,1.5,0,0,0,1.57,1.08A1.57,1.57,0,0,0,129,95.4Zm-3-2.72a2.6,2.6,0,0,0-.12.7s0,.06.07.06h2.83a.05.05,0,0,0,.06-.06,2.84,2.84,0,0,0-.07-.61,1.37,1.37,0,0,0-1.41-1.08A1.3,1.3,0,0,0,126,92.68Z" fill="#878787"/><path d="M134.56,90.83a.19.19,0,0,1,.1.24l-.17.81c0,.14-.1.15-.23.11a1.62,1.62,0,0,0-.61,0,1.34,1.34,0,0,0-1.35,1.4v3.59a.17.17,0,0,1-.19.18h-.82a.18.18,0,0,1-.19-.18v-6a.18.18,0,0,1,.19-.19h.82a.18.18,0,0,1,.19.19v.58c0,.06,0,.07.06,0a1.77,1.77,0,0,1,1.53-.85A1.46,1.46,0,0,1,134.56,90.83Z" fill="#878787"/><path d="M138.32,91.74h-1.27a.06.06,0,0,0-.06.06v3.26c0,.73.31,1,1,1h.3a.18.18,0,0,1,.19.19v.65a.19.19,0,0,1-.19.2h-.51c-1.16,0-1.91-.29-1.91-1.6V91.8a.07.07,0,0,0-.07-.06h-.68a.17.17,0,0,1-.19-.19v-.61a.18.18,0,0,1,.19-.19h.68s.07,0,.07-.06v-1.4a.17.17,0,0,1,.18-.18h.78a.18.18,0,0,1,.19.18v1.4a.05.05,0,0,0,.06.06h1.27a.18.18,0,0,1,.19.19v.61A.18.18,0,0,1,138.32,91.74Z" fill="#878787"/><path d="M139.22,95.48V95.4a.18.18,0,0,1,.19-.19h.77c.12,0,.19,0,.19.09v.1c0,.45.55.88,1.34.88s1.27-.38,1.27-.87-.62-.71-1.37-.92c-1.1-.3-2.34-.69-2.34-2s1-1.83,2.4-1.83,2.44.76,2.44,1.8c0,.1-.08.16-.19.16h-.75c-.11,0-.19,0-.19-.08v-.08c0-.46-.49-.85-1.32-.85s-1.24.29-1.24.79.6.72,1.4.95c1.07.29,2.36.65,2.36,2,0,1.14-1,1.85-2.46,1.85S139.22,96.43,139.22,95.48Z" fill="#878787"/></g></g></svg>