<svg xmlns="http://www.w3.org/2000/svg" viewBox="0 0 166.08 34.11"><g id="b090b0e3-881c-46a5-894e-86b30118bb0d" data-name="Capa 2"><g id="bca02beb-37d0-42e6-acfe-e065ec6bb628" data-name="Capa 1"><path d="M8.24,22.4h0a4.48,4.48,0,1,1,4.49-4.48A4.49,4.49,0,0,1,8.24,22.4m0-12.7A8.12,8.12,0,0,0,0,17.92v14.4a.89.89,0,0,0,.89.89h2a.89.89,0,0,0,.89-.89V24.86a8.3,8.3,0,0,0,12.73-7A8.14,8.14,0,0,0,8.21,9.7Z" fill="#878787"/><path d="M33.15,9.69h-2a.89.89,0,0,0-.89.89v7.33a4.49,4.49,0,1,1-9,0V10.58a.89.89,0,0,0-.89-.89h-2a.9.9,0,0,0-.9.89v7.33a8.3,8.3,0,0,0,12.73,7v.19a.89.89,0,0,0,.89.89h2a.89.89,0,0,0,.89-.89V10.58a.89.89,0,0,0-.89-.89" fill="#878787"/><path d="M43.33,9.69A8.22,8.22,0,0,0,38.88,11v-.18a.89.89,0,0,0-.9-.89H36a.89.89,0,0,0-.89.89V25.27a.89.89,0,0,0,.89.89h2a.89.89,0,0,0,.9-.89v-7.5a4.49,4.49,0,0,1,9,.17v7.33a.89.89,0,0,0,.9.89h2a.89.89,0,0,0,.89-.89V17.94a8.27,8.27,0,0,0-8.27-8.25" fill="#878787"/><path d="M60.89,22.42A4.45,4.45,0,0,1,56.43,18V13.54h4.44a.89.89,0,0,0,.89-.89v-2a.89.89,0,0,0-.89-.9H56.43V8a.89.89,0,0,0-.89-.89h-2a.89.89,0,0,0-.89.89V18a8.09,8.09,0,0,0,8.2,8.16.89.89,0,0,0,.9-.89v-2a.89.89,0,0,0-.9-.89" fill="#878787"/><path d="M70.6,22.41h0a4.5,4.5,0,1,1,4.5-4.5,4.52,4.52,0,0,1-4.5,4.5m0-12.74a8.16,8.16,0,0,0-8.23,8.27,8.26,8.26,0,0,0,16.51,0A8.29,8.29,0,0,0,70.57,9.67Z" fill="#878787"/><path d="M147.19,30.33a1.34,1.34,0,0,1,0-2L150.52,25a1.37,1.37,0,0,1,2,0l3.33,3.33a1.34,1.34,0,0,1,0,2l-3.33,3.34a1.34,1.34,0,0,1-2,0Z" fill="#878787"/><path d="M151.76,20.78a2.11,2.11,0,0,1,0-3.12L157,12.4a2.14,2.14,0,0,1,3.13,0l5.25,5.26a2.11,2.11,0,0,1,0,3.12L160.14,26A2.1,2.1,0,0,1,157,26Z" fill="#878787"/><path d="M137.22,11a2.55,2.55,0,0,1,0-3.77L143.57.83a2.56,2.56,0,0,1,3.78,0l6.35,6.35a2.55,2.55,0,0,1,0,3.77l-6.35,6.35a2.53,2.53,0,0,1-3.78,0Z" fill="#878787"/><path d="M115.56,22.44a4.57,4.57,0,0,1-2.16-3.93v-.66a8.16,8.16,0,0,0-2.35-5.78,8,8,0,0,0-5.75-2.38,8.19,8.19,0,0,0,0,16.38,8,8,0,0,0,6.24-2.91A6.35,6.35,0,0,0,115.49,26h.05a.24.24,0,0,0,.18-.07.25.25,0,0,0,.1-.21V22.92A.55.55,0,0,0,115.56,22.44ZM105.3,13.26a4.64,4.64,0,0,1,0,9.27,4.64,4.64,0,0,1,0-9.27Z" fill="#878787"/><path d="M130.61,9.72H129a1.08,1.08,0,0,0-1.08,1.08v7.08a4.55,4.55,0,0,1-1.48,3.35A4.43,4.43,0,0,1,123,22.36a4.61,4.61,0,0,1-4-4.62V11.4c0-1.51-.75-1.68-1.08-1.68h-1.57a1.08,1.08,0,0,0-1.07,1.08v7.05a8.41,8.41,0,0,0,8.22,8.31,7.92,7.92,0,0,0,4.47-1.34v.69A4.47,4.47,0,0,1,124,30a1,1,0,0,0-.93,1v1.49a1.32,1.32,0,0,0,.39,1,1,1,0,0,0,.67.26h.09a8.31,8.31,0,0,0,7.51-8.21V10.8A1.08,1.08,0,0,0,130.61,9.72Z" fill="#878787"/><path d="M88,22.4h0a4.48,4.48,0,1,1,4.49-4.48A4.49,4.49,0,0,1,88,22.4m0-12.7a8.12,8.12,0,0,0-8.21,8.22v14.4a.89.89,0,0,0,.89.89h2a.89.89,0,0,0,.9-.89V24.86a8.3,8.3,0,0,0,12.73-7A8.14,8.14,0,0,0,87.94,9.7Z" fill="#878787"/></g></g></svg>