<svg xmlns="http://www.w3.org/2000/svg" xmlns:xlink="http://www.w3.org/1999/xlink" viewBox="0 0 734.37 395.74"><defs><linearGradient id="b9a2b118-d869-443e-bbb9-ad9a568fd4ea" x1="282.23" y1="-48.61" x2="412.85" y2="339.73" gradientUnits="userSpaceOnUse"><stop offset="0" stop-color="#54759c"/><stop offset="0.14" stop-color="#4f6e95"/><stop offset="0.41" stop-color="#4a678d"/><stop offset="1" stop-color="#48658b"/></linearGradient></defs><g id="a342fd6c-abe5-490f-bfdd-fa3f515895f6" data-name="Capa 2"><g id="bc3c4e16-4567-4f13-a4e2-cd46edfdfdc3" data-name="Capa 4"><polygon points="662.27 6.61 522.57 13.07 425.71 4.73 342.34 18.01 309.81 17.96 221.56 9.72 185.19 5.96 67.52 13.77 0 8.23 0 395.75 734.37 395.75 734.37 12.18 662.27 6.61" opacity="0.6" fill="url(#b9a2b118-d869-443e-bbb9-ad9a568fd4ea)"/><polygon points="0 5.72 70.9 9.05 187.83 0 223.06 2.83 308.92 11.66 342.34 11.52 425.62 0.85 520.26 11.02 660.34 2.72 734.37 9.79 734.37 13.91 659.27 8.05 521 14.5 425.14 6.16 342.34 18.01 308.51 18.01 221.56 9.72 187.09 7.4 70.64 15.21 0 9.35 0 5.72" fill="#bed2ec"/></g></g></svg>