<svg xmlns="http://www.w3.org/2000/svg" viewBox="0 0 197.75 642.8"><g id="b154a6de-677b-4ae7-9773-a54ae93f043a" data-name="Capa 2"><g id="fea79f3e-fdd9-43e2-b9d9-8c2007bb5573" data-name="Capa 1"><path d="M6.54,535.45A2.46,2.46,0,0,1,9,533H41.33a42.14,42.14,0,0,1,4.89.34s8.54,1.2,11.86,4.27a14.93,14.93,0,0,1,5,11.42,14.41,14.41,0,0,1-3.55,9.79,15.79,15.79,0,0,1-6.94,4.3q6.93,1.68,10.21,5.74a15.73,15.73,0,0,1,3.27,10.2,17.58,17.58,0,0,1-2.33,9,17.1,17.1,0,0,1-6.37,6.32,20.92,20.92,0,0,1-7.55,2.11,89.1,89.1,0,0,1-8.91.88H9a2.47,2.47,0,0,1-2.46-2.46Zm20.08,20.34a2.46,2.46,0,0,0,2.45,2.46h3.74c1.35,0,3.56-.11,4.9-.25,0,0,2.82-.28,4-1.35A5.84,5.84,0,0,0,43.57,552a5.51,5.51,0,0,0-1.83-4.4c-1.21-1-3.33-1.58-6.34-1.58H29.07a2.45,2.45,0,0,0-2.45,2.45Zm0,25.3a2.45,2.45,0,0,0,2.45,2.45H34.3c1.35,0,3.56-.11,4.9-.25,0,0,3.4-.35,4.8-1.57a6.12,6.12,0,0,0,2.11-4.89A5.65,5.65,0,0,0,44,572.24q-2.09-1.74-7.32-1.74H29.07A2.46,2.46,0,0,0,26.62,573Z" fill="#58595b"/><path d="M67.45,565.23q0-15.76,8.78-24.55t24.46-8.78q16.08,0,24.77,8.63t8.7,24.18q0,11.28-3.8,18.5a27.17,27.17,0,0,1-11,11.25q-7.18,4-17.9,4-10.89,0-18-3.47a27.25,27.25,0,0,1-11.58-11Q67.46,576.52,67.45,565.23Zm19.89.09q0,9.75,3.63,14a12.25,12.25,0,0,0,9.85,4.26q6.42,0,9.93-4.17t3.51-15q0-9.09-3.66-13.28a12.54,12.54,0,0,0-9.95-4.2A12.08,12.08,0,0,0,91,551.22Q87.35,555.48,87.34,565.32Z" fill="#58595b"/><path d="M0,495q0-15.76,8.78-24.55t24.46-8.78q16.08,0,24.77,8.63t8.7,24.18q0,11.28-3.8,18.5a27,27,0,0,1-11,11.24q-7.18,4-17.9,4-10.89,0-18-3.47a27.08,27.08,0,0,1-11.57-11Q0,506.27,0,495Zm19.89.09q0,9.75,3.63,14a12.26,12.26,0,0,0,9.86,4.26q6.4,0,9.92-4.18t3.51-15q0-9.09-3.67-13.28a12.5,12.5,0,0,0-9.94-4.2A12.08,12.08,0,0,0,23.54,481Q19.9,485.23,19.89,495.07Z" fill="#58595b"/><path d="M111.82,465.2a2.46,2.46,0,0,1,2.46-2.45h14.94a2.45,2.45,0,0,1,2.45,2.45v33.45c0,1.35-.09,3.56-.2,4.9a40.19,40.19,0,0,1-1.58,8.33,23.21,23.21,0,0,1-5.58,8.86,22.1,22.1,0,0,1-8,5.33,39.92,39.92,0,0,1-13.92,2.15,89.36,89.36,0,0,1-10.25-.65A26.94,26.94,0,0,1,82.88,525a23.27,23.27,0,0,1-6.83-5.55A20.61,20.61,0,0,1,71.81,512,38.83,38.83,0,0,1,70,501.1V465.2a2.46,2.46,0,0,1,2.46-2.45H87.37a2.45,2.45,0,0,1,2.45,2.45v34.36a37.9,37.9,0,0,0,.38,4.88s.59,3.83,2.54,5.8,4.65,3,8.1,3,6.11-1,8.06-2.91,2.92-4.7,2.92-8.27Z" fill="#58595b"/><path d="M135.28,465.2a2.46,2.46,0,0,1,2.46-2.45h36.48a2.46,2.46,0,0,1,2.46,2.45v59.5a2.47,2.47,0,0,1-2.46,2.46H156.57a2.46,2.46,0,0,1-2.45-2.46V481.1a2.47,2.47,0,0,0-2.46-2.46H137.74a2.46,2.46,0,0,1-2.46-2.45Z" fill="#58595b"/><rect x="180.57" y="462.75" width="15.9" height="15.9" rx="2.45" fill="#58595b"/><path d="M167.65,581.92a4.49,4.49,0,0,0,0,4.2l5.84,9.56a4.86,4.86,0,0,0,3.73,2.09h17c1.35,0,1.85-.92,1.11-2l-17.45-26.64a1.42,1.42,0,0,0-2.61,0Z" fill="#58595b"/><path d="M175.33,564.78a1.41,1.41,0,0,0,2.6.07l19.47-29.41c.74-1.12.25-2-1.1-2H179a4.94,4.94,0,0,0-3.76,2.08l-7.51,12a4.43,4.43,0,0,0-.06,4.2Z" fill="#58595b"/><path d="M155.54,595.47a4.83,4.83,0,0,1-3.72,2.11H135c-1.35,0-1.86-.93-1.13-2.07l17.38-27a4.11,4.11,0,0,0,0-4.11l-19.22-29.1c-.74-1.13-.25-2,1.1-2h17.44a4.75,4.75,0,0,1,3.7,2.12l17.2,29.31a4.53,4.53,0,0,1,0,4.22Z" fill="#58595b"/><path d="M70.1,314.75,9.62,345.06a20.88,20.88,0,0,1-1.49-3.28,13.17,13.17,0,0,1-.73-3.87V119.77c0-5.06,3.7-11.06,8.23-13.32L59.34,84.59c4.53-2.27,8.23,0,8.23,5.08V307a16.83,16.83,0,0,0,.58,3.86A18.49,18.49,0,0,0,70.1,314.75Z" fill="#5d97b9"/><path d="M67.6,71.27a15.92,15.92,0,0,0,8.32,13.15l43.54,20.65c4.57,2.17,8.31-.2,8.31-5.27V34.6a15.93,15.93,0,0,0-8.31-13.15L75.92.8C71.34-1.36,67.6,1,67.6,6.07Z" fill="#f89c1c"/><path d="M185.68,369.11a16.68,16.68,0,0,1-5.4,5.87L125.52,406.8a4.94,4.94,0,0,0,1.66-2.17,10.29,10.29,0,0,0,.56-2.64V268.91a11.19,11.19,0,0,0-.8-3.52,17.15,17.15,0,0,0-1.69-3.18l60.18-29.93a12,12,0,0,1,1.72,3.51,17.17,17.17,0,0,1,.76,4.37v120.6A18.65,18.65,0,0,1,185.68,369.11Z" fill="#5d97b9"/><path d="M127.73,346.18,75.51,320.07a18.11,18.11,0,0,1-3.24-2.51,16.74,16.74,0,0,1-2.2-2.88L9.59,345.06a22.1,22.1,0,0,0,2.3,2.91,15,15,0,0,0,2.57,2.09l104.29,56.46s3.93,2.07,6.63.38c2.42-1.51,2.35-5.08,2.35-5.08Z" fill="#60b4d6"/><path d="M67.57,173.18V230.9l52.71,26.38a13.74,13.74,0,0,1,3,2.43,17.81,17.81,0,0,1,2,2.5l60.17-29.94a25.56,25.56,0,0,0-2.36-3,16.55,16.55,0,0,0-3.27-2.43L75.09,174.51a32.12,32.12,0,0,0-3.53-1A29.71,29.71,0,0,0,67.57,173.18Z" fill="#60b4d6"/><path d="M67.57,230.9V173.16a19,19,0,0,0-8.26,1.69l-43.7,21.86c-4.5,2.25-4.52,5.91-.09,8.18L17.76,206Z" fill="#266a92"/><path d="M127.74,402a10.29,10.29,0,0,1-.56,2.64,4.94,4.94,0,0,1-1.66,2.17L180.28,375a17.92,17.92,0,0,0,6.45-8.12c-4,7.12-11.4,3.23-11.4,3.23l-47.59-23.77Z" fill="#266a92"/><path d="M25.91,642.76,18.32,609h2.83l5.66,25.61,11.11-26.53,6,26.61,10.88-25.62h2.92L43.16,642.8l-6-26.92Z" fill="#f89c1c"/><path d="M74,632.23l-16.31,0v.51a8,8,0,0,0,1.79,5.54,6.48,6.48,0,0,0,5,2,7.1,7.1,0,0,0,3.59-.92,8.88,8.88,0,0,0,2.84-2.8l1.8,1.77a10.67,10.67,0,0,1-3.61,3.25,10,10,0,0,1-4.67,1,9,9,0,0,1-9.52-9.51,12.36,12.36,0,0,1,3-8.56,9.69,9.69,0,0,1,7.6-3.29,8.48,8.48,0,0,1,6.39,2.37,9.22,9.22,0,0,1,2.26,6.65c0,.26,0,.57,0,.92S74,631.86,74,632.23ZM71.5,630a7,7,0,0,0-1.5-4.8,5.43,5.43,0,0,0-4.25-1.69,7.5,7.5,0,0,0-5,1.62A9.15,9.15,0,0,0,57.91,630Z" fill="#f89c1c"/><path d="M108.48,622l-2.54,19.75h-2.62l.4-3a8.3,8.3,0,0,1-2.91,2.87,7.7,7.7,0,0,1-3.87.94,7.21,7.21,0,0,1-5.86-2.81,11.14,11.14,0,0,1-2.28-7.24,12,12,0,0,1,2.76-8.09,8.8,8.8,0,0,1,7-3.22,7.22,7.22,0,0,1,4.17,1.16,7.67,7.67,0,0,1,2.65,3.56l.53-4ZM97.66,640.36a6.11,6.11,0,0,0,5-2.61,10.62,10.62,0,0,0,2-6.64,8.58,8.58,0,0,0-1.66-5.5,5.32,5.32,0,0,0-4.36-2.08,6.22,6.22,0,0,0-5.11,2.58,10.36,10.36,0,0,0-2,6.6,8.58,8.58,0,0,0,1.67,5.57A5.41,5.41,0,0,0,97.66,640.36Z" fill="#f89c1c"/><path d="M112.24,641.79,114.79,622h2.56l-.5,3.34a11.76,11.76,0,0,1,2.87-3.07,5.16,5.16,0,0,1,3-1,6.78,6.78,0,0,1,1.2.11,5.21,5.21,0,0,1,1.08.32l-.61,2.69c-.59-.21-1-.36-1.35-.44a3.3,3.3,0,0,0-.78-.12,4.91,4.91,0,0,0-4.12,1.95,12.19,12.19,0,0,0-2,6l-1.28,10Z" fill="#f89c1c"/><path d="M143.73,632.37l-16.3,0v.51a7.94,7.94,0,0,0,1.79,5.54,6.43,6.43,0,0,0,5,2,7,7,0,0,0,3.59-.92,8.64,8.64,0,0,0,2.84-2.79l1.8,1.76a10.46,10.46,0,0,1-3.61,3.25,10,10,0,0,1-4.66,1,9.42,9.42,0,0,1-6.92-2.62,9.32,9.32,0,0,1-2.61-6.89,12.34,12.34,0,0,1,3-8.56,9.68,9.68,0,0,1,7.6-3.29,8.42,8.42,0,0,1,6.39,2.37,9.26,9.26,0,0,1,2.26,6.64c0,.27,0,.58,0,.93S143.78,632,143.73,632.37Zm-2.46-2.24a7,7,0,0,0-1.5-4.79,5.41,5.41,0,0,0-4.24-1.7,7.6,7.6,0,0,0-5,1.63,9.08,9.08,0,0,0-2.83,4.84Z" fill="#f89c1c"/><path d="M159.08,641.89l2.56-19.76h2.64l-2.55,19.75Zm2.74-27a2,2,0,0,1,.56-1.45,1.85,1.85,0,0,1,1.41-.57,1.88,1.88,0,0,1,1.41.57,2,2,0,0,1,.57,1.46,2,2,0,0,1-.57,1.42,1.92,1.92,0,0,1-1.41.58,1.9,1.9,0,0,1-1.41-.59A2,2,0,0,1,161.82,614.85Z" fill="#f89c1c"/><path d="M168.08,641.9l2.54-19.75h2.57l-.44,3.21a10.5,10.5,0,0,1,3.29-3,8.06,8.06,0,0,1,3.93-1,6.17,6.17,0,0,1,4.41,1.55,5.49,5.49,0,0,1,1.63,4.21c0,.31,0,.65,0,1s-.08.76-.15,1.18l-1.6,12.54h-2.66l1.62-12.38c.05-.33.08-.64.1-.95s0-.62,0-1a3.61,3.61,0,0,0-1.14-2.88,5,5,0,0,0-3.32-1,5.68,5.68,0,0,0-4.62,2.07,12,12,0,0,0-2.25,6.22l-1.27,9.85Z" fill="#f89c1c"/></g></g></svg>