<svg xmlns="http://www.w3.org/2000/svg" viewBox="0 0 1010.5 366.47"><g id="b156cb0f-b920-4532-a1ce-30b665121cbc" data-name="Capa 2"><g id="fdaa6235-b39c-47b1-ab10-64fe8e8b565f" data-name="Capa 1"><rect x="19.86" y="149.72" width="19.39" height="15.72" fill="#d3d4d6"/><path d="M89.36,211.26H.18L0,102.37H85.31v15.88H19.86v77.12h69.5Z" fill="#231f20"/><path d="M225.41,213a39,39,0,0,1-12.77-2,41.92,41.92,0,0,1-11-5.71,45.58,45.58,0,0,1-9-8.66,57.78,57.78,0,0,1-6.71-10.71l13.79-11.07a34.29,34.29,0,0,0,4.14,6.87,64.05,64.05,0,0,0,6.34,7.32,37,37,0,0,0,7.45,5.8,15.33,15.33,0,0,0,7.81,2.33,26.75,26.75,0,0,0,9.84-1.52,16.78,16.78,0,0,0,6-3.84,12.08,12.08,0,0,0,2.94-4.73,15.1,15.1,0,0,0,.73-4.37,23.32,23.32,0,0,0-.46-4.38,13.06,13.06,0,0,0-2.48-5.17,25.53,25.53,0,0,0-6.16-5.63,57.61,57.61,0,0,0-11.49-5.71,151.27,151.27,0,0,1-17.47-8.12A52.48,52.48,0,0,1,196.09,146a22.54,22.54,0,0,1-5.52-7.85A23.7,23.7,0,0,1,189,129.5a30,30,0,0,1,1.93-10.18,26.58,26.58,0,0,1,6.25-9.72,33.14,33.14,0,0,1,11.4-7.23q7.08-2.87,17.56-2.86,14.16,0,23.35,6.69T263.66,125l-16.73,5.17q-5.72-14.1-20.78-14.1-8.28,0-12.32,3a9.55,9.55,0,0,0-4.05,8,8,8,0,0,0,2.12,5.44,24.69,24.69,0,0,0,5.79,4.65,66.66,66.66,0,0,0,8.55,4.28q4.88,2.05,10.57,4.37a65.06,65.06,0,0,1,15.08,8.57,35.07,35.07,0,0,1,8.27,9.11,26.21,26.21,0,0,1,3.5,9.1,52.91,52.91,0,0,1,.73,8.39,31.12,31.12,0,0,1-1.84,9.64,30.33,30.33,0,0,1-6.25,10.53,34.5,34.5,0,0,1-12,8.39Q236.81,213,225.41,213Z" fill="#231f20"/><path d="M467.19,192.16A80.71,80.71,0,0,1,445,207.51a59.42,59.42,0,0,1-25.46,5.71,71,71,0,0,1-23.72-4.46,55.64,55.64,0,0,1-18.94-12.14,56.77,56.77,0,0,1-12.13-18.21A55.22,55.22,0,0,1,360.55,157a53,53,0,0,1,4.14-21.78A58.27,58.27,0,0,1,376.91,117a55.3,55.3,0,0,1,18.67-12,64.66,64.66,0,0,1,24.17-4.37A59.14,59.14,0,0,1,445,106.2a80,80,0,0,1,22,15.27l-12.32,12.85a78.11,78.11,0,0,0-17.56-13.12,37,37,0,0,0-17.38-4.73,39.79,39.79,0,0,0-28.68,11.87,38.27,38.27,0,0,0-8.27,12.85,42.46,42.46,0,0,0-2.94,15.8,41.73,41.73,0,0,0,2.94,15.71,38.48,38.48,0,0,0,8.27,12.76,39.79,39.79,0,0,0,28.68,11.87q8.28,0,17.29-4.82a77.81,77.81,0,0,0,17.46-13Z" fill="#231f20"/><path d="M640,211.26,627,181.8H585.78q-3.13,7-6.53,14.91t-6.34,14.55H552.32l54-120.32L660.8,211.26Zm-19.67-45.34q-2-4.83-3.59-8.48t-3-7.23q-1.49-3.57-3.22-7.68c-1.17-2.73-2.55-6.13-4.14-10.17q-3.3,8-6.8,16.15t-7.17,17.41Z" fill="#d3d4d6"/><path d="M813.22,111.11a29.83,29.83,0,0,1,8.55,11.07,34,34,0,0,1,2.85,13.92,25.54,25.54,0,0,1-3.68,14.29,38.27,38.27,0,0,1-9.56,10.53,41.82,41.82,0,0,1-4,2.59,27.7,27.7,0,0,1-6,2.41,62.23,62.23,0,0,1-8.92,1.78,92.72,92.72,0,0,1-12.41.71H767.44v42.85H747.76l-.18-108.89h33.28a67.87,67.87,0,0,1,18.84,2.32A39.79,39.79,0,0,1,813,111.11Zm-13.61,37.13q5-3.39,5.52-11.78-.37-9.27-4.6-13.21a25.45,25.45,0,0,0-8-3.57,43.14,43.14,0,0,0-11.67-1.43H767.44v34.1h18.75a26.27,26.27,0,0,0,6.89-1A19.73,19.73,0,0,0,799.61,148.24Z" fill="#231f20"/><path d="M1010.5,211.26H921.32l-.18-108.89h85.31v15.88H941v27.14h59.75v15.89H941v34.09h69.5Z" fill="#231f20"/><rect x="39.25" y="149.72" width="57.37" height="15.72" fill="#231f20"/><path d="M571.83,363.46c-.44.22-1,.49-1.75.79s-1.55.62-2.46.92a20.69,20.69,0,0,1-3,.75,18.57,18.57,0,0,1-3.38.29A11.11,11.11,0,0,1,554.3,364q-2.92-2.21-2.92-6.89v-29.3h-5.94V322h5.94V307.51h7.34V322h9.77v5.77h-9.77v27.05a4.57,4.57,0,0,0,1.59,3.51,5.37,5.37,0,0,0,3.34,1.08,10.79,10.79,0,0,0,4-.71,18.71,18.71,0,0,0,2.46-1.12Z" fill="#d3d4d6"/><path d="M612.91,328.47a19,19,0,0,0-9.72,2.84,14.49,14.49,0,0,0-6,7.43v26.89h-7.35V322h6.84v10.11a22.32,22.32,0,0,1,5.93-7.48,12.33,12.33,0,0,1,7.85-3h1.42a5.62,5.62,0,0,1,1,.08Z" fill="#d3d4d6"/><path d="M642.81,366.47a16.71,16.71,0,0,1-6-1.05,14.77,14.77,0,0,1-4.76-2.84,12.82,12.82,0,0,1-3.14-4.25,12.47,12.47,0,0,1-1.12-5.22,11.86,11.86,0,0,1,1.34-5.64,12.47,12.47,0,0,1,3.8-4.34,18.05,18.05,0,0,1,5.84-2.76,27,27,0,0,1,7.39-1,36.36,36.36,0,0,1,6.43.59,29.56,29.56,0,0,1,5.76,1.58v-3.5c0-3.57-1-6.36-3-8.4s-4.84-3-8.52-3q-6.59,0-13.85,5.09L630.54,327a36.33,36.33,0,0,1,8.43-4.26,27,27,0,0,1,8.68-1.42q8.36,0,13.19,4.59t4.85,12.95v17.78c0,1.73.78,2.62,2.34,2.68v6.34c-.56.11-1.09.2-1.59.25A11.81,11.81,0,0,1,665,366a7.12,7.12,0,0,1-3.59-1,4,4,0,0,1-1.92-3.42l-.17-3.09a18.37,18.37,0,0,1-3.42,3.51,20.76,20.76,0,0,1-4.09,2.5,21.37,21.37,0,0,1-4.47,1.5A21,21,0,0,1,642.81,366.47Zm1.84-5.51a16.54,16.54,0,0,0,6.84-1.51,15.14,15.14,0,0,0,5.26-3.67,5.45,5.45,0,0,0,1.59-3.43v-6.42a30.84,30.84,0,0,0-5.47-1.55,30.11,30.11,0,0,0-5.55-.54q-5.69,0-9.1,2.29a7.22,7.22,0,0,0-3.43,6.31,7.93,7.93,0,0,0,.67,3.21,8.21,8.21,0,0,0,1.92,2.72,9.68,9.68,0,0,0,3.09,1.88A11.63,11.63,0,0,0,644.65,361Z" fill="#d3d4d6"/><path d="M700.26,365.63,683.05,322h7.6l13.78,37.16L718.29,322h7l-17.19,43.59Z" fill="#d3d4d6"/><path d="M763.38,366.47a22.18,22.18,0,0,1-9-1.8,21.44,21.44,0,0,1-7-4.88,22.14,22.14,0,0,1-4.55-7.23,24.06,24.06,0,0,1,0-17.41,22.11,22.11,0,0,1,4.59-7.18,21.71,21.71,0,0,1,7.06-4.88,22.12,22.12,0,0,1,9-1.8A21.41,21.41,0,0,1,779.33,328a21.91,21.91,0,0,1,4.39,7.1,23.35,23.35,0,0,1,1.54,8.39c0,.62,0,1.17,0,1.67a8.39,8.39,0,0,1-.13,1.17H748.94a16.65,16.65,0,0,0,1.5,5.93,15.28,15.28,0,0,0,3.26,4.59,14.91,14.91,0,0,0,4.55,3,13.65,13.65,0,0,0,5.38,1.09,14.08,14.08,0,0,0,3.93-.55,17.21,17.21,0,0,0,3.59-1.46,12.38,12.38,0,0,0,3-2.25,9,9,0,0,0,2-3l6.35,1.75a16,16,0,0,1-3,4.43,19.67,19.67,0,0,1-4.35,3.46,22.3,22.3,0,0,1-5.46,2.3A23.25,23.25,0,0,1,763.38,366.47Zm15-25.56a15.72,15.72,0,0,0-1.55-5.72,15.32,15.32,0,0,0-3.25-4.46A14.9,14.9,0,0,0,758,327.85a14.19,14.19,0,0,0-4.55,2.92,14.73,14.73,0,0,0-3.17,4.47,16.4,16.4,0,0,0-1.46,5.67Z" fill="#d3d4d6"/><path d="M805.13,304.68h7.35v49.68a5.35,5.35,0,0,0,1.29,3.8,4.76,4.76,0,0,0,3.63,1.38,9.56,9.56,0,0,0,2.18-.3,16.75,16.75,0,0,0,2.33-.71l1.17,5.93a23.57,23.57,0,0,1-4.34,1.25,22.37,22.37,0,0,1-4.42.5,9.16,9.16,0,0,1-6.73-2.42,9.05,9.05,0,0,1-2.46-6.76Z" fill="#d3d4d6"/><path d="M840.2,304.68h7.35v49.68a5.35,5.35,0,0,0,1.29,3.8,4.76,4.76,0,0,0,3.64,1.38,9.56,9.56,0,0,0,2.17-.3,17.32,17.32,0,0,0,2.34-.71l1.16,5.93a23.57,23.57,0,0,1-4.34,1.25,22.37,22.37,0,0,1-4.42.5,9.18,9.18,0,0,1-6.73-2.42A9.05,9.05,0,0,1,840.2,357Z" fill="#d3d4d6"/><path d="M894.56,366.47a22.15,22.15,0,0,1-9-1.8,21.23,21.23,0,0,1-7-4.88,22.14,22.14,0,0,1-4.55-7.23,24.06,24.06,0,0,1,0-17.41,21.94,21.94,0,0,1,4.59-7.18,21.6,21.6,0,0,1,7.06-4.88,22.1,22.1,0,0,1,9-1.8A21.41,21.41,0,0,1,910.51,328a21.71,21.71,0,0,1,4.38,7.1,23.36,23.36,0,0,1,1.55,8.39c0,.62,0,1.17-.05,1.67a8.66,8.66,0,0,1-.12,1.17H880.11a16.87,16.87,0,0,0,1.51,5.93,15.25,15.25,0,0,0,3.25,4.59,15,15,0,0,0,4.56,3,13.61,13.61,0,0,0,5.38,1.09,14.13,14.13,0,0,0,3.93-.55,17.12,17.12,0,0,0,3.58-1.46,12.24,12.24,0,0,0,3-2.25,9.2,9.2,0,0,0,2-3l6.35,1.75a16,16,0,0,1-3,4.43,19.39,19.39,0,0,1-4.34,3.46,22.37,22.37,0,0,1-5.47,2.3A23.13,23.13,0,0,1,894.56,366.47Zm15-25.56a15.72,15.72,0,0,0-1.55-5.72,15.17,15.17,0,0,0-3.26-4.46,14.28,14.28,0,0,0-4.54-2.88,15,15,0,0,0-11,0,14.19,14.19,0,0,0-4.55,2.92,14.73,14.73,0,0,0-3.17,4.47,16.18,16.18,0,0,0-1.46,5.67Z" fill="#d3d4d6"/><path d="M959.19,328.47a19,19,0,0,0-9.73,2.84,14.49,14.49,0,0,0-6,7.43v26.89h-7.35V322H943v10.11a22.19,22.19,0,0,1,5.93-7.48,12.31,12.31,0,0,1,7.85-3h1.42a5.78,5.78,0,0,1,1,.08Z" fill="#d3d4d6"/><path d="M993.17,366.47a34,34,0,0,1-10.35-1.63,25.57,25.57,0,0,1-8.77-4.72l3.18-4.93a31.08,31.08,0,0,0,7.68,4.39A22.67,22.67,0,0,0,993,361a13.43,13.43,0,0,0,7.56-1.88,6,6,0,0,0,2.79-5.3,4.8,4.8,0,0,0-.75-2.72,6.31,6.31,0,0,0-2.26-2,18.42,18.42,0,0,0-3.84-1.5c-1.56-.45-3.36-.92-5.42-1.42q-3.93-1-6.77-1.92a18.33,18.33,0,0,1-4.67-2.17,7.65,7.65,0,0,1-2.68-3,10.15,10.15,0,0,1-.83-4.34,12.66,12.66,0,0,1,1.29-5.8,12.32,12.32,0,0,1,3.55-4.26,16,16,0,0,1,5.3-2.59,23.48,23.48,0,0,1,6.56-.88,26.06,26.06,0,0,1,9.19,1.59,22.74,22.74,0,0,1,7.18,4.17l-3.34,4.43a18.59,18.59,0,0,0-6.18-3.63,20.86,20.86,0,0,0-7-1.21,12.78,12.78,0,0,0-6.8,1.71,5.92,5.92,0,0,0-2.8,5.47,5.23,5.23,0,0,0,.54,2.5,4.83,4.83,0,0,0,1.8,1.76,14.05,14.05,0,0,0,3.21,1.33c1.31.39,2.88.81,4.72,1.25,2.9.67,5.41,1.35,7.56,2a22.18,22.18,0,0,1,5.34,2.46,9.59,9.59,0,0,1,3.18,3.34,9.75,9.75,0,0,1,1,4.68,11.59,11.59,0,0,1-4.68,9.69Q1001.1,366.47,993.17,366.47Z" fill="#d3d4d6"/><rect x="609.23" y="130.13" width="1.58" height="9.48" transform="translate(-2.76 13.14) rotate(-1.23)" fill="#929497"/><polygon points="608.76 39.6 612.35 48.32 613.81 47.72 610.2 38.95 608.76 39.54 608.67 35.41 609.16 30.36 603.43 43.78 604.88 44.4 606.6 40.39 606.59 40.43 607.2 40.49 607.29 44.87 608.87 44.83 608.76 39.6" fill="#929497"/><rect x="609.63" y="149.08" width="1.58" height="9.48" transform="translate(-3.16 13.15) rotate(-1.23)" fill="#929497"/><rect x="608.01" y="73.28" width="1.58" height="9.48" transform="translate(-1.53 13.07) rotate(-1.23)" fill="#929497"/><rect x="608.41" y="92.23" width="1.58" height="9.48" transform="translate(-1.94 13.11) rotate(-1.23)" fill="#929497"/><rect x="608.82" y="111.18" width="1.58" height="9.48" transform="translate(-2.34 13.09) rotate(-1.23)" fill="#929497"/><rect x="624.9" y="73.96" width="1.58" height="9.48" transform="translate(17.06 243.77) rotate(-22.34)" fill="#929497"/><rect x="610.04" y="168.03" width="1.58" height="9.48" transform="translate(-3.56 13.13) rotate(-1.23)" fill="#929497"/><rect x="617.69" y="56.43" width="1.58" height="9.48" transform="translate(23.18 239.71) rotate(-22.34)" fill="#929497"/><rect x="610.45" y="186.98" width="1.58" height="9.48" transform="translate(-3.98 13.18) rotate(-1.23)" fill="#929497"/><rect x="607.6" y="54.33" width="1.58" height="9.48" transform="translate(-1.13 13.08) rotate(-1.23)" fill="#929497"/><rect x="599.4" y="72.73" width="9.48" height="1.58" transform="translate(471.97 667.59) rotate(-84.4)" fill="#929497"/><rect x="601.25" y="53.86" width="9.48" height="1.58" transform="translate(492.41 652.41) rotate(-84.4)" fill="#929497"/><rect x="556.56" y="143.51" width="9.48" height="1.58" transform="translate(207.89 603.63) rotate(-66.84)" fill="#929497"/><rect x="578.92" y="91.23" width="9.48" height="1.58" transform="translate(269.53 592.47) rotate(-66.84)" fill="#929497"/><rect x="549.11" y="160.94" width="9.48" height="1.58" transform="translate(187.35 607.35) rotate(-66.84)" fill="#929497"/><rect x="541.65" y="178.37" width="9.48" height="1.58" transform="translate(166.8 611.07) rotate(-66.84)" fill="#929497"/><rect x="586.37" y="73.8" width="9.48" height="1.58" transform="translate(290.08 588.74) rotate(-66.84)" fill="#929497"/><rect x="564.01" y="126.08" width="9.48" height="1.58" transform="translate(228.46 599.92) rotate(-66.85)" fill="#929497"/><rect x="597.56" y="91.59" width="9.48" height="1.58" transform="translate(451.53 682.78) rotate(-84.4)" fill="#929497"/><polygon points="592.45 200.93 590.88 200.78 590.02 209.6 590.17 209.61 588.95 209.61 588.95 211.16 598.25 211.16 598.25 209.61 591.6 209.61 592.45 200.93" fill="#929497"/><rect x="639.31" y="109.02" width="1.58" height="9.48" transform="matrix(0.92, -0.38, 0.38, 0.92, 4.81, 251.89)" fill="#929497"/><rect x="593.86" y="129.32" width="9.48" height="1.58" transform="translate(410.64 713.14) rotate(-84.4)" fill="#929497"/><rect x="595.71" y="110.46" width="9.48" height="1.58" transform="translate(431.09 697.96) rotate(-84.4)" fill="#929497"/><rect x="675.34" y="196.68" width="1.58" height="9.48" transform="translate(-25.81 272.12) rotate(-22.34)" fill="#929497"/><rect x="593.83" y="56.37" width="9.48" height="1.58" transform="translate(310.62 585.02) rotate(-66.84)" fill="#929497"/><rect x="632.1" y="91.49" width="1.58" height="9.48" transform="translate(10.94 247.87) rotate(-22.35)" fill="#929497"/><rect x="571.47" y="108.66" width="9.48" height="1.58" transform="translate(249.01 596.2) rotate(-66.85)" fill="#929497"/><rect x="592.01" y="148.19" width="9.48" height="1.58" transform="translate(390.2 728.32) rotate(-84.4)" fill="#929497"/><rect x="590.16" y="167.05" width="9.48" height="1.58" transform="translate(369.76 743.51) rotate(-84.4)" fill="#929497"/><rect x="588.32" y="185.92" width="9.48" height="1.58" transform="translate(349.32 758.69) rotate(-84.4)" fill="#929497"/><rect x="646.51" y="126.56" width="1.58" height="9.48" transform="translate(-1.32 255.9) rotate(-22.34)" fill="#929497"/><rect x="534.2" y="195.8" width="9.48" height="1.58" transform="translate(146.27 614.81) rotate(-66.85)" fill="#929497"/><rect x="668.13" y="179.15" width="1.58" height="9.48" transform="translate(-19.68 268.15) rotate(-22.35)" fill="#929497"/><rect x="660.92" y="161.62" width="1.58" height="9.48" transform="translate(-13.56 264.09) rotate(-22.35)" fill="#929497"/><rect x="653.72" y="144.09" width="1.58" height="9.48" transform="translate(-7.44 259.97) rotate(-22.34)" fill="#929497"/><rect x="665.55" width="9.3" height="1.55" fill="#929497"/><rect x="531.41" y="44.04" width="1.55" height="9.3" fill="#929497"/><rect x="531.41" y="62.63" width="1.55" height="9.3" fill="#929497"/><rect x="646.96" width="9.3" height="1.55" fill="#929497"/><rect x="531.41" y="81.23" width="1.55" height="9.3" fill="#929497"/><rect x="609.77" width="9.3" height="1.55" fill="#929497"/><rect x="628.37" width="9.3" height="1.55" fill="#929497"/><rect x="531.41" y="25.45" width="1.55" height="9.3" fill="#929497"/><rect x="531.41" y="174.19" width="1.55" height="9.3" fill="#929497"/><rect x="591.18" width="9.3" height="1.55" fill="#929497"/><rect x="531.41" y="137" width="1.55" height="9.3" fill="#929497"/><rect x="531.41" y="99.82" width="1.55" height="9.3" fill="#929497"/><rect x="531.41" y="155.6" width="1.55" height="9.3" fill="#929497"/><rect x="554" width="9.3" height="1.55" fill="#929497"/><rect x="572.59" width="9.3" height="1.55" fill="#929497"/><rect x="531.41" y="192.78" width="1.55" height="9.3" fill="#929497"/><rect x="535.4" width="9.3" height="1.55" fill="#929497"/><rect x="531.41" y="118.41" width="1.55" height="9.3" fill="#929497"/><rect x="746.22" y="161.04" width="1.55" height="9.3" fill="#929497"/><rect x="746.22" y="142.45" width="1.55" height="9.3" fill="#929497"/><rect x="746.22" y="105.26" width="1.55" height="9.3" fill="#929497"/><rect x="746.22" y="123.85" width="1.55" height="9.3" fill="#929497"/><rect x="746.22" y="179.63" width="1.55" height="9.3" fill="#929497"/><rect x="746.22" y="198.22" width="1.55" height="9.3" fill="#929497"/><rect x="746.22" y="12.3" width="1.55" height="9.3" fill="#929497"/><rect x="746.22" y="30.89" width="1.55" height="9.3" fill="#929497"/><rect x="737.7" y="209.61" width="9.3" height="1.55" fill="#929497"/><polygon points="739.92 0 739.92 1.55 746.22 1.55 746.22 3 747.77 3 747.77 0 739.92 0" fill="#929497"/><rect x="746.22" y="86.67" width="1.55" height="9.3" fill="#929497"/><rect x="746.22" y="68.08" width="1.55" height="9.3" fill="#929497"/><rect x="746.22" y="49.48" width="1.55" height="9.3" fill="#929497"/><rect x="533.18" y="209.61" width="9.3" height="1.55" fill="#929497"/><rect x="644.73" y="209.61" width="9.3" height="1.55" fill="#929497"/><rect x="607.55" y="209.61" width="9.3" height="1.55" fill="#929497"/><rect x="626.14" y="209.61" width="9.3" height="1.55" fill="#929497"/><rect x="570.36" y="209.61" width="9.3" height="1.55" fill="#929497"/><rect x="531.41" y="6.86" width="1.55" height="9.3" fill="#929497"/><rect x="551.77" y="209.61" width="9.3" height="1.55" fill="#929497"/><rect x="681.92" y="209.61" width="9.3" height="1.55" fill="#929497"/><rect x="702.74" width="9.3" height="1.55" fill="#929497"/><rect x="700.51" y="209.61" width="9.3" height="1.55" fill="#929497"/><rect x="719.1" y="209.61" width="9.3" height="1.55" fill="#929497"/><rect x="684.14" width="9.3" height="1.55" fill="#929497"/><rect x="721.33" width="9.3" height="1.55" fill="#929497"/><rect x="663.33" y="209.61" width="9.3" height="1.55" fill="#929497"/></g></g></svg>