<svg xmlns="http://www.w3.org/2000/svg" viewBox="0 0 394.72 514.56"><g id="b32a81d1-86d5-4067-8634-0349998b3656" data-name="Capa 2"><g id="f47dd964-bf73-42a8-8e5d-bb1a1450c573" data-name="Capa 1"><circle cx="197.36" cy="197.35" r="197.36" fill="#ec174c"/><path d="M111.59,300.64s22.55-10.41,60.71-20.82c47.48-12.95,91.92-19.95,91.92-19.95s-26.37,16.62-46,37.3-24.76,30.09-24.76,30.09-14.07-10.53-39.42-18.82A174,174,0,0,0,111.59,300.64Z" fill="#c30e3e"/><path d="M161.7,166.1c39.93,22.12,41.1,70.41,41.1,70.41,12.32-30.66,23.67-52.92,50.18-94.07,25.44-39.49,44.45-51,44.39-51C246.65,109.14,184.72,146.15,161.7,166.1Z" fill="#fff"/><path d="M296.49,91.5c-1.94.29-33.14,6.12-63.89,14.68-14.73,4.1-65.1,18-96.25,41.24-25.1,18.75-30.07,30.89-31.14,32.89,2.07-3.87,14.57-24.22,38.79-21.89C185.6,128.8,233.26,110.57,296.49,91.5Z" fill="#fff"/><path d="M139,164.78c-14.72.22-28.38,11.72-33,26-5.67,17.4.84,29.6,3.23,33.28C111.82,205,118.9,184.87,139,164.78Z" fill="#8a0025"/><ellipse cx="199.18" cy="488.67" rx="168.16" ry="25.89" fill="#9ea0a3" opacity="0"/><ellipse cx="199.18" cy="488.67" rx="163.95" ry="25.13" fill="#9ea0a3" opacity="0.02"/><ellipse cx="199.18" cy="488.67" rx="159.75" ry="24.38" fill="#9ea0a3" opacity="0.04"/><ellipse cx="199.18" cy="488.67" rx="155.54" ry="23.62" fill="#9ea0a3" opacity="0.06"/><ellipse cx="199.18" cy="488.67" rx="151.34" ry="22.86" fill="#9ea0a3" opacity="0.08"/><ellipse cx="199.18" cy="488.67" rx="147.13" ry="22.11" fill="#9ea0a3" opacity="0.1"/><ellipse cx="199.18" cy="488.67" rx="142.93" ry="21.35" fill="#9ea0a3" opacity="0.12"/><ellipse cx="199.18" cy="488.67" rx="138.73" ry="20.59" fill="#9ea0a3" opacity="0.14"/><ellipse cx="199.18" cy="488.67" rx="134.52" ry="19.84" fill="#9ea0a3" opacity="0.15"/><ellipse cx="199.18" cy="488.67" rx="130.32" ry="19.08" fill="#9ea0a3" opacity="0.17"/><ellipse cx="199.18" cy="488.67" rx="126.11" ry="18.32" fill="#9ea0a3" opacity="0.19"/><ellipse cx="199.18" cy="488.67" rx="121.91" ry="17.57" fill="#9ea0a3" opacity="0.21"/><ellipse cx="199.18" cy="488.67" rx="117.7" ry="16.81" fill="#9ea0a3" opacity="0.23"/><ellipse cx="199.18" cy="488.67" rx="113.5" ry="16.06" fill="#9ea0a3" opacity="0.25"/><ellipse cx="199.18" cy="488.67" rx="109.29" ry="15.3" fill="#9ea0a3" opacity="0.27"/><ellipse cx="199.18" cy="488.67" rx="105.09" ry="14.54" fill="#9ea0a3" opacity="0.29"/><ellipse cx="199.18" cy="488.67" rx="100.89" ry="13.79" fill="#9ea0a3" opacity="0.31"/><ellipse cx="199.18" cy="488.67" rx="96.68" ry="13.03" fill="#9ea0a3" opacity="0.33"/><ellipse cx="199.18" cy="488.67" rx="92.48" ry="12.27" fill="#9ea0a3" opacity="0.35"/><ellipse cx="199.18" cy="488.67" rx="88.27" ry="11.52" fill="#9ea0a3" opacity="0.37"/><ellipse cx="199.18" cy="488.67" rx="84.07" ry="10.76" fill="#9ea0a3" opacity="0.39"/><ellipse cx="199.18" cy="488.67" rx="79.86" ry="10" fill="#9ea0a3" opacity="0.41"/><ellipse cx="199.18" cy="488.67" rx="75.66" ry="9.25" fill="#9ea0a3" opacity="0.43"/><ellipse cx="199.18" cy="488.67" rx="71.45" ry="8.49" fill="#9ea0a3" opacity="0.45"/><ellipse cx="199.18" cy="488.67" rx="67.25" ry="7.73" fill="#9ea0a3" opacity="0.46"/><ellipse cx="199.18" cy="488.67" rx="63.05" ry="6.98" fill="#9ea0a3" opacity="0.48"/><ellipse cx="199.18" cy="488.67" rx="58.84" ry="6.22" fill="#9ea0a3" opacity="0.5"/><ellipse cx="199.18" cy="488.67" rx="54.64" ry="5.47" fill="#9ea0a3" opacity="0.52"/><ellipse cx="199.18" cy="488.67" rx="50.43" ry="4.71" fill="#9ea0a3" opacity="0.54"/><ellipse cx="199.18" cy="488.67" rx="46.23" ry="3.95" fill="#9ea0a3" opacity="0.56"/><ellipse cx="199.18" cy="488.67" rx="42.02" ry="3.2" fill="#9ea0a3" opacity="0.58"/><ellipse cx="199.18" cy="488.67" rx="37.82" ry="2.44" fill="#9ea0a3" opacity="0.6"/></g></g></svg>